<?xml version="1.0" encoding="utf-8"?>
<!-- Generator: Adobe Illustrator 22.1.0, SVG Export Plug-In . SVG Version: 6.00 Build 0)  -->
<svg version="1.1" id="Layer_1" xmlns="http://www.w3.org/2000/svg" xmlns:xlink="http://www.w3.org/1999/xlink" x="0px" y="0px"
	 viewBox="0 0 110.4 110.4" style="enable-background:new 0 0 110.4 110.4;" xml:space="preserve">
<style type="text/css">
	.st0{fill:url(#SVGID_1_);}
</style>
<g>
	<linearGradient id="SVGID_1_" gradientUnits="userSpaceOnUse" x1="0" y1="55.1997" x2="110.3995" y2="55.1997">
		<stop  offset="0%" style="stop-color:#5259bf"/>
		<stop  offset="100%" style="stop-color:#f25cc0"/>
	</linearGradient>
	<path class="st0" d="M55.2,0C24.8,0,0,24.8,0,55.2c0,30.4,24.8,55.2,55.2,55.2c30.4,0,55.2-24.8,55.2-55.2
		C110.4,24.8,85.6,0,55.2,0z M55.2,108C26.1,108,2.4,84.3,2.4,55.2c0-29.1,23.7-52.8,52.8-52.8c29.1,0,52.8,23.7,52.8,52.8
		C108,84.3,84.3,108,55.2,108z M31.7,72.6c0,0.7-0.5,1.2-1.2,1.2H15.4c-0.7,0-1.2-0.5-1.2-1.2c0-6.5,3.8-11,7.5-15.4
		c3.9-4.6,7.5-9,7.5-15.7c0-5.8-6.1-5.9-6.2-5.9c-1.4,0-5.9,0.5-5.9,6.7c0,0.7-0.5,1.2-1.2,1.2s-1.2-0.5-1.2-1.2
		c0-8.8,7.4-9.1,8.3-9.1c2.2,0,8.6,1.5,8.6,8.3c0,7.6-4.1,12.5-8.1,17.2c-3.3,3.9-6.4,7.7-6.9,12.6h13.9
		C31.2,71.4,31.7,71.9,31.7,72.6z M55.4,41.7v22.9c0,5.2-4.2,9.4-9.4,9.4c-0.7,0-1.2-0.5-1.2-1.2s0.5-1.2,1.2-1.2c3.9,0,7-3.1,7-7
		V41.7c0-3.9-3.1-7-7-7s-7,3.1-7,7v22.9c0,2.4,1.2,4.5,3.1,5.8c0.5,0.4,0.7,1.1,0.3,1.7c-0.4,0.6-1.1,0.7-1.7,0.3
		c-2.6-1.7-4.2-4.7-4.2-7.8V41.7c0-5.2,4.2-9.4,9.4-9.4C51.2,32.3,55.4,36.5,55.4,41.7z M77.6,41.7v22.9c0,5.2-4.2,9.4-9.4,9.4
		c-0.7,0-1.2-0.5-1.2-1.2s0.5-1.2,1.2-1.2c3.9,0,7-3.1,7-7V41.7c0-3.9-3.1-7-7-7s-7,3.1-7,7v22.9c0,2.4,1.2,4.5,3.1,5.8
		c0.5,0.4,0.7,1.1,0.3,1.7c-0.4,0.5-1.1,0.7-1.7,0.3c-2.6-1.7-4.2-4.7-4.2-7.8V41.7c0-5.2,4.2-9.4,9.4-9.4S77.6,36.5,77.6,41.7z
		 M102.7,53.5c0,0.7-0.5,1.2-1.2,1.2H94v7.6c0,0.7-0.5,1.2-1.2,1.2c-0.7,0-1.2-0.5-1.2-1.2v-7.6H84c-0.7,0-1.2-0.5-1.2-1.2
		c0-0.7,0.5-1.2,1.2-1.2h7.6v-7.6c0-0.7,0.5-1.2,1.2-1.2c0.7,0,1.2,0.5,1.2,1.2v7.6h7.6C102.2,52.3,102.7,52.8,102.7,53.5z"/>
</g>
</svg>
