<?xml version="1.0" standalone="no"?>
<!DOCTYPE svg PUBLIC "-//W3C//DTD SVG 1.1//EN" "http://www.w3.org/Graphics/SVG/1.1/DTD/svg11.dtd" >
<svg xmlns="http://www.w3.org/2000/svg" xmlns:xlink="http://www.w3.org/1999/xlink" version="1.1">
<metadata></metadata>
<defs>
<font id="ibm_plex_sanstext" horiz-adv-x="1228" >
<font-face units-per-em="2048" ascent="1597" descent="-451" />
<missing-glyph horiz-adv-x="483" />
<glyph unicode="fi" horiz-adv-x="1191" d="M55 899v162h170v196q0 120 63 189.5t185 69.5h166v-162h-223v-293h608v-1061h-190v899h-418v-899h-191v899h-170zM815 1386v29q0 48 28.5 76.5t86.5 28.5t86 -28.5t28 -76.5v-29q0 -48 -28 -76t-86 -28t-86.5 28t-28.5 76z" />
<glyph unicode=" "  horiz-adv-x="483" />
<glyph unicode="&#x09;" horiz-adv-x="483" />
<glyph unicode="&#xa0;" horiz-adv-x="483" />
<glyph unicode="!" horiz-adv-x="593" d="M162 102v31q0 58 33.5 92.5t101.5 34.5t101.5 -34.5t33.5 -92.5v-31q0 -58 -33.5 -92.5t-101.5 -34.5t-101.5 34.5t-33.5 92.5zM195 1018v412h204v-412l-57 -625h-90z" />
<glyph unicode="&#x22;" horiz-adv-x="884" d="M168 924v592h170v-592h-170zM547 924v592h170v-592h-170z" />
<glyph unicode="#" horiz-adv-x="1429" d="M109 408v135h276l57 344h-252v135h277l70 408h143l-70 -408h316l69 408h144l-70 -408h252v-135h-277l-57 -344h252v-135h-276l-70 -408h-143l69 408h-315l-70 -408h-143l69 408h-251zM528 543h316l57 344h-315z" />
<glyph unicode="$" horiz-adv-x="1226" d="M98 242l133 120q132 -170 320 -196v496q-214 47 -312 140.5t-98 250.5q0 159 109 256t295 116v172h147v-170q262 -26 408 -223l-135 -108q-108 141 -279 168v-453q227 -51 326.5 -143t99.5 -252q0 -170 -111.5 -279t-308.5 -131v-174h-147v172q-277 19 -447 238z M326 1063q0 -92 52.5 -140.5t172.5 -82.5v424q-106 -14 -165.5 -65.5t-59.5 -135.5zM686 166q113 17 177.5 79.5t64.5 157.5q0 93 -55.5 146.5t-186.5 85.5v-469z" />
<glyph unicode="%" horiz-adv-x="1921" d="M127 1049q0 196 87 300.5t247 104.5t247 -104.5t87 -300.5t-87 -301t-247 -105t-247 105t-87 301zM297 989q0 -225 164 -225t164 225v119q0 225 -164 225t-164 -225v-119zM375 0l991 1430h180l-991 -1430h-180zM1126 381q0 196 87 300.5t247 104.5t247 -104.5t87 -300.5 t-87 -301t-247 -105t-247 105t-87 301zM1296 322q0 -226 164 -226t164 226v118q0 226 -164 226t-164 -226v-118z" />
<glyph unicode="&#x26;" horiz-adv-x="1431" d="M139 371q0 76 23 139t67.5 111.5t90.5 82.5t110 70q-160 170 -160 336q0 148 105.5 246t275.5 98q158 0 257.5 -85.5t99.5 -225.5q0 -67 -24 -125t-71.5 -106t-99 -84.5t-125.5 -77.5l303 -326q56 147 66 334h291v-160h-142q-30 -169 -98 -299l281 -299h-244l-144 158 q-160 -183 -415 -183q-210 0 -328.5 112t-118.5 284zM336 371q0 -106 73 -169t197 -63q176 0 291 131l-369 396q-93 -50 -142.5 -109.5t-49.5 -157.5v-28zM455 1100q0 -55 33.5 -112t101.5 -132q107 60 171 122.5t64 135.5v23q0 74 -52.5 117.5t-129.5 43.5 q-82 0 -135 -50.5t-53 -127.5v-20z" />
<glyph unicode="'" horiz-adv-x="505" d="M168 924v592h170v-592h-170z" />
<glyph unicode="(" horiz-adv-x="692" d="M152 639q0 287 104.5 534.5t263.5 382.5h185q-166 -148 -270.5 -379t-104.5 -454v-168q0 -223 104.5 -454.5t270.5 -379.5h-185q-159 135 -263.5 383t-104.5 535z" />
<glyph unicode=")" horiz-adv-x="692" d="M-12 -279q166 148 270 379t104 455v168q0 224 -104 454.5t-270 378.5h184q160 -135 264.5 -382.5t104.5 -534.5t-104.5 -535t-264.5 -383h-184z" />
<glyph unicode="*" horiz-adv-x="980" d="M72 1169l53 156l297 -113l-14 318h165l-12 -318l297 113l51 -156l-307 -86l201 -252l-133 -94l-178 267l-179 -269l-135 96l201 252z" />
<glyph unicode="+" d="M137 545v160h389v417h176v-417h390v-160h-390v-418h-176v418h-389z" />
<glyph unicode="," horiz-adv-x="571" d="M80 -274q67 68 105.5 127.5t56.5 128.5q-90 18 -90 118v31q0 60 33.5 94.5t101.5 34.5t101.5 -34.5t33.5 -94.5v-31q0 -93 -52 -197t-141 -177h-149z" />
<glyph unicode="-" horiz-adv-x="819" d="M135 524v199h549v-199h-549z" />
<glyph unicode="." horiz-adv-x="569" d="M150 102v31q0 58 33.5 92.5t101.5 34.5t101.5 -34.5t33.5 -92.5v-31q0 -58 -33.5 -92.5t-101.5 -34.5t-101.5 34.5t-33.5 92.5z" />
<glyph unicode="/" horiz-adv-x="817" d="M18 -309l551 1825h168l-551 -1825h-168z" />
<glyph unicode="0" d="M111 715q0 359 124 549t379 190q256 0 380 -190t124 -549t-124 -549.5t-380 -190.5q-255 0 -379 190.5t-124 549.5zM319 594q0 -209 71 -326.5t224 -117.5t224 117.5t71 326.5v242q0 209 -71 326.5t-224 117.5t-224 -117.5t-71 -326.5v-242z" />
<glyph unicode="1" d="M88 1057l371 373h307v-1254h358v-176h-948v176h391v1108h-14l-346 -344z" />
<glyph unicode="2" d="M131 1112q23 70 59 127.5t91.5 108t137.5 78.5t183 28q210 0 330.5 -115.5t120.5 -302.5q0 -82 -23.5 -156t-72.5 -141.5t-101.5 -122.5t-132.5 -124l-354 -316h729v-176h-951v197l461 419q232 209 232 392v24q0 112 -66 178t-184 66q-217 0 -283 -232z" />
<glyph unicode="3" d="M76 225l149 113q58 -94 132.5 -142.5t193.5 -48.5q141 0 216 64.5t75 183.5v19q0 119 -75 183.5t-216 64.5h-166v169h152q133 0 204.5 61.5t71.5 160.5v14q0 103 -66 159t-178 56q-197 0 -295 -176l-139 113q155 235 438 235q197 0 323 -97.5t126 -266.5 q0 -132 -76.5 -217t-197.5 -115v-8q129 -25 215 -116.5t86 -240.5q0 -186 -137 -302t-359 -116q-92 0 -168.5 20.5t-133.5 58t-97 78t-78 93.5z" />
<glyph unicode="4" d="M74 279v174l592 977h276v-990h201v-161h-201v-279h-188v279h-680zM252 440h502v822h-13z" />
<glyph unicode="5" d="M145 225l148 113q41 -64 76 -101.5t95 -63.5t140 -26q138 0 211.5 73.5t73.5 209.5v21q0 135 -73.5 208.5t-211.5 73.5q-86 0 -141 -31t-107 -86l-166 23l52 791h788v-175h-633l-39 -526h17q55 85 120.5 127.5t174.5 42.5q189 0 308.5 -119.5t119.5 -324.5 q0 -215 -132.5 -347.5t-361.5 -132.5q-88 0 -162 20.5t-129 58t-93.5 78t-74.5 93.5z" />
<glyph unicode="6" d="M125 528q0 150 46.5 294.5t123 258t162.5 200.5t178 149h260q-167 -121 -271.5 -222.5t-180 -229.5t-111.5 -286l10 -4q55 97 136 152t204 55q186 0 304 -120t118 -320q0 -213 -134.5 -346.5t-353.5 -133.5q-229 0 -360 148t-131 405zM330 428q0 -137 75 -212t209 -75 t209.5 75t75.5 212v18q0 137 -75.5 212t-209.5 75t-209 -75t-75 -212v-18z" />
<glyph unicode="7" d="M135 997v433h952v-175l-522 -1255h-211l535 1262h-580v-265h-174z" />
<glyph unicode="8" d="M113 389q0 140 75.5 227.5t210.5 124.5v17q-113 39 -178 126t-65 208q0 165 121.5 263.5t336.5 98.5t337 -98.5t122 -263.5q0 -121 -65.5 -208t-178.5 -126v-17q135 -37 211 -124.5t76 -227.5q0 -183 -131.5 -298.5t-370.5 -115.5t-370 115t-131 299zM322 383 q0 -114 76.5 -178t215.5 -64t216 64t77 178v43q0 114 -77 178t-216 64t-215.5 -64t-76.5 -178v-43zM354 1042q0 -104 67 -159.5t193 -55.5t193 55.5t67 159.5v31q0 104 -67 159.5t-193 55.5t-193 -55.5t-67 -159.5v-31z" />
<glyph unicode="9" d="M125 975q0 213 134 346t353 133q229 0 360.5 -148t131.5 -405q0 -121 -31 -239.5t-81.5 -215t-118.5 -183.5t-137 -151t-142 -112h-260q167 121 271.5 222t180 229t111.5 286l-10 4q-118 -206 -340 -206q-186 0 -304 120t-118 320zM330 983q0 -137 75 -212t209 -75 t209.5 75t75.5 212v18q0 137 -75.5 212t-209.5 75t-209 -75t-75 -212v-18z" />
<glyph unicode=":" horiz-adv-x="610" d="M170 102v31q0 58 33.5 92.5t101.5 34.5t101.5 -34.5t33.5 -92.5v-31q0 -58 -33.5 -92.5t-101.5 -34.5t-101.5 34.5t-33.5 92.5zM170 920v30q0 58 33.5 92.5t101.5 34.5t101.5 -34.5t33.5 -92.5v-30q0 -58 -33.5 -92.5t-101.5 -34.5t-101.5 34.5t-33.5 92.5z" />
<glyph unicode=";" horiz-adv-x="612" d="M100 -274q67 68 105.5 127.5t56.5 128.5q-90 18 -90 118v31q0 60 33.5 94.5t101.5 34.5t101.5 -34.5t33.5 -94.5v-31q0 -93 -52 -197t-140 -177h-150zM170 920v30q0 58 33.5 92.5t101.5 34.5t101.5 -34.5t33.5 -92.5v-30q0 -58 -33.5 -92.5t-101.5 -34.5t-101.5 34.5 t-33.5 92.5z" />
<glyph unicode="&#x3c;" d="M188 492v167l852 515v-197l-665 -393v-17l665 -389v-196z" />
<glyph unicode="=" d="M137 336v160h955v-160h-955zM137 758v160h955v-160h-955z" />
<glyph unicode="&#x3e;" d="M188 -18v196l666 389v17l-666 393v197l852 -515v-167z" />
<glyph unicode="?" horiz-adv-x="985" d="M43 1122q20 68 55.5 125.5t88.5 105t130.5 74.5t171.5 27q193 0 308.5 -107t115.5 -286q0 -92 -32 -167.5t-86.5 -125t-118 -80.5t-135.5 -45v-207h-183v332q168 6 260.5 75.5t92.5 194.5v29q0 99 -63 158t-165 59q-106 0 -175 -62t-95 -165zM311 102v31q0 58 33.5 92.5 t101.5 34.5t102 -34.5t34 -92.5v-31q0 -58 -34 -92.5t-102 -34.5t-101.5 34.5t-33.5 92.5z" />
<glyph unicode="@" horiz-adv-x="1828" d="M131 592q0 251 99 446t282.5 303.5t423.5 108.5q123 0 233.5 -28.5t208.5 -90.5t169 -152t112 -221.5t41 -291.5q0 -112 -21.5 -205t-64.5 -165t-113.5 -112.5t-163.5 -40.5q-96 0 -151.5 49.5t-63.5 131.5h-8q-80 -181 -252 -181q-150 0 -249 116t-99 333t99 333.5 t249 116.5q167 0 230 -161h8v143h157v-614q0 -72 26 -100.5t83 -28.5q90 0 139 94.5t49 263.5v86q0 176 -81.5 312t-222 208t-316.5 72q-191 0 -341 -87t-232 -238.5t-82 -338.5v-112q0 -190 80 -338.5t227 -232t338 -83.5h465v-135h-467q-238 0 -417.5 104t-276.5 294.5 t-97 441.5zM698 512q0 -104 52 -163.5t151 -59.5q97 0 148 48.5t51 135.5v250q0 77 -51.5 125.5t-147.5 48.5q-99 0 -151 -60.5t-52 -164.5v-160z" />
<glyph unicode="A" horiz-adv-x="1329" d="M45 0l496 1430h250l493 -1430h-209l-135 403h-557l-137 -403h-201zM430 580h461l-225 667h-11z" />
<glyph unicode="B" horiz-adv-x="1345" d="M184 0v1430h609q176 0 279.5 -100.5t103.5 -268.5q0 -61 -15.5 -111.5t-39.5 -83.5t-57 -57t-65 -35.5t-65 -15.5v-13q45 -2 92 -21.5t93.5 -56.5t76 -103.5t29.5 -151.5q0 -175 -106.5 -293.5t-264.5 -118.5h-670zM383 172h412q103 0 160 52t57 151v71q0 99 -57 151 t-160 52h-412v-477zM383 817h379q94 0 147.5 49t53.5 138v67q0 89 -53.5 137.5t-147.5 48.5h-379v-440z" />
<glyph unicode="C" horiz-adv-x="1284" d="M115 715q0 355 155.5 547t431.5 192q358 0 500 -317l-164 -95q-41 110 -126 172t-210 62q-174 0 -274 -121.5t-100 -331.5v-217q0 -210 100 -331t274 -121q128 0 218 66.5t131 180.5l159 -96q-70 -157 -200 -243.5t-308 -86.5q-276 0 -431.5 192.5t-155.5 547.5z" />
<glyph unicode="D" horiz-adv-x="1384" d="M184 0v1430h490q278 0 437 -182.5t159 -532.5t-159 -532.5t-437 -182.5h-490zM383 176h291q174 0 278.5 112t104.5 312v229q0 200 -104.5 312t-278.5 112h-291v-1077z" />
<glyph unicode="E" horiz-adv-x="1204" d="M184 0v1430h891v-177h-692v-442h641v-176h-641v-459h692v-176h-891z" />
<glyph unicode="F" horiz-adv-x="1155" d="M184 0v1430h871v-177h-672v-442h606v-176h-606v-635h-199z" />
<glyph unicode="G" horiz-adv-x="1431" d="M115 713q0 352 166.5 546.5t449.5 194.5q185 0 318.5 -83.5t207.5 -233.5l-163 -97q-47 110 -140.5 173t-222.5 63q-183 0 -293 -120.5t-110 -324.5v-231q0 -206 111.5 -326t303.5 -120q151 0 250 75.5t99 216.5v129h-306v173h498v-748h-178v213h-8 q-24 -105 -128.5 -171.5t-262.5 -66.5q-130 0 -238.5 48.5t-187 140.5t-122.5 232.5t-44 316.5z" />
<glyph unicode="H" horiz-adv-x="1454" d="M184 0v1430h199v-619h688v619h199v-1430h-199v635h-688v-635h-199z" />
<glyph unicode="I" horiz-adv-x="833" d="M119 0v168h198v1094h-198v168h596v-168h-199v-1094h199v-168h-596z" />
<glyph unicode="J" horiz-adv-x="1062" d="M55 315l183 41q44 -202 233 -202q104 0 161.5 63.5t57.5 188.5v847h-479v177h678v-1051q0 -184 -115.5 -294t-304.5 -110q-170 0 -276 91.5t-138 248.5z" />
<glyph unicode="K" horiz-adv-x="1323" d="M184 0v1430h199v-746h8l203 254l412 492h237l-522 -609l561 -821h-244l-456 688l-199 -225v-463h-199z" />
<glyph unicode="L" horiz-adv-x="1038" d="M184 0v1430h199v-1254h596v-176h-795z" />
<glyph unicode="M" horiz-adv-x="1662" d="M184 0v1430h250l397 -752h9l397 752h242v-1430h-193v1155h-10l-117 -235l-328 -601l-327 601l-117 235h-10v-1155h-193z" />
<glyph unicode="N" horiz-adv-x="1454" d="M184 0v1430h222l468 -783l197 -358h6v1141h193v-1430h-221l-469 782l-197 359h-6v-1141h-193z" />
<glyph unicode="O" horiz-adv-x="1449" d="M115 715q0 355 163.5 547t446.5 192t446.5 -192t163.5 -547t-163.5 -547.5t-446.5 -192.5t-446.5 192.5t-163.5 547.5zM328 598q0 -203 109 -323.5t288 -120.5t288 120.5t109 323.5v233q0 203 -109 324t-288 121t-288 -121t-109 -324v-233z" />
<glyph unicode="P" horiz-adv-x="1261" d="M184 0v1430h590q191 0 298.5 -113.5t107.5 -306.5t-107.5 -306.5t-298.5 -113.5h-391v-590h-199zM383 766h383q96 0 149.5 50t53.5 142v103q0 92 -53.5 142t-149.5 50h-383v-487z" />
<glyph unicode="Q" horiz-adv-x="1449" d="M115 715q0 355 163.5 547t446.5 192t446.5 -192t163.5 -547q0 -320 -134 -508.5t-372 -222.5v-164h224v-164h-207q-98 0 -149.5 52t-51.5 142v130q-249 27 -389.5 216.5t-140.5 518.5zM328 598q0 -203 109 -323.5t288 -120.5t288 120.5t109 323.5v233q0 203 -109 324 t-288 121t-288 -121t-109 -324v-233z" />
<glyph unicode="R" horiz-adv-x="1325" d="M184 0v1430h590q189 0 297.5 -112t108.5 -308q0 -156 -72 -258.5t-209 -137.5l318 -614h-224l-297 594h-313v-594h-199zM383 766h383q96 0 149.5 50t53.5 142v103q0 92 -53.5 142t-149.5 50h-383v-487z" />
<glyph unicode="S" horiz-adv-x="1204" d="M84 221l141 127q153 -198 379 -198q144 0 221.5 67.5t77.5 183.5q0 94 -56.5 147.5t-189.5 82.5l-120 24q-205 42 -307.5 139t-102.5 261q0 188 131 293.5t354 105.5q310 0 478 -227l-146 -117q-124 170 -342 170q-132 0 -205 -56t-73 -161q0 -93 59 -142.5t190 -78.5 l121 -25q211 -46 308.5 -143.5t97.5 -261.5q0 -200 -134 -318.5t-370 -118.5q-326 0 -512 246z" />
<glyph unicode="T" horiz-adv-x="1177" d="M47 1253v177h1083v-177h-442v-1253h-199v1253h-442z" />
<glyph unicode="U" horiz-adv-x="1396" d="M174 586v844h199v-883q0 -201 74.5 -297t250.5 -96q177 0 251.5 96t74.5 297v883h199v-844q0 -319 -122.5 -465t-408.5 -146q-145 0 -244 36t-160 113.5t-87.5 189t-26.5 272.5z" />
<glyph unicode="V" horiz-adv-x="1263" d="M39 1430h209l231 -715l150 -520h10l152 520l231 715h203l-477 -1430h-236z" />
<glyph unicode="W" horiz-adv-x="1857" d="M45 1430h205l151 -689l111 -508h4l125 508l176 689h223l172 -689l125 -505h6l113 505l158 689h198l-360 -1430h-221l-187 725l-118 483h-4l-123 -483l-189 -725h-223z" />
<glyph unicode="X" horiz-adv-x="1277" d="M45 0l467 731l-453 699h238l342 -553h6l350 553h224l-455 -697l469 -733h-238l-360 586h-6l-361 -586h-223z" />
<glyph unicode="Y" horiz-adv-x="1234" d="M25 1430h227l366 -666h7l364 666h221l-495 -861v-569h-199v563z" />
<glyph unicode="Z" horiz-adv-x="1200" d="M76 0v178l798 1075h-757v177h981v-179l-803 -1075h829v-176h-1048z" />
<glyph unicode="[" horiz-adv-x="655" d="M184 -283v1839h353v-145h-185v-1548h185v-146h-353z" />
<glyph unicode="\" horiz-adv-x="817" d="M80 1516h168l551 -1825h-168z" />
<glyph unicode="]" horiz-adv-x="655" d="M119 -137h184v1548h-184v145h352v-1839h-352v146z" />
<glyph unicode="^" d="M98 674l422 756h189l421 -756l-145 -76l-367 645h-8l-366 -645z" />
<glyph unicode="_" horiz-adv-x="1153" d="M61 -184h1031v-164h-1031v164z" />
<glyph unicode="`" d="M369 1528l168 82l180 -359l-121 -55z" />
<glyph unicode="a" horiz-adv-x="1107" d="M86 293q0 155 113.5 235t339.5 80h200v97q0 221 -235 221q-167 0 -260 -152l-115 105q51 93 148 149.5t237 56.5q198 0 307 -96t109 -268v-559h119v-162h-109q-84 0 -129.5 47.5t-56.5 128.5h-11q-32 -97 -112 -149t-195 -52q-165 0 -257.5 85.5t-92.5 232.5zM285 283 q0 -73 52 -113.5t142 -40.5q113 0 186.5 51.5t73.5 130.5v164h-202q-252 0 -252 -151v-41z" />
<glyph unicode="b" horiz-adv-x="1198" d="M168 0v1516h190v-629h9q36 97 115.5 147.5t189.5 50.5q199 0 312.5 -148.5t113.5 -406.5t-113.5 -406.5t-312.5 -148.5q-110 0 -189.5 51t-115.5 148h-9v-174h-190zM358 336q0 -84 75 -139.5t183 -55.5q127 0 203 82.5t76 216.5v181q0 134 -76 216.5t-203 82.5 q-108 0 -183 -55.5t-75 -139.5v-389z" />
<glyph unicode="c" horiz-adv-x="1034" d="M92 530q0 257 126 406t351 149q151 0 252.5 -67.5t149.5 -186.5l-158 -77q-27 79 -90 123.5t-154 44.5q-133 0 -203.5 -82t-70.5 -217v-185q0 -135 70.5 -217t203.5 -82q188 0 271 180l139 -86q-52 -123 -156.5 -190.5t-253.5 -67.5q-225 0 -351 149t-126 406z" />
<glyph unicode="d" horiz-adv-x="1198" d="M100 530q0 258 113.5 406.5t312.5 148.5q110 0 189.5 -50.5t115.5 -147.5h9v629h190v-1516h-190v174h-9q-36 -97 -115.5 -148t-189.5 -51q-199 0 -312.5 148.5t-113.5 406.5zM303 440q0 -134 76 -216.5t203 -82.5q108 0 183 55.5t75 139.5v389q0 84 -75 139.5t-183 55.5 q-127 0 -203 -82.5t-76 -216.5v-181z" />
<glyph unicode="e" horiz-adv-x="1130" d="M92 530q0 253 130 404t351 151q217 0 341 -146.5t124 -375.5v-80h-747v-43q0 -135 79.5 -219t219.5 -84q197 0 287 172l122 -104q-57 -105 -168.5 -167.5t-257.5 -62.5q-221 0 -351 151t-130 404zM291 616h545v21q0 133 -72 214t-191 81q-124 0 -203 -85t-79 -216v-15z " />
<glyph unicode="f" horiz-adv-x="677" d="M55 899v162h170v196q0 120 63 189.5t185 69.5h166v-162h-223v-293h223v-162h-223v-899h-191v899h-170z" />
<glyph unicode="g" horiz-adv-x="1091" d="M80 -176q0 162 174 205v22q-104 41 -104 156q0 140 184 184v8q-94 44 -145.5 128.5t-51.5 193.5q0 163 111 263.5t299 100.5q107 0 196 -36v22q0 69 32 107.5t97 38.5h162v-160h-209v-58q133 -97 133 -278q0 -163 -110.5 -263t-300.5 -100q-62 0 -119 13 q-52 -15 -86.5 -43.5t-34.5 -69.5q0 -44 39.5 -62t116.5 -18h242q374 0 374 -287q0 -165 -129 -245t-397 -80q-247 0 -360 65.5t-113 192.5zM250 -131q0 -71 55.5 -114.5t173.5 -43.5h144q278 0 278 162q0 64 -48.5 97.5t-160.5 33.5h-356q-86 -45 -86 -135zM330 694 q0 -95 57.5 -143.5t161.5 -48.5t161.5 48.5t57.5 143.5v54q0 95 -57.5 143.5t-161.5 48.5t-161.5 -48.5t-57.5 -143.5v-54z" />
<glyph unicode="h" horiz-adv-x="1173" d="M168 0v1516h190v-629h11q83 198 299 198q164 0 257 -107.5t93 -299.5v-678h-191v649q0 271 -223 271q-101 0 -173.5 -50.5t-72.5 -142.5v-727h-190z" />
<glyph unicode="i" horiz-adv-x="526" d="M150 1386v29q0 48 28 76.5t86 28.5t86.5 -28.5t28.5 -76.5v-29q0 -48 -28.5 -76t-86.5 -28t-86 28t-28 76zM168 0v1061h190v-1061h-190z" />
<glyph unicode="j" horiz-adv-x="526" d="M-2 -248h170v1309h190v-1215q0 -121 -60.5 -188.5t-182.5 -67.5h-117v162zM150 1386v29q0 48 28 76.5t86 28.5t86.5 -28.5t28.5 -76.5v-29q0 -48 -28.5 -76t-86.5 -28t-86 28t-28 76z" />
<glyph unicode="k" horiz-adv-x="1099" d="M168 0v1516h190v-945h11l151 187l277 303h225l-377 -410l426 -651h-229l-332 528l-152 -161v-367h-190z" />
<glyph unicode="l" horiz-adv-x="569" d="M168 195v1321h190v-1354h152v-162h-143q-96 0 -147.5 52.5t-51.5 142.5z" />
<glyph unicode="m" horiz-adv-x="1796" d="M168 0v1061h190v-174h11q36 88 109 143t173 55q111 0 196.5 -53.5t125.5 -161.5h4q32 94 114.5 154.5t208.5 60.5q160 0 250 -107t90 -300v-678h-190v649q0 271 -215 271q-99 0 -167.5 -50.5t-68.5 -142.5v-727h-190v649q0 271 -213 271q-98 0 -168 -50.5t-70 -142.5 v-727h-190z" />
<glyph unicode="n" horiz-adv-x="1173" d="M168 0v1061h190v-174h11q83 198 299 198q164 0 257 -107.5t93 -299.5v-678h-191v649q0 271 -223 271q-101 0 -173.5 -50.5t-72.5 -142.5v-727h-190z" />
<glyph unicode="o" horiz-adv-x="1150" d="M92 530q0 252 132.5 403.5t350.5 151.5t351 -151.5t133 -403.5t-133 -403.5t-351 -151.5t-350.5 151.5t-132.5 403.5zM295 451q0 -151 76 -231.5t204 -80.5t204.5 80.5t76.5 231.5v159q0 151 -76.5 231.5t-204.5 80.5t-204 -80.5t-76 -231.5v-159z" />
<glyph unicode="p" horiz-adv-x="1198" d="M168 -410v1471h190v-174h9q36 97 115.5 147.5t189.5 50.5q199 0 312.5 -148.5t113.5 -406.5t-113.5 -406.5t-312.5 -148.5q-110 0 -189.5 51t-115.5 148h-9v-584h-190zM358 336q0 -84 75 -139.5t183 -55.5q127 0 203 82.5t76 216.5v181q0 134 -76 216.5t-203 82.5 q-108 0 -183 -55.5t-75 -139.5v-389z" />
<glyph unicode="q" horiz-adv-x="1198" d="M100 530q0 258 113.5 406.5t312.5 148.5q110 0 189.5 -50.5t115.5 -147.5h9v174h190v-1471h-190v584h-9q-36 -97 -115.5 -148t-189.5 -51q-199 0 -312.5 148.5t-113.5 406.5zM303 440q0 -134 76 -216.5t203 -82.5q108 0 183 55.5t75 139.5v389q0 84 -75 139.5t-183 55.5 q-127 0 -203 -82.5t-76 -216.5v-181z" />
<glyph unicode="r" horiz-adv-x="768" d="M168 0v1061h190v-203h11q29 87 104.5 145t194.5 58h63v-191h-94q-130 0 -204.5 -47.5t-74.5 -126.5v-696h-190z" />
<glyph unicode="s" horiz-adv-x="1003" d="M70 180l129 111q126 -158 307 -158q100 0 154.5 42t54.5 116q0 62 -39 100t-131 51l-90 15q-164 23 -254 96t-90 213q0 152 106 235.5t279 83.5q129 0 220.5 -43t162.5 -127l-121 -114q-42 56 -111 91.5t-158 35.5q-95 0 -144.5 -40.5t-49.5 -109.5q0 -68 44 -102.5 t140 -48.5l90 -15q171 -26 250.5 -100.5t79.5 -200.5q0 -155 -109 -245.5t-296 -90.5q-263 0 -424 205z" />
<glyph unicode="t" horiz-adv-x="731" d="M57 899v162h95q53 0 73.5 21.5t20.5 76.5v195h172v-293h227v-162h-227v-737h211v-162h-201q-97 0 -149 53.5t-52 147.5v698h-170z" />
<glyph unicode="u" horiz-adv-x="1175" d="M158 383v678h190v-649q0 -271 225 -271q99 0 171.5 50.5t72.5 144.5v725h191v-1061h-191v174h-10q-76 -199 -297 -199q-164 0 -258 108t-94 300z" />
<glyph unicode="v" horiz-adv-x="1024" d="M33 1061h190l174 -508l111 -367h12l113 367l176 508h182l-368 -1061h-224z" />
<glyph unicode="w" horiz-adv-x="1601" d="M59 1061h185l110 -453l107 -436h4l121 436l131 453h170l135 -453l123 -436h6l100 436l113 453h178l-282 -1061h-226l-143 498l-90 311h-4l-88 -311l-144 -498h-221z" />
<glyph unicode="x" horiz-adv-x="1060" d="M43 0l385 535l-371 526h222l256 -383h6l262 383h209l-371 -518l377 -543h-221l-262 401h-7l-276 -401h-209z" />
<glyph unicode="y" horiz-adv-x="1036" d="M31 1061h190l236 -678l55 -199h10l62 199l237 678h185l-461 -1292q-38 -103 -91 -141t-171 -38h-105v162h174l72 205z" />
<glyph unicode="z" horiz-adv-x="970" d="M70 0v158l587 741h-569v162h797v-146l-598 -753h614v-162h-831z" />
<glyph unicode="{" horiz-adv-x="714" d="M45 551v172q89 0 144 47.5t55 132.5v477q0 78 47 127t129 49h176v-145h-184v-498q0 -98 -54.5 -171.5t-142.5 -90.5v-28q88 -17 142.5 -91t54.5 -172v-497h184v-146h-176q-82 0 -129 49.5t-47 127.5v475q0 87 -55 134.5t-144 47.5z" />
<glyph unicode="|" horiz-adv-x="679" d="M258 -283v1839h164v-1839h-164z" />
<glyph unicode="}" horiz-adv-x="714" d="M119 -137h184v497q0 98 54.5 172t142.5 91v28q-88 17 -142.5 90.5t-54.5 171.5v498h-184v145h176q82 0 129 -49t47 -127v-475q0 -87 55 -134.5t144 -47.5v-172q-89 0 -144 -47.5t-55 -132.5v-477q0 -78 -47 -127.5t-129 -49.5h-176v146z" />
<glyph unicode="~" d="M121 662q92 114 252 114q68 0 122.5 -17.5t139.5 -58.5q47 -23 76 -35.5t71 -23t82 -10.5q49 0 85 14.5t83 48.5l76 -106q-93 -115 -252 -115q-68 0 -122.5 17.5t-139.5 58.5q-47 23 -76 35.5t-71 23t-82 10.5q-49 0 -85 -14.5t-83 -48.5z" />
<glyph unicode="&#xa1;" horiz-adv-x="593" d="M162 928v30q0 58 33.5 92.5t101.5 34.5t101.5 -34.5t33.5 -92.5v-30q0 -58 -33.5 -92.5t-101.5 -34.5t-101.5 34.5t-33.5 92.5zM195 43l57 625h90l57 -625v-412h-204v412z" />
<glyph unicode="&#xa2;" horiz-adv-x="1067" d="M94 528q0 229 102.5 374t286.5 173v215h158v-213q239 -23 336 -241l-148 -82q-53 137 -192 161v-776q148 24 217 174l137 -88q-46 -104 -135 -168.5t-215 -76.5v-213h-158v215q-185 28 -287 172.5t-102 373.5zM293 438q0 -112 50 -190.5t144 -102.5v766 q-93 -23 -143.5 -101.5t-50.5 -191.5v-180z" />
<glyph unicode="&#xa3;" horiz-adv-x="1212" d="M113 588v164h143q-20 59 -29.5 88.5t-19.5 82.5t-10 101q0 193 129 311.5t350 118.5q296 0 446 -235l-147 -107q-111 168 -301 168q-128 0 -200.5 -71.5t-72.5 -207.5q0 -44 9.5 -94t16.5 -72t26 -83h434v-164h-385q4 -50 4 -78q0 -108 -45 -195.5t-109 -128.5v-12h733 v-174h-923v219q151 65 151 275q0 36 -8 94h-192z" />
<glyph unicode="&#xa5;" horiz-adv-x="1257" d="M63 1430h224l344 -629h10l334 629h217l-379 -660h268v-145h-356v-187h356v-145h-356v-293h-197v293h-358v145h358v187h-358v145h268z" />
<glyph unicode="&#xa6;" horiz-adv-x="679" d="M258 -283v727h164v-727h-164zM258 829v727h164v-727h-164z" />
<glyph unicode="&#xa7;" horiz-adv-x="1179" d="M139 545q0 97 57.5 172.5t163.5 118.5v18q-151 102 -151 272q0 150 112.5 239t296.5 89q222 0 359 -121l-107 -127q-110 92 -254 92q-107 0 -168 -45t-61 -123q0 -69 51 -113t154 -75l135 -39q313 -93 313 -313q0 -96 -57.5 -171.5t-165.5 -119.5v-16q154 -96 154 -271 q0 -152 -113.5 -241.5t-298.5 -89.5q-222 0 -356 120l104 127q110 -92 254 -92q108 0 170 45.5t62 124.5q0 69 -52 113.5t-155 75.5l-135 38q-312 93 -312 312zM317 598q0 -80 53.5 -132.5t170.5 -84.5l133 -37q29 -8 65 -22q123 98 123 217q0 80 -53.5 132.5t-171.5 84.5 l-133 37q-11 3 -66 22q-121 -93 -121 -217z" />
<glyph unicode="&#xa8;" d="M305 1360v29q0 100 113 100q112 0 112 -100v-29q0 -100 -112 -100q-113 0 -113 100zM698 1360v29q0 100 113 100t113 -100v-29q0 -100 -113 -100t-113 100z" />
<glyph unicode="&#xa9;" horiz-adv-x="1591" d="M106 713q0 167 53 306.5t145.5 233.5t219.5 145.5t273 51.5q145 0 271.5 -52t218.5 -145.5t145 -233t53 -306.5t-53 -306.5t-145 -233.5t-218.5 -146t-271.5 -52q-146 0 -273 52t-219.5 146t-145.5 233.5t-53 306.5zM248 649q0 -236 154.5 -392.5t394.5 -156.5 q238 0 392 156.5t154 392.5v127q0 236 -154 392.5t-392 156.5q-240 0 -394.5 -156.5t-154.5 -392.5v-127zM457 713q0 187 94 296t260 109q213 0 291 -188l-133 -72q-50 117 -158 117q-83 0 -128.5 -53t-45.5 -140v-139q0 -87 45.5 -139.5t128.5 -52.5q62 0 102 30.5t74 91.5 l129 -75q-39 -87 -115.5 -139t-189.5 -52q-166 0 -260 110t-94 296z" />
<glyph unicode="&#xaa;" horiz-adv-x="837" d="M84 895q0 215 309 215h139v53q0 156 -147 156q-66 0 -113.5 -29t-72.5 -76l-90 76q34 62 106 103t178 41q133 0 209 -69.5t76 -195.5v-342h78v-122h-80q-125 0 -131 112h-8q-25 -57 -83 -93t-145 -36q-106 0 -165.5 56t-59.5 151zM227 895q0 -96 121 -96q76 0 130 35.5 t54 93.5v84h-141q-78 0 -121 -24.5t-43 -69.5v-23z" />
<glyph unicode="&#xab;" horiz-adv-x="1067" d="M74 492v172l391 337l57 -124l-274 -299l274 -299l-57 -125zM512 492v172l391 337l58 -124l-275 -299l275 -299l-58 -125z" />
<glyph unicode="&#xac;" horiz-adv-x="1261" d="M131 545v160h993v-545h-163v385h-830z" />
<glyph unicode="&#xad;" horiz-adv-x="819" d="M135 524v199h549v-199h-549z" />
<glyph unicode="&#xae;" horiz-adv-x="970" d="M78 1032q0 178 119 300t288 122t288.5 -122t119.5 -300t-119.5 -300t-288.5 -122t-288 122t-119 300zM170 1008q0 -128 90.5 -221t224.5 -93t225 93t91 221v49q0 128 -91 220.5t-225 92.5t-224.5 -92.5t-90.5 -220.5v-49zM328 813v428h188q65 0 101 -36.5t36 -96.5 q0 -91 -80 -127l99 -168h-101l-86 156h-67v-156h-90zM418 1040h90q49 0 49 43v41q0 43 -49 43h-90v-127z" />
<glyph unicode="&#xaf;" d="M324 1300v152h581v-152h-581z" />
<glyph unicode="&#xb0;" horiz-adv-x="958" d="M129 1096q0 153 100.5 255.5t249.5 102.5t249.5 -102.5t100.5 -255.5q0 -154 -100.5 -256.5t-249.5 -102.5t-249.5 102.5t-100.5 256.5zM285 1096q0 -93 53 -154t141 -61t141.5 61t53.5 154t-53.5 154t-141.5 61t-141 -61t-53 -154z" />
<glyph unicode="&#xb1;" d="M137 0v160h955v-160h-955zM137 719v160h389v393h176v-393h390v-160h-390v-393h-176v393h-389z" />
<glyph unicode="&#xb2;" horiz-adv-x="708" d="M66 1253q27 83 97.5 136t186.5 53q126 0 197 -62t71 -163q0 -84 -51 -151.5t-151 -139.5l-183 -138h408v-114h-563v129l262 209q66 54 95.5 97.5t29.5 94.5v13q0 49 -33.5 76.5t-91.5 27.5q-109 0 -152 -113z" />
<glyph unicode="&#xb3;" horiz-adv-x="710" d="M41 801l109 78q31 -49 72.5 -76t105.5 -27q70 0 108.5 30.5t38.5 86.5v10q0 103 -151 103h-86v116h77q72 0 109 27t37 72v8q0 46 -33.5 72t-91.5 26q-108 0 -170 -90l-94 80q91 125 268 125q122 0 198 -53t76 -144q0 -70 -45 -114.5t-114 -57.5v-8q75 -13 123.5 -59.5 t48.5 -122.5q0 -100 -82 -160.5t-217 -60.5q-107 0 -174 37.5t-113 101.5z" />
<glyph unicode="&#xb4;" d="M512 1251l180 359l168 -82l-227 -332z" />
<glyph unicode="&#xb5;" horiz-adv-x="1185" d="M168 -410v1471h190v-651q0 -132 57 -200.5t167 -68.5q101 0 173 51.5t72 145.5v723h191v-1061h-191v174h-8q-80 -199 -280 -199q-141 0 -197 103h-6l22 -195v-293h-190z" />
<glyph unicode="&#xb6;" horiz-adv-x="1345" d="M98 1014q0 111 53.5 206.5t147 152.5t203.5 57h686v-156h-135v-1579h-164v1579h-223v-1579h-164v903q-110 0 -203.5 57t-147 152.5t-53.5 206.5z" />
<glyph unicode="&#xb7;" horiz-adv-x="692" d="M211 608v31q0 58 33.5 92.5t101.5 34.5t101.5 -34.5t33.5 -92.5v-31q0 -58 -33.5 -92.5t-101.5 -34.5t-101.5 34.5t-33.5 92.5z" />
<glyph unicode="&#xb8;" d="M428 -340l80 88q46 -57 127 -57q40 0 65 15.5t25 45.5q0 31 -30 52t-111 32l-56 8l41 201h109l-33 -168l6 -6q41 12 82 12q64 0 102.5 -35t38.5 -100q0 -87 -66.5 -130.5t-168.5 -43.5q-79 0 -132.5 25t-78.5 61z" />
<glyph unicode="&#xb9;" horiz-adv-x="727" d="M63 1300l252 130h154v-642h195v-114h-555v114h217v517l-207 -107z" />
<glyph unicode="&#xba;" horiz-adv-x="831" d="M88 1061q0 174 87.5 273.5t240.5 99.5t240 -99.5t87 -273.5t-87 -273.5t-240 -99.5t-240.5 99.5t-87.5 273.5zM242 997q0 -90 44.5 -141t129.5 -51t129.5 51t44.5 141v127q0 90 -44.5 141.5t-129.5 51.5t-129.5 -51.5t-44.5 -141.5v-127z" />
<glyph unicode="&#xbb;" horiz-adv-x="1067" d="M106 279l275 299l-275 299l58 124l391 -337v-172l-391 -338zM545 279l274 299l-274 299l57 124l391 -337v-172l-391 -338z" />
<glyph unicode="&#xbc;" horiz-adv-x="1738" d="M63 1300l252 130h154v-642h195v-114h-555v114h217v517l-207 -107zM326 0l1011 1430h164l-1012 -1430h-163zM1069 147v119l330 490h186v-500h111v-109h-111v-147h-137v147h-379zM1192 256h256v362h-10z" />
<glyph unicode="&#xbd;" horiz-adv-x="1787" d="M63 1300l252 130h154v-642h195v-114h-555v114h217v517l-207 -107zM326 0l1011 1430h164l-1012 -1430h-163zM1145 580q27 83 98 135.5t187 52.5q126 0 197 -62t71 -163q0 -84 -51.5 -151.5t-151.5 -139.5l-182 -137h407v-115h-563v129l262 209q64 53 94.5 98t30.5 94v13 q0 49 -33.5 76.5t-91.5 27.5q-109 0 -151 -112z" />
<glyph unicode="&#xbe;" horiz-adv-x="1701" d="M41 801l109 78q31 -49 72.5 -76t105.5 -27q70 0 108.5 30.5t38.5 86.5v10q0 103 -151 103h-86v116h77q72 0 109 27t37 72v8q0 46 -33.5 72t-91.5 26q-108 0 -170 -90l-94 80q91 125 268 125q122 0 198 -53t76 -144q0 -70 -45 -114.5t-114 -57.5v-8q75 -13 123.5 -59.5 t48.5 -122.5q0 -100 -82 -160.5t-217 -60.5q-107 0 -174 37.5t-113 101.5zM289 0l1011 1430h164l-1011 -1430h-164zM1032 147v119l330 490h186v-500h111v-109h-111v-147h-137v147h-379zM1155 256h256v362h-10z" />
<glyph unicode="&#xbf;" horiz-adv-x="966" d="M72 0q0 92 32 167.5t86.5 125t118 80.5t135.5 45v207h183v-332q-168 -8 -260.5 -78t-92.5 -195v-28q0 -98 63 -156.5t165 -58.5q106 0 175 62t93 165l172 -67q-20 -68 -55.5 -125.5t-88.5 -104.5t-130.5 -73.5t-171.5 -26.5q-194 0 -309 107t-115 286zM403 928v30 q0 58 34 92.5t102 34.5t101.5 -34.5t33.5 -92.5v-30q0 -58 -33.5 -92.5t-101.5 -34.5t-102 34.5t-34 92.5z" />
<glyph unicode="&#xc0;" horiz-adv-x="1329" d="M45 0l496 1430h250l493 -1430h-209l-135 403h-557l-137 -403h-201zM420 1872l168 82l180 -357l-121 -57zM430 580h461l-225 667h-11z" />
<glyph unicode="&#xc1;" horiz-adv-x="1329" d="M45 0l496 1430h250l493 -1430h-209l-135 403h-557l-137 -403h-201zM430 580h461l-225 667h-11zM563 1597l180 357l168 -82l-227 -332z" />
<glyph unicode="&#xc2;" horiz-adv-x="1329" d="M45 0l496 1430h250l493 -1430h-209l-135 403h-557l-137 -403h-201zM324 1624l235 299h213l236 -299l-101 -74l-241 238l-242 -238zM430 580h461l-225 667h-11z" />
<glyph unicode="&#xc3;" horiz-adv-x="1329" d="M45 0l496 1430h250l493 -1430h-209l-135 403h-557l-137 -403h-201zM313 1731q74 112 201 112q10 0 20.5 -1t19 -2t19 -4t16.5 -4.5t17 -5.5t15 -5.5t15.5 -7.5t14 -7t14.5 -7t13 -7q90 -47 145 -47q33 0 59.5 12.5t61.5 40.5l74 -92q-75 -113 -201 -113q-13 0 -26 1.5 t-22.5 3t-22.5 6t-20 6.5t-20.5 8.5t-17.5 8.5t-18.5 9.5t-16.5 8.5q-90 47 -145 47q-33 0 -59.5 -12.5t-61.5 -41.5zM430 580h461l-225 667h-11z" />
<glyph unicode="&#xc4;" horiz-adv-x="1329" d="M45 0l496 1430h250l493 -1430h-209l-135 403h-557l-137 -403h-201zM356 1704v33q0 100 113 100t113 -100v-33q0 -100 -113 -100t-113 100zM430 580h461l-225 667h-11zM750 1704v33q0 100 112 100q113 0 113 -100v-33q0 -100 -113 -100q-112 0 -112 100z" />
<glyph unicode="&#xc5;" horiz-adv-x="1329" d="M45 0l496 1430h250l493 -1430h-209l-135 403h-557l-137 -403h-201zM416 1765q0 105 72.5 175.5t177.5 70.5t177 -70.5t72 -175.5t-72 -175t-177 -70t-177.5 70t-72.5 175zM430 580h461l-225 667h-11zM549 1741q0 -53 31 -82t86 -29t85.5 29t30.5 82v49q0 53 -30.5 82 t-85.5 29t-86 -29t-31 -82v-49z" />
<glyph unicode="&#xc6;" horiz-adv-x="1882" d="M6 0l725 1430h1022v-177h-692v-442h641v-176h-641v-459h692v-176h-891v406h-454l-199 -406h-203zM489 578h373v675h-31z" />
<glyph unicode="&#xc7;" horiz-adv-x="1284" d="M115 715q0 355 155.5 547t431.5 192q358 0 500 -317l-164 -95q-41 110 -126 172t-210 62q-174 0 -274 -121.5t-100 -331.5v-217q0 -210 100 -331t274 -121q128 0 218 66.5t131 180.5l159 -96q-67 -149 -186.5 -234t-282.5 -94l-20 -100l6 -6q43 12 84 12q63 0 102 -35 t39 -100q0 -87 -67 -130.5t-168 -43.5q-80 0 -134 25t-79 61l80 88q50 -57 127 -57q40 0 65 15.5t25 45.5q0 31 -30 52t-112 32l-55 8l29 136q-245 23 -381.5 213.5t-136.5 521.5z" />
<glyph unicode="&#xc8;" horiz-adv-x="1204" d="M184 0v1430h891v-177h-692v-442h641v-176h-641v-459h692v-176h-891zM381 1872l168 82l180 -357l-121 -57z" />
<glyph unicode="&#xc9;" horiz-adv-x="1204" d="M184 0v1430h891v-177h-692v-442h641v-176h-641v-459h692v-176h-891zM524 1597l181 357l167 -82l-227 -332z" />
<glyph unicode="&#xca;" horiz-adv-x="1204" d="M184 0v1430h891v-177h-692v-442h641v-176h-641v-459h692v-176h-891zM285 1624l235 299h213l236 -299l-101 -74l-241 238l-242 -238z" />
<glyph unicode="&#xcb;" horiz-adv-x="1204" d="M184 0v1430h891v-177h-692v-442h641v-176h-641v-459h692v-176h-891zM317 1704v33q0 100 113 100t113 -100v-33q0 -100 -113 -100t-113 100zM711 1704v33q0 100 112 100q113 0 113 -100v-33q0 -100 -113 -100q-112 0 -112 100z" />
<glyph unicode="&#xcc;" horiz-adv-x="833" d="M119 0v168h198v1094h-198v168h596v-168h-199v-1094h199v-168h-596zM170 1872l168 82l180 -357l-121 -57z" />
<glyph unicode="&#xcd;" horiz-adv-x="833" d="M119 0v168h198v1094h-198v168h596v-168h-199v-1094h199v-168h-596zM313 1597l181 357l168 -82l-228 -332z" />
<glyph unicode="&#xce;" horiz-adv-x="833" d="M74 1624l235 299h213l236 -299l-101 -74l-241 238l-242 -238zM119 0v168h198v1094h-198v168h596v-168h-199v-1094h199v-168h-596z" />
<glyph unicode="&#xcf;" horiz-adv-x="833" d="M106 1704v33q0 100 113 100t113 -100v-33q0 -100 -113 -100t-113 100zM119 0v168h198v1094h-198v168h596v-168h-199v-1094h199v-168h-596zM500 1704v33q0 100 112 100q113 0 113 -100v-33q0 -100 -113 -100q-112 0 -112 100z" />
<glyph unicode="&#xd0;" horiz-adv-x="1390" d="M31 674v151h159v605h490q278 0 437 -182.5t159 -532.5t-159 -532.5t-437 -182.5h-490v674h-159zM389 176h291q174 0 278.5 112t104.5 312v229q0 200 -104.5 312t-278.5 112h-291v-428h275v-151h-275v-498z" />
<glyph unicode="&#xd1;" horiz-adv-x="1454" d="M184 0v1430h222l468 -783l197 -358h6v1141h193v-1430h-221l-469 782l-197 359h-6v-1141h-193zM375 1731q74 112 200 112q10 0 20.5 -1t19 -2t19 -4t16.5 -4.5t17 -5.5t15 -5.5t15.5 -7.5t14 -7t14.5 -7t13 -7q90 -47 146 -47q33 0 59.5 12.5t61.5 40.5l73 -92 q-75 -113 -200 -113q-13 0 -26 1.5t-22.5 3t-22.5 6t-20 6.5t-20.5 8.5t-17.5 8.5t-18.5 9.5t-16.5 8.5q-90 47 -146 47q-33 0 -58.5 -12.5t-61.5 -41.5z" />
<glyph unicode="&#xd2;" horiz-adv-x="1449" d="M115 715q0 355 163.5 547t446.5 192t446.5 -192t163.5 -547t-163.5 -547.5t-446.5 -192.5t-446.5 192.5t-163.5 547.5zM328 598q0 -203 109 -323.5t288 -120.5t288 120.5t109 323.5v233q0 203 -109 324t-288 121t-288 -121t-109 -324v-233zM479 1872l168 82l180 -357 l-120 -57z" />
<glyph unicode="&#xd3;" horiz-adv-x="1449" d="M115 715q0 355 163.5 547t446.5 192t446.5 -192t163.5 -547t-163.5 -547.5t-446.5 -192.5t-446.5 192.5t-163.5 547.5zM328 598q0 -203 109 -323.5t288 -120.5t288 120.5t109 323.5v233q0 203 -109 324t-288 121t-288 -121t-109 -324v-233zM623 1597l180 357l168 -82 l-228 -332z" />
<glyph unicode="&#xd4;" horiz-adv-x="1449" d="M115 715q0 355 163.5 547t446.5 192t446.5 -192t163.5 -547t-163.5 -547.5t-446.5 -192.5t-446.5 192.5t-163.5 547.5zM328 598q0 -203 109 -323.5t288 -120.5t288 120.5t109 323.5v233q0 203 -109 324t-288 121t-288 -121t-109 -324v-233zM383 1624l235 299h213 l236 -299l-100 -74l-242 238l-242 -238z" />
<glyph unicode="&#xd5;" horiz-adv-x="1449" d="M115 715q0 355 163.5 547t446.5 192t446.5 -192t163.5 -547t-163.5 -547.5t-446.5 -192.5t-446.5 192.5t-163.5 547.5zM328 598q0 -203 109 -323.5t288 -120.5t288 120.5t109 323.5v233q0 203 -109 324t-288 121t-288 -121t-109 -324v-233zM373 1731q74 112 200 112 q10 0 20.5 -1t19 -2t19 -4t16.5 -4.5t17 -5.5t15 -5.5t15.5 -7.5t14 -7t14.5 -7t13 -7q90 -47 146 -47q33 0 59.5 12.5t61.5 40.5l73 -92q-75 -113 -200 -113q-13 0 -26 1.5t-22.5 3t-22.5 6t-20 6.5t-20.5 8.5t-17.5 8.5t-18.5 9.5t-16.5 8.5q-90 47 -146 47 q-33 0 -59.5 -12.5t-61.5 -41.5z" />
<glyph unicode="&#xd6;" horiz-adv-x="1449" d="M115 715q0 355 163.5 547t446.5 192t446.5 -192t163.5 -547t-163.5 -547.5t-446.5 -192.5t-446.5 192.5t-163.5 547.5zM328 598q0 -203 109 -323.5t288 -120.5t288 120.5t109 323.5v233q0 203 -109 324t-288 121t-288 -121t-109 -324v-233zM416 1704v33q0 100 112 100 q113 0 113 -100v-33q0 -100 -113 -100q-112 0 -112 100zM809 1704v33q0 100 113 100q112 0 112 -100v-33q0 -100 -112 -100q-113 0 -113 100z" />
<glyph unicode="&#xd7;" d="M184 295l318 328l-318 327l113 113l317 -328l318 328l112 -113l-317 -327l317 -328l-112 -113l-318 328l-317 -328z" />
<glyph unicode="&#xd8;" horiz-adv-x="1449" d="M115 715q0 355 163.5 547t446.5 192q204 0 346 -100l121 172l129 -84l-135 -199q149 -191 149 -528q0 -355 -163.5 -547.5t-446.5 -192.5q-202 0 -346 101l-121 -172l-129 84l135 198q-149 191 -149 529zM328 598q0 -141 55 -248l584 848q-101 78 -242 78 q-179 0 -288 -121t-109 -324v-233zM483 231q100 -77 242 -77q179 0 288 120.5t109 323.5v233q0 141 -55 248z" />
<glyph unicode="&#xd9;" horiz-adv-x="1396" d="M174 586v844h199v-883q0 -201 74.5 -297t250.5 -96q177 0 251.5 96t74.5 297v883h199v-844q0 -319 -122.5 -465t-408.5 -146q-145 0 -244 36t-160 113.5t-87.5 189t-26.5 272.5zM449 1872l167 82l181 -357l-121 -57z" />
<glyph unicode="&#xda;" horiz-adv-x="1396" d="M174 586v844h199v-883q0 -201 74.5 -297t250.5 -96q177 0 251.5 96t74.5 297v883h199v-844q0 -319 -122.5 -465t-408.5 -146q-145 0 -244 36t-160 113.5t-87.5 189t-26.5 272.5zM592 1597l180 357l168 -82l-227 -332z" />
<glyph unicode="&#xdb;" horiz-adv-x="1396" d="M174 586v844h199v-883q0 -201 74.5 -297t250.5 -96q177 0 251.5 96t74.5 297v883h199v-844q0 -319 -122.5 -465t-408.5 -146q-145 0 -244 36t-160 113.5t-87.5 189t-26.5 272.5zM352 1624l236 299h213l235 -299l-100 -74l-242 238l-241 -238z" />
<glyph unicode="&#xdc;" horiz-adv-x="1396" d="M174 586v844h199v-883q0 -201 74.5 -297t250.5 -96q177 0 251.5 96t74.5 297v883h199v-844q0 -319 -122.5 -465t-408.5 -146q-145 0 -244 36t-160 113.5t-87.5 189t-26.5 272.5zM385 1704v33q0 100 113 100q112 0 112 -100v-33q0 -100 -112 -100q-113 0 -113 100z M778 1704v33q0 100 113 100t113 -100v-33q0 -100 -113 -100t-113 100z" />
<glyph unicode="&#xdd;" horiz-adv-x="1234" d="M25 1430h227l366 -666h7l364 666h221l-495 -861v-569h-199v563zM516 1597l180 357l168 -82l-227 -332z" />
<glyph unicode="&#xde;" horiz-adv-x="1263" d="M184 0v1430h199v-285h391q191 0 299.5 -113.5t108.5 -306.5t-108.5 -306.5t-299.5 -113.5h-391v-305h-199zM383 481h383q96 0 149.5 50.5t53.5 142.5v102q0 92 -53.5 142.5t-149.5 50.5h-383v-488z" />
<glyph unicode="&#xdf;" horiz-adv-x="1331" d="M55 899v162h170v10q0 217 121.5 343t335.5 126q213 0 334 -126.5t121 -342.5v-139h-99q-126 0 -189 -36t-63 -116q0 -67 37.5 -101t116.5 -54l64 -15q143 -35 207.5 -105t64.5 -190q0 -158 -101.5 -249t-273.5 -91q-237 0 -366 168l122 115q103 -127 252 -127 q88 0 137.5 43t49.5 119q0 63 -32 102t-110 58l-63 14q-67 17 -115 38t-89 55.5t-62 87t-21 122.5q0 135 93.5 214t256.5 87v10q0 154 -66 228.5t-204 74.5q-137 0 -202.5 -74.5t-65.5 -228.5v-1081h-191v899h-170z" />
<glyph unicode="&#xe0;" horiz-adv-x="1107" d="M86 293q0 155 113.5 235t339.5 80h200v97q0 221 -235 221q-167 0 -260 -152l-115 105q51 93 148 149.5t237 56.5q198 0 307 -96t109 -268v-559h119v-162h-109q-84 0 -129.5 47.5t-56.5 128.5h-11q-32 -97 -112 -149t-195 -52q-165 0 -257.5 85.5t-92.5 232.5zM276 1528 l168 82l181 -359l-121 -55zM285 283q0 -73 52 -113.5t142 -40.5q113 0 186.5 51.5t73.5 130.5v164h-202q-252 0 -252 -151v-41z" />
<glyph unicode="&#xe1;" horiz-adv-x="1107" d="M86 293q0 155 113.5 235t339.5 80h200v97q0 221 -235 221q-167 0 -260 -152l-115 105q51 93 148 149.5t237 56.5q198 0 307 -96t109 -268v-559h119v-162h-109q-84 0 -129.5 47.5t-56.5 128.5h-11q-32 -97 -112 -149t-195 -52q-165 0 -257.5 85.5t-92.5 232.5zM285 283 q0 -73 52 -113.5t142 -40.5q113 0 186.5 51.5t73.5 130.5v164h-202q-252 0 -252 -151v-41zM420 1251l180 359l168 -82l-227 -332z" />
<glyph unicode="&#xe2;" horiz-adv-x="1107" d="M86 293q0 155 113.5 235t339.5 80h200v97q0 221 -235 221q-167 0 -260 -152l-115 105q51 93 148 149.5t237 56.5q198 0 307 -96t109 -268v-559h119v-162h-109q-84 0 -129.5 47.5t-56.5 128.5h-11q-32 -97 -112 -149t-195 -52q-165 0 -257.5 85.5t-92.5 232.5zM180 1280 l236 299h213l235 -299l-100 -74l-242 238l-241 -238zM285 283q0 -73 52 -113.5t142 -40.5q113 0 186.5 51.5t73.5 130.5v164h-202q-252 0 -252 -151v-41z" />
<glyph unicode="&#xe3;" horiz-adv-x="1107" d="M86 293q0 155 113.5 235t339.5 80h200v97q0 221 -235 221q-167 0 -260 -152l-115 105q51 93 148 149.5t237 56.5q198 0 307 -96t109 -268v-559h119v-162h-109q-84 0 -129.5 47.5t-56.5 128.5h-11q-32 -97 -112 -149t-195 -52q-165 0 -257.5 85.5t-92.5 232.5zM170 1386 q75 113 201 113q10 0 20.5 -1t19 -2t19 -4t16.5 -4.5t17 -5.5t15 -5.5t15.5 -7.5t14 -7t14.5 -7t13 -7q90 -47 145 -47q33 0 59.5 12.5t61.5 40.5l73 -92q-75 -113 -200 -113q-10 0 -20.5 1t-19 2t-19 4t-16.5 4.5t-17 5.5t-15 5.5t-15.5 7.5t-14 7t-14.5 7t-13 7 q-92 48 -145 48q-33 0 -59.5 -12.5t-61.5 -41.5zM285 283q0 -73 52 -113.5t142 -40.5q113 0 186.5 51.5t73.5 130.5v164h-202q-252 0 -252 -151v-41z" />
<glyph unicode="&#xe4;" horiz-adv-x="1107" d="M86 293q0 155 113.5 235t339.5 80h200v97q0 221 -235 221q-167 0 -260 -152l-115 105q51 93 148 149.5t237 56.5q198 0 307 -96t109 -268v-559h119v-162h-109q-84 0 -129.5 47.5t-56.5 128.5h-11q-32 -97 -112 -149t-195 -52q-165 0 -257.5 85.5t-92.5 232.5zM213 1360 v29q0 100 113 100q112 0 112 -100v-29q0 -100 -112 -100q-113 0 -113 100zM285 283q0 -73 52 -113.5t142 -40.5q113 0 186.5 51.5t73.5 130.5v164h-202q-252 0 -252 -151v-41zM606 1360v29q0 100 113 100q112 0 112 -100v-29q0 -100 -112 -100q-113 0 -113 100z" />
<glyph unicode="&#xe5;" horiz-adv-x="1107" d="M86 293q0 155 113.5 235t339.5 80h200v97q0 221 -235 221q-167 0 -260 -152l-115 105q51 93 148 149.5t237 56.5q198 0 307 -96t109 -268v-559h119v-162h-109q-84 0 -129.5 47.5t-56.5 128.5h-11q-32 -97 -112 -149t-195 -52q-165 0 -257.5 85.5t-92.5 232.5zM272 1419 q0 105 72.5 175.5t177.5 70.5t177.5 -70.5t72.5 -175.5t-72.5 -175t-177.5 -70t-177.5 70t-72.5 175zM285 283q0 -73 52 -113.5t142 -40.5q113 0 186.5 51.5t73.5 130.5v164h-202q-252 0 -252 -151v-41zM406 1395q0 -53 30.5 -82t85.5 -29t86 29t31 82v49q0 53 -31 81.5 t-86 28.5t-85.5 -28.5t-30.5 -81.5v-49z" />
<glyph unicode="&#xe6;" horiz-adv-x="1769" d="M86 291q0 157 117 241t336 84h200v89q0 107 -58 164t-171 57q-175 0 -266 -152l-115 105q50 92 148 149t239 57q249 0 328 -219h12q27 81 130 150t243 69q208 0 328 -146.5t120 -375.5v-80h-747v-43q0 -133 81.5 -218t219.5 -85q192 0 287 170l122 -102 q-56 -106 -164.5 -168t-244.5 -62q-78 0 -149 22.5t-120.5 57.5t-82 75t-43.5 79h-13q-10 -38 -39.5 -77.5t-76.5 -75.5t-118.5 -58.5t-154.5 -22.5q-160 0 -254 86.5t-94 229.5zM285 285q0 -75 51 -115.5t145 -40.5q110 0 184 51.5t74 130.5v172h-202q-252 -9 -252 -157 v-41zM932 616h543v21q0 132 -71.5 213.5t-189.5 81.5q-125 0 -203.5 -85t-78.5 -216v-15z" />
<glyph unicode="&#xe7;" horiz-adv-x="1034" d="M92 530q0 257 126 406t351 149q151 0 252.5 -67.5t149.5 -186.5l-158 -77q-27 79 -90 123.5t-154 44.5q-133 0 -203.5 -82t-70.5 -217v-185q0 -135 70.5 -217t203.5 -82q188 0 271 180l139 -86q-48 -115 -142.5 -182t-228.5 -74l-20 -100l8 -6q41 12 82 12 q64 0 102.5 -35t38.5 -100q0 -87 -66.5 -130.5t-168.5 -43.5q-150 0 -211 86l80 88q46 -57 127 -57q40 0 65 15.5t25 45.5q0 31 -30 52t-112 32l-55 8l27 136q-194 23 -301 168.5t-107 381.5z" />
<glyph unicode="&#xe8;" horiz-adv-x="1130" d="M92 530q0 253 130 404t351 151q217 0 341 -146.5t124 -375.5v-80h-747v-43q0 -135 79.5 -219t219.5 -84q197 0 287 172l122 -104q-57 -105 -168.5 -167.5t-257.5 -62.5q-221 0 -351 151t-130 404zM291 616h545v21q0 133 -72 214t-191 81q-124 0 -203 -85t-79 -216v-15z M330 1528l168 82l180 -359l-121 -55z" />
<glyph unicode="&#xe9;" horiz-adv-x="1130" d="M92 530q0 253 130 404t351 151q217 0 341 -146.5t124 -375.5v-80h-747v-43q0 -135 79.5 -219t219.5 -84q197 0 287 172l122 -104q-57 -105 -168.5 -167.5t-257.5 -62.5q-221 0 -351 151t-130 404zM291 616h545v21q0 133 -72 214t-191 81q-124 0 -203 -85t-79 -216v-15z M473 1251l180 359l168 -82l-227 -332z" />
<glyph unicode="&#xea;" horiz-adv-x="1130" d="M92 530q0 253 130 404t351 151q217 0 341 -146.5t124 -375.5v-80h-747v-43q0 -135 79.5 -219t219.5 -84q197 0 287 172l122 -104q-57 -105 -168.5 -167.5t-257.5 -62.5q-221 0 -351 151t-130 404zM233 1280l236 299h213l236 -299l-101 -74l-242 238l-241 -238zM291 616 h545v21q0 133 -72 214t-191 81q-124 0 -203 -85t-79 -216v-15z" />
<glyph unicode="&#xeb;" horiz-adv-x="1130" d="M92 530q0 253 130 404t351 151q217 0 341 -146.5t124 -375.5v-80h-747v-43q0 -135 79.5 -219t219.5 -84q197 0 287 172l122 -104q-57 -105 -168.5 -167.5t-257.5 -62.5q-221 0 -351 151t-130 404zM266 1360v29q0 100 113 100t113 -100v-29q0 -100 -113 -100t-113 100z M291 616h545v21q0 133 -72 214t-191 81q-124 0 -203 -85t-79 -216v-15zM659 1360v29q0 100 113 100t113 -100v-29q0 -100 -113 -100t-113 100z" />
<glyph unicode="&#xec;" horiz-adv-x="526" d="M18 1528l168 82l181 -359l-121 -55zM168 0v1061h190v-1061h-190z" />
<glyph unicode="&#xed;" horiz-adv-x="526" d="M162 1251l180 359l168 -82l-227 -332zM168 0v1061h190v-1061h-190z" />
<glyph unicode="&#xee;" horiz-adv-x="526" d="M-78 1280l236 299h213l235 -299l-100 -74l-242 238l-241 -238zM168 0v1061h190v-1061h-190z" />
<glyph unicode="&#xef;" horiz-adv-x="526" d="M-45 1360v29q0 100 113 100q112 0 112 -100v-29q0 -100 -112 -100q-113 0 -113 100zM168 0v1061h190v-1061h-190zM348 1360v29q0 100 113 100q112 0 112 -100v-29q0 -100 -112 -100q-113 0 -113 100z" />
<glyph unicode="&#xf0;" horiz-adv-x="1157" d="M94 506q0 235 126 379.5t335 144.5q99 0 169.5 -52.5t106.5 -148.5l9 5q-43 212 -256 411l-166 -112l-72 92l148 100q-119 97 -279 191h293q76 -49 127 -95l174 121l74 -92l-158 -109q149 -147 240.5 -344t91.5 -440q0 -284 -130 -433t-349 -149q-221 0 -352.5 146.5 t-131.5 384.5zM297 438q0 -140 75.5 -222.5t202.5 -82.5t203 82.5t76 222.5v129q0 140 -76 222.5t-203 82.5t-202.5 -82.5t-75.5 -222.5v-129z" />
<glyph unicode="&#xf1;" horiz-adv-x="1173" d="M168 0v1061h190v-174h11q83 198 299 198q164 0 257 -107.5t93 -299.5v-678h-191v649q0 271 -223 271q-101 0 -173.5 -50.5t-72.5 -142.5v-727h-190zM242 1386q75 113 200 113q10 0 20.5 -1t19 -2t19 -4t16.5 -4.5t17 -5.5t15 -5.5t15.5 -7.5t14 -7t14.5 -7t13 -7 q90 -47 146 -47q33 0 59 12t61 41l74 -92q-75 -113 -201 -113q-11 0 -22 1t-22 3t-19 4t-19.5 6t-17 6t-17.5 7.5t-15 7.5t-16 8.5l-15 7.5q-92 48 -146 48q-33 0 -59.5 -12.5t-61.5 -41.5z" />
<glyph unicode="&#xf2;" horiz-adv-x="1150" d="M92 530q0 252 132.5 403.5t350.5 151.5t351 -151.5t133 -403.5t-133 -403.5t-351 -151.5t-350.5 151.5t-132.5 403.5zM295 451q0 -151 76 -231.5t204 -80.5t204.5 80.5t76.5 231.5v159q0 151 -76.5 231.5t-204.5 80.5t-204 -80.5t-76 -231.5v-159zM330 1528l168 82 l180 -359l-121 -55z" />
<glyph unicode="&#xf3;" horiz-adv-x="1150" d="M92 530q0 252 132.5 403.5t350.5 151.5t351 -151.5t133 -403.5t-133 -403.5t-351 -151.5t-350.5 151.5t-132.5 403.5zM295 451q0 -151 76 -231.5t204 -80.5t204.5 80.5t76.5 231.5v159q0 151 -76.5 231.5t-204.5 80.5t-204 -80.5t-76 -231.5v-159zM473 1251l180 359 l168 -82l-227 -332z" />
<glyph unicode="&#xf4;" horiz-adv-x="1150" d="M92 530q0 252 132.5 403.5t350.5 151.5t351 -151.5t133 -403.5t-133 -403.5t-351 -151.5t-350.5 151.5t-132.5 403.5zM233 1280l236 299h213l236 -299l-101 -74l-242 238l-241 -238zM295 451q0 -151 76 -231.5t204 -80.5t204.5 80.5t76.5 231.5v159q0 151 -76.5 231.5 t-204.5 80.5t-204 -80.5t-76 -231.5v-159z" />
<glyph unicode="&#xf5;" horiz-adv-x="1150" d="M92 530q0 252 132.5 403.5t350.5 151.5t351 -151.5t133 -403.5t-133 -403.5t-351 -151.5t-350.5 151.5t-132.5 403.5zM223 1386q75 113 201 113q10 0 20.5 -1t19 -2t19 -4t16.5 -4.5t17 -5.5t15 -5.5t15.5 -7.5t14 -7t14.5 -7t13 -7q90 -47 145 -47q33 0 59.5 12.5 t61.5 40.5l74 -92q-75 -113 -201 -113q-10 0 -20.5 1t-19 2t-19 4t-16.5 4.5t-17 5.5t-15 5.5t-15.5 7.5t-14 7t-14.5 7t-13 7q-92 48 -145 48q-33 0 -59.5 -12.5t-61.5 -41.5zM295 451q0 -151 76 -231.5t204 -80.5t204.5 80.5t76.5 231.5v159q0 151 -76.5 231.5 t-204.5 80.5t-204 -80.5t-76 -231.5v-159z" />
<glyph unicode="&#xf6;" horiz-adv-x="1150" d="M92 530q0 252 132.5 403.5t350.5 151.5t351 -151.5t133 -403.5t-133 -403.5t-351 -151.5t-350.5 151.5t-132.5 403.5zM266 1360v29q0 100 113 100t113 -100v-29q0 -100 -113 -100t-113 100zM295 451q0 -151 76 -231.5t204 -80.5t204.5 80.5t76.5 231.5v159 q0 151 -76.5 231.5t-204.5 80.5t-204 -80.5t-76 -231.5v-159zM659 1360v29q0 100 113 100t113 -100v-29q0 -100 -113 -100t-113 100z" />
<glyph unicode="&#xf7;" d="M137 545v160h955v-160h-955zM477 203v47q0 47 33.5 76.5t103.5 29.5q71 0 104.5 -29.5t33.5 -76.5v-47q0 -47 -34 -77t-104 -30t-103.5 30t-33.5 77zM477 999v48q0 47 33.5 76.5t103.5 29.5q71 0 104.5 -29.5t33.5 -76.5v-48q0 -47 -33.5 -76.5t-104.5 -29.5 q-70 0 -103.5 29.5t-33.5 76.5z" />
<glyph unicode="&#xf8;" horiz-adv-x="1163" d="M63 -6l138 170q-103 147 -103 366q0 252 133 403.5t351 151.5q164 0 286 -92l125 154l107 -80l-137 -172q102 -142 102 -365q0 -252 -132.5 -403.5t-350.5 -151.5q-167 0 -287 91l-125 -152zM301 451q0 -81 21 -140l444 549q-74 62 -184 62q-128 0 -204.5 -80.5 t-76.5 -231.5v-159zM397 201q71 -62 185 -62q128 0 204 80.5t76 231.5v159q0 76 -22 140z" />
<glyph unicode="&#xf9;" horiz-adv-x="1175" d="M158 383v678h190v-649q0 -271 225 -271q99 0 171.5 50.5t72.5 144.5v725h191v-1061h-191v174h-10q-76 -199 -297 -199q-164 0 -258 108t-94 300zM338 1528l168 82l180 -359l-121 -55z" />
<glyph unicode="&#xfa;" horiz-adv-x="1175" d="M158 383v678h190v-649q0 -271 225 -271q99 0 171.5 50.5t72.5 144.5v725h191v-1061h-191v174h-10q-76 -199 -297 -199q-164 0 -258 108t-94 300zM481 1251l181 359l167 -82l-227 -332z" />
<glyph unicode="&#xfb;" horiz-adv-x="1175" d="M158 383v678h190v-649q0 -271 225 -271q99 0 171.5 50.5t72.5 144.5v725h191v-1061h-191v174h-10q-76 -199 -297 -199q-164 0 -258 108t-94 300zM242 1280l235 299h213l236 -299l-101 -74l-241 238l-242 -238z" />
<glyph unicode="&#xfc;" horiz-adv-x="1175" d="M158 383v678h190v-649q0 -271 225 -271q99 0 171.5 50.5t72.5 144.5v725h191v-1061h-191v174h-10q-76 -199 -297 -199q-164 0 -258 108t-94 300zM274 1360v29q0 100 113 100t113 -100v-29q0 -100 -113 -100t-113 100zM668 1360v29q0 100 112 100q113 0 113 -100v-29 q0 -100 -113 -100q-112 0 -112 100z" />
<glyph unicode="&#xfd;" horiz-adv-x="1036" d="M31 1061h190l236 -678l55 -199h10l62 199l237 678h185l-461 -1292q-38 -103 -91 -141t-171 -38h-105v162h174l72 205zM418 1251l180 359l168 -82l-227 -332z" />
<glyph unicode="&#xfe;" horiz-adv-x="1198" d="M168 -410v1926h190v-629h9q36 97 115.5 147.5t189.5 50.5q199 0 312.5 -148.5t113.5 -406.5t-113.5 -406.5t-312.5 -148.5q-110 0 -189.5 51t-115.5 148h-9v-584h-190zM358 336q0 -84 75 -139.5t183 -55.5q127 0 203 82.5t76 216.5v181q0 134 -76 216.5t-203 82.5 q-108 0 -183 -55.5t-75 -139.5v-389z" />
<glyph unicode="&#xff;" horiz-adv-x="1036" d="M31 1061h190l236 -678l55 -199h10l62 199l237 678h185l-461 -1292q-38 -103 -91 -141t-171 -38h-105v162h174l72 205zM211 1360v29q0 100 113 100q112 0 112 -100v-29q0 -100 -112 -100q-113 0 -113 100zM604 1360v29q0 100 113 100q112 0 112 -100v-29q0 -100 -112 -100 q-113 0 -113 100z" />
<glyph unicode="&#x100;" horiz-adv-x="1329" d="M45 0l496 1430h250l493 -1430h-209l-135 403h-557l-137 -403h-201zM375 1645v151h581v-151h-581zM430 580h461l-225 667h-11z" />
<glyph unicode="&#x101;" horiz-adv-x="1107" d="M86 293q0 155 113.5 235t339.5 80h200v97q0 221 -235 221q-167 0 -260 -152l-115 105q51 93 148 149.5t237 56.5q198 0 307 -96t109 -268v-559h119v-162h-109q-84 0 -129.5 47.5t-56.5 128.5h-11q-32 -97 -112 -149t-195 -52q-165 0 -257.5 85.5t-92.5 232.5zM231 1300 v152h582v-152h-582zM285 283q0 -73 52 -113.5t142 -40.5q113 0 186.5 51.5t73.5 130.5v164h-202q-252 0 -252 -151v-41z" />
<glyph unicode="&#x102;" horiz-adv-x="1329" d="M45 0l496 1430h250l493 -1430h-209l-135 403h-557l-137 -403h-201zM340 1833l106 51l41 -67q36 -58 74 -85.5t105 -27.5t104.5 27.5t73.5 85.5l41 67l106 -51q-15 -44 -27.5 -75t-39.5 -72t-59 -66t-83.5 -43t-115.5 -18q-54 0 -98.5 11.5t-77 34t-56.5 46.5t-42.5 59 t-29 61t-22.5 62zM430 580h461l-225 667h-11z" />
<glyph unicode="&#x103;" horiz-adv-x="1107" d="M86 293q0 155 113.5 235t339.5 80h200v97q0 221 -235 221q-167 0 -260 -152l-115 105q51 93 148 149.5t237 56.5q198 0 307 -96t109 -268v-559h119v-162h-109q-84 0 -129.5 47.5t-56.5 128.5h-11q-32 -97 -112 -149t-195 -52q-165 0 -257.5 85.5t-92.5 232.5zM197 1487 l106 53l41 -67q36 -59 73.5 -87t104.5 -28t104.5 28t73.5 87l41 67l107 -53q-14 -44 -27.5 -75t-40 -71.5t-58.5 -65.5t-84 -43t-116 -18t-115.5 18t-83.5 43t-59 65.5t-40 71.5t-27 75zM285 283q0 -73 52 -113.5t142 -40.5q113 0 186.5 51.5t73.5 130.5v164h-202 q-252 0 -252 -151v-41z" />
<glyph unicode="&#x104;" horiz-adv-x="1329" d="M45 0l496 1430h250l493 -1430q-128 -109 -167.5 -158.5t-39.5 -87.5q0 -61 66 -61q61 0 100 51l88 -86q-22 -38 -71.5 -61t-122.5 -23q-90 0 -147.5 40t-57.5 120q0 73 54 131t159 127l-2 8h-68l-135 403h-557l-137 -403h-201zM430 580h461l-225 667h-11z" />
<glyph unicode="&#x105;" horiz-adv-x="1107" d="M86 293q0 155 113.5 235t339.5 80h200v97q0 221 -235 221q-167 0 -260 -152l-115 105q51 93 148 149.5t237 56.5q198 0 307 -96t109 -268v-559h119v-162q-129 -110 -169 -159t-40 -87q0 -61 67 -61q62 0 101 51l88 -86q-21 -37 -72 -60.5t-123 -23.5q-91 0 -148 40 t-57 120q0 73 54.5 132.5t160.5 129.5l-2 6q-134 17 -155 174h-11q-32 -97 -112 -149t-195 -52q-165 0 -257.5 85.5t-92.5 232.5zM285 283q0 -73 52 -113.5t142 -40.5q113 0 186.5 51.5t73.5 130.5v164h-202q-252 0 -252 -151v-41z" />
<glyph unicode="&#x106;" horiz-adv-x="1284" d="M115 715q0 355 155.5 547t431.5 192q358 0 500 -317l-164 -95q-41 110 -126 172t-210 62q-174 0 -274 -121.5t-100 -331.5v-217q0 -210 100 -331t274 -121q128 0 218 66.5t131 180.5l159 -96q-70 -157 -200 -243.5t-308 -86.5q-276 0 -431.5 192.5t-155.5 547.5z M596 1597l180 357l168 -82l-227 -332z" />
<glyph unicode="&#x107;" horiz-adv-x="1034" d="M92 530q0 257 126 406t351 149q151 0 252.5 -67.5t149.5 -186.5l-158 -77q-27 79 -90 123.5t-154 44.5q-133 0 -203.5 -82t-70.5 -217v-185q0 -135 70.5 -217t203.5 -82q188 0 271 180l139 -86q-52 -123 -156.5 -190.5t-253.5 -67.5q-225 0 -351 149t-126 406zM461 1251 l180 359l168 -82l-227 -332z" />
<glyph unicode="&#x108;" horiz-adv-x="1284" d="M115 715q0 355 155.5 547t431.5 192q358 0 500 -317l-164 -95q-41 110 -126 172t-210 62q-174 0 -274 -121.5t-100 -331.5v-217q0 -210 100 -331t274 -121q128 0 218 66.5t131 180.5l159 -96q-70 -157 -200 -243.5t-308 -86.5q-276 0 -431.5 192.5t-155.5 547.5z M356 1624l236 299h213l235 -299l-100 -74l-242 238l-241 -238z" />
<glyph unicode="&#x109;" horiz-adv-x="1034" d="M92 530q0 257 126 406t351 149q151 0 252.5 -67.5t149.5 -186.5l-158 -77q-27 79 -90 123.5t-154 44.5q-133 0 -203.5 -82t-70.5 -217v-185q0 -135 70.5 -217t203.5 -82q188 0 271 180l139 -86q-52 -123 -156.5 -190.5t-253.5 -67.5q-225 0 -351 149t-126 406zM221 1280 l236 299h213l235 -299l-100 -74l-242 238l-241 -238z" />
<glyph unicode="&#x10a;" horiz-adv-x="1284" d="M115 715q0 355 155.5 547t431.5 192q358 0 500 -317l-164 -95q-41 110 -126 172t-210 62q-174 0 -274 -121.5t-100 -331.5v-217q0 -210 100 -331t274 -121q128 0 218 66.5t131 180.5l159 -96q-70 -157 -200 -243.5t-308 -86.5q-276 0 -431.5 192.5t-155.5 547.5z M571 1702v35q0 53 31.5 83.5t95.5 30.5t95.5 -30.5t31.5 -83.5v-35q0 -53 -31.5 -84t-95.5 -31t-95.5 31t-31.5 84z" />
<glyph unicode="&#x10b;" horiz-adv-x="1034" d="M92 530q0 257 126 406t351 149q151 0 252.5 -67.5t149.5 -186.5l-158 -77q-27 79 -90 123.5t-154 44.5q-133 0 -203.5 -82t-70.5 -217v-185q0 -135 70.5 -217t203.5 -82q188 0 271 180l139 -86q-52 -123 -156.5 -190.5t-253.5 -67.5q-225 0 -351 149t-126 406zM444 1356 v28q0 48 30 76.5t89 28.5t89 -28.5t30 -76.5v-28q0 -48 -30 -76.5t-89 -28.5t-89 28.5t-30 76.5z" />
<glyph unicode="&#x10c;" horiz-adv-x="1284" d="M115 715q0 355 155.5 547t431.5 192q358 0 500 -317l-164 -95q-41 110 -126 172t-210 62q-174 0 -274 -121.5t-100 -331.5v-217q0 -210 100 -331t274 -121q128 0 218 66.5t131 180.5l159 -96q-70 -157 -200 -243.5t-308 -86.5q-276 0 -431.5 192.5t-155.5 547.5z M356 1866l101 73l241 -237l242 237l100 -73l-235 -299h-213z" />
<glyph unicode="&#x10d;" horiz-adv-x="1034" d="M92 530q0 257 126 406t351 149q151 0 252.5 -67.5t149.5 -186.5l-158 -77q-27 79 -90 123.5t-154 44.5q-133 0 -203.5 -82t-70.5 -217v-185q0 -135 70.5 -217t203.5 -82q188 0 271 180l139 -86q-52 -123 -156.5 -190.5t-253.5 -67.5q-225 0 -351 149t-126 406zM221 1522 l101 73l241 -239l242 239l100 -73l-235 -299h-213z" />
<glyph unicode="&#x10e;" horiz-adv-x="1384" d="M184 0v1430h490q278 0 437 -182.5t159 -532.5t-159 -532.5t-437 -182.5h-490zM293 1866l100 73l242 -237l242 237l100 -73l-236 -299h-213zM383 176h291q174 0 278.5 112t104.5 312v229q0 200 -104.5 312t-278.5 112h-291v-1077z" />
<glyph unicode="&#x10f;" horiz-adv-x="1265" d="M100 530q0 258 113.5 406.5t312.5 148.5q110 0 189.5 -50.5t115.5 -147.5h9v629h190v-1516h-190v174h-9q-36 -97 -115.5 -148t-189.5 -51q-199 0 -312.5 148.5t-113.5 406.5zM303 440q0 -134 76 -216.5t203 -82.5q108 0 183 55.5t75 139.5v389q0 84 -75 139.5t-183 55.5 q-127 0 -203 -82.5t-76 -216.5v-181zM1147 1124l22 392h215l-112 -392h-125z" />
<glyph unicode="&#x110;" horiz-adv-x="1390" d="M31 674v151h159v605h490q278 0 437 -182.5t159 -532.5t-159 -532.5t-437 -182.5h-490v674h-159zM389 176h291q174 0 278.5 112t104.5 312v229q0 200 -104.5 312t-278.5 112h-291v-428h275v-151h-275v-498z" />
<glyph unicode="&#x111;" horiz-adv-x="1198" d="M100 530q0 258 113.5 406.5t312.5 148.5q110 0 189.5 -50.5t115.5 -147.5h9v354h-303v139h303v136h190v-136h131v-139h-131v-1241h-190v174h-9q-36 -97 -115.5 -148t-189.5 -51q-199 0 -312.5 148.5t-113.5 406.5zM303 440q0 -134 76 -216.5t203 -82.5q108 0 183 55.5 t75 139.5v389q0 84 -75 139.5t-183 55.5q-127 0 -203 -82.5t-76 -216.5v-181z" />
<glyph unicode="&#x112;" horiz-adv-x="1204" d="M184 0v1430h891v-177h-692v-442h641v-176h-641v-459h692v-176h-891zM336 1645v151h582v-151h-582z" />
<glyph unicode="&#x113;" horiz-adv-x="1130" d="M92 530q0 253 130 404t351 151q217 0 341 -146.5t124 -375.5v-80h-747v-43q0 -135 79.5 -219t219.5 -84q197 0 287 172l122 -104q-57 -105 -168.5 -167.5t-257.5 -62.5q-221 0 -351 151t-130 404zM285 1300v152h581v-152h-581zM291 616h545v21q0 133 -72 214t-191 81 q-124 0 -203 -85t-79 -216v-15z" />
<glyph unicode="&#x114;" horiz-adv-x="1204" d="M184 0v1430h891v-177h-692v-442h641v-176h-641v-459h692v-176h-891zM301 1833l107 51l41 -67q36 -58 73.5 -85.5t104.5 -27.5t104.5 27.5t73.5 85.5l41 67l106 -51q-15 -44 -27.5 -75t-39.5 -72t-59 -66t-83.5 -43t-115.5 -18q-54 0 -98.5 11.5t-77 34t-56.5 46.5 t-42.5 59t-29 61t-22.5 62z" />
<glyph unicode="&#x115;" horiz-adv-x="1130" d="M92 530q0 253 130 404t351 151q217 0 341 -146.5t124 -375.5v-80h-747v-43q0 -135 79.5 -219t219.5 -84q197 0 287 172l122 -104q-57 -105 -168.5 -167.5t-257.5 -62.5q-221 0 -351 151t-130 404zM250 1487l106 53l41 -67q36 -59 73.5 -87t104.5 -28t105 28.5t74 86.5 l41 67l106 -53q-14 -44 -27.5 -75t-40 -71.5t-58.5 -65.5t-84 -43t-116 -18t-115.5 18t-83.5 43t-59 65.5t-40 71.5t-27 75zM291 616h545v21q0 133 -72 214t-191 81q-124 0 -203 -85t-79 -216v-15z" />
<glyph unicode="&#x116;" horiz-adv-x="1204" d="M184 0v1430h891v-177h-692v-442h641v-176h-641v-459h692v-176h-891zM500 1702v35q0 53 31.5 83.5t95.5 30.5t95.5 -30.5t31.5 -83.5v-35q0 -53 -31.5 -84t-95.5 -31t-95.5 31t-31.5 84z" />
<glyph unicode="&#x117;" horiz-adv-x="1130" d="M92 530q0 253 130 404t351 151q217 0 341 -146.5t124 -375.5v-80h-747v-43q0 -135 79.5 -219t219.5 -84q197 0 287 172l122 -104q-57 -105 -168.5 -167.5t-257.5 -62.5q-221 0 -351 151t-130 404zM291 616h545v21q0 133 -72 214t-191 81q-124 0 -203 -85t-79 -216v-15z M457 1356v28q0 48 29.5 76.5t88.5 28.5t89 -28.5t30 -76.5v-28q0 -48 -30 -76.5t-89 -28.5t-88.5 28.5t-29.5 76.5z" />
<glyph unicode="&#x118;" horiz-adv-x="1204" d="M184 0v1430h891v-177h-692v-442h641v-176h-641v-459h692v-176q-127 -110 -167 -159t-40 -87q0 -61 66 -61q61 0 100 51l88 -86q-21 -37 -71.5 -60.5t-122.5 -23.5q-90 0 -147.5 40t-57.5 120q0 73 55.5 132.5t159.5 123.5l-2 10h-752z" />
<glyph unicode="&#x119;" horiz-adv-x="1126" d="M92 530q0 253 130 404t349 151q145 0 251 -69t159 -186t53 -267v-80h-745v-43q0 -135 80.5 -219t220.5 -84q95 0 168.5 44.5t115.5 125.5l123 -102q-30 -56 -98 -121q-20 -23 -57 -60.5t-64.5 -67t-56 -64.5t-44 -69.5t-15.5 -66.5q0 -63 65 -63q61 0 100 51l86 -86 q-22 -38 -70.5 -61t-121.5 -23q-91 0 -148 40t-57 120q0 44 17 83t50.5 71.5t66 56t79.5 51.5l-6 10q-60 -31 -152 -31q-219 0 -349 151t-130 404zM289 616h545v21q0 132 -71.5 213.5t-189.5 81.5q-125 0 -204.5 -85t-79.5 -216v-15z" />
<glyph unicode="&#x11a;" horiz-adv-x="1204" d="M184 0v1430h891v-177h-692v-442h641v-176h-641v-459h692v-176h-891zM285 1866l100 73l242 -237l241 237l101 -73l-236 -299h-213z" />
<glyph unicode="&#x11b;" horiz-adv-x="1130" d="M92 530q0 253 130 404t351 151q217 0 341 -146.5t124 -375.5v-80h-747v-43q0 -135 79.5 -219t219.5 -84q197 0 287 172l122 -104q-57 -105 -168.5 -167.5t-257.5 -62.5q-221 0 -351 151t-130 404zM233 1522l101 73l241 -239l242 239l101 -73l-236 -299h-213zM291 616h545 v21q0 133 -72 214t-191 81q-124 0 -203 -85t-79 -216v-15z" />
<glyph unicode="&#x11c;" horiz-adv-x="1431" d="M115 713q0 352 166.5 546.5t449.5 194.5q185 0 318.5 -83.5t207.5 -233.5l-163 -97q-47 110 -140.5 173t-222.5 63q-183 0 -293 -120.5t-110 -324.5v-231q0 -206 111.5 -326t303.5 -120q151 0 250 75.5t99 216.5v129h-306v173h498v-748h-178v213h-8 q-24 -105 -128.5 -171.5t-262.5 -66.5q-130 0 -238.5 48.5t-187 140.5t-122.5 232.5t-44 316.5zM385 1624l236 299h213l235 -299l-100 -74l-242 238l-242 -238z" />
<glyph unicode="&#x11d;" horiz-adv-x="1099" d="M80 -176q0 162 174 205v22q-104 41 -104 156q0 140 184 184v8q-94 44 -145.5 128.5t-51.5 193.5q0 163 111 263.5t299 100.5q91 0 168 -24h334v-146h-158q70 -83 70 -194q0 -163 -112 -263t-302 -100q-62 0 -119 13q-52 -15 -86.5 -43.5t-34.5 -69.5q0 -44 39.5 -62 t116.5 -18h242q374 0 374 -287q0 -165 -129 -245t-397 -80q-247 0 -360 65.5t-113 192.5zM207 1280l235 299h213l236 -299l-100 -74l-242 238l-242 -238zM250 -131q0 -71 55.5 -114.5t173.5 -43.5h144q278 0 278 162q0 64 -48.5 97.5t-160.5 33.5h-356q-86 -45 -86 -135z M330 694q0 -95 57.5 -143.5t161.5 -48.5t161.5 48.5t57.5 143.5v54q0 95 -57.5 143.5t-161.5 48.5t-161.5 -48.5t-57.5 -143.5v-54z" />
<glyph unicode="&#x11e;" horiz-adv-x="1431" d="M115 713q0 352 166.5 546.5t449.5 194.5q185 0 318.5 -83.5t207.5 -233.5l-163 -97q-47 110 -140.5 173t-222.5 63q-183 0 -293 -120.5t-110 -324.5v-231q0 -206 111.5 -326t303.5 -120q151 0 250 75.5t99 216.5v129h-306v173h498v-748h-178v213h-8 q-24 -105 -128.5 -171.5t-262.5 -66.5q-130 0 -238.5 48.5t-187 140.5t-122.5 232.5t-44 316.5zM401 1833l107 51l41 -67q36 -58 73.5 -85.5t104.5 -27.5t104.5 27.5t73.5 85.5l41 67l107 -51q-12 -36 -22.5 -62t-29 -61t-42.5 -59t-56.5 -46.5t-77 -34t-98.5 -11.5 t-98.5 11.5t-77 34t-56.5 46.5t-42.5 59t-29 61t-22.5 62z" />
<glyph unicode="&#x11f;" horiz-adv-x="1099" d="M80 -176q0 162 174 205v22q-104 41 -104 156q0 140 184 184v8q-94 44 -145.5 128.5t-51.5 193.5q0 163 111 263.5t299 100.5q91 0 168 -24h334v-146h-158q70 -83 70 -194q0 -163 -112 -263t-302 -100q-62 0 -119 13q-52 -15 -86.5 -43.5t-34.5 -69.5q0 -44 39.5 -62 t116.5 -18h242q374 0 374 -287q0 -165 -129 -245t-397 -80q-247 0 -360 65.5t-113 192.5zM219 1487l107 53l41 -67q36 -59 73.5 -87t104.5 -28t104.5 28t73.5 87l41 67l106 -53q-14 -44 -27 -75t-40 -71.5t-59 -65.5t-83.5 -43t-115.5 -18t-116 18t-84 43t-58.5 65.5 t-40 71.5t-27.5 75zM250 -131q0 -71 55.5 -114.5t173.5 -43.5h144q278 0 278 162q0 64 -48.5 97.5t-160.5 33.5h-356q-86 -45 -86 -135zM330 694q0 -95 57.5 -143.5t161.5 -48.5t161.5 48.5t57.5 143.5v54q0 95 -57.5 143.5t-161.5 48.5t-161.5 -48.5t-57.5 -143.5v-54z" />
<glyph unicode="&#x120;" horiz-adv-x="1431" d="M115 713q0 352 166.5 546.5t449.5 194.5q185 0 318.5 -83.5t207.5 -233.5l-163 -97q-47 110 -140.5 173t-222.5 63q-183 0 -293 -120.5t-110 -324.5v-231q0 -206 111.5 -326t303.5 -120q151 0 250 75.5t99 216.5v129h-306v173h498v-748h-178v213h-8 q-24 -105 -128.5 -171.5t-262.5 -66.5q-130 0 -238.5 48.5t-187 140.5t-122.5 232.5t-44 316.5zM600 1702v35q0 53 31.5 83.5t95.5 30.5t95.5 -30.5t31.5 -83.5v-35q0 -53 -31.5 -84t-95.5 -31t-95.5 31t-31.5 84z" />
<glyph unicode="&#x121;" horiz-adv-x="1091" d="M80 -176q0 162 174 205v22q-104 41 -104 156q0 140 184 184v8q-94 44 -145.5 128.5t-51.5 193.5q0 163 111 263.5t299 100.5q107 0 196 -36v22q0 69 32 107.5t97 38.5h162v-160h-209v-58q133 -97 133 -278q0 -163 -110.5 -263t-300.5 -100q-62 0 -119 13 q-52 -15 -86.5 -43.5t-34.5 -69.5q0 -44 39.5 -62t116.5 -18h242q374 0 374 -287q0 -165 -129 -245t-397 -80q-247 0 -360 65.5t-113 192.5zM250 -131q0 -71 55.5 -114.5t173.5 -43.5h144q278 0 278 162q0 64 -48.5 97.5t-160.5 33.5h-356q-86 -45 -86 -135zM330 694 q0 -95 57.5 -143.5t161.5 -48.5t161.5 48.5t57.5 143.5v54q0 95 -57.5 143.5t-161.5 48.5t-161.5 -48.5t-57.5 -143.5v-54zM430 1356v28q0 48 30 76.5t89 28.5t89 -28.5t30 -76.5v-28q0 -48 -30 -76.5t-89 -28.5t-89 28.5t-30 76.5z" />
<glyph unicode="&#x122;" horiz-adv-x="1431" d="M115 713q0 352 166.5 546.5t449.5 194.5q185 0 318.5 -83.5t207.5 -233.5l-163 -97q-47 110 -140.5 173t-222.5 63q-183 0 -293 -120.5t-110 -324.5v-231q0 -206 111.5 -326t303.5 -120q151 0 250 75.5t99 216.5v129h-306v173h498v-748h-178v213h-8 q-24 -105 -128.5 -171.5t-262.5 -66.5q-130 0 -238.5 48.5t-187 140.5t-122.5 232.5t-44 316.5zM569 -514q46 46 71 83.5t38 84.5q-38 7 -58 33.5t-20 64.5v21q0 48 29.5 75t83.5 27q53 0 82.5 -27t29.5 -75v-25q0 -72 -36 -141.5t-91 -120.5h-129z" />
<glyph unicode="&#x123;" horiz-adv-x="1091" d="M80 -176q0 162 174 205v22q-104 41 -104 156q0 140 184 184v8q-94 44 -145.5 128.5t-51.5 193.5q0 163 111 263.5t299 100.5q107 0 196 -36v22q0 69 32 107.5t97 38.5h162v-160h-209v-58q133 -97 133 -278q0 -163 -110.5 -263t-300.5 -100q-62 0 -119 13 q-52 -15 -86.5 -43.5t-34.5 -69.5q0 -44 39.5 -62t116.5 -18h242q374 0 374 -287q0 -165 -129 -245t-397 -80q-247 0 -360 65.5t-113 192.5zM250 -131q0 -71 55.5 -114.5t173.5 -43.5h144q278 0 278 162q0 64 -48.5 97.5t-160.5 33.5h-356q-86 -45 -86 -135zM330 694 q0 -95 57.5 -143.5t161.5 -48.5t161.5 48.5t57.5 143.5v54q0 95 -57.5 143.5t-161.5 48.5t-161.5 -48.5t-57.5 -143.5v-54zM436 1313v24q0 71 36 141t91 121h129q-45 -45 -70 -82.5t-38 -84.5q38 -7 58 -34t20 -65v-20q0 -48 -30 -75.5t-83 -27.5t-83 27.5t-30 75.5z" />
<glyph unicode="&#x124;" horiz-adv-x="1454" d="M184 0v1430h199v-619h688v619h199v-1430h-199v635h-688v-635h-199zM387 1624l236 299h213l235 -299l-100 -74l-242 238l-242 -238z" />
<glyph unicode="&#x125;" horiz-adv-x="1173" d="M-76 1604l236 299h213l235 -299l-100 -74l-242 237l-241 -237zM168 0v1516h190v-629h11q83 198 299 198q164 0 257 -107.5t93 -299.5v-678h-191v649q0 271 -223 271q-101 0 -173.5 -50.5t-72.5 -142.5v-727h-190z" />
<glyph unicode="&#x126;" horiz-adv-x="1470" d="M47 1061v147h146v222h198v-222h688v222h199v-222h145v-147h-145v-1061h-199v635h-688v-635h-198v1061h-146zM391 811h688v250h-688v-250z" />
<glyph unicode="&#x127;" horiz-adv-x="1171" d="M37 1241v139h131v136h190v-136h304v-139h-304v-354h9q83 198 299 198q164 0 257 -107.5t93 -299.5v-678h-191v649q0 271 -221 271q-101 0 -173.5 -50.5t-72.5 -142.5v-727h-190v1241h-131z" />
<glyph unicode="&#x128;" horiz-adv-x="833" d="M63 1731q74 112 201 112q10 0 20.5 -1t19 -2t19 -4t16.5 -4.5t17 -5.5t15 -5.5t15.5 -7.5t14 -7t14.5 -7t13 -7q90 -47 145 -47q33 0 59.5 12.5t61.5 40.5l74 -92q-75 -113 -201 -113q-13 0 -26 1.5t-22.5 3t-22.5 6t-20 6.5t-20.5 8.5t-17.5 8.5t-18.5 9.5t-16.5 8.5 q-90 47 -145 47q-33 0 -59.5 -12.5t-61.5 -41.5zM119 0v168h198v1094h-198v168h596v-168h-199v-1094h199v-168h-596z" />
<glyph unicode="&#x129;" horiz-adv-x="526" d="M-88 1386q75 113 201 113q11 0 22 -1t22 -3t19 -4t19.5 -6t17 -6t17.5 -7.5t15 -7.5t16 -8.5l15 -7.5q90 -47 146 -47q33 0 59.5 12.5t61.5 40.5l73 -92q-75 -113 -200 -113q-10 0 -20.5 1t-19 2t-19 4t-16.5 4.5t-17 5.5t-15 5.5t-15.5 7.5t-14 7t-14.5 7t-13 7 q-92 48 -146 48q-33 0 -58.5 -12.5t-61.5 -41.5zM168 0v1061h190v-1061h-190z" />
<glyph unicode="&#x12a;" horiz-adv-x="833" d="M119 0v168h198v1094h-198v168h596v-168h-199v-1094h199v-168h-596zM125 1645v151h582v-151h-582z" />
<glyph unicode="&#x12b;" horiz-adv-x="526" d="M-27 1300v152h582v-152h-582zM168 0v1061h190v-1061h-190z" />
<glyph unicode="&#x12c;" horiz-adv-x="833" d="M90 1833l107 51l41 -67q36 -58 73.5 -85.5t104.5 -27.5t104.5 27.5t73.5 85.5l41 67l106 -51q-15 -44 -27.5 -75t-39.5 -72t-59 -66t-83.5 -43t-115.5 -18q-54 0 -98.5 11.5t-77 34t-56.5 46.5t-42.5 59t-29 61t-22.5 62zM119 0v168h198v1094h-198v168h596v-168h-199 v-1094h199v-168h-596z" />
<glyph unicode="&#x12d;" horiz-adv-x="526" d="M-61 1487l106 53l41 -67q36 -59 73.5 -87t104.5 -28t104.5 28t73.5 87l41 67l107 -53q-14 -44 -27.5 -75t-40 -71.5t-58.5 -65.5t-84 -43t-116 -18t-115.5 18t-83.5 43t-59 65.5t-40 71.5t-27 75zM168 0v1061h190v-1061h-190z" />
<glyph unicode="&#x12e;" horiz-adv-x="833" d="M119 0v168h198v1094h-198v168h596v-168h-199v-1094h199v-168q-128 -109 -167.5 -158.5t-39.5 -87.5q0 -61 65 -61q62 0 101 51l88 -86q-21 -37 -72 -60.5t-123 -23.5q-90 0 -147.5 40t-57.5 120q0 73 52.5 131t163.5 125l-3 10h-456z" />
<glyph unicode="&#x12f;" horiz-adv-x="526" d="M6 -266q0 72 54 130t161 128l-4 8h-49v1061h190v-1061q-127 -109 -166.5 -158.5t-39.5 -87.5q0 -61 65 -61q58 0 100 51l89 -86q-21 -37 -71 -60.5t-122 -23.5q-91 0 -149 40t-58 120zM150 1386v29q0 48 28 76.5t86 28.5t86.5 -28.5t28.5 -76.5v-29q0 -48 -28.5 -76 t-86.5 -28t-86 28t-28 76z" />
<glyph unicode="&#x130;" horiz-adv-x="833" d="M119 0v168h198v1094h-198v168h596v-168h-199v-1094h199v-168h-596zM289 1702v35q0 53 31.5 83.5t95.5 30.5t95.5 -30.5t31.5 -83.5v-35q0 -53 -31.5 -84t-95.5 -31t-95.5 31t-31.5 84z" />
<glyph unicode="&#x131;" horiz-adv-x="526" d="M168 0v1061h190v-1061h-190z" />
<glyph unicode="&#x132;" horiz-adv-x="1325" d="M174 602v828h199v-828h-199zM184 328l183 41q23 -101 96 -158t201 -57q135 0 211.5 69t76.5 207v823h-286v177h485v-975q0 -223 -132.5 -351.5t-361.5 -128.5q-199 0 -320 96.5t-153 256.5z" />
<glyph unicode="&#x133;" horiz-adv-x="1042" d="M150 1386v29q0 48 28 76.5t86 28.5t86.5 -28.5t28.5 -76.5v-29q0 -48 -28.5 -76t-86.5 -28t-86 28t-28 76zM168 0v1061h190v-1061h-190zM514 -248h170v1309h190v-1215q0 -121 -60.5 -188.5t-182.5 -67.5h-117v162zM666 1386v29q0 48 28 76.5t86 28.5t86.5 -28.5 t28.5 -76.5v-29q0 -48 -28.5 -76t-86.5 -28t-86 28t-28 76z" />
<glyph unicode="&#x134;" horiz-adv-x="1062" d="M55 315l183 41q44 -202 233 -202q104 0 161.5 63.5t57.5 188.5v847h-479v177h678v-1051q0 -184 -115.5 -294t-304.5 -110q-170 0 -276 91.5t-138 248.5zM213 1624l236 299h213l235 -299l-100 -74l-242 238l-242 -238z" />
<glyph unicode="&#x135;" horiz-adv-x="526" d="M-78 1280l236 299h213l235 -299l-100 -74l-242 238l-241 -238zM-2 -248h170v1309h190v-1215q0 -121 -60.5 -188.5t-182.5 -67.5h-117v162z" />
<glyph unicode="&#x136;" horiz-adv-x="1323" d="M184 0v1430h199v-746h8l203 254l412 492h237l-522 -609l561 -821h-244l-456 688l-199 -225v-463h-199zM557 -514q46 46 71 83.5t38 84.5q-38 7 -58 33.5t-20 64.5v21q0 48 29.5 75t82.5 27q54 0 83.5 -27t29.5 -75v-25q0 -72 -36 -141.5t-91 -120.5h-129z" />
<glyph unicode="&#x137;" horiz-adv-x="1099" d="M168 0v1516h190v-945h11l151 187l277 303h225l-377 -410l426 -651h-229l-332 528l-152 -161v-367h-190zM469 -514q46 46 71 83.5t38 84.5q-38 7 -58 33.5t-20 64.5v21q0 48 29.5 75t82.5 27q54 0 83.5 -27t29.5 -75v-25q0 -72 -36 -141.5t-91 -120.5h-129z" />
<glyph unicode="&#x138;" horiz-adv-x="1099" d="M168 0v1061h190v-490h11l159 183l287 307h227l-393 -416l422 -645h-227l-332 524l-154 -157v-367h-190z" />
<glyph unicode="&#x139;" horiz-adv-x="1038" d="M180 1597l180 357l168 -82l-227 -332zM184 0v1430h199v-1254h596v-176h-795z" />
<glyph unicode="&#x13a;" horiz-adv-x="569" d="M162 1661l180 358l168 -82l-227 -331zM168 195v1321h190v-1354h152v-162h-143q-96 0 -147.5 52.5t-51.5 142.5z" />
<glyph unicode="&#x13b;" horiz-adv-x="1038" d="M184 0v1430h199v-1254h596v-176h-795zM463 -514q45 45 70 83t38 85q-77 15 -77 98v21q0 48 29.5 75t82.5 27q54 0 83.5 -27t29.5 -75v-25q0 -72 -36 -141.5t-91 -120.5h-129z" />
<glyph unicode="&#x13c;" horiz-adv-x="569" d="M168 195v1321h190v-1354h152v-162h-143q-96 0 -147.5 52.5t-51.5 142.5zM197 -514q45 45 70 83t38 85q-38 7 -58 33.5t-20 64.5v21q0 48 29.5 75t83.5 27t83.5 -27t29.5 -75v-25q0 -72 -36 -141.5t-91 -120.5h-129z" />
<glyph unicode="&#x13d;" horiz-adv-x="1038" d="M184 0v1430h199v-1254h596v-176h-795zM541 1124l22 392h215l-112 -392h-125z" />
<glyph unicode="&#x13e;" horiz-adv-x="593" d="M168 195v1321h190v-1354h152v-162h-143q-96 0 -147.5 52.5t-51.5 142.5zM475 1124l23 392h215l-113 -392h-125z" />
<glyph unicode="&#x13f;" horiz-adv-x="1038" d="M184 0v1430h199v-1254h596v-176h-795zM680 711v28q0 48 30 76.5t89 28.5t89 -28.5t30 -76.5v-28q0 -48 -30 -76.5t-89 -28.5t-89 28.5t-30 76.5z" />
<glyph unicode="&#x140;" horiz-adv-x="765" d="M168 195v1321h190v-1354h152v-162h-143q-96 0 -147.5 52.5t-51.5 142.5zM524 627v28q0 48 30 76.5t89 28.5t89 -28.5t30 -76.5v-28q0 -48 -30 -76.5t-89 -28.5t-89 28.5t-30 76.5z" />
<glyph unicode="&#x141;" horiz-adv-x="1052" d="M-14 475v156l204 69v730h199v-666l363 121v-156l-363 -121v-432h596v-176h-795v545z" />
<glyph unicode="&#x142;" horiz-adv-x="581" d="M29 606v156l145 47v707h191v-644l210 70v-156l-210 -69v-555h151v-162h-143q-96 0 -147.5 52.5t-51.5 142.5v458z" />
<glyph unicode="&#x143;" horiz-adv-x="1454" d="M184 0v1430h222l468 -783l197 -358h6v1141h193v-1430h-221l-469 782l-197 359h-6v-1141h-193zM625 1597l180 357l168 -82l-228 -332z" />
<glyph unicode="&#x144;" horiz-adv-x="1173" d="M168 0v1061h190v-174h11q83 198 299 198q164 0 257 -107.5t93 -299.5v-678h-191v649q0 271 -223 271q-101 0 -173.5 -50.5t-72.5 -142.5v-727h-190zM492 1251l180 359l168 -82l-228 -332z" />
<glyph unicode="&#x145;" horiz-adv-x="1454" d="M184 0v1430h222l468 -783l197 -358h6v1141h193v-1430h-221l-469 782l-197 359h-6v-1141h-193zM584 -514q45 45 70 83t38 85q-38 7 -58 33.5t-20 64.5v21q0 48 29.5 75t83.5 27t83.5 -27t29.5 -75v-25q0 -72 -36 -141.5t-91 -120.5h-129z" />
<glyph unicode="&#x146;" horiz-adv-x="1173" d="M168 0v1061h190v-174h11q83 198 299 198q164 0 257 -107.5t93 -299.5v-678h-191v649q0 271 -223 271q-101 0 -173.5 -50.5t-72.5 -142.5v-727h-190zM451 -514q45 45 70 83t38 85q-38 7 -58 33.5t-20 64.5v21q0 48 29.5 75t83.5 27t83.5 -27t29.5 -75v-25 q0 -72 -36 -141.5t-91 -120.5h-129z" />
<glyph unicode="&#x147;" horiz-adv-x="1454" d="M184 0v1430h222l468 -783l197 -358h6v1141h193v-1430h-221l-469 782l-197 359h-6v-1141h-193zM385 1866l100 73l242 -237l242 237l100 -73l-235 -299h-213z" />
<glyph unicode="&#x148;" horiz-adv-x="1173" d="M168 0v1061h190v-174h11q83 198 299 198q164 0 257 -107.5t93 -299.5v-678h-191v649q0 271 -223 271q-101 0 -173.5 -50.5t-72.5 -142.5v-727h-190zM252 1522l100 73l242 -239l242 239l100 -73l-236 -299h-213z" />
<glyph unicode="&#x149;" horiz-adv-x="1689" d="M86 1001q67 68 105.5 127.5t56.5 128.5q-90 18 -90 119v31q0 60 33.5 94.5t101.5 34.5t101.5 -34.5t33.5 -94.5v-31q0 -94 -52 -198t-140 -177h-150zM684 0v1061h190v-174h11q83 198 299 198q164 0 257 -107.5t93 -299.5v-678h-191v649q0 271 -223 271 q-101 0 -173.5 -50.5t-72.5 -142.5v-727h-190z" />
<glyph unicode="&#x14a;" horiz-adv-x="1454" d="M184 0v1430h222l468 -783l197 -358h6v1141h193v-1575q0 -124 -61.5 -194.5t-184.5 -70.5h-123v168h176v242h-28l-469 782l-197 359h-6v-1141h-193z" />
<glyph unicode="&#x14b;" horiz-adv-x="1173" d="M168 0v1061h190v-174h11q83 198 299 198q164 0 257 -107.5t93 -299.5v-836q0 -119 -60.5 -185.5t-181.5 -66.5h-119v162h170v897q0 271 -223 271q-101 0 -173.5 -50.5t-72.5 -142.5v-727h-190z" />
<glyph unicode="&#x14c;" horiz-adv-x="1449" d="M115 715q0 355 163.5 547t446.5 192t446.5 -192t163.5 -547t-163.5 -547.5t-446.5 -192.5t-446.5 192.5t-163.5 547.5zM328 598q0 -203 109 -323.5t288 -120.5t288 120.5t109 323.5v233q0 203 -109 324t-288 121t-288 -121t-109 -324v-233zM434 1645v151h582v-151h-582z " />
<glyph unicode="&#x14d;" horiz-adv-x="1150" d="M92 530q0 252 132.5 403.5t350.5 151.5t351 -151.5t133 -403.5t-133 -403.5t-351 -151.5t-350.5 151.5t-132.5 403.5zM285 1300v152h581v-152h-581zM295 451q0 -151 76 -231.5t204 -80.5t204.5 80.5t76.5 231.5v159q0 151 -76.5 231.5t-204.5 80.5t-204 -80.5t-76 -231.5 v-159z" />
<glyph unicode="&#x14e;" horiz-adv-x="1449" d="M115 715q0 355 163.5 547t446.5 192t446.5 -192t163.5 -547t-163.5 -547.5t-446.5 -192.5t-446.5 192.5t-163.5 547.5zM328 598q0 -203 109 -323.5t288 -120.5t288 120.5t109 323.5v233q0 203 -109 324t-288 121t-288 -121t-109 -324v-233zM399 1833l107 51l41 -67 q36 -58 73.5 -85.5t104.5 -27.5t104.5 27.5t73.5 85.5l41 67l107 -51q-12 -36 -22.5 -62t-29 -61t-42.5 -59t-56.5 -46.5t-77 -34t-98.5 -11.5t-98.5 11.5t-77 34t-56.5 46.5t-42.5 59t-29 61t-22.5 62z" />
<glyph unicode="&#x14f;" horiz-adv-x="1150" d="M92 530q0 252 132.5 403.5t350.5 151.5t351 -151.5t133 -403.5t-133 -403.5t-351 -151.5t-350.5 151.5t-132.5 403.5zM250 1487l106 53l41 -67q36 -59 73.5 -87t104.5 -28t105 28.5t74 86.5l41 67l106 -53q-14 -44 -27.5 -75t-40 -71.5t-58.5 -65.5t-84 -43t-116 -18 t-115.5 18t-83.5 43t-59 65.5t-40 71.5t-27 75zM295 451q0 -151 76 -231.5t204 -80.5t204.5 80.5t76.5 231.5v159q0 151 -76.5 231.5t-204.5 80.5t-204 -80.5t-76 -231.5v-159z" />
<glyph unicode="&#x150;" horiz-adv-x="1449" d="M115 715q0 355 163.5 547t446.5 192t446.5 -192t163.5 -547t-163.5 -547.5t-446.5 -192.5t-446.5 192.5t-163.5 547.5zM328 598q0 -203 109 -323.5t288 -120.5t288 120.5t109 323.5v233q0 203 -109 324t-288 121t-288 -121t-109 -324v-233zM457 1593l180 359l160 -78 l-228 -332zM803 1593l180 359l160 -78l-230 -332z" />
<glyph unicode="&#x151;" horiz-adv-x="1150" d="M92 530q0 252 132.5 403.5t350.5 151.5t351 -151.5t133 -403.5t-133 -403.5t-351 -151.5t-350.5 151.5t-132.5 403.5zM295 451q0 -151 76 -231.5t204 -80.5t204.5 80.5t76.5 231.5v159q0 151 -76.5 231.5t-204.5 80.5t-204 -80.5t-76 -231.5v-159zM307 1249l180 359 l160 -78l-227 -332zM653 1249l181 359l159 -78l-229 -332z" />
<glyph unicode="&#x152;" horiz-adv-x="2021" d="M115 715q0 357 167.5 548t465.5 191q130 0 260 -24h886v-177h-694v-442h643v-176h-643v-459h694v-176h-890q-129 -25 -256 -25q-298 0 -465.5 191.5t-167.5 548.5zM328 598q0 -209 110.5 -326.5t325.5 -117.5q134 0 237 32v1057q-106 33 -237 33q-215 0 -325.5 -118 t-110.5 -327v-233z" />
<glyph unicode="&#x153;" horiz-adv-x="1894" d="M92 530q0 252 132.5 403.5t350.5 151.5q132 0 228.5 -56.5t146.5 -162.5h13q45 102 143 160.5t233 58.5q213 0 338 -144.5t125 -377.5v-80h-745v-43q0 -135 79.5 -219t219.5 -84q196 0 289 172l120 -104q-57 -106 -164 -168t-249 -62t-242.5 61.5t-148.5 158.5h-11 q-46 -98 -146 -159t-229 -61q-218 0 -350.5 151.5t-132.5 403.5zM295 451q0 -151 76 -231.5t204 -80.5t204.5 80.5t76.5 231.5v159q0 151 -76.5 231.5t-204.5 80.5t-204 -80.5t-76 -231.5v-159zM1057 616h542v21q0 133 -71 214t-189 81q-125 0 -203.5 -85t-78.5 -216v-15z " />
<glyph unicode="&#x154;" horiz-adv-x="1325" d="M184 0v1430h590q189 0 297.5 -112t108.5 -308q0 -156 -72 -258.5t-209 -137.5l318 -614h-224l-297 594h-313v-594h-199zM383 766h383q96 0 149.5 50t53.5 142v103q0 92 -53.5 142t-149.5 50h-383v-487zM532 1597l181 357l168 -82l-228 -332z" />
<glyph unicode="&#x155;" horiz-adv-x="768" d="M168 0v1061h190v-203h11q29 87 104.5 145t194.5 58h63v-191h-94q-130 0 -204.5 -47.5t-74.5 -126.5v-696h-190zM348 1251l180 359l168 -82l-227 -332z" />
<glyph unicode="&#x156;" horiz-adv-x="1325" d="M184 0v1430h590q189 0 297.5 -112t108.5 -308q0 -156 -72 -258.5t-209 -137.5l318 -614h-224l-297 594h-313v-594h-199zM383 766h383q96 0 149.5 50t53.5 142v103q0 92 -53.5 142t-149.5 50h-383v-487zM532 -514q46 46 71 83.5t38 84.5q-38 7 -58 33.5t-20 64.5v21 q0 48 29.5 75t83.5 27q53 0 82.5 -27t29.5 -75v-25q0 -72 -35.5 -141.5t-90.5 -120.5h-130z" />
<glyph unicode="&#x157;" horiz-adv-x="768" d="M123 -514q45 45 70 83t38 85q-77 15 -77 98v21q0 48 29.5 75t82.5 27q54 0 83.5 -27t29.5 -75v-25q0 -72 -36 -141.5t-91 -120.5h-129zM168 0v1061h190v-203h11q29 87 104.5 145t194.5 58h63v-191h-94q-130 0 -204.5 -47.5t-74.5 -126.5v-696h-190z" />
<glyph unicode="&#x158;" horiz-adv-x="1325" d="M184 0v1430h590q189 0 297.5 -112t108.5 -308q0 -156 -72 -258.5t-209 -137.5l318 -614h-224l-297 594h-313v-594h-199zM293 1866l100 73l242 -237l242 237l100 -73l-236 -299h-213zM383 766h383q96 0 149.5 50t53.5 142v103q0 92 -53.5 142t-149.5 50h-383v-487z" />
<glyph unicode="&#x159;" horiz-adv-x="768" d="M109 1522l100 73l242 -239l241 239l101 -73l-236 -299h-213zM168 0v1061h190v-203h11q29 87 104.5 145t194.5 58h63v-191h-94q-130 0 -204.5 -47.5t-74.5 -126.5v-696h-190z" />
<glyph unicode="&#x15a;" horiz-adv-x="1204" d="M84 221l141 127q153 -198 379 -198q144 0 221.5 67.5t77.5 183.5q0 94 -56.5 147.5t-189.5 82.5l-120 24q-205 42 -307.5 139t-102.5 261q0 188 131 293.5t354 105.5q310 0 478 -227l-146 -117q-124 170 -342 170q-132 0 -205 -56t-73 -161q0 -93 59 -142.5t190 -78.5 l121 -25q211 -46 308.5 -143.5t97.5 -261.5q0 -200 -134 -318.5t-370 -118.5q-326 0 -512 246zM494 1597l180 357l168 -82l-228 -332z" />
<glyph unicode="&#x15b;" horiz-adv-x="1003" d="M70 180l129 111q126 -158 307 -158q100 0 154.5 42t54.5 116q0 62 -39 100t-131 51l-90 15q-164 23 -254 96t-90 213q0 152 106 235.5t279 83.5q129 0 220.5 -43t162.5 -127l-121 -114q-42 56 -111 91.5t-158 35.5q-95 0 -144.5 -40.5t-49.5 -109.5q0 -68 44 -102.5 t140 -48.5l90 -15q171 -26 250.5 -100.5t79.5 -200.5q0 -155 -109 -245.5t-296 -90.5q-263 0 -424 205zM389 1251l180 359l168 -82l-227 -332z" />
<glyph unicode="&#x15c;" horiz-adv-x="1204" d="M84 221l141 127q153 -198 379 -198q144 0 221.5 67.5t77.5 183.5q0 94 -56.5 147.5t-189.5 82.5l-120 24q-205 42 -307.5 139t-102.5 261q0 188 131 293.5t354 105.5q310 0 478 -227l-146 -117q-124 170 -342 170q-132 0 -205 -56t-73 -161q0 -93 59 -142.5t190 -78.5 l121 -25q211 -46 308.5 -143.5t97.5 -261.5q0 -200 -134 -318.5t-370 -118.5q-326 0 -512 246zM254 1624l235 299h213l236 -299l-100 -74l-242 238l-242 -238z" />
<glyph unicode="&#x15d;" horiz-adv-x="1003" d="M70 180l129 111q126 -158 307 -158q100 0 154.5 42t54.5 116q0 62 -39 100t-131 51l-90 15q-164 23 -254 96t-90 213q0 152 106 235.5t279 83.5q129 0 220.5 -43t162.5 -127l-121 -114q-42 56 -111 91.5t-158 35.5q-95 0 -144.5 -40.5t-49.5 -109.5q0 -68 44 -102.5 t140 -48.5l90 -15q171 -26 250.5 -100.5t79.5 -200.5q0 -155 -109 -245.5t-296 -90.5q-263 0 -424 205zM150 1280l235 299h213l236 -299l-101 -74l-241 238l-242 -238z" />
<glyph unicode="&#x15e;" horiz-adv-x="1204" d="M84 221l141 127q153 -198 379 -198q144 0 221.5 67.5t77.5 183.5q0 94 -56.5 147.5t-189.5 82.5l-120 24q-205 42 -307.5 139t-102.5 261q0 188 131 293.5t354 105.5q310 0 478 -227l-146 -117q-124 170 -342 170q-132 0 -205 -56t-73 -161q0 -93 59 -142.5t190 -78.5 l121 -25q211 -46 308.5 -143.5t97.5 -261.5q0 -189 -121.5 -306t-335.5 -129l-18 -100l6 -6q40 12 82 12q64 0 102.5 -35t38.5 -100q0 -87 -67 -130.5t-169 -43.5q-145 0 -210 86l79 88q46 -57 127 -57q40 0 65.5 15.5t25.5 45.5q0 31 -30 52t-112 32l-55 8l27 133 q-281 20 -451 244z" />
<glyph unicode="&#x15f;" horiz-adv-x="1003" d="M70 180l129 111q126 -158 307 -158q100 0 154.5 42t54.5 116q0 62 -39 100t-131 51l-90 15q-164 23 -254 96t-90 213q0 152 106 235.5t279 83.5q129 0 220.5 -43t162.5 -127l-121 -114q-42 56 -111 91.5t-158 35.5q-95 0 -144.5 -40.5t-49.5 -109.5q0 -68 44 -102.5 t140 -48.5l90 -15q171 -24 250.5 -99.5t79.5 -201.5q0 -143 -95 -232.5t-259 -101.5l-21 -100l6 -6q44 12 84 12q62 0 101 -35t39 -100q0 -87 -66 -130.5t-168 -43.5q-148 0 -213 86l80 88q46 -57 129 -57q40 0 64 15.5t24 45.5q0 31 -30 52t-111 32l-55 8l26 133 q-225 20 -364 203z" />
<glyph unicode="&#x160;" horiz-adv-x="1204" d="M84 221l141 127q153 -198 379 -198q144 0 221.5 67.5t77.5 183.5q0 94 -56.5 147.5t-189.5 82.5l-120 24q-205 42 -307.5 139t-102.5 261q0 188 131 293.5t354 105.5q310 0 478 -227l-146 -117q-124 170 -342 170q-132 0 -205 -56t-73 -161q0 -93 59 -142.5t190 -78.5 l121 -25q211 -46 308.5 -143.5t97.5 -261.5q0 -200 -134 -318.5t-370 -118.5q-326 0 -512 246zM254 1866l100 73l242 -237l242 237l100 -73l-236 -299h-213z" />
<glyph unicode="&#x161;" horiz-adv-x="1003" d="M70 180l129 111q126 -158 307 -158q100 0 154.5 42t54.5 116q0 62 -39 100t-131 51l-90 15q-164 23 -254 96t-90 213q0 152 106 235.5t279 83.5q129 0 220.5 -43t162.5 -127l-121 -114q-42 56 -111 91.5t-158 35.5q-95 0 -144.5 -40.5t-49.5 -109.5q0 -68 44 -102.5 t140 -48.5l90 -15q171 -26 250.5 -100.5t79.5 -200.5q0 -155 -109 -245.5t-296 -90.5q-263 0 -424 205zM150 1522l100 73l242 -239l241 239l101 -73l-236 -299h-213z" />
<glyph unicode="&#x162;" horiz-adv-x="1177" d="M47 1253v177h1083v-177h-442v-1253h-199v1253h-442zM446 -514q46 46 71 83.5t38 84.5q-38 7 -58 33.5t-20 64.5v21q0 48 29.5 75t83.5 27q53 0 82.5 -27t29.5 -75v-25q0 -72 -36 -141.5t-91 -120.5h-129z" />
<glyph unicode="&#x163;" horiz-adv-x="731" d="M57 899v162h95q53 0 73.5 21.5t20.5 76.5v195h172v-293h227v-162h-227v-737h211v-162h-201q-97 0 -149 53.5t-52 147.5v698h-170zM299 -514q46 46 71 83.5t38 84.5q-38 7 -58 33.5t-20 64.5v21q0 48 29.5 75t82.5 27q54 0 83.5 -27t29.5 -75v-25q0 -72 -36 -141.5 t-91 -120.5h-129z" />
<glyph unicode="&#x164;" horiz-adv-x="1177" d="M47 1253v177h1083v-177h-442v-1253h-199v1253h-442zM248 1866l100 73l242 -237l241 237l101 -73l-236 -299h-213z" />
<glyph unicode="&#x165;" horiz-adv-x="733" d="M57 899v162h95q53 0 73.5 21.5t20.5 76.5v195h172v-293h227v-162h-227v-737h211v-162h-201q-97 0 -149 53.5t-52 147.5v698h-170zM555 1161l23 391h215l-113 -391h-125z" />
<glyph unicode="&#x166;" horiz-adv-x="1198" d="M57 1253v177h1084v-177h-443v-432h328v-151h-328v-670h-198v670h-328v151h328v432h-443z" />
<glyph unicode="&#x167;" horiz-adv-x="745" d="M63 899v162h95q53 0 73.5 21.5t20.5 76.5v195h172v-293h227v-162h-227v-260h184v-141h-184v-336h211v-162h-199q-97 0 -150 53.5t-53 145.5v299h-131v141h131v260h-170z" />
<glyph unicode="&#x168;" horiz-adv-x="1396" d="M174 586v844h199v-883q0 -201 74.5 -297t250.5 -96q177 0 251.5 96t74.5 297v883h199v-844q0 -319 -122.5 -465t-408.5 -146q-145 0 -244 36t-160 113.5t-87.5 189t-26.5 272.5zM342 1731q74 112 201 112q10 0 20.5 -1t19 -2t19 -4t16.5 -4.5t17 -5.5t15 -5.5t15.5 -7.5 t14 -7t14.5 -7t13 -7q90 -47 145 -47q33 0 59.5 12.5t61.5 40.5l74 -92q-75 -113 -201 -113q-13 0 -26 1.5t-22.5 3t-22.5 6t-20 6.5t-20.5 8.5t-17.5 8.5t-18.5 9.5t-16.5 8.5q-90 47 -145 47q-33 0 -59.5 -12.5t-61.5 -41.5z" />
<glyph unicode="&#x169;" horiz-adv-x="1175" d="M158 383v678h190v-649q0 -271 225 -271q99 0 171.5 50.5t72.5 144.5v725h191v-1061h-191v174h-10q-76 -199 -297 -199q-164 0 -258 108t-94 300zM231 1386q75 113 201 113q10 0 20.5 -1t19 -2t19 -4t16.5 -4.5t17 -5.5t15 -5.5t15.5 -7.5t14 -7t14.5 -7t13 -7 q90 -47 145 -47q33 0 59.5 12.5t61.5 40.5l74 -92q-75 -113 -201 -113q-10 0 -20.5 1t-19 2t-19 4t-16.5 4.5t-17 5.5t-15 5.5t-15.5 7.5t-14 7t-14.5 7t-13 7q-92 48 -145 48q-33 0 -59.5 -12.5t-61.5 -41.5z" />
<glyph unicode="&#x16a;" horiz-adv-x="1396" d="M174 586v844h199v-883q0 -201 74.5 -297t250.5 -96q177 0 251.5 96t74.5 297v883h199v-844q0 -319 -122.5 -465t-408.5 -146q-145 0 -244 36t-160 113.5t-87.5 189t-26.5 272.5zM403 1645v151h582v-151h-582z" />
<glyph unicode="&#x16b;" horiz-adv-x="1175" d="M158 383v678h190v-649q0 -271 225 -271q99 0 171.5 50.5t72.5 144.5v725h191v-1061h-191v174h-10q-76 -199 -297 -199q-164 0 -258 108t-94 300zM293 1300v152h581v-152h-581z" />
<glyph unicode="&#x16c;" horiz-adv-x="1396" d="M174 586v844h199v-883q0 -201 74.5 -297t250.5 -96q177 0 251.5 96t74.5 297v883h199v-844q0 -319 -122.5 -465t-408.5 -146q-145 0 -244 36t-160 113.5t-87.5 189t-26.5 272.5zM369 1833l106 51l41 -67q36 -58 73.5 -85.5t104.5 -27.5t104.5 27.5t73.5 85.5l41 67 l107 -51q-12 -36 -22.5 -62t-29 -61t-42.5 -59t-56.5 -46.5t-77 -34t-98.5 -11.5q-64 0 -115.5 18t-83.5 43t-59 66t-39.5 72t-27.5 75z" />
<glyph unicode="&#x16d;" horiz-adv-x="1175" d="M158 383v678h190v-649q0 -271 225 -271q99 0 171.5 50.5t72.5 144.5v725h191v-1061h-191v174h-10q-76 -199 -297 -199q-164 0 -258 108t-94 300zM258 1487l107 53l41 -67q36 -59 73.5 -87t104.5 -28t104.5 28t73.5 87l41 67l106 -53q-14 -44 -27 -75t-40 -71.5t-59 -65.5 t-83.5 -43t-115.5 -18t-116 18t-84 43t-58.5 65.5t-40 71.5t-27.5 75z" />
<glyph unicode="&#x16e;" horiz-adv-x="1396" d="M174 586v844h199v-883q0 -201 74.5 -297t250.5 -96q177 0 251.5 96t74.5 297v883h199v-844q0 -319 -122.5 -465t-408.5 -146q-145 0 -244 36t-160 113.5t-87.5 189t-26.5 272.5zM444 1765q0 105 72.5 175.5t177.5 70.5t177.5 -70.5t72.5 -175.5t-72.5 -175t-177.5 -70 t-177.5 70t-72.5 175zM578 1741q0 -53 30.5 -82t85.5 -29t86 29t31 82v49q0 53 -31 82t-86 29t-85.5 -29t-30.5 -82v-49z" />
<glyph unicode="&#x16f;" horiz-adv-x="1175" d="M158 383v678h190v-649q0 -271 225 -271q99 0 171.5 50.5t72.5 144.5v725h191v-1061h-191v174h-10q-76 -199 -297 -199q-164 0 -258 108t-94 300zM334 1419q0 105 72.5 175.5t177.5 70.5t177.5 -70.5t72.5 -175.5t-72.5 -175t-177.5 -70t-177.5 70t-72.5 175zM467 1395 q0 -53 31 -82t86 -29t85.5 29t30.5 82v49q0 53 -30.5 81.5t-85.5 28.5t-86 -28.5t-31 -81.5v-49z" />
<glyph unicode="&#x170;" horiz-adv-x="1396" d="M174 586v844h199v-883q0 -201 74.5 -297t250.5 -96q177 0 251.5 96t74.5 297v883h199v-844q0 -319 -122.5 -465t-408.5 -146q-145 0 -244 36t-160 113.5t-87.5 189t-26.5 272.5zM426 1593l180 359l160 -78l-227 -332zM772 1593l180 359l160 -78l-229 -332z" />
<glyph unicode="&#x171;" horiz-adv-x="1175" d="M158 383v678h190v-649q0 -271 225 -271q99 0 171.5 50.5t72.5 144.5v725h191v-1061h-191v174h-10q-76 -199 -297 -199q-164 0 -258 108t-94 300zM315 1249l181 359l159 -78l-227 -332zM662 1249l180 359l159 -78l-229 -332z" />
<glyph unicode="&#x172;" horiz-adv-x="1396" d="M174 586v844h199v-883q0 -201 74.5 -297t250.5 -96q177 0 251.5 96t74.5 297v883h199v-844q0 -209 -52 -343.5t-190 -265.5q-21 -20 -49 -47t-42 -40t-32.5 -31.5t-27 -29.5t-17 -25t-11.5 -25.5t-3 -24.5q0 -61 67 -61q60 0 99 51l88 -86q-21 -37 -72 -60.5t-123 -23.5 q-89 0 -147 39t-58 117q0 41 16.5 75.5t55.5 69t71.5 57t96.5 62.5l-6 12q-73 -31 -195 -31q-145 0 -244 36t-160 113.5t-87.5 189t-26.5 272.5z" />
<glyph unicode="&#x173;" horiz-adv-x="1173" d="M156 383v678h190v-649q0 -271 225 -271q99 0 171.5 50.5t72.5 144.5v725h191v-1061q-127 -110 -167 -159t-40 -87q0 -61 65 -61q62 0 101 51l88 -86q-21 -37 -72 -60.5t-123 -23.5q-90 0 -147.5 40t-57.5 120q0 73 54 133t159 127l-2 6h-49v174h-10q-76 -199 -297 -199 q-164 0 -258 108t-94 300z" />
<glyph unicode="&#x174;" horiz-adv-x="1857" d="M45 1430h205l151 -689l111 -508h4l125 508l176 689h223l172 -689l125 -505h6l113 505l158 689h198l-360 -1430h-221l-187 725l-118 483h-4l-123 -483l-189 -725h-223zM588 1624l235 299h213l236 -299l-101 -74l-241 238l-242 -238z" />
<glyph unicode="&#x175;" horiz-adv-x="1601" d="M59 1061h185l110 -453l107 -436h4l121 436l131 453h170l135 -453l123 -436h6l100 436l113 453h178l-282 -1061h-226l-143 498l-90 311h-4l-88 -311l-144 -498h-221zM459 1280l235 299h213l236 -299l-101 -74l-241 238l-242 -238z" />
<glyph unicode="&#x176;" horiz-adv-x="1234" d="M25 1430h227l366 -666h7l364 666h221l-495 -861v-569h-199v563zM276 1624l236 299h213l236 -299l-101 -74l-242 238l-241 -238z" />
<glyph unicode="&#x177;" horiz-adv-x="1036" d="M31 1061h190l236 -678l55 -199h10l62 199l237 678h185l-461 -1292q-38 -103 -91 -141t-171 -38h-105v162h174l72 205zM178 1280l236 299h213l235 -299l-100 -74l-242 238l-241 -238z" />
<glyph unicode="&#x178;" horiz-adv-x="1234" d="M25 1430h227l366 -666h7l364 666h221l-495 -861v-569h-199v563zM309 1704v33q0 100 113 100t113 -100v-33q0 -100 -113 -100t-113 100zM702 1704v33q0 100 113 100t113 -100v-33q0 -100 -113 -100t-113 100z" />
<glyph unicode="&#x179;" horiz-adv-x="1200" d="M76 0v178l798 1075h-757v177h981v-179l-803 -1075h829v-176h-1048zM508 1597l180 357l168 -82l-227 -332z" />
<glyph unicode="&#x17a;" horiz-adv-x="970" d="M70 0v158l587 741h-569v162h797v-146l-598 -753h614v-162h-831zM383 1251l180 359l168 -82l-227 -332z" />
<glyph unicode="&#x17b;" horiz-adv-x="1200" d="M76 0v178l798 1075h-757v177h981v-179l-803 -1075h829v-176h-1048zM483 1702v35q0 53 31.5 83.5t95.5 30.5t95.5 -30.5t31.5 -83.5v-35q0 -53 -31.5 -84t-95.5 -31t-95.5 31t-31.5 84z" />
<glyph unicode="&#x17c;" horiz-adv-x="970" d="M70 0v158l587 741h-569v162h797v-146l-598 -753h614v-162h-831zM367 1356v28q0 48 29.5 76.5t88.5 28.5t89 -28.5t30 -76.5v-28q0 -48 -30 -76.5t-89 -28.5t-88.5 28.5t-29.5 76.5z" />
<glyph unicode="&#x17d;" horiz-adv-x="1200" d="M76 0v178l798 1075h-757v177h981v-179l-803 -1075h829v-176h-1048zM268 1866l101 73l241 -237l242 237l100 -73l-235 -299h-213z" />
<glyph unicode="&#x17e;" horiz-adv-x="970" d="M70 0v158l587 741h-569v162h797v-146l-598 -753h614v-162h-831zM143 1522l101 73l241 -239l242 239l100 -73l-235 -299h-213z" />
<glyph unicode="&#x18f;" horiz-adv-x="1458" d="M115 715v55h1018v51q0 203 -115.5 329t-288.5 126q-137 0 -232.5 -70.5t-146.5 -199.5l-170 75q63 167 205 270t344 103q286 0 450 -195.5t164 -543.5t-164 -544t-450 -196t-450 196t-164 544zM326 608q6 -205 118.5 -329.5t284.5 -124.5q174 0 289 125.5t115 328.5h-807 z" />
<glyph unicode="&#x192;" horiz-adv-x="995" d="M-2 -274l16 161h287l72 709h-279l19 168h276l41 410q12 118 83 187t194 69h243l-18 -162h-299l-51 -504h327l-14 -168h-330l-63 -616q-11 -115 -82 -184.5t-195 -69.5h-227z" />
<glyph unicode="&#x1a0;" horiz-adv-x="1449" d="M115 715q0 355 163.5 547t446.5 192q101 0 186 -24h277v231h166v-207q0 -70 -31.5 -106.5t-112.5 -36.5h-84q209 -202 209 -596q0 -355 -163.5 -547.5t-446.5 -192.5t-446.5 192.5t-163.5 547.5zM328 598q0 -203 109 -323.5t288 -120.5t288 120.5t109 323.5v233 q0 203 -109 324t-288 121t-288 -121t-109 -324v-233z" />
<glyph unicode="&#x1a1;" horiz-adv-x="1150" d="M92 530q0 252 132.5 403.5t350.5 151.5q87 0 160 -24h174v231h166v-205q0 -71 -30.5 -107t-108.5 -36h-21q144 -159 144 -414q0 -252 -133 -403.5t-351 -151.5t-350.5 151.5t-132.5 403.5zM295 451q0 -151 76 -231.5t204 -80.5t204.5 80.5t76.5 231.5v159 q0 151 -76.5 231.5t-204.5 80.5t-204 -80.5t-76 -231.5v-159z" />
<glyph unicode="&#x1af;" horiz-adv-x="1396" d="M174 586v844h199v-883q0 -201 74.5 -297t250.5 -96q177 0 251.5 96t74.5 297v883h182v231h166v-211q0 -69 -32 -106t-113 -37h-4v-721q0 -319 -122.5 -465t-408.5 -146q-145 0 -244 36t-160 113.5t-87.5 189t-26.5 272.5z" />
<glyph unicode="&#x1b0;" horiz-adv-x="1173" d="M156 383v678h190v-649q0 -271 225 -271q99 0 171.5 50.5t72.5 144.5v725h189v231h165v-211q0 -69 -31 -106t-112 -37h-20v-938h-191v174h-10q-76 -199 -297 -199q-164 0 -258 108t-94 300z" />
<glyph unicode="&#x1fa;" horiz-adv-x="1329" d="M45 0l496 1430h250l493 -1430h-209l-135 403h-557l-137 -403h-201zM414 1741q0 103 72.5 170t179.5 67t179.5 -67t72.5 -170t-72.5 -170.5t-179.5 -67.5t-179.5 67.5t-72.5 170.5zM430 580h461l-225 667h-11zM549 1720q0 -52 30.5 -80t86.5 -28t86 28t30 80v41 q0 52 -30 80.5t-86 28.5t-86.5 -28.5t-30.5 -80.5v-41zM588 2071l172 233l143 -74l-217 -213z" />
<glyph unicode="&#x1fb;" horiz-adv-x="1107" d="M86 293q0 155 113.5 235t339.5 80h200v97q0 221 -235 221q-167 0 -260 -152l-115 105q51 93 148 149.5t237 56.5q198 0 307 -96t109 -268v-559h119v-162h-109q-84 0 -129.5 47.5t-56.5 128.5h-11q-32 -97 -112 -149t-195 -52q-165 0 -257.5 85.5t-92.5 232.5zM270 1397 q0 103 72.5 170t179.5 67t179.5 -67t72.5 -170t-72.5 -170.5t-179.5 -67.5t-179.5 67.5t-72.5 170.5zM285 283q0 -73 52 -113.5t142 -40.5q113 0 186.5 51.5t73.5 130.5v164h-202q-252 0 -252 -151v-41zM406 1376q0 -108 116 -108q56 0 86.5 27.5t30.5 80.5v41 q0 53 -30.5 81t-86.5 28t-86 -27.5t-30 -81.5v-41zM449 1733l176 237l127 -92l-213 -211z" />
<glyph unicode="&#x1fc;" horiz-adv-x="1882" d="M6 0l725 1430h1022v-177h-692v-442h641v-176h-641v-459h692v-176h-891v406h-454l-199 -406h-203zM489 578h373v675h-31zM1139 1597l180 357l168 -82l-227 -332z" />
<glyph unicode="&#x1fd;" horiz-adv-x="1769" d="M86 291q0 157 117 241t336 84h200v89q0 107 -58 164t-171 57q-175 0 -266 -152l-115 105q50 92 148 149t239 57q249 0 328 -219h12q27 81 130 150t243 69q208 0 328 -146.5t120 -375.5v-80h-747v-43q0 -133 81.5 -218t219.5 -85q192 0 287 170l122 -102 q-56 -106 -164.5 -168t-244.5 -62q-78 0 -149 22.5t-120.5 57.5t-82 75t-43.5 79h-13q-10 -38 -39.5 -77.5t-76.5 -75.5t-118.5 -58.5t-154.5 -22.5q-160 0 -254 86.5t-94 229.5zM285 285q0 -75 51 -115.5t145 -40.5q110 0 184 51.5t74 130.5v172h-202q-252 -9 -252 -157 v-41zM752 1251l180 359l168 -82l-228 -332zM932 616h543v21q0 132 -71.5 213.5t-189.5 81.5q-125 0 -203.5 -85t-78.5 -216v-15z" />
<glyph unicode="&#x1fe;" horiz-adv-x="1449" d="M115 715q0 355 163.5 547t446.5 192q204 0 346 -100l121 172l129 -84l-135 -199q149 -191 149 -528q0 -355 -163.5 -547.5t-446.5 -192.5q-202 0 -346 101l-121 -172l-129 84l135 198q-149 191 -149 529zM328 598q0 -141 55 -248l584 848q-101 78 -242 78 q-179 0 -288 -121t-109 -324v-233zM483 231q100 -77 242 -77q179 0 288 120.5t109 323.5v233q0 141 -55 248zM623 1597l180 357l168 -82l-228 -332z" />
<glyph unicode="&#x1ff;" horiz-adv-x="1163" d="M63 -6l138 170q-103 147 -103 366q0 252 133 403.5t351 151.5q164 0 286 -92l125 154l107 -80l-137 -172q102 -142 102 -365q0 -252 -132.5 -403.5t-350.5 -151.5q-167 0 -287 91l-125 -152zM301 451q0 -81 21 -140l444 549q-74 62 -184 62q-128 0 -204.5 -80.5 t-76.5 -231.5v-159zM397 201q71 -62 185 -62q128 0 204 80.5t76 231.5v159q0 76 -22 140zM477 1251l180 359l168 -82l-227 -332z" />
<glyph unicode="&#x218;" horiz-adv-x="1204" d="M84 221l141 127q153 -198 379 -198q144 0 221.5 67.5t77.5 183.5q0 94 -56.5 147.5t-189.5 82.5l-120 24q-205 42 -307.5 139t-102.5 261q0 188 131 293.5t354 105.5q310 0 478 -227l-146 -117q-124 170 -342 170q-132 0 -205 -56t-73 -161q0 -93 59 -142.5t190 -78.5 l121 -25q211 -46 308.5 -143.5t97.5 -261.5q0 -200 -134 -318.5t-370 -118.5q-326 0 -512 246zM451 -514q45 45 70 83t38 85q-38 7 -58 33.5t-20 64.5v21q0 48 29.5 75t83.5 27t83.5 -27t29.5 -75v-25q0 -72 -36 -141.5t-91 -120.5h-129z" />
<glyph unicode="&#x219;" horiz-adv-x="1003" d="M70 180l129 111q126 -158 307 -158q100 0 154.5 42t54.5 116q0 62 -39 100t-131 51l-90 15q-164 23 -254 96t-90 213q0 152 106 235.5t279 83.5q129 0 220.5 -43t162.5 -127l-121 -114q-42 56 -111 91.5t-158 35.5q-95 0 -144.5 -40.5t-49.5 -109.5q0 -68 44 -102.5 t140 -48.5l90 -15q171 -26 250.5 -100.5t79.5 -200.5q0 -155 -109 -245.5t-296 -90.5q-263 0 -424 205zM352 -514q46 46 71 83.5t38 84.5q-38 7 -58 33.5t-20 64.5v21q0 48 29.5 75t83.5 27q53 0 82.5 -27t29.5 -75v-25q0 -72 -36 -141.5t-91 -120.5h-129z" />
<glyph unicode="&#x21a;" horiz-adv-x="1177" d="M47 1253v177h1083v-177h-442v-1253h-199v1253h-442zM446 -514q46 46 71 83.5t38 84.5q-38 7 -58 33.5t-20 64.5v21q0 48 29.5 75t83.5 27q53 0 82.5 -27t29.5 -75v-25q0 -72 -36 -141.5t-91 -120.5h-129z" />
<glyph unicode="&#x21b;" horiz-adv-x="731" d="M57 899v162h95q53 0 73.5 21.5t20.5 76.5v195h172v-293h227v-162h-227v-737h211v-162h-201q-97 0 -149 53.5t-52 147.5v698h-170zM299 -514q46 46 71 83.5t38 84.5q-38 7 -58 33.5t-20 64.5v21q0 48 29.5 75t82.5 27q54 0 83.5 -27t29.5 -75v-25q0 -72 -36 -141.5 t-91 -120.5h-129z" />
<glyph unicode="&#x237;" horiz-adv-x="526" d="M-2 -248h170v1309h190v-1215q0 -121 -60.5 -188.5t-182.5 -67.5h-117v162z" />
<glyph unicode="&#x259;" horiz-adv-x="1130" d="M92 498v80h748v43q0 132 -79.5 217.5t-203.5 85.5q-210 0 -299 -172l-123 104q55 105 165.5 167t256.5 62q221 0 351 -151t130 -404t-130 -404t-351 -151q-145 0 -251.5 69t-160 186.5t-53.5 267.5zM295 424q0 -133 71.5 -214t190.5 -81q124 0 203.5 85t79.5 216v14h-545 v-20z" />
<glyph unicode="&#x2bb;" d="M504 1313v24q0 71 36 141t91 121h129q-46 -46 -71 -83t-38 -84q38 -7 58 -34t20 -65v-20q0 -48 -30 -75.5t-83 -27.5t-82.5 27.5t-29.5 75.5z" />
<glyph unicode="&#x2bc;" d="M551 1124l22 392h215l-112 -392h-125z" />
<glyph unicode="&#x2c6;" d="M272 1280l236 299h213l235 -299l-100 -74l-242 238l-241 -238z" />
<glyph unicode="&#x2c7;" d="M272 1522l101 73l241 -239l242 239l100 -73l-235 -299h-213z" />
<glyph unicode="&#x2d8;" d="M289 1487l106 53l41 -67q36 -59 73.5 -87t104.5 -28t105 28.5t74 86.5l41 67l106 -53q-14 -44 -27.5 -75t-40 -71.5t-58.5 -65.5t-84 -43t-116 -18t-115.5 18t-83.5 43t-59 65.5t-40 71.5t-27 75z" />
<glyph unicode="&#x2d9;" d="M496 1356v28q0 48 29.5 76.5t88.5 28.5t89 -28.5t30 -76.5v-28q0 -48 -30 -76.5t-89 -28.5t-88.5 28.5t-29.5 76.5z" />
<glyph unicode="&#x2da;" d="M365 1419q0 105 72 175.5t177 70.5t177.5 -70.5t72.5 -175.5t-72.5 -175t-177.5 -70t-177 70t-72 175zM498 1395q0 -53 30.5 -82t85.5 -29t86 29t31 82v49q0 53 -31 81.5t-86 28.5t-85.5 -28.5t-30.5 -81.5v-49z" />
<glyph unicode="&#x2db;" d="M309 -266q0 76 54 136.5t165 133.5l-10 41h125l19 -45q-128 -109 -167.5 -158.5t-39.5 -87.5q0 -61 65 -61q62 0 101 51l88 -86q-21 -37 -72 -60.5t-123 -23.5q-90 0 -147.5 40t-57.5 120z" />
<glyph unicode="&#x2dc;" d="M262 1386q75 113 201 113q10 0 20.5 -1t19 -2t19 -4t16.5 -4.5t17 -5.5t15 -5.5t15.5 -7.5t14 -7t14.5 -7t13 -7q90 -47 145 -47q33 0 59.5 12.5t61.5 40.5l74 -92q-75 -113 -201 -113q-10 0 -20.5 1t-19 2t-19 4t-16.5 4.5t-17 5.5t-15 5.5t-15.5 7.5t-14 7t-14.5 7 t-13 7q-92 48 -145 48q-33 0 -59.5 -12.5t-61.5 -41.5z" />
<glyph unicode="&#x2dd;" d="M346 1249l180 359l160 -78l-227 -332zM692 1249l180 359l160 -78l-229 -332z" />
<glyph unicode="&#x300;" horiz-adv-x="0" d="M-246 1528l168 82l180 -359l-120 -55z" />
<glyph unicode="&#x301;" horiz-adv-x="0" d="M-102 1251l180 359l168 -82l-228 -332z" />
<glyph unicode="&#x302;" horiz-adv-x="0" d="M-342 1280l236 299h212l236 -299l-100 -74l-242 238l-242 -238z" />
<glyph unicode="&#x303;" horiz-adv-x="0" d="M-352 1386q75 113 200 113q10 0 20.5 -1t19 -2t19 -4t16.5 -4.5t17 -5.5t15 -5.5t15.5 -7.5t14 -7t14.5 -7t13 -7q90 -47 146 -47q33 0 59.5 12.5t61.5 40.5l73 -92q-75 -113 -200 -113q-10 0 -20.5 1t-19 2t-19 4t-16.5 4.5t-17 5.5t-15 5.5t-15.5 7.5t-14 7t-14.5 7 t-13 7q-92 48 -146 48q-33 0 -59.5 -12.5t-61.5 -41.5z" />
<glyph unicode="&#x304;" horiz-adv-x="0" d="M-291 1300v152h582v-152h-582z" />
<glyph unicode="&#x306;" horiz-adv-x="0" d="M-326 1487l107 53l41 -67q36 -59 73.5 -87t104.5 -28t104.5 28t73.5 87l41 67l107 -53q-14 -44 -27.5 -75t-40 -71.5t-58.5 -65.5t-84 -43t-116 -18t-116 18t-84 43t-58.5 65.5t-40 71.5t-27.5 75z" />
<glyph unicode="&#x307;" horiz-adv-x="0" d="M-119 1356v28q0 48 30 76.5t89 28.5t89 -28.5t30 -76.5v-28q0 -48 -30 -76.5t-89 -28.5t-89 28.5t-30 76.5z" />
<glyph unicode="&#x308;" horiz-adv-x="0" d="M-309 1360v29q0 100 112 100q113 0 113 -100v-29q0 -100 -113 -100q-112 0 -112 100zM84 1360v29q0 100 113 100q112 0 112 -100v-29q0 -100 -112 -100q-113 0 -113 100z" />
<glyph unicode="&#x309;" horiz-adv-x="0" d="M-186 1438v143h237q79 0 116.5 -33.5t37.5 -85.5q0 -94 -105 -221l-49 -63l-106 53l112 207h-243z" />
<glyph unicode="&#x30a;" horiz-adv-x="0" d="M-250 1419q0 105 72.5 175.5t177.5 70.5t177.5 -70.5t72.5 -175.5t-72.5 -175t-177.5 -70t-177.5 70t-72.5 175zM-117 1395q0 -53 31 -82t86 -29t86 29t31 82v49q0 53 -31 81.5t-86 28.5t-86 -28.5t-31 -81.5v-49z" />
<glyph unicode="&#x30b;" horiz-adv-x="0" d="M-268 1249l180 359l160 -78l-228 -332zM78 1249l180 359l160 -78l-230 -332z" />
<glyph unicode="&#x30c;" horiz-adv-x="0" d="M-342 1522l100 73l242 -239l242 239l100 -73l-236 -299h-212z" />
<glyph unicode="&#x312;" horiz-adv-x="0" d="M-113 1313v24q0 71 36 141t91 121h129q-45 -45 -70 -82.5t-38 -84.5q38 -7 58 -34t20 -65v-20q0 -48 -30 -75.5t-83 -27.5t-83 27.5t-30 75.5z" />
<glyph unicode="&#x315;" horiz-adv-x="0" d="M0 1124l23 392h215l-113 -392h-125z" />
<glyph unicode="&#x31b;" horiz-adv-x="0" d="M-176 938v123h186v231h166v-211q0 -69 -31 -106t-112 -37h-209z" />
<glyph unicode="&#x323;" horiz-adv-x="0" d="M-117 -231q0 47 29.5 74.5t87.5 27.5t87.5 -27.5t29.5 -74.5v-27q0 -47 -29.5 -74.5t-87.5 -27.5t-87.5 27.5t-29.5 74.5v27z" />
<glyph unicode="&#x326;" horiz-adv-x="0" d="M-143 -514q86 86 108 168q-38 7 -58 33.5t-20 64.5v21q0 48 29.5 75t83.5 27t83.5 -27t29.5 -75v-25q0 -72 -36 -141.5t-91 -120.5h-129z" />
<glyph unicode="&#x327;" horiz-adv-x="0" d="M-186 -340l80 88q46 -57 126 -57q40 0 65.5 15.5t25.5 45.5q0 31 -30 52t-112 32l-55 8l41 201h108l-32 -168l6 -6q41 12 82 12q64 0 102.5 -35t38.5 -100q0 -87 -66.5 -130.5t-168.5 -43.5q-79 0 -132.5 25t-78.5 61z" />
<glyph unicode="&#x328;" horiz-adv-x="0" d="M-332 -266q0 76 54 136.5t165 133.5l-10 41h125l18 -45q-127 -109 -166.5 -158.5t-39.5 -87.5q0 -61 65 -61q62 0 101 51l88 -86q-21 -37 -72 -60.5t-123 -23.5q-90 0 -147.5 40t-57.5 120z" />
<glyph unicode="&#x3c0;" horiz-adv-x="1282" d="M57 899v162h1147v-162h-174v-737h174v-162h-164q-95 0 -147.5 53.5t-52.5 143.5v702h-418v-899h-191v899h-174z" />
<glyph unicode="&#x400;" horiz-adv-x="1204" d="M184 0v1430h891v-177h-692v-442h641v-176h-641v-459h692v-176h-891zM381 1872l168 82l180 -357l-121 -57z" />
<glyph unicode="&#x401;" horiz-adv-x="1204" d="M184 0v1430h891v-177h-692v-442h641v-176h-641v-459h692v-176h-891zM317 1704v33q0 100 113 100t113 -100v-33q0 -100 -113 -100t-113 100zM711 1704v33q0 100 112 100q113 0 113 -100v-33q0 -100 -113 -100q-112 0 -112 100z" />
<glyph unicode="&#x402;" horiz-adv-x="1617" d="M47 1253v177h1083v-177h-442v-399h10q117 47 297 47q256 0 381 -127t125 -385v-258q0 -475 -377 -475h-96v178h180q95 82 95 299v258q0 172 -80 253t-238 81q-191 0 -297 -45v-680h-199v1253h-442z" />
<glyph unicode="&#x403;" horiz-adv-x="1028" d="M184 0v1430h791v-177h-592v-1253h-199zM471 1597l180 357l168 -82l-227 -332z" />
<glyph unicode="&#x404;" horiz-adv-x="1308" d="M115 707q0 357 157 552t443 195q363 0 510 -315l-162 -95q-93 234 -348 234q-184 0 -284.5 -123t-102.5 -334v-10h577v-176h-577v-39q2 -209 102 -326.5t285 -117.5q268 0 360 247l160 -98q-71 -156 -201.5 -241t-318.5 -85q-288 0 -444 187.5t-156 544.5z" />
<glyph unicode="&#x405;" horiz-adv-x="1204" d="M84 221l141 127q153 -198 379 -198q144 0 221.5 67.5t77.5 183.5q0 94 -56.5 147.5t-189.5 82.5l-120 24q-205 42 -307.5 139t-102.5 261q0 188 131 293.5t354 105.5q310 0 478 -227l-146 -117q-124 170 -342 170q-132 0 -205 -56t-73 -161q0 -93 59 -142.5t190 -78.5 l121 -25q211 -46 308.5 -143.5t97.5 -261.5q0 -200 -134 -318.5t-370 -118.5q-326 0 -512 246z" />
<glyph unicode="&#x406;" horiz-adv-x="833" d="M119 0v168h198v1094h-198v168h596v-168h-199v-1094h199v-168h-596z" />
<glyph unicode="&#x407;" horiz-adv-x="833" d="M106 1704v33q0 100 113 100t113 -100v-33q0 -100 -113 -100t-113 100zM119 0v168h198v1094h-198v168h596v-168h-199v-1094h199v-168h-596zM500 1704v33q0 100 112 100q113 0 113 -100v-33q0 -100 -113 -100q-112 0 -112 100z" />
<glyph unicode="&#x408;" horiz-adv-x="1062" d="M55 315l183 41q44 -202 233 -202q104 0 161.5 63.5t57.5 188.5v847h-479v177h678v-1051q0 -184 -115.5 -294t-304.5 -110q-170 0 -276 91.5t-138 248.5z" />
<glyph unicode="&#x409;" horiz-adv-x="2093" d="M25 -2v178h151q94 92 134 273.5t40 572.5v408h844v-564h410q193 0 300 -114.5t107 -317.5t-107 -318.5t-300 -115.5h-609v1253h-454v-247q0 -279 -24.5 -466.5t-65.5 -287.5t-105 -164q-90 -90 -242 -90h-79zM1194 176h403q97 0 150 52t53 153v104q0 102 -53 153.5 t-150 51.5h-403v-514z" />
<glyph unicode="&#x40a;" horiz-adv-x="2127" d="M184 0v1430h199v-619h647v619h199v-564h411q193 0 299.5 -114.5t106.5 -317.5q0 -204 -106.5 -319t-299.5 -115h-610v635h-647v-635h-199zM1229 176h403q97 0 150 52t53 153v104q0 102 -53 153.5t-150 51.5h-403v-514z" />
<glyph unicode="&#x40b;" horiz-adv-x="1638" d="M47 1253v177h1083v-177h-442v-399h10q117 47 308 47q263 0 389.5 -126.5t126.5 -385.5v-389h-199v391q0 173 -81.5 253.5t-246.5 80.5q-201 0 -307 -45v-680h-199v1253h-442z" />
<glyph unicode="&#x40c;" horiz-adv-x="1359" d="M184 0v1430h199v-619h264l275 471q46 80 94 114t117 34h100v-177h-127l-236 -403q-31 -55 -57 -79.5t-68 -37.5v-10q49 -9 86 -39t76 -96l244 -412h125v-176h-133q-62 0 -110 34t-93 111l-293 494h-264v-639h-199zM567 1597l181 357l167 -82l-227 -332z" />
<glyph unicode="&#x40d;" horiz-adv-x="1454" d="M184 0v1430h193v-859l-21 -295h6l144 261l588 893h176v-1430h-193v858l19 295h-6l-144 -260l-584 -893h-178zM479 1872l168 82l180 -357l-120 -57z" />
<glyph unicode="&#x40e;" horiz-adv-x="1232" d="M37 1430h215l289 -613l108 -254h8l95 258l241 609h201l-500 -1244q-46 -110 -102.5 -148t-175.5 -38h-131v176h215l61 152zM295 1815l162 67l69 -176q46 -12 105 -12q57 0 104 12l70 176l162 -67l-43 -84q-83 -172 -293 -172t-293 172z" />
<glyph unicode="&#x40f;" horiz-adv-x="1425" d="M184 0v1430h199v-1254h659v1254h199v-1430h-436v-307h-184v307h-437z" />
<glyph unicode="&#x410;" horiz-adv-x="1329" d="M45 0l496 1430h250l493 -1430h-209l-135 403h-557l-137 -403h-201zM430 580h461l-225 667h-11z" />
<glyph unicode="&#x411;" horiz-adv-x="1310" d="M184 0v1430h893v-177h-694v-391h414q192 0 298.5 -115t106.5 -317q0 -201 -106.5 -315.5t-298.5 -114.5h-613zM383 176h408q97 0 149.5 52t52.5 153v98q0 103 -52.5 155t-149.5 52h-408v-510z" />
<glyph unicode="&#x412;" horiz-adv-x="1345" d="M184 0v1430h609q176 0 279.5 -100.5t103.5 -268.5q0 -61 -15.5 -111.5t-39.5 -83.5t-57 -57t-65 -35.5t-65 -15.5v-13q45 -2 92 -21.5t93.5 -56.5t76 -103.5t29.5 -151.5q0 -175 -106.5 -293.5t-264.5 -118.5h-670zM383 172h412q103 0 160 52t57 151v71q0 99 -57 151 t-160 52h-412v-477zM383 817h379q94 0 147.5 49t53.5 138v67q0 89 -53.5 137.5t-147.5 48.5h-379v-440z" />
<glyph unicode="&#x413;" horiz-adv-x="1028" d="M184 0v1430h791v-177h-592v-1253h-199z" />
<glyph unicode="&#x414;" horiz-adv-x="1521" d="M23 176h151q92 126 139 324t47 504v426h891v-1254h207v-483h-184v307h-1067v-307h-184v483zM403 176h650v1077h-502v-268q0 -572 -148 -801v-8z" />
<glyph unicode="&#x415;" horiz-adv-x="1204" d="M184 0v1430h891v-177h-692v-442h641v-176h-641v-459h692v-176h-891z" />
<glyph unicode="&#x416;" horiz-adv-x="2013" d="M84 0v176h129l205 408q33 64 69.5 96t85.5 43v10q-45 13 -77 42.5t-60 88.5l-184 389h-129v177h110q71 0 122.5 -35.5t90.5 -116.5l222 -467h239v619h199v-619h240l223 467q39 81 89.5 116.5t121.5 35.5h110v-177h-129l-186 -389q-28 -60 -59.5 -89.5t-75.5 -41.5v-10 q49 -11 86.5 -43t70.5 -96l203 -408h129v-176h-137q-67 0 -114.5 34t-90.5 120l-241 485h-240v-639h-199v639h-239l-244 -485q-43 -87 -89.5 -120.5t-113.5 -33.5h-137z" />
<glyph unicode="&#x417;" horiz-adv-x="1220" d="M72 221l141 121q135 -190 365 -190q150 0 229.5 60t79.5 179v25q0 108 -70.5 167.5t-216.5 59.5h-221v174h209q139 0 203.5 56.5t64.5 173.5v24q0 99 -67 153t-199 54q-218 0 -332 -158l-143 107q82 113 196.5 170t278.5 57q232 0 355.5 -101.5t123.5 -277.5 q0 -142 -73.5 -225t-202.5 -107v-10q135 -15 221 -98t86 -234q0 -194 -140 -310t-382 -116q-322 0 -506 246z" />
<glyph unicode="&#x418;" horiz-adv-x="1454" d="M184 0v1430h193v-859l-21 -295h6l144 261l588 893h176v-1430h-193v858l19 295h-6l-144 -260l-584 -893h-178z" />
<glyph unicode="&#x419;" horiz-adv-x="1454" d="M184 0v1430h193v-859l-21 -295h6l144 261l588 893h176v-1430h-193v858l19 295h-6l-144 -260l-584 -893h-178zM387 1815l162 67l69 -176q47 -12 105 -12q57 0 104 12l70 176l162 -67l-43 -84q-83 -172 -293 -172t-293 172z" />
<glyph unicode="&#x41a;" horiz-adv-x="1359" d="M184 0v1430h199v-619h264l275 471q46 80 94 114t117 34h100v-177h-127l-236 -403q-31 -55 -57 -79.5t-68 -37.5v-10q49 -9 86 -39t76 -96l244 -412h125v-176h-133q-62 0 -110 34t-93 111l-293 494h-264v-639h-199z" />
<glyph unicode="&#x41b;" horiz-adv-x="1423" d="M25 -2v178h151q94 92 134 273.5t40 572.5v408h889v-1430h-199v1253h-499v-247q0 -279 -24.5 -466.5t-65.5 -287.5t-105 -164q-90 -90 -242 -90h-79z" />
<glyph unicode="&#x41c;" horiz-adv-x="1662" d="M184 0v1430h250l397 -752h9l397 752h242v-1430h-193v1155h-10l-117 -235l-328 -601l-327 601l-117 235h-10v-1155h-193z" />
<glyph unicode="&#x41d;" horiz-adv-x="1454" d="M184 0v1430h199v-619h688v619h199v-1430h-199v635h-688v-635h-199z" />
<glyph unicode="&#x41e;" horiz-adv-x="1449" d="M115 715q0 355 163.5 547t446.5 192t446.5 -192t163.5 -547t-163.5 -547.5t-446.5 -192.5t-446.5 192.5t-163.5 547.5zM328 598q0 -203 109 -323.5t288 -120.5t288 120.5t109 323.5v233q0 203 -109 324t-288 121t-288 -121t-109 -324v-233z" />
<glyph unicode="&#x41f;" horiz-adv-x="1425" d="M184 0v1430h1057v-1430h-199v1253h-659v-1253h-199z" />
<glyph unicode="&#x420;" horiz-adv-x="1261" d="M184 0v1430h590q191 0 298.5 -113.5t107.5 -306.5t-107.5 -306.5t-298.5 -113.5h-391v-590h-199zM383 766h383q96 0 149.5 50t53.5 142v103q0 92 -53.5 142t-149.5 50h-383v-487z" />
<glyph unicode="&#x421;" horiz-adv-x="1284" d="M115 715q0 355 155.5 547t431.5 192q358 0 500 -317l-164 -95q-41 110 -126 172t-210 62q-174 0 -274 -121.5t-100 -331.5v-217q0 -210 100 -331t274 -121q128 0 218 66.5t131 180.5l159 -96q-70 -157 -200 -243.5t-308 -86.5q-276 0 -431.5 192.5t-155.5 547.5z" />
<glyph unicode="&#x422;" horiz-adv-x="1177" d="M47 1253v177h1083v-177h-442v-1253h-199v1253h-442z" />
<glyph unicode="&#x423;" horiz-adv-x="1232" d="M37 1430h215l289 -613l108 -254h8l95 258l241 609h201l-500 -1244q-46 -110 -102.5 -148t-175.5 -38h-131v176h215l61 152z" />
<glyph unicode="&#x424;" horiz-adv-x="1748" d="M96 713q0 170 72.5 303.5t213.5 212t329 78.5h65v184h199v-184h65q187 0 327.5 -78t213 -212t72.5 -304q0 -169 -73 -303.5t-213.5 -212.5t-326.5 -78h-65v-185h-199v185h-67q-187 0 -327.5 78t-213 212t-72.5 304zM307 649q0 -159 110.5 -261.5t291.5 -102.5h71v856h-69 q-182 0 -293 -103.5t-111 -261.5v-127zM971 285h69q181 0 292.5 102.5t111.5 261.5v127q0 158 -111 261.5t-293 103.5h-69v-856z" />
<glyph unicode="&#x425;" horiz-adv-x="1277" d="M45 0l467 731l-453 699h238l342 -553h6l350 553h224l-455 -697l469 -733h-238l-360 586h-6l-361 -586h-223z" />
<glyph unicode="&#x426;" horiz-adv-x="1511" d="M184 0v1430h199v-1254h659v1254h199v-1254h207v-483h-184v307h-1080z" />
<glyph unicode="&#x427;" horiz-adv-x="1333" d="M117 1016v414h198v-416q0 -173 81.5 -253.5t246.5 -80.5q201 0 307 45v705h199v-1430h-199v553h-10q-117 -47 -307 -47q-263 0 -389.5 125.5t-126.5 384.5z" />
<glyph unicode="&#x428;" horiz-adv-x="1986" d="M184 0v1430h199v-1254h512v1254h199v-1254h510v1254h198v-1430h-1618z" />
<glyph unicode="&#x429;" horiz-adv-x="2072" d="M184 0v1430h199v-1254h512v1254h199v-1254h510v1254h198v-1254h207v-483h-184v307h-1641z" />
<glyph unicode="&#x42a;" horiz-adv-x="1525" d="M45 1253v177h559v-564h434q193 0 299.5 -114.5t106.5 -317.5q0 -204 -106.5 -319t-299.5 -115h-632v1253h-361zM604 176h428q97 0 149 52t52 153v104q0 103 -52 154t-149 51h-428v-514z" />
<glyph unicode="&#x42b;" horiz-adv-x="1814" d="M184 0v1430h199v-564h414q193 0 299 -114.5t106 -317.5q0 -204 -106.5 -319t-298.5 -115h-613zM383 176h408q97 0 148.5 52t51.5 153v104q0 103 -51.5 154t-148.5 51h-408v-514zM1432 0v1430h198v-1430h-198z" />
<glyph unicode="&#x42c;" horiz-adv-x="1304" d="M184 0v1430h199v-564h434q193 0 299.5 -114.5t106.5 -317.5q0 -204 -106.5 -319t-299.5 -115h-633zM383 176h428q97 0 149 52t52 153v104q0 103 -52 154t-149 51h-428v-514z" />
<glyph unicode="&#x42d;" horiz-adv-x="1308" d="M74 301l159 98q42 -116 132 -181.5t229 -65.5q184 0 285.5 123t101.5 333v27h-578v176h578v25q0 208 -101 325t-286 117q-255 0 -348 -234l-164 95q150 315 512 315q288 0 443 -187t155 -544q0 -358 -156 -553t-442 -195q-188 0 -318.5 85t-201.5 241z" />
<glyph unicode="&#x42e;" horiz-adv-x="1990" d="M184 0v1430h199v-619h307q15 307 168 475t422 168q284 0 440 -188.5t156 -550.5t-156 -551t-440 -189q-270 0 -422.5 169t-171.5 491h-303v-635h-199zM897 598q0 -211 102 -328.5t281 -117.5t281 117.5t102 328.5v233q0 211 -102 329t-281 118t-281 -118t-102 -329v-233z " />
<glyph unicode="&#x42f;" horiz-adv-x="1325" d="M84 0v176h125l164 311q31 61 60 88.5t79 40.5v11q-181 7 -274 110t-93 277q0 196 108 306t298 110h590v-1430h-199v598h-289l-241 -453q-44 -84 -88 -114.5t-109 -30.5h-131zM356 958q0 -93 53.5 -142.5t149.5 -49.5h383v487h-383q-96 0 -149.5 -50t-53.5 -142v-103z" />
<glyph unicode="&#x430;" horiz-adv-x="1107" d="M86 293q0 155 113.5 235t339.5 80h200v97q0 221 -235 221q-167 0 -260 -152l-115 105q51 93 148 149.5t237 56.5q198 0 307 -96t109 -268v-559h119v-162h-109q-84 0 -129.5 47.5t-56.5 128.5h-11q-32 -97 -112 -149t-195 -52q-165 0 -257.5 85.5t-92.5 232.5zM285 283 q0 -73 52 -113.5t142 -40.5q113 0 186.5 51.5t73.5 130.5v164h-202q-252 0 -252 -151v-41z" />
<glyph unicode="&#x431;" horiz-adv-x="1157" d="M100 635q0 301 56.5 485.5t175 276t315.5 108.5l336 29v-191l-352 -28q-90 -8 -147 -33t-96.5 -81t-59 -141t-29.5 -220h8q45 110 120 162.5t194 52.5q199 0 321.5 -143.5t122.5 -393.5q0 -243 -133 -393t-350 -150q-482 0 -482 660zM303 455q0 -154 76 -235t211 -81 q122 0 197 78.5t75 222.5v135q0 154 -76 235t-211 81q-133 0 -202.5 -67.5t-69.5 -184.5v-184z" />
<glyph unicode="&#x432;" horiz-adv-x="1148" d="M168 0v1061h547q132 0 207 -72.5t75 -195.5q0 -201 -211 -228v-8q121 -9 184.5 -74t63.5 -168q0 -135 -80.5 -225t-216.5 -90h-569zM358 150h330q68 0 107 36t39 103v49q0 65 -39 101t-107 36h-330v-325zM358 618h306q63 0 98 31.5t35 91.5v47q0 60 -35 91.5t-98 31.5 h-306v-293z" />
<glyph unicode="&#x433;" horiz-adv-x="894" d="M168 0v1061h678v-162h-488v-899h-190z" />
<glyph unicode="&#x434;" horiz-adv-x="1247" d="M16 162h125q135 212 135 594v305h744v-899h178v-449h-174v287h-834v-287h-174v449zM344 162h485v737h-370v-154q0 -377 -115 -583z" />
<glyph unicode="&#x435;" horiz-adv-x="1130" d="M92 530q0 253 130 404t351 151q217 0 341 -146.5t124 -375.5v-80h-747v-43q0 -135 79.5 -219t219.5 -84q197 0 287 172l122 -104q-57 -105 -168.5 -167.5t-257.5 -62.5q-221 0 -351 151t-130 404zM291 616h545v21q0 133 -72 214t-191 81q-124 0 -203 -85t-79 -216v-15z " />
<glyph unicode="&#x436;" horiz-adv-x="1613" d="M82 0v162h121l116 272q42 96 127 109v8q-79 25 -122 117l-105 231h-121v162h103q129 0 194 -133l140 -303h178v436h190v-436h178l140 303q62 133 194 133h103v-162h-121l-107 -231q-40 -92 -123 -117v-8q85 -13 127 -109l117 -272h121v-162h-121q-63 0 -109 32.5 t-81 112.5l-140 322h-178v-467h-190v467h-178l-142 -322q-35 -80 -80.5 -112.5t-109.5 -32.5h-121z" />
<glyph unicode="&#x437;" horiz-adv-x="1038" d="M55 184l133 115q44 -76 118.5 -118t174.5 -42q118 0 180 42.5t62 115.5v25q0 73 -49.5 111t-141.5 38h-229v150h207q91 0 139.5 36t48.5 103v22q0 140 -221 140q-188 0 -276 -150l-123 105q123 208 409 208q204 0 308 -76t104 -210q0 -192 -207 -236v-8 q111 -15 171.5 -80t60.5 -166q0 -153 -120 -243.5t-323 -90.5q-155 0 -256 52.5t-170 156.5z" />
<glyph unicode="&#x438;" horiz-adv-x="1214" d="M168 0v1061h186v-557l-18 -254h8l129 227l399 584h175v-1061h-187v557l19 252h-9l-129 -225l-399 -584h-174z" />
<glyph unicode="&#x439;" horiz-adv-x="1214" d="M168 0v1061h186v-557l-18 -254h8l129 227l399 584h175v-1061h-187v557l19 252h-9l-129 -225l-399 -584h-174zM272 1470l162 68l70 -176q46 -12 104 -12t105 12l69 176l162 -68l-43 -84q-83 -172 -293 -172t-293 172z" />
<glyph unicode="&#x43a;" horiz-adv-x="1142" d="M168 0v1061h190v-436h201l193 311q43 73 84.5 99t103.5 26h102v-162h-122l-152 -244q-32 -52 -54.5 -72t-62.5 -32v-8q44 -6 75 -29.5t62 -79.5l154 -272h119v-162h-123q-61 0 -107 30t-86 103l-186 334h-201v-467h-190z" />
<glyph unicode="&#x43b;" horiz-adv-x="1175" d="M18 -2v164h140q54 73 81 209t27 381v309h742v-1061h-191v899h-368v-154q0 -525 -148 -673q-71 -74 -213 -74h-70z" />
<glyph unicode="&#x43c;" horiz-adv-x="1437" d="M168 0v1061h240l313 -529h4l313 529h232v-1061h-187v829h-8l-65 -120l-291 -494l-291 494l-66 120h-8v-829h-186z" />
<glyph unicode="&#x43d;" horiz-adv-x="1214" d="M168 0v1061h190v-434h498v434h191v-1061h-191v465h-498v-465h-190z" />
<glyph unicode="&#x43e;" horiz-adv-x="1150" d="M92 530q0 252 132.5 403.5t350.5 151.5t351 -151.5t133 -403.5t-133 -403.5t-351 -151.5t-350.5 151.5t-132.5 403.5zM295 451q0 -151 76 -231.5t204 -80.5t204.5 80.5t76.5 231.5v159q0 151 -76.5 231.5t-204.5 80.5t-204 -80.5t-76 -231.5v-159z" />
<glyph unicode="&#x43f;" horiz-adv-x="1181" d="M168 0v1061h846v-1061h-191v899h-465v-899h-190z" />
<glyph unicode="&#x440;" horiz-adv-x="1198" d="M168 -410v1471h190v-174h9q36 97 115.5 147.5t189.5 50.5q199 0 312.5 -148.5t113.5 -406.5t-113.5 -406.5t-312.5 -148.5q-110 0 -189.5 51t-115.5 148h-9v-584h-190zM358 336q0 -84 75 -139.5t183 -55.5q127 0 203 82.5t76 216.5v181q0 134 -76 216.5t-203 82.5 q-108 0 -183 -55.5t-75 -139.5v-389z" />
<glyph unicode="&#x441;" horiz-adv-x="1034" d="M92 530q0 257 126 406t351 149q151 0 252.5 -67.5t149.5 -186.5l-158 -77q-27 79 -90 123.5t-154 44.5q-133 0 -203.5 -82t-70.5 -217v-185q0 -135 70.5 -217t203.5 -82q188 0 271 180l139 -86q-52 -123 -156.5 -190.5t-253.5 -67.5q-225 0 -351 149t-126 406z" />
<glyph unicode="&#x442;" horiz-adv-x="976" d="M41 899v162h895v-162h-352v-899h-191v899h-352z" />
<glyph unicode="&#x443;" horiz-adv-x="1036" d="M31 1061h190l236 -678l55 -199h10l62 199l237 678h185l-461 -1292q-38 -103 -91 -141t-171 -38h-105v162h174l72 205z" />
<glyph unicode="&#x444;" horiz-adv-x="1556" d="M100 530q0 283 86.5 419t262.5 136q144 0 227 -137h8v506h190v-506h7q86 137 227 137q177 0 262.5 -135.5t85.5 -419.5q0 -285 -85 -420t-263 -135q-141 0 -227 136h-7v-521h-190v521h-8q-83 -136 -227 -136q-176 0 -262.5 135.5t-86.5 419.5zM303 436q0 -161 48 -231 t157 -70q178 0 178 137v514q0 140 -178 140q-109 0 -157 -70.5t-48 -232.5v-187zM872 272q0 -137 179 -137q108 0 156 70.5t48 230.5v187q0 162 -48 232.5t-156 70.5q-179 0 -179 -140v-514z" />
<glyph unicode="&#x445;" horiz-adv-x="1060" d="M43 0l385 535l-371 526h222l256 -383h6l262 383h209l-371 -518l377 -543h-221l-262 401h-7l-276 -401h-209z" />
<glyph unicode="&#x446;" horiz-adv-x="1241" d="M168 0v1061h190v-899h467v899h191v-899h176v-449h-174v287h-850z" />
<glyph unicode="&#x447;" horiz-adv-x="1118" d="M102 686v375h191v-361q0 -94 53 -139t162 -45q113 0 182.5 33t69.5 92v420h190v-1061h-190v479h-10q-107 -129 -304 -129q-167 0 -255.5 85t-88.5 251z" />
<glyph unicode="&#x448;" horiz-adv-x="1652" d="M168 0v1061h190v-899h373v899h191v-899h372v899h191v-1061h-1317z" />
<glyph unicode="&#x449;" horiz-adv-x="1710" d="M168 0v1061h190v-899h373v899h191v-899h372v899h191v-899h176v-449h-174v287h-1319z" />
<glyph unicode="&#x44a;" horiz-adv-x="1226" d="M41 899v162h463v-371h299q160 0 256 -92.5t96 -251.5q0 -163 -94.5 -254.5t-255.5 -91.5h-492v899h-272zM504 158h268q182 0 182 145v84q0 145 -182 145h-268v-374z" />
<glyph unicode="&#x44b;" horiz-adv-x="1515" d="M168 0v1061h190v-371h277q161 0 256.5 -93t95.5 -253q0 -161 -94.5 -252.5t-255.5 -91.5h-469zM358 158h246q182 0 182 145v84q0 145 -182 145h-246v-374zM1157 0v1061h191v-1061h-191z" />
<glyph unicode="&#x44c;" horiz-adv-x="1081" d="M168 0v1061h190v-371h297q161 0 257 -93t96 -253q0 -161 -95 -252.5t-256 -91.5h-489zM358 158h267q182 0 182 145v84q0 145 -182 145h-267v-374z" />
<glyph unicode="&#x44d;" horiz-adv-x="1056" d="M57 834q114 251 420 251q232 0 360 -148.5t128 -406.5t-128.5 -406.5t-359.5 -148.5q-160 0 -259 65t-155 187l156 80q60 -168 258 -168q139 0 212 80t73 219v23h-436v149h436v15q0 136 -73 216.5t-212 80.5q-200 0 -278 -177z" />
<glyph unicode="&#x44e;" horiz-adv-x="1615" d="M168 0v1061h190v-436h234q22 217 144.5 338.5t318.5 121.5q217 0 343 -148t126 -407t-126 -407t-343 -148q-202 0 -327 130.5t-140 361.5h-230v-467h-190zM788 449q0 -158 70 -234t197 -76t196.5 76t69.5 234v163q0 158 -69.5 234t-196.5 76t-197 -76t-70 -234v-163z" />
<glyph unicode="&#x44f;" horiz-adv-x="1116" d="M80 0v162h119l63 143q41 96 125 109v8q-134 14 -207.5 93t-73.5 212q0 153 95.5 243.5t257.5 90.5h489v-1061h-190v399h-254l-111 -252q-35 -81 -81 -114t-111 -33h-121zM307 696q0 -143 182 -143h269v350h-269q-182 0 -182 -145v-62z" />
<glyph unicode="&#x450;" horiz-adv-x="1130" d="M92 530q0 253 130 404t351 151q217 0 341 -146.5t124 -375.5v-80h-747v-43q0 -135 79.5 -219t219.5 -84q197 0 287 172l122 -104q-57 -105 -168.5 -167.5t-257.5 -62.5q-221 0 -351 151t-130 404zM291 616h545v21q0 133 -72 214t-191 81q-124 0 -203 -85t-79 -216v-15z M330 1528l168 82l180 -359l-121 -55z" />
<glyph unicode="&#x451;" horiz-adv-x="1130" d="M92 530q0 253 130 404t351 151q217 0 341 -146.5t124 -375.5v-80h-747v-43q0 -135 79.5 -219t219.5 -84q197 0 287 172l122 -104q-57 -105 -168.5 -167.5t-257.5 -62.5q-221 0 -351 151t-130 404zM266 1360v29q0 100 113 100t113 -100v-29q0 -100 -113 -100t-113 100z M291 616h545v21q0 133 -72 214t-191 81q-124 0 -203 -85t-79 -216v-15zM659 1360v29q0 100 113 100t113 -100v-29q0 -100 -113 -100t-113 100z" />
<glyph unicode="&#x452;" horiz-adv-x="1171" d="M37 1239v141h131v136h190v-136h304v-141h-304v-352h9q83 198 299 198q165 0 257.5 -107t92.5 -300v-836q0 -119 -60.5 -185.5t-181.5 -66.5h-119v162h170v897q0 271 -221 271q-101 0 -173.5 -50.5t-72.5 -142.5v-727h-190v1239h-131z" />
<glyph unicode="&#x453;" horiz-adv-x="894" d="M168 0v1061h678v-162h-488v-899h-190zM403 1251l181 359l168 -82l-228 -332z" />
<glyph unicode="&#x454;" horiz-adv-x="1056" d="M92 530q0 258 127 406.5t359 148.5q301 0 413 -249l-157 -80q-59 166 -256 166q-140 0 -211.5 -80.5t-71.5 -216.5v-15h434v-149h-434v-23q0 -137 72 -218t213 -81q201 0 280 178l141 -88q-121 -254 -421 -254q-233 0 -360.5 148.5t-127.5 406.5z" />
<glyph unicode="&#x455;" horiz-adv-x="1003" d="M70 180l129 111q126 -158 307 -158q100 0 154.5 42t54.5 116q0 62 -39 100t-131 51l-90 15q-164 23 -254 96t-90 213q0 152 106 235.5t279 83.5q129 0 220.5 -43t162.5 -127l-121 -114q-42 56 -111 91.5t-158 35.5q-95 0 -144.5 -40.5t-49.5 -109.5q0 -68 44 -102.5 t140 -48.5l90 -15q171 -26 250.5 -100.5t79.5 -200.5q0 -155 -109 -245.5t-296 -90.5q-263 0 -424 205z" />
<glyph unicode="&#x456;" horiz-adv-x="526" d="M150 1386v29q0 48 28 76.5t86 28.5t86.5 -28.5t28.5 -76.5v-29q0 -48 -28.5 -76t-86.5 -28t-86 28t-28 76zM168 0v1061h190v-1061h-190z" />
<glyph unicode="&#x457;" horiz-adv-x="526" d="M-45 1360v29q0 100 113 100q112 0 112 -100v-29q0 -100 -112 -100q-113 0 -113 100zM168 0v1061h190v-1061h-190zM348 1360v29q0 100 113 100q112 0 112 -100v-29q0 -100 -112 -100q-113 0 -113 100z" />
<glyph unicode="&#x458;" horiz-adv-x="526" d="M-2 -248h170v1309h190v-1215q0 -121 -60.5 -188.5t-182.5 -67.5h-117v162zM150 1386v29q0 48 28 76.5t86 28.5t86.5 -28.5t28.5 -76.5v-29q0 -48 -28.5 -76t-86.5 -28t-86 28t-28 76z" />
<glyph unicode="&#x459;" horiz-adv-x="1671" d="M18 -2v164h140q54 73 81 209t27 381v309h703v-371h276q161 0 257.5 -93t96.5 -253q0 -162 -94.5 -253t-257.5 -91h-469v899h-332v-154q0 -528 -145 -673q-71 -74 -213 -74h-70zM969 158h245q185 0 185 145v84q0 145 -185 145h-245v-374z" />
<glyph unicode="&#x45a;" horiz-adv-x="1718" d="M168 0v1061h190v-434h467v434h191v-371h276q161 0 258 -93t97 -253q0 -161 -95 -252.5t-258 -91.5h-469v465h-467v-465h-190zM1016 158h246q184 0 184 145v84q0 145 -184 145h-246v-374z" />
<glyph unicode="&#x45b;" horiz-adv-x="1171" d="M37 1241v139h131v136h190v-136h304v-139h-304v-354h9q83 198 299 198q164 0 257 -107.5t93 -299.5v-678h-191v649q0 271 -221 271q-101 0 -173.5 -50.5t-72.5 -142.5v-727h-190v1241h-131z" />
<glyph unicode="&#x45c;" horiz-adv-x="1142" d="M168 0v1061h190v-436h201l193 311q43 73 84.5 99t103.5 26h102v-162h-122l-152 -244q-32 -52 -54.5 -72t-62.5 -32v-8q44 -6 75 -29.5t62 -79.5l154 -272h119v-162h-123q-61 0 -107 30t-86 103l-186 334h-201v-467h-190zM477 1251l180 359l168 -82l-227 -332z" />
<glyph unicode="&#x45d;" horiz-adv-x="1214" d="M168 0v1061h186v-557l-18 -254h8l129 227l399 584h175v-1061h-187v557l19 252h-9l-129 -225l-399 -584h-174zM362 1528l168 82l181 -359l-121 -55z" />
<glyph unicode="&#x45e;" horiz-adv-x="1036" d="M31 1061h190l236 -678l55 -199h10l62 199l237 678h185l-461 -1292q-38 -103 -91 -141t-171 -38h-105v162h174l72 205zM184 1470l162 68l70 -176q46 -12 104 -12t105 12l69 176l162 -68l-43 -84q-83 -172 -293 -172t-293 172z" />
<glyph unicode="&#x45f;" horiz-adv-x="1181" d="M168 0v1061h190v-899h465v899h191v-1061h-336v-287h-174v287h-336z" />
<glyph unicode="&#x472;" horiz-adv-x="1454" d="M115 715q0 355 164.5 547t447.5 192t447.5 -192t164.5 -547t-164.5 -547.5t-447.5 -192.5t-447.5 192.5t-164.5 547.5zM324 598q0 -204 111 -326t292 -122t292 122t111 326v37h-806v-37zM324 811h806v20q0 204 -111 326.5t-292 122.5t-292 -122.5t-111 -326.5v-20z" />
<glyph unicode="&#x473;" horiz-adv-x="1148" d="M92 530q0 253 132 404t349 151q218 0 351 -151.5t133 -403.5t-133 -403.5t-351 -151.5q-217 0 -349 151t-132 404zM291 446q0 -152 76.5 -231.5t205.5 -79.5q130 0 207.5 79.5t77.5 231.5v21h-567v-21zM291 608h567v6q0 152 -77.5 232t-207.5 80q-129 0 -205.5 -80 t-76.5 -232v-6z" />
<glyph unicode="&#x490;" horiz-adv-x="1028" d="M184 0v1430h607v307h184v-484h-592v-1253h-199z" />
<glyph unicode="&#x491;" horiz-adv-x="894" d="M168 0v1061h504v287h174v-449h-488v-899h-190z" />
<glyph unicode="&#x492;" horiz-adv-x="1073" d="M33 670v151h196v609h791v-177h-592v-432h395v-151h-395v-670h-199v670h-196z" />
<glyph unicode="&#x493;" horiz-adv-x="931" d="M57 461v141h148v459h678v-162h-488v-297h320v-141h-320v-461h-190v461h-148z" />
<glyph unicode="&#x494;" horiz-adv-x="1312" d="M184 0v1430h791v-177h-592v-479h10q117 47 297 47q256 0 381 -126t125 -386v-141q0 -245 -112 -378.5t-298 -133.5h-96v178h178q129 89 129 336v141q0 173 -79 254.5t-238 81.5q-184 0 -297 -45v-602h-199z" />
<glyph unicode="&#x495;" horiz-adv-x="1116" d="M168 0v1061h678v-162h-488v-412h11q104 129 303 129q174 0 259 -91t85 -294v-233q0 -205 -82 -306.5t-234 -101.5h-110v162h174q61 71 61 271v194q0 129 -49.5 181.5t-165.5 52.5q-114 0 -183 -32.5t-69 -92.5v-326h-190z" />
<glyph unicode="&#x496;" horiz-adv-x="2035" d="M84 0v176h129l205 408q33 64 69.5 96t85.5 43v10q-45 13 -77 42.5t-60 88.5l-184 389h-129v177h110q71 0 122.5 -35.5t90.5 -116.5l222 -467h239v619h199v-619h240l223 467q39 81 89.5 116.5t121.5 35.5h110v-177h-129l-186 -389q-28 -60 -59.5 -89.5t-75.5 -41.5v-10 q49 -11 86.5 -43t70.5 -96l203 -408h207v-483h-184v307h-31q-67 0 -114.5 34t-90.5 120l-241 485h-240v-639h-199v639h-239l-244 -485q-43 -87 -89.5 -120.5t-113.5 -33.5h-137z" />
<glyph unicode="&#x497;" horiz-adv-x="1626" d="M82 0v162h121l116 272q42 96 127 109v8q-79 25 -122 117l-105 231h-121v162h103q129 0 194 -133l140 -303h178v436h190v-436h178l140 303q62 133 194 133h103v-162h-121l-107 -231q-40 -92 -123 -117v-8q85 -13 127 -109l117 -272h178v-449h-174v287h-6 q-62 0 -107.5 32.5t-80.5 112.5l-140 322h-178v-467h-190v467h-178l-142 -322q-35 -80 -80.5 -112.5t-109.5 -32.5h-121z" />
<glyph unicode="&#x498;" horiz-adv-x="1220" d="M72 221l141 121q135 -190 365 -190q150 0 229.5 60t79.5 179v25q0 108 -70.5 167.5t-216.5 59.5h-221v174h209q139 0 203.5 56.5t64.5 173.5v24q0 99 -67 153t-199 54q-218 0 -332 -158l-143 107q82 113 196.5 170t278.5 57q232 0 355.5 -101.5t123.5 -277.5 q0 -142 -73.5 -225t-202.5 -107v-10q135 -15 221 -98t86 -234q0 -172 -113 -284t-313 -135v-289h-182v289q-267 27 -420 239z" />
<glyph unicode="&#x499;" horiz-adv-x="1038" d="M55 184l133 115q44 -76 118.5 -118t174.5 -42q118 0 180 42.5t62 115.5v25q0 73 -49.5 111t-141.5 38h-229v150h207q91 0 139.5 36t48.5 103v22q0 140 -221 140q-188 0 -276 -150l-123 105q123 208 409 208q204 0 308 -76t104 -210q0 -192 -207 -236v-8 q111 -15 171.5 -80t60.5 -166q0 -135 -95.5 -221.5t-259.5 -105.5v-269h-174v269q-119 12 -199.5 62t-140.5 140z" />
<glyph unicode="&#x49a;" horiz-adv-x="1382" d="M184 0v1430h199v-619h264l275 471q46 80 94 114t117 34h100v-177h-127l-236 -403q-31 -55 -57 -79.5t-68 -37.5v-10q49 -9 86 -39t76 -96l244 -412h207v-483h-184v307h-31q-62 0 -110 34t-93 111l-293 494h-264v-639h-199z" />
<glyph unicode="&#x49b;" horiz-adv-x="1157" d="M168 0v1061h190v-436h201l193 311q43 73 84.5 99t103.5 26h102v-162h-122l-152 -244q-32 -52 -54.5 -72t-62.5 -32v-8q44 -6 75 -29.5t62 -79.5l154 -272h178v-449h-174v287h-8q-61 0 -107 30t-86 103l-186 334h-201v-467h-190z" />
<glyph unicode="&#x49c;" horiz-adv-x="1441" d="M184 0v1430h199v-619h111v307h151v-307h105l251 467q42 81 92.5 116.5t120.5 35.5h99v-177h-127l-213 -395q-34 -61 -61.5 -88.5t-63.5 -36.5v-10q48 -9 83.5 -39t72.5 -98l227 -410h125v-176h-133q-62 0 -108.5 33.5t-90.5 111.5l-274 494h-105v-307h-151v307h-111v-639 h-199z" />
<glyph unicode="&#x49d;" horiz-adv-x="1222" d="M168 0v1061h190v-436h88v239h138v-239h75l172 307q41 75 83.5 102t107.5 27h100v-162h-123l-137 -244q-30 -53 -51.5 -73t-56.5 -31v-8q46 -8 74.5 -30t56.5 -79l139 -272h119v-162h-123q-62 0 -107.5 31t-85.5 104l-168 332h-75v-240h-138v240h-88v-467h-190z" />
<glyph unicode="&#x4a0;" horiz-adv-x="1583" d="M45 1253v177h559v-619h264l275 471q46 80 94 114t117 34h100v-177h-127l-235 -403q-31 -55 -57 -79.5t-68 -37.5v-10q49 -9 85.5 -39t75.5 -96l244 -412h125v-176h-133q-62 0 -110 34t-93 111l-293 494h-264v-639h-198v1253h-361z" />
<glyph unicode="&#x4a1;" horiz-adv-x="1290" d="M41 899v162h463v-436h201l192 311q45 73 86 99t104 26h101v-162h-123l-152 -244q-30 -52 -52.5 -72t-61.5 -32v-8q44 -6 75 -29.5t62 -79.5l154 -272h118v-162h-123q-62 0 -107 30t-87 103l-186 334h-201v-467h-191v899h-272z" />
<glyph unicode="&#x4a2;" horiz-adv-x="1540" d="M184 0v1430h199v-619h688v619h199v-1254h207v-483h-185v307h-221v635h-688v-635h-199z" />
<glyph unicode="&#x4a3;" horiz-adv-x="1271" d="M168 0v1061h190v-434h498v434h191v-899h176v-449h-174v287h-193v465h-498v-465h-190z" />
<glyph unicode="&#x4a4;" horiz-adv-x="1873" d="M184 0v1430h199v-619h647v619h791v-177h-592v-1253h-199v635h-647v-635h-199z" />
<glyph unicode="&#x4a5;" horiz-adv-x="1552" d="M168 0v1061h190v-434h467v434h680v-162h-489v-899h-191v465h-467v-465h-190z" />
<glyph unicode="&#x4aa;" horiz-adv-x="1284" d="M115 715q0 355 155.5 547t431.5 192q358 0 500 -317l-164 -95q-41 110 -126 172t-210 62q-174 0 -274 -121.5t-100 -331.5v-217q0 -210 100 -331t274 -121q128 0 218 66.5t131 180.5l159 -96q-61 -134 -166 -218t-247 -105v-289h-185v289q-236 31 -366.5 220t-130.5 513z " />
<glyph unicode="&#x4ab;" horiz-adv-x="1036" d="M92 530q0 257 126 406t351 149q153 0 253.5 -67.5t148.5 -186.5l-158 -77q-27 80 -89.5 124t-154.5 44q-133 0 -203.5 -82t-70.5 -217v-185q0 -136 70.5 -217.5t203.5 -81.5q188 0 271 178l141 -84q-94 -215 -324 -249v-271h-174v271q-188 26 -289.5 170t-101.5 376z" />
<glyph unicode="&#x4ae;" horiz-adv-x="1234" d="M25 1430h227l366 -666h7l364 666h221l-495 -861v-569h-199v563z" />
<glyph unicode="&#x4af;" horiz-adv-x="1026" d="M33 1061h190l180 -510l107 -338h10l109 338l180 510h184l-385 -1061v-410h-190v410z" />
<glyph unicode="&#x4b0;" horiz-adv-x="1234" d="M25 1430h225l368 -668h7l362 668h223l-495 -867h327v-149h-327v-414h-199v414h-328v149h328z" />
<glyph unicode="&#x4b1;" horiz-adv-x="1026" d="M33 1061h190l180 -510l107 -338h10l109 338l180 510h184l-385 -1061h252v-141h-252v-269h-190v269h-252v141h252z" />
<glyph unicode="&#x4b2;" horiz-adv-x="1339" d="M45 0l467 731l-453 699h238l342 -553h6l350 553h224l-455 -697l356 -557h207v-483h-184v307h-148l-360 586h-6l-361 -586h-223z" />
<glyph unicode="&#x4b3;" horiz-adv-x="1103" d="M43 0l385 535l-371 526h222l256 -383h6l262 383h209l-371 -518l264 -381h182v-449h-174v287h-116l-262 401h-7l-276 -401h-209z" />
<glyph unicode="&#x4b6;" horiz-adv-x="1419" d="M117 1016v414h198v-416q0 -173 81.5 -253.5t246.5 -80.5q201 0 307 45v705h199v-1254h207v-483h-185v307h-221v553h-10q-117 -47 -307 -47q-263 0 -389.5 125.5t-126.5 384.5z" />
<glyph unicode="&#x4b7;" horiz-adv-x="1175" d="M102 686v375h191v-361q0 -94 53 -139t162 -45q113 0 182.5 33t69.5 92v420h190v-899h176v-449h-174v287h-192v479h-10q-107 -129 -304 -129q-167 0 -255.5 85t-88.5 251z" />
<glyph unicode="&#x4b8;" horiz-adv-x="1341" d="M117 1016v414h198v-416q0 -151 62 -232t188 -98v330h152v-334q153 6 241 45v705h199v-1430h-199v553h-10q-80 -35 -231 -45v-283h-152v283q-228 15 -338 140.5t-110 367.5z" />
<glyph unicode="&#x4b9;" horiz-adv-x="1126" d="M102 686v375h191v-361q0 -165 170 -180v293h135v-293q75 6 122.5 39t47.5 80v422h190v-1061h-190v469h-10q-66 -80 -160 -104v-189h-135v174q-179 0 -270 84.5t-91 251.5z" />
<glyph unicode="&#x4ba;" horiz-adv-x="1333" d="M184 0v1430h199v-553h10q117 47 307 47q263 0 390 -125.5t127 -384.5v-414h-199v416q0 173 -81 253.5t-247 80.5q-201 0 -307 -45v-705h-199z" />
<glyph unicode="&#x4bb;" horiz-adv-x="1173" d="M168 0v1516h190v-629h11q83 198 299 198q164 0 257 -107.5t93 -299.5v-678h-191v649q0 271 -223 271q-101 0 -173.5 -50.5t-72.5 -142.5v-727h-190z" />
<glyph unicode="&#x4c0;" horiz-adv-x="833" d="M119 0v168h198v1094h-198v168h596v-168h-199v-1094h199v-168h-596z" />
<glyph unicode="&#x4c1;" horiz-adv-x="2013" d="M84 0v176h129l205 408q33 64 69.5 96t85.5 43v10q-45 13 -77 42.5t-60 88.5l-184 389h-129v177h110q71 0 122.5 -35.5t90.5 -116.5l222 -467h239v619h199v-619h240l223 467q39 81 89.5 116.5t121.5 35.5h110v-177h-129l-186 -389q-28 -60 -59.5 -89.5t-75.5 -41.5v-10 q49 -11 86.5 -43t70.5 -96l203 -408h129v-176h-137q-67 0 -114.5 34t-90.5 120l-241 485h-240v-639h-199v639h-239l-244 -485q-43 -87 -89.5 -120.5t-113.5 -33.5h-137zM670 1815l161 67l70 -176q47 -12 105 -12t104 12l70 176l161 -67l-43 -84q-83 -172 -292 -172 q-210 0 -293 172z" />
<glyph unicode="&#x4c2;" horiz-adv-x="1613" d="M82 0v162h121l116 272q42 96 127 109v8q-79 25 -122 117l-105 231h-121v162h103q129 0 194 -133l140 -303h178v436h190v-436h178l140 303q62 133 194 133h103v-162h-121l-107 -231q-40 -92 -123 -117v-8q85 -13 127 -109l117 -272h121v-162h-121q-63 0 -109 32.5 t-81 112.5l-140 322h-178v-467h-190v467h-178l-142 -322q-35 -80 -80.5 -112.5t-109.5 -32.5h-121zM471 1470l162 68l69 -176q47 -12 105 -12q57 0 104 12l70 176l162 -68l-43 -84q-83 -172 -293 -172t-293 172z" />
<glyph unicode="&#x4cf;" horiz-adv-x="526" d="M168 0v1516h190v-1516h-190z" />
<glyph unicode="&#x4d0;" horiz-adv-x="1329" d="M45 0l496 1430h250l493 -1430h-209l-135 403h-557l-137 -403h-201zM328 1815l161 67l70 -176q47 -12 105 -12t104 12l70 176l161 -67l-43 -84q-83 -172 -292 -172q-210 0 -293 172zM430 580h461l-225 667h-11z" />
<glyph unicode="&#x4d1;" horiz-adv-x="1107" d="M86 293q0 155 113.5 235t339.5 80h200v97q0 221 -235 221q-167 0 -260 -152l-115 105q51 93 148 149.5t237 56.5q198 0 307 -96t109 -268v-559h119v-162h-109q-84 0 -129.5 47.5t-56.5 128.5h-11q-32 -97 -112 -149t-195 -52q-165 0 -257.5 85.5t-92.5 232.5zM186 1470 l162 68l70 -176q47 -12 104 -12q58 0 105 12l69 176l162 -68l-43 -84q-83 -172 -293 -172t-293 172zM285 283q0 -73 52 -113.5t142 -40.5q113 0 186.5 51.5t73.5 130.5v164h-202q-252 0 -252 -151v-41z" />
<glyph unicode="&#x4d2;" horiz-adv-x="1329" d="M45 0l496 1430h250l493 -1430h-209l-135 403h-557l-137 -403h-201zM356 1704v33q0 100 113 100t113 -100v-33q0 -100 -113 -100t-113 100zM430 580h461l-225 667h-11zM750 1704v33q0 100 112 100q113 0 113 -100v-33q0 -100 -113 -100q-112 0 -112 100z" />
<glyph unicode="&#x4d3;" horiz-adv-x="1107" d="M86 293q0 155 113.5 235t339.5 80h200v97q0 221 -235 221q-167 0 -260 -152l-115 105q51 93 148 149.5t237 56.5q198 0 307 -96t109 -268v-559h119v-162h-109q-84 0 -129.5 47.5t-56.5 128.5h-11q-32 -97 -112 -149t-195 -52q-165 0 -257.5 85.5t-92.5 232.5zM213 1360 v29q0 100 113 100q112 0 112 -100v-29q0 -100 -112 -100q-113 0 -113 100zM285 283q0 -73 52 -113.5t142 -40.5q113 0 186.5 51.5t73.5 130.5v164h-202q-252 0 -252 -151v-41zM606 1360v29q0 100 113 100q112 0 112 -100v-29q0 -100 -112 -100q-113 0 -113 100z" />
<glyph unicode="&#x4d4;" horiz-adv-x="1882" d="M6 0l725 1430h1022v-177h-692v-442h641v-176h-641v-459h692v-176h-891v406h-454l-199 -406h-203zM489 578h373v675h-31z" />
<glyph unicode="&#x4d5;" horiz-adv-x="1769" d="M86 291q0 157 117 241t336 84h200v89q0 107 -58 164t-171 57q-175 0 -266 -152l-115 105q50 92 148 149t239 57q249 0 328 -219h12q27 81 130 150t243 69q208 0 328 -146.5t120 -375.5v-80h-747v-43q0 -133 81.5 -218t219.5 -85q192 0 287 170l122 -102 q-56 -106 -164.5 -168t-244.5 -62q-78 0 -149 22.5t-120.5 57.5t-82 75t-43.5 79h-13q-10 -38 -39.5 -77.5t-76.5 -75.5t-118.5 -58.5t-154.5 -22.5q-160 0 -254 86.5t-94 229.5zM285 285q0 -75 51 -115.5t145 -40.5q110 0 184 51.5t74 130.5v172h-202q-252 -9 -252 -157 v-41zM932 616h543v21q0 132 -71.5 213.5t-189.5 81.5q-125 0 -203.5 -85t-78.5 -216v-15z" />
<glyph unicode="&#x4d6;" horiz-adv-x="1204" d="M184 0v1430h891v-177h-692v-442h641v-176h-641v-459h692v-176h-891zM289 1815l162 67l69 -176q47 -12 105 -12q57 0 104 12l70 176l162 -67l-43 -84q-83 -172 -293 -172t-293 172z" />
<glyph unicode="&#x4d7;" horiz-adv-x="1130" d="M92 530q0 253 130 404t351 151q217 0 341 -146.5t124 -375.5v-80h-747v-43q0 -135 79.5 -219t219.5 -84q197 0 287 172l122 -104q-57 -105 -168.5 -167.5t-257.5 -62.5q-221 0 -351 151t-130 404zM240 1470l161 68l70 -176q46 -12 104 -12q59 0 105 12l70 176l161 -68 l-43 -84q-83 -172 -293 -172q-209 0 -292 172zM291 616h545v21q0 133 -72 214t-191 81q-124 0 -203 -85t-79 -216v-15z" />
<glyph unicode="&#x4d8;" horiz-adv-x="1458" d="M115 715v55h1018v51q0 203 -115.5 329t-288.5 126q-137 0 -232.5 -70.5t-146.5 -199.5l-170 75q63 167 205 270t344 103q286 0 450 -195.5t164 -543.5t-164 -544t-450 -196t-450 196t-164 544zM326 608q6 -205 118.5 -329.5t284.5 -124.5q174 0 289 125.5t115 328.5h-807 z" />
<glyph unicode="&#x4d9;" horiz-adv-x="1130" d="M92 498v80h748v43q0 132 -79.5 217.5t-203.5 85.5q-210 0 -299 -172l-123 104q55 105 165.5 167t256.5 62q221 0 351 -151t130 -404t-130 -404t-351 -151q-145 0 -251.5 69t-160 186.5t-53.5 267.5zM295 424q0 -133 71.5 -214t190.5 -81q124 0 203.5 85t79.5 216v14h-545 v-20z" />
<glyph unicode="&#x4dc;" horiz-adv-x="2013" d="M84 0v176h129l205 408q33 64 69.5 96t85.5 43v10q-45 13 -77 42.5t-60 88.5l-184 389h-129v177h110q71 0 122.5 -35.5t90.5 -116.5l222 -467h239v619h199v-619h240l223 467q39 81 89.5 116.5t121.5 35.5h110v-177h-129l-186 -389q-28 -60 -59.5 -89.5t-75.5 -41.5v-10 q49 -11 86.5 -43t70.5 -96l203 -408h129v-176h-137q-67 0 -114.5 34t-90.5 120l-241 485h-240v-639h-199v639h-239l-244 -485q-43 -87 -89.5 -120.5t-113.5 -33.5h-137zM698 1704v33q0 100 113 100t113 -100v-33q0 -100 -113 -100t-113 100zM1092 1704v33q0 100 112 100 q113 0 113 -100v-33q0 -100 -113 -100q-112 0 -112 100z" />
<glyph unicode="&#x4dd;" horiz-adv-x="1613" d="M82 0v162h121l116 272q42 96 127 109v8q-79 25 -122 117l-105 231h-121v162h103q129 0 194 -133l140 -303h178v436h190v-436h178l140 303q62 133 194 133h103v-162h-121l-107 -231q-40 -92 -123 -117v-8q85 -13 127 -109l117 -272h121v-162h-121q-63 0 -109 32.5 t-81 112.5l-140 322h-178v-467h-190v467h-178l-142 -322q-35 -80 -80.5 -112.5t-109.5 -32.5h-121zM498 1360v29q0 100 112 100q113 0 113 -100v-29q0 -100 -113 -100q-112 0 -112 100zM891 1360v29q0 100 113 100q112 0 112 -100v-29q0 -100 -112 -100q-113 0 -113 100z " />
<glyph unicode="&#x4de;" horiz-adv-x="1220" d="M72 221l141 121q135 -190 365 -190q150 0 229.5 60t79.5 179v25q0 108 -70.5 167.5t-216.5 59.5h-221v174h209q139 0 203.5 56.5t64.5 173.5v24q0 99 -67 153t-199 54q-218 0 -332 -158l-143 107q82 113 196.5 170t278.5 57q232 0 355.5 -101.5t123.5 -277.5 q0 -142 -73.5 -225t-202.5 -107v-10q135 -15 221 -98t86 -234q0 -194 -140 -310t-382 -116q-322 0 -506 246zM281 1704v33q0 100 112 100q113 0 113 -100v-33q0 -100 -113 -100q-112 0 -112 100zM674 1704v33q0 100 112 100q113 0 113 -100v-33q0 -100 -113 -100 q-112 0 -112 100z" />
<glyph unicode="&#x4df;" horiz-adv-x="1038" d="M55 184l133 115q44 -76 118.5 -118t174.5 -42q118 0 180 42.5t62 115.5v25q0 73 -49.5 111t-141.5 38h-229v150h207q91 0 139.5 36t48.5 103v22q0 140 -221 140q-188 0 -276 -150l-123 105q123 208 409 208q204 0 308 -76t104 -210q0 -192 -207 -236v-8 q111 -15 171.5 -80t60.5 -166q0 -153 -120 -243.5t-323 -90.5q-155 0 -256 52.5t-170 156.5zM174 1360v29q0 100 113 100q112 0 112 -100v-29q0 -100 -112 -100q-113 0 -113 100zM567 1360v29q0 100 113 100t113 -100v-29q0 -100 -113 -100t-113 100z" />
<glyph unicode="&#x4e2;" horiz-adv-x="1454" d="M184 0v1430h193v-859l-21 -295h6l144 261l588 893h176v-1430h-193v858l19 295h-6l-144 -260l-584 -893h-178zM434 1645v151h582v-151h-582z" />
<glyph unicode="&#x4e3;" horiz-adv-x="1214" d="M168 0v1061h186v-557l-18 -254h8l129 227l399 584h175v-1061h-187v557l19 252h-9l-129 -225l-399 -584h-174zM317 1300v152h582v-152h-582z" />
<glyph unicode="&#x4e4;" horiz-adv-x="1454" d="M184 0v1430h193v-859l-21 -295h6l144 261l588 893h176v-1430h-193v858l19 295h-6l-144 -260l-584 -893h-178zM416 1704v33q0 100 112 100q113 0 113 -100v-33q0 -100 -113 -100q-112 0 -112 100zM809 1704v33q0 100 113 100q112 0 112 -100v-33q0 -100 -112 -100 q-113 0 -113 100z" />
<glyph unicode="&#x4e5;" horiz-adv-x="1214" d="M168 0v1061h186v-557l-18 -254h8l129 227l399 584h175v-1061h-187v557l19 252h-9l-129 -225l-399 -584h-174zM299 1360v29q0 100 113 100q112 0 112 -100v-29q0 -100 -112 -100q-113 0 -113 100zM692 1360v29q0 100 113 100t113 -100v-29q0 -100 -113 -100t-113 100z" />
<glyph unicode="&#x4e6;" horiz-adv-x="1449" d="M115 715q0 355 163.5 547t446.5 192t446.5 -192t163.5 -547t-163.5 -547.5t-446.5 -192.5t-446.5 192.5t-163.5 547.5zM328 598q0 -203 109 -323.5t288 -120.5t288 120.5t109 323.5v233q0 203 -109 324t-288 121t-288 -121t-109 -324v-233zM416 1704v33q0 100 112 100 q113 0 113 -100v-33q0 -100 -113 -100q-112 0 -112 100zM809 1704v33q0 100 113 100q112 0 112 -100v-33q0 -100 -112 -100q-113 0 -113 100z" />
<glyph unicode="&#x4e7;" horiz-adv-x="1150" d="M92 530q0 252 132.5 403.5t350.5 151.5t351 -151.5t133 -403.5t-133 -403.5t-351 -151.5t-350.5 151.5t-132.5 403.5zM266 1360v29q0 100 113 100t113 -100v-29q0 -100 -113 -100t-113 100zM295 451q0 -151 76 -231.5t204 -80.5t204.5 80.5t76.5 231.5v159 q0 151 -76.5 231.5t-204.5 80.5t-204 -80.5t-76 -231.5v-159zM659 1360v29q0 100 113 100t113 -100v-29q0 -100 -113 -100t-113 100z" />
<glyph unicode="&#x4e8;" horiz-adv-x="1454" d="M115 715q0 355 164.5 547t447.5 192t447.5 -192t164.5 -547t-164.5 -547.5t-447.5 -192.5t-447.5 192.5t-164.5 547.5zM324 598q0 -204 111 -326t292 -122t292 122t111 326v37h-806v-37zM324 811h806v20q0 204 -111 326.5t-292 122.5t-292 -122.5t-111 -326.5v-20z" />
<glyph unicode="&#x4e9;" horiz-adv-x="1148" d="M92 530q0 253 132 404t349 151q218 0 351 -151.5t133 -403.5t-133 -403.5t-351 -151.5q-217 0 -349 151t-132 404zM291 446q0 -152 76.5 -231.5t205.5 -79.5q130 0 207.5 79.5t77.5 231.5v21h-567v-21zM291 608h567v6q0 152 -77.5 232t-207.5 80q-129 0 -205.5 -80 t-76.5 -232v-6z" />
<glyph unicode="&#x4ee;" horiz-adv-x="1232" d="M37 1430h215l289 -613l108 -254h8l95 258l241 609h201l-500 -1244q-46 -110 -102.5 -148t-175.5 -38h-131v176h215l61 152zM342 1645v151h582v-151h-582z" />
<glyph unicode="&#x4ef;" horiz-adv-x="1036" d="M31 1061h190l236 -678l55 -199h10l62 199l237 678h185l-461 -1292q-38 -103 -91 -141t-171 -38h-105v162h174l72 205zM229 1300v152h582v-152h-582z" />
<glyph unicode="&#x4f0;" horiz-adv-x="1232" d="M37 1430h215l289 -613l108 -254h8l95 258l241 609h201l-500 -1244q-46 -110 -102.5 -148t-175.5 -38h-131v176h215l61 152zM324 1704v33q0 100 112 100q113 0 113 -100v-33q0 -100 -113 -100q-112 0 -112 100zM717 1704v33q0 100 112 100q113 0 113 -100v-33 q0 -100 -113 -100q-112 0 -112 100z" />
<glyph unicode="&#x4f1;" horiz-adv-x="1036" d="M31 1061h190l236 -678l55 -199h10l62 199l237 678h185l-461 -1292q-38 -103 -91 -141t-171 -38h-105v162h174l72 205zM211 1360v29q0 100 113 100q112 0 112 -100v-29q0 -100 -112 -100q-113 0 -113 100zM604 1360v29q0 100 113 100q112 0 112 -100v-29q0 -100 -112 -100 q-113 0 -113 100z" />
<glyph unicode="&#x4f2;" horiz-adv-x="1232" d="M37 1430h215l289 -613l108 -254h8l95 258l241 609h201l-500 -1244q-46 -110 -102.5 -148t-175.5 -38h-131v176h215l61 152zM365 1593l180 359l160 -78l-228 -332zM711 1593l180 359l160 -78l-230 -332z" />
<glyph unicode="&#x4f3;" horiz-adv-x="1036" d="M31 1061h190l236 -678l55 -199h10l62 199l237 678h185l-461 -1292q-38 -103 -91 -141t-171 -38h-105v162h174l72 205zM252 1249l180 359l160 -78l-227 -332zM598 1249l180 359l160 -78l-229 -332z" />
<glyph unicode="&#x4f4;" horiz-adv-x="1333" d="M117 1016v414h198v-416q0 -173 81.5 -253.5t246.5 -80.5q201 0 307 45v705h199v-1430h-199v553h-10q-117 -47 -307 -47q-263 0 -389.5 125.5t-126.5 384.5zM324 1704v33q0 100 112 100q113 0 113 -100v-33q0 -100 -113 -100q-112 0 -112 100zM717 1704v33q0 100 112 100 q113 0 113 -100v-33q0 -100 -113 -100q-112 0 -112 100z" />
<glyph unicode="&#x4f5;" horiz-adv-x="1118" d="M102 686v375h191v-361q0 -94 53 -139t162 -45q113 0 182.5 33t69.5 92v420h190v-1061h-190v479h-10q-107 -129 -304 -129q-167 0 -255.5 85t-88.5 251zM217 1360v29q0 100 113 100q112 0 112 -100v-29q0 -100 -112 -100q-113 0 -113 100zM610 1360v29q0 100 113 100 t113 -100v-29q0 -100 -113 -100t-113 100z" />
<glyph unicode="&#x4f8;" horiz-adv-x="1814" d="M184 0v1430h199v-564h414q193 0 299 -114.5t106 -317.5q0 -204 -106.5 -319t-298.5 -115h-613zM383 176h408q97 0 148.5 52t51.5 153v104q0 103 -51.5 154t-148.5 51h-408v-514zM598 1704v33q0 100 113 100q112 0 112 -100v-33q0 -100 -112 -100q-113 0 -113 100z M991 1704v33q0 100 113 100t113 -100v-33q0 -100 -113 -100t-113 100zM1432 0v1430h198v-1430h-198z" />
<glyph unicode="&#x4f9;" horiz-adv-x="1515" d="M168 0v1061h190v-371h277q161 0 256.5 -93t95.5 -253q0 -161 -94.5 -252.5t-255.5 -91.5h-469zM358 158h246q182 0 182 145v84q0 145 -182 145h-246v-374zM449 1360v29q0 100 112 100q113 0 113 -100v-29q0 -100 -113 -100q-112 0 -112 100zM842 1360v29q0 100 112 100 q113 0 113 -100v-29q0 -100 -113 -100q-112 0 -112 100zM1157 0v1061h191v-1061h-191z" />
<glyph unicode="&#xe3f;" horiz-adv-x="1327" d="M184 43v1343h391v211h158v-211h49q172 0 273.5 -94.5t101.5 -251.5q0 -129 -66 -198t-178 -88v-13q295 -42 295 -311q0 -165 -105 -276t-261 -111h-109v-215h-158v215h-391zM379 213h203v438h-203v-438zM379 811h203v406h-203v-406zM727 213h59q104 0 162 47t58 137v70 q0 90 -58 137t-162 47h-59v-438zM727 811h45q182 0 182 172v61q0 173 -182 173h-45v-406z" />
<glyph unicode="&#x1e80;" horiz-adv-x="1857" d="M45 1430h205l151 -689l111 -508h4l125 508l176 689h223l172 -689l125 -505h6l113 505l158 689h198l-360 -1430h-221l-187 725l-118 483h-4l-123 -483l-189 -725h-223zM684 1872l168 82l180 -357l-121 -57z" />
<glyph unicode="&#x1e81;" horiz-adv-x="1601" d="M59 1061h185l110 -453l107 -436h4l121 436l131 453h170l135 -453l123 -436h6l100 436l113 453h178l-282 -1061h-226l-143 498l-90 311h-4l-88 -311l-144 -498h-221zM555 1528l168 82l180 -359l-121 -55z" />
<glyph unicode="&#x1e82;" horiz-adv-x="1857" d="M45 1430h205l151 -689l111 -508h4l125 508l176 689h223l172 -689l125 -505h6l113 505l158 689h198l-360 -1430h-221l-187 725l-118 483h-4l-123 -483l-189 -725h-223zM827 1597l181 357l168 -82l-228 -332z" />
<glyph unicode="&#x1e83;" horiz-adv-x="1601" d="M59 1061h185l110 -453l107 -436h4l121 436l131 453h170l135 -453l123 -436h6l100 436l113 453h178l-282 -1061h-226l-143 498l-90 311h-4l-88 -311l-144 -498h-221zM698 1251l181 359l168 -82l-228 -332z" />
<glyph unicode="&#x1e84;" horiz-adv-x="1857" d="M45 1430h205l151 -689l111 -508h4l125 508l176 689h223l172 -689l125 -505h6l113 505l158 689h198l-360 -1430h-221l-187 725l-118 483h-4l-123 -483l-189 -725h-223zM621 1704v33q0 100 112 100q113 0 113 -100v-33q0 -100 -113 -100q-112 0 -112 100zM1014 1704v33 q0 100 112 100q113 0 113 -100v-33q0 -100 -113 -100q-112 0 -112 100z" />
<glyph unicode="&#x1e85;" horiz-adv-x="1601" d="M59 1061h185l110 -453l107 -436h4l121 436l131 453h170l135 -453l123 -436h6l100 436l113 453h178l-282 -1061h-226l-143 498l-90 311h-4l-88 -311l-144 -498h-221zM492 1360v29q0 100 112 100q113 0 113 -100v-29q0 -100 -113 -100q-112 0 -112 100zM885 1360v29 q0 100 112 100q113 0 113 -100v-29q0 -100 -113 -100q-112 0 -112 100z" />
<glyph unicode="&#x1e9e;" horiz-adv-x="1445" d="M184 0v1430h1065v-191l-348 -405v-9q202 -5 324.5 -113t122.5 -302q0 -201 -123 -318t-332 -117q-270 0 -406 185l134 119q108 -136 272 -136q117 0 181.5 63t64.5 169v63q0 107 -65 168.5t-187 61.5h-195v174l359 415h-668v-1257h-199z" />
<glyph unicode="&#x1ea0;" horiz-adv-x="1329" d="M45 0l496 1430h250l493 -1430h-209l-135 403h-557l-137 -403h-201zM430 580h461l-225 667h-11zM549 -231q0 47 29.5 74.5t87.5 27.5t87 -27t29 -75v-27q0 -48 -29 -75t-87 -27t-87.5 27.5t-29.5 74.5v27z" />
<glyph unicode="&#x1ea1;" horiz-adv-x="1107" d="M86 293q0 155 113.5 235t339.5 80h200v97q0 221 -235 221q-167 0 -260 -152l-115 105q51 93 148 149.5t237 56.5q198 0 307 -96t109 -268v-559h119v-162h-109q-84 0 -129.5 47.5t-56.5 128.5h-11q-32 -97 -112 -149t-195 -52q-165 0 -257.5 85.5t-92.5 232.5zM285 283 q0 -73 52 -113.5t142 -40.5q113 0 186.5 51.5t73.5 130.5v164h-202q-252 0 -252 -151v-41zM395 -231q0 47 29.5 74.5t87.5 27.5t87.5 -27.5t29.5 -74.5v-27q0 -47 -29.5 -74.5t-87.5 -27.5t-87.5 27.5t-29.5 74.5v27z" />
<glyph unicode="&#x1ea2;" horiz-adv-x="1329" d="M45 0l496 1430h250l493 -1430h-209l-135 403h-557l-137 -403h-201zM430 580h461l-225 667h-11zM479 1784v141h238q80 0 116.5 -32.5t36.5 -86.5q0 -93 -104 -219l-49 -63l-107 51l113 209h-244z" />
<glyph unicode="&#x1ea3;" horiz-adv-x="1107" d="M86 293q0 155 113.5 235t339.5 80h200v97q0 221 -235 221q-167 0 -260 -152l-115 105q51 93 148 149.5t237 56.5q198 0 307 -96t109 -268v-559h119v-162h-109q-84 0 -129.5 47.5t-56.5 128.5h-11q-32 -97 -112 -149t-195 -52q-165 0 -257.5 85.5t-92.5 232.5zM285 283 q0 -73 52 -113.5t142 -40.5q113 0 186.5 51.5t73.5 130.5v164h-202q-252 0 -252 -151v-41zM338 1438v143h237q79 0 116.5 -33.5t37.5 -85.5q0 -95 -104 -221l-50 -63l-106 53l113 207h-244z" />
<glyph unicode="&#x1ea4;" horiz-adv-x="1329" d="M45 0l496 1430h250l493 -1430h-209l-135 403h-557l-137 -403h-201zM326 1606l239 278h201l240 -278l-95 -76l-245 227l-246 -227zM430 580h461l-225 667h-11zM877 1841l180 359l160 -80l-228 -332z" />
<glyph unicode="&#x1ea5;" horiz-adv-x="1107" d="M86 293q0 155 113.5 235t339.5 80h200v97q0 221 -235 221q-167 0 -260 -152l-115 105q51 93 148 149.5t237 56.5q198 0 307 -96t109 -268v-559h119v-162h-109q-84 0 -129.5 47.5t-56.5 128.5h-11q-32 -97 -112 -149t-195 -52q-165 0 -257.5 85.5t-92.5 232.5zM182 1260 l240 280h201l239 -280l-94 -74l-246 225l-246 -225zM285 283q0 -73 52 -113.5t142 -40.5q113 0 186.5 51.5t73.5 130.5v164h-202q-252 0 -252 -151v-41zM733 1497l180 356l160 -77l-227 -332z" />
<glyph unicode="&#x1ea6;" horiz-adv-x="1329" d="M45 0l496 1430h250l493 -1430h-209l-135 403h-557l-137 -403h-201zM115 2120l159 80l181 -359l-113 -53zM326 1606l239 278h201l240 -278l-95 -76l-245 227l-246 -227zM430 580h461l-225 667h-11z" />
<glyph unicode="&#x1ea7;" horiz-adv-x="1107" d="M-29 1776l160 77l180 -356l-112 -53zM86 293q0 155 113.5 235t339.5 80h200v97q0 221 -235 221q-167 0 -260 -152l-115 105q51 93 148 149.5t237 56.5q198 0 307 -96t109 -268v-559h119v-162h-109q-84 0 -129.5 47.5t-56.5 128.5h-11q-32 -97 -112 -149t-195 -52 q-165 0 -257.5 85.5t-92.5 232.5zM182 1260l240 280h201l239 -280l-94 -74l-246 225l-246 -225zM285 283q0 -73 52 -113.5t142 -40.5q113 0 186.5 51.5t73.5 130.5v164h-202q-252 0 -252 -151v-41z" />
<glyph unicode="&#x1ea8;" horiz-adv-x="1329" d="M45 0l496 1430h250l493 -1430h-209l-135 403h-557l-137 -403h-201zM326 1606l239 278h201l240 -278l-95 -76l-245 227l-246 -227zM430 580h461l-225 667h-11zM764 2040v135h231q81 0 118.5 -33.5t37.5 -85.5q0 -91 -107 -221l-49 -61l-100 51l117 215h-248z" />
<glyph unicode="&#x1ea9;" horiz-adv-x="1107" d="M86 293q0 155 113.5 235t339.5 80h200v97q0 221 -235 221q-167 0 -260 -152l-115 105q51 93 148 149.5t237 56.5q198 0 307 -96t109 -268v-559h119v-162h-109q-84 0 -129.5 47.5t-56.5 128.5h-11q-32 -97 -112 -149t-195 -52q-165 0 -257.5 85.5t-92.5 232.5zM182 1260 l240 280h201l239 -280l-94 -74l-246 225l-246 -225zM285 283q0 -73 52 -113.5t142 -40.5q113 0 186.5 51.5t73.5 130.5v164h-202q-252 0 -252 -151v-41zM621 1696v135h231q81 0 118.5 -33.5t37.5 -85.5q0 -91 -107 -221l-49 -64l-100 52l116 217h-247z" />
<glyph unicode="&#x1eaa;" horiz-adv-x="1329" d="M45 0l496 1430h250l493 -1430h-209l-135 403h-557l-137 -403h-201zM313 2064q75 113 201 113q10 0 20.5 -1t19 -2t19 -4t16.5 -4.5t17 -5.5t15 -5.5t15.5 -7.5t14 -7t14.5 -7t13 -7q90 -47 145 -47q33 0 59.5 12.5t61.5 40.5l74 -84q-75 -113 -201 -113q-13 0 -26 1.5 t-22.5 3t-22.5 6t-20 6.5t-20.5 8.5t-17.5 8.5t-18.5 9.5t-16.5 8.5q-90 47 -145 47q-33 0 -59.5 -12.5t-61.5 -41.5zM326 1606l237 274h205l238 -274l-95 -76l-245 223l-246 -223zM430 580h461l-225 667h-11z" />
<glyph unicode="&#x1eab;" horiz-adv-x="1107" d="M86 293q0 155 113.5 235t339.5 80h200v97q0 221 -235 221q-167 0 -260 -152l-115 105q51 93 148 149.5t237 56.5q198 0 307 -96t109 -268v-559h119v-162h-109q-84 0 -129.5 47.5t-56.5 128.5h-11q-32 -97 -112 -149t-195 -52q-165 0 -257.5 85.5t-92.5 232.5zM170 1720 q75 113 201 113q10 0 20.5 -1t19 -2t19 -4t16.5 -4.5t17 -5.5t15 -5.5t15.5 -7.5t14 -7t14.5 -7t13 -7q90 -47 145 -47q33 0 59.5 12.5t61.5 40.5l73 -84q-75 -113 -200 -113q-10 0 -20.5 1t-19 2t-19 4t-16.5 4.5t-17 5.5t-15 5.5t-15.5 7.5t-14 7t-14.5 7t-13 7 q-92 48 -145 48q-33 0 -59.5 -12.5t-61.5 -41.5zM182 1260l238 274h205l237 -274l-94 -74l-246 223l-246 -223zM285 283q0 -73 52 -113.5t142 -40.5q113 0 186.5 51.5t73.5 130.5v164h-202q-252 0 -252 -151v-41z" />
<glyph unicode="&#x1eac;" horiz-adv-x="1329" d="M45 0l496 1430h250l493 -1430h-209l-135 403h-557l-137 -403h-201zM324 1624l235 299h213l236 -299l-101 -74l-241 238l-242 -238zM430 580h461l-225 667h-11zM549 -231q0 47 29.5 74.5t87.5 27.5t87 -27t29 -75v-27q0 -48 -29 -75t-87 -27t-87.5 27.5t-29.5 74.5v27z " />
<glyph unicode="&#x1ead;" horiz-adv-x="1107" d="M86 293q0 155 113.5 235t339.5 80h200v97q0 221 -235 221q-167 0 -260 -152l-115 105q51 93 148 149.5t237 56.5q198 0 307 -96t109 -268v-559h119v-162h-109q-84 0 -129.5 47.5t-56.5 128.5h-11q-32 -97 -112 -149t-195 -52q-165 0 -257.5 85.5t-92.5 232.5zM180 1280 l236 299h213l235 -299l-100 -74l-242 238l-241 -238zM285 283q0 -73 52 -113.5t142 -40.5q113 0 186.5 51.5t73.5 130.5v164h-202q-252 0 -252 -151v-41zM395 -231q0 47 29.5 74.5t87.5 27.5t87.5 -27.5t29.5 -74.5v-27q0 -47 -29.5 -74.5t-87.5 -27.5t-87.5 27.5 t-29.5 74.5v27z" />
<glyph unicode="&#x1eae;" horiz-adv-x="1329" d="M45 0l496 1430h250l493 -1430h-209l-135 403h-557l-137 -403h-201zM336 1804l104 56l41 -72q32 -57 74 -85t111 -28t110.5 28t73.5 85l41 72l104 -56q-14 -42 -28 -73.5t-40.5 -70t-59.5 -62.5t-85 -41t-116 -17t-116 17t-85 41t-60 62t-41 70t-28 74zM430 580h461 l-225 667h-11zM567 1841l178 359l162 -80l-227 -332z" />
<glyph unicode="&#x1eaf;" horiz-adv-x="1107" d="M86 293q0 155 113.5 235t339.5 80h200v97q0 221 -235 221q-167 0 -260 -152l-115 105q51 93 148 149.5t237 56.5q198 0 307 -96t109 -268v-559h119v-162h-109q-84 0 -129.5 47.5t-56.5 128.5h-11q-32 -97 -112 -149t-195 -52q-165 0 -257.5 85.5t-92.5 232.5zM190 1460 l103 56l45 -70q37 -58 76.5 -86.5t107.5 -28.5t108 28.5t77 86.5l45 70l102 -56q-14 -42 -28 -74t-41.5 -70.5t-60.5 -63t-85.5 -41.5t-116.5 -17t-116.5 17t-85.5 41.5t-60.5 63t-41.5 70.5t-28 74zM285 283q0 -73 52 -113.5t142 -40.5q113 0 186.5 51.5t73.5 130.5v164 h-202q-252 0 -252 -151v-41zM424 1497l178 356l162 -77l-227 -332z" />
<glyph unicode="&#x1eb0;" horiz-adv-x="1329" d="M45 0l496 1430h250l493 -1430h-209l-135 403h-557l-137 -403h-201zM336 1804l104 56l41 -72q32 -57 74 -85t111 -28t110.5 28t73.5 85l41 72l104 -56q-14 -42 -28 -73.5t-40.5 -70t-59.5 -62.5t-85 -41t-116 -17t-116 17t-85 41t-60 62t-41 70t-28 74zM426 2120l160 80 l178 -359l-113 -53zM430 580h461l-225 667h-11z" />
<glyph unicode="&#x1eb1;" horiz-adv-x="1107" d="M86 293q0 155 113.5 235t339.5 80h200v97q0 221 -235 221q-167 0 -260 -152l-115 105q51 93 148 149.5t237 56.5q198 0 307 -96t109 -268v-559h119v-162h-109q-84 0 -129.5 47.5t-56.5 128.5h-11q-32 -97 -112 -149t-195 -52q-165 0 -257.5 85.5t-92.5 232.5zM190 1460 l103 56l45 -70q37 -58 76.5 -86.5t107.5 -28.5t108 28.5t77 86.5l45 70l102 -56q-14 -42 -28 -74t-41.5 -70.5t-60.5 -63t-85.5 -41.5t-116.5 -17t-116.5 17t-85.5 41.5t-60.5 63t-41.5 70.5t-28 74zM283 1776l159 77l179 -356l-113 -53zM285 283q0 -73 52 -113.5t142 -40.5 q113 0 186.5 51.5t73.5 130.5v164h-202q-252 0 -252 -151v-41z" />
<glyph unicode="&#x1eb2;" horiz-adv-x="1329" d="M45 0l496 1430h250l493 -1430h-209l-135 403h-557l-137 -403h-201zM336 1804l104 56l41 -72q32 -57 74 -85t111 -28t110.5 28t73.5 85l41 72l104 -56q-14 -42 -28 -73.5t-40.5 -70t-59.5 -62.5t-85 -41t-116 -17t-116 17t-85 41t-60 62t-41 70t-28 74zM430 580h461 l-225 667h-11zM467 2040v135h209q81 0 118 -33.5t37 -85.5q0 -83 -106 -221l-51 -61l-99 49l117 217h-225z" />
<glyph unicode="&#x1eb3;" horiz-adv-x="1107" d="M86 293q0 155 113.5 235t339.5 80h200v97q0 221 -235 221q-167 0 -260 -152l-115 105q51 93 148 149.5t237 56.5q198 0 307 -96t109 -268v-559h119v-162h-109q-84 0 -129.5 47.5t-56.5 128.5h-11q-32 -97 -112 -149t-195 -52q-165 0 -257.5 85.5t-92.5 232.5zM190 1460 l103 56l45 -70q37 -58 76.5 -86.5t107.5 -28.5t108 28.5t77 86.5l45 70l102 -56q-14 -42 -28 -74t-41.5 -70.5t-60.5 -63t-85.5 -41.5t-116.5 -17t-116.5 17t-85.5 41.5t-60.5 63t-41.5 70.5t-28 74zM285 283q0 -73 52 -113.5t142 -40.5q113 0 186.5 51.5t73.5 130.5v164 h-202q-252 0 -252 -151v-41zM324 1696v135h208q81 0 118.5 -33.5t37.5 -85.5q0 -86 -106 -221l-52 -64l-98 52l117 217h-225z" />
<glyph unicode="&#x1eb4;" horiz-adv-x="1329" d="M45 0l496 1430h250l493 -1430h-209l-135 403h-557l-137 -403h-201zM313 2060q75 113 201 113q10 0 20.5 -1t19 -2t19 -4t16.5 -4.5t17 -5.5t15 -5.5t15.5 -7.5t14 -7t14.5 -7t13 -7q90 -47 145 -47q33 0 59.5 12.5t61.5 40.5l74 -84q-75 -113 -201 -113q-10 0 -20.5 1 t-19 2t-19 4t-16.5 4.5t-17 5.5t-15 5.5t-15.5 7.5t-14 7t-14.5 7t-13 7q-92 48 -145 48q-33 0 -59.5 -12.5t-61.5 -41.5zM336 1804l104 56l41 -72q32 -57 74 -85t111 -28t110.5 28t73.5 85l41 72l104 -56q-14 -42 -28 -73.5t-40.5 -70t-59.5 -62.5t-85 -41t-116 -17 t-116 17t-85 41t-60 62t-41 70t-28 74zM430 580h461l-225 667h-11z" />
<glyph unicode="&#x1eb5;" horiz-adv-x="1107" d="M86 293q0 155 113.5 235t339.5 80h200v97q0 221 -235 221q-167 0 -260 -152l-115 105q51 93 148 149.5t237 56.5q198 0 307 -96t109 -268v-559h119v-162h-109q-84 0 -129.5 47.5t-56.5 128.5h-11q-32 -97 -112 -149t-195 -52q-165 0 -257.5 85.5t-92.5 232.5zM170 1716 q75 113 201 113q10 0 20.5 -1t19 -2t19 -4t16.5 -4.5t17 -5.5t15 -5.5t15.5 -7.5t14 -7t14.5 -7t13 -7q90 -47 145 -47q33 0 59.5 12.5t61.5 40.5l73 -84q-75 -113 -200 -113q-10 0 -20.5 1t-19 2t-19 4t-16.5 4.5t-17 5.5t-15 5.5t-15.5 7.5t-14 7t-14.5 7t-13 7 q-92 48 -145 48q-33 0 -59.5 -12.5t-61.5 -41.5zM190 1460l103 56l45 -70q37 -58 76.5 -86.5t107.5 -28.5t108 28.5t77 86.5l45 70l102 -56q-14 -42 -28 -74t-41.5 -70.5t-60.5 -63t-85.5 -41.5t-116.5 -17t-116.5 17t-85.5 41.5t-60.5 63t-41.5 70.5t-28 74zM285 283 q0 -73 52 -113.5t142 -40.5q113 0 186.5 51.5t73.5 130.5v164h-202q-252 0 -252 -151v-41z" />
<glyph unicode="&#x1eb6;" horiz-adv-x="1329" d="M45 0l496 1430h250l493 -1430h-209l-135 403h-557l-137 -403h-201zM340 1833l106 51l41 -67q36 -58 74 -85.5t105 -27.5t104.5 27.5t73.5 85.5l41 67l106 -51q-15 -44 -27.5 -75t-39.5 -72t-59 -66t-83.5 -43t-115.5 -18q-54 0 -98.5 11.5t-77 34t-56.5 46.5t-42.5 59 t-29 61t-22.5 62zM430 580h461l-225 667h-11zM549 -231q0 47 29.5 74.5t87.5 27.5t87 -27t29 -75v-27q0 -48 -29 -75t-87 -27t-87.5 27.5t-29.5 74.5v27z" />
<glyph unicode="&#x1eb7;" horiz-adv-x="1107" d="M86 293q0 155 113.5 235t339.5 80h200v97q0 221 -235 221q-167 0 -260 -152l-115 105q51 93 148 149.5t237 56.5q198 0 307 -96t109 -268v-559h119v-162h-109q-84 0 -129.5 47.5t-56.5 128.5h-11q-32 -97 -112 -149t-195 -52q-165 0 -257.5 85.5t-92.5 232.5zM197 1487 l106 53l41 -67q36 -59 73.5 -87t104.5 -28t104.5 28t73.5 87l41 67l107 -53q-14 -44 -27.5 -75t-40 -71.5t-58.5 -65.5t-84 -43t-116 -18t-115.5 18t-83.5 43t-59 65.5t-40 71.5t-27 75zM285 283q0 -73 52 -113.5t142 -40.5q113 0 186.5 51.5t73.5 130.5v164h-202 q-252 0 -252 -151v-41zM395 -231q0 47 29.5 74.5t87.5 27.5t87.5 -27.5t29.5 -74.5v-27q0 -47 -29.5 -74.5t-87.5 -27.5t-87.5 27.5t-29.5 74.5v27z" />
<glyph unicode="&#x1eb8;" horiz-adv-x="1204" d="M184 0v1430h891v-177h-692v-442h641v-176h-641v-459h692v-176h-891zM510 -231q0 47 29.5 74.5t87.5 27.5t87 -27t29 -75v-27q0 -48 -29 -75t-87 -27t-87.5 27.5t-29.5 74.5v27z" />
<glyph unicode="&#x1eb9;" horiz-adv-x="1130" d="M92 530q0 253 130 404t351 151q217 0 341 -146.5t124 -375.5v-80h-747v-43q0 -135 79.5 -219t219.5 -84q197 0 287 172l122 -104q-57 -105 -168.5 -167.5t-257.5 -62.5q-221 0 -351 151t-130 404zM291 616h545v21q0 133 -72 214t-191 81q-124 0 -203 -85t-79 -216v-15z M463 -231q0 47 29.5 74.5t87.5 27.5t87 -27t29 -75v-27q0 -48 -29 -75t-87 -27t-87.5 27.5t-29.5 74.5v27z" />
<glyph unicode="&#x1eba;" horiz-adv-x="1204" d="M184 0v1430h891v-177h-692v-442h641v-176h-641v-459h692v-176h-891zM440 1784v141h238q80 0 116.5 -32.5t36.5 -86.5q0 -93 -104 -219l-49 -63l-107 51l113 209h-244z" />
<glyph unicode="&#x1ebb;" horiz-adv-x="1130" d="M92 530q0 253 130 404t351 151q217 0 341 -146.5t124 -375.5v-80h-747v-43q0 -135 79.5 -219t219.5 -84q197 0 287 172l122 -104q-57 -105 -168.5 -167.5t-257.5 -62.5q-221 0 -351 151t-130 404zM291 616h545v21q0 133 -72 214t-191 81q-124 0 -203 -85t-79 -216v-15z M391 1438v143h238q79 0 116 -33.5t37 -85.5q0 -95 -104 -221l-49 -63l-107 53l113 207h-244z" />
<glyph unicode="&#x1ebc;" horiz-adv-x="1204" d="M184 0v1430h891v-177h-692v-442h641v-176h-641v-459h692v-176h-891zM274 1731q74 112 201 112q10 0 20.5 -1t19 -2t19 -4t16.5 -4.5t17 -5.5t15 -5.5t15.5 -7.5t14 -7t14.5 -7t13 -7q90 -47 145 -47q33 0 59.5 12.5t61.5 40.5l74 -92q-75 -113 -201 -113q-13 0 -26 1.5 t-22.5 3t-22.5 6t-20 6.5t-20.5 8.5t-17.5 8.5t-18.5 9.5t-16.5 8.5q-90 47 -145 47q-33 0 -59.5 -12.5t-61.5 -41.5z" />
<glyph unicode="&#x1ebd;" horiz-adv-x="1130" d="M92 530q0 253 130 404t351 151q217 0 341 -146.5t124 -375.5v-80h-747v-43q0 -135 79.5 -219t219.5 -84q197 0 287 172l122 -104q-57 -105 -168.5 -167.5t-257.5 -62.5q-221 0 -351 151t-130 404zM223 1386q75 113 201 113q10 0 20.5 -1t19 -2t19 -4t16.5 -4.5t17 -5.5 t15 -5.5t15.5 -7.5t14 -7t14.5 -7t13 -7q90 -47 145 -47q33 0 59.5 12.5t61.5 40.5l74 -92q-75 -113 -201 -113q-10 0 -20.5 1t-19 2t-19 4t-16.5 4.5t-17 5.5t-15 5.5t-15.5 7.5t-14 7t-14.5 7t-13 7q-92 48 -145 48q-33 0 -59.5 -12.5t-61.5 -41.5zM291 616h545v21 q0 133 -72 214t-191 81q-124 0 -203 -85t-79 -216v-15z" />
<glyph unicode="&#x1ebe;" horiz-adv-x="1204" d="M184 0v1430h891v-177h-692v-442h641v-176h-641v-459h692v-176h-891zM287 1606l239 278h201l240 -278l-95 -76l-245 227l-246 -227zM838 1841l180 359l160 -80l-228 -332z" />
<glyph unicode="&#x1ebf;" horiz-adv-x="1130" d="M92 530q0 253 130 404t351 151q217 0 341 -146.5t124 -375.5v-80h-747v-43q0 -135 79.5 -219t219.5 -84q197 0 287 172l122 -104q-57 -105 -168.5 -167.5t-257.5 -62.5q-221 0 -351 151t-130 404zM236 1260l239 280h201l239 -280l-94 -74l-246 225l-245 -225zM291 616 h545v21q0 133 -72 214t-191 81q-124 0 -203 -85t-79 -216v-15zM786 1497l181 356l159 -77l-227 -332z" />
<glyph unicode="&#x1ec0;" horiz-adv-x="1204" d="M76 2120l160 80l180 -359l-113 -53zM184 0v1430h891v-177h-692v-442h641v-176h-641v-459h692v-176h-891zM287 1606l239 278h201l240 -278l-95 -76l-245 227l-246 -227z" />
<glyph unicode="&#x1ec1;" horiz-adv-x="1130" d="M25 1776l159 77l181 -356l-113 -53zM92 530q0 253 130 404t351 151q217 0 341 -146.5t124 -375.5v-80h-747v-43q0 -135 79.5 -219t219.5 -84q197 0 287 172l122 -104q-57 -105 -168.5 -167.5t-257.5 -62.5q-221 0 -351 151t-130 404zM236 1260l239 280h201l239 -280 l-94 -74l-246 225l-245 -225zM291 616h545v21q0 133 -72 214t-191 81q-124 0 -203 -85t-79 -216v-15z" />
<glyph unicode="&#x1ec2;" horiz-adv-x="1204" d="M184 0v1430h891v-177h-692v-442h641v-176h-641v-459h692v-176h-891zM287 1606l239 278h201l240 -278l-95 -76l-245 227l-246 -227zM725 2040v135h231q81 0 118.5 -33.5t37.5 -85.5q0 -93 -106 -221l-50 -61l-100 51l117 215h-248z" />
<glyph unicode="&#x1ec3;" horiz-adv-x="1130" d="M92 530q0 253 130 404t351 151q217 0 341 -146.5t124 -375.5v-80h-747v-43q0 -135 79.5 -219t219.5 -84q197 0 287 172l122 -104q-57 -105 -168.5 -167.5t-257.5 -62.5q-221 0 -351 151t-130 404zM236 1260l239 280h201l239 -280l-94 -74l-246 225l-245 -225zM291 616 h545v21q0 133 -72 214t-191 81q-124 0 -203 -85t-79 -216v-15zM674 1696v135h231q81 0 118.5 -33.5t37.5 -85.5q0 -91 -107 -221l-49 -64l-100 52l117 217h-248z" />
<glyph unicode="&#x1ec4;" horiz-adv-x="1204" d="M184 0v1430h891v-177h-692v-442h641v-176h-641v-459h692v-176h-891zM274 2064q75 113 201 113q10 0 20.5 -1t19 -2t19 -4t16.5 -4.5t17 -5.5t15 -5.5t15.5 -7.5t14 -7t14.5 -7t13 -7q90 -47 145 -47q33 0 59.5 12.5t61.5 40.5l74 -84q-75 -113 -201 -113q-13 0 -26 1.5 t-22.5 3t-22.5 6t-20 6.5t-20.5 8.5t-17.5 8.5t-18.5 9.5t-16.5 8.5q-90 47 -145 47q-33 0 -59.5 -12.5t-61.5 -41.5zM287 1606l237 274h205l238 -274l-95 -76l-245 223l-246 -223z" />
<glyph unicode="&#x1ec5;" horiz-adv-x="1130" d="M92 530q0 253 130 404t351 151q217 0 341 -146.5t124 -375.5v-80h-747v-43q0 -135 79.5 -219t219.5 -84q197 0 287 172l122 -104q-57 -105 -168.5 -167.5t-257.5 -62.5q-221 0 -351 151t-130 404zM223 1720q75 113 201 113q10 0 20.5 -1t19 -2t19 -4t16.5 -4.5t17 -5.5 t15 -5.5t15.5 -7.5t14 -7t14.5 -7t13 -7q90 -47 145 -47q33 0 59.5 12.5t61.5 40.5l74 -84q-75 -113 -201 -113q-10 0 -20.5 1t-19 2t-19 4t-16.5 4.5t-17 5.5t-15 5.5t-15.5 7.5t-14 7t-14.5 7t-13 7q-92 48 -145 48q-33 0 -59.5 -12.5t-61.5 -41.5zM236 1260l237 274h205 l237 -274l-94 -74l-246 223l-245 -223zM291 616h545v21q0 133 -72 214t-191 81q-124 0 -203 -85t-79 -216v-15z" />
<glyph unicode="&#x1ec6;" horiz-adv-x="1204" d="M184 0v1430h891v-177h-692v-442h641v-176h-641v-459h692v-176h-891zM285 1624l235 299h213l236 -299l-101 -74l-241 238l-242 -238zM510 -231q0 47 29.5 74.5t87.5 27.5t87 -27t29 -75v-27q0 -48 -29 -75t-87 -27t-87.5 27.5t-29.5 74.5v27z" />
<glyph unicode="&#x1ec7;" horiz-adv-x="1130" d="M92 530q0 253 130 404t351 151q217 0 341 -146.5t124 -375.5v-80h-747v-43q0 -135 79.5 -219t219.5 -84q197 0 287 172l122 -104q-57 -105 -168.5 -167.5t-257.5 -62.5q-221 0 -351 151t-130 404zM233 1280l236 299h213l236 -299l-101 -74l-242 238l-241 -238zM291 616 h545v21q0 133 -72 214t-191 81q-124 0 -203 -85t-79 -216v-15zM463 -231q0 47 29.5 74.5t87.5 27.5t87 -27t29 -75v-27q0 -48 -29 -75t-87 -27t-87.5 27.5t-29.5 74.5v27z" />
<glyph unicode="&#x1ec8;" horiz-adv-x="833" d="M119 0v168h198v1094h-198v168h596v-168h-199v-1094h199v-168h-596zM229 1784v141h238q80 0 117 -32.5t37 -86.5q0 -92 -105 -219l-49 -63l-107 51l113 209h-244z" />
<glyph unicode="&#x1ec9;" horiz-adv-x="526" d="M80 1438v143h237q79 0 116.5 -33.5t37.5 -85.5q0 -95 -104 -221l-50 -63l-106 53l113 207h-244zM168 0v1061h190v-1061h-190z" />
<glyph unicode="&#x1eca;" horiz-adv-x="833" d="M119 0v168h198v1094h-198v168h596v-168h-199v-1094h199v-168h-596zM299 -231q0 47 29.5 74.5t87.5 27.5t87 -27t29 -75v-27q0 -48 -29 -75t-87 -27t-87.5 27.5t-29.5 74.5v27z" />
<glyph unicode="&#x1ecb;" horiz-adv-x="526" d="M147 -231q0 47 29.5 74.5t87.5 27.5t87.5 -27.5t29.5 -74.5v-27q0 -47 -29.5 -74.5t-87.5 -27.5t-87.5 27.5t-29.5 74.5v27zM150 1386v29q0 48 28 76.5t86 28.5t86.5 -28.5t28.5 -76.5v-29q0 -48 -28.5 -76t-86.5 -28t-86 28t-28 76zM168 0v1061h190v-1061h-190z" />
<glyph unicode="&#x1ecc;" horiz-adv-x="1449" d="M115 715q0 355 163.5 547t446.5 192t446.5 -192t163.5 -547t-163.5 -547.5t-446.5 -192.5t-446.5 192.5t-163.5 547.5zM328 598q0 -203 109 -323.5t288 -120.5t288 120.5t109 323.5v233q0 203 -109 324t-288 121t-288 -121t-109 -324v-233zM608 -231q0 47 29.5 74.5 t87.5 27.5t87.5 -27.5t29.5 -74.5v-27q0 -47 -29.5 -74.5t-87.5 -27.5t-87.5 27.5t-29.5 74.5v27z" />
<glyph unicode="&#x1ecd;" horiz-adv-x="1150" d="M92 530q0 252 132.5 403.5t350.5 151.5t351 -151.5t133 -403.5t-133 -403.5t-351 -151.5t-350.5 151.5t-132.5 403.5zM295 451q0 -151 76 -231.5t204 -80.5t204.5 80.5t76.5 231.5v159q0 151 -76.5 231.5t-204.5 80.5t-204 -80.5t-76 -231.5v-159zM459 -231q0 48 29 75 t87 27t87.5 -27.5t29.5 -74.5v-27q0 -47 -29.5 -74.5t-87.5 -27.5t-87 27t-29 75v27z" />
<glyph unicode="&#x1ece;" horiz-adv-x="1449" d="M115 715q0 355 163.5 547t446.5 192t446.5 -192t163.5 -547t-163.5 -547.5t-446.5 -192.5t-446.5 192.5t-163.5 547.5zM328 598q0 -203 109 -323.5t288 -120.5t288 120.5t109 323.5v233q0 203 -109 324t-288 121t-288 -121t-109 -324v-233zM539 1784v141h237 q80 0 117 -32.5t37 -86.5q0 -92 -105 -219l-49 -63l-106 51l112 209h-243z" />
<glyph unicode="&#x1ecf;" horiz-adv-x="1150" d="M92 530q0 252 132.5 403.5t350.5 151.5t351 -151.5t133 -403.5t-133 -403.5t-351 -151.5t-350.5 151.5t-132.5 403.5zM295 451q0 -151 76 -231.5t204 -80.5t204.5 80.5t76.5 231.5v159q0 151 -76.5 231.5t-204.5 80.5t-204 -80.5t-76 -231.5v-159zM391 1438v143h238 q79 0 116 -33.5t37 -85.5q0 -95 -104 -221l-49 -63l-107 53l113 207h-244z" />
<glyph unicode="&#x1ed0;" horiz-adv-x="1449" d="M115 715q0 355 163.5 547t446.5 192t446.5 -192t163.5 -547t-163.5 -547.5t-446.5 -192.5t-446.5 192.5t-163.5 547.5zM328 598q0 -203 109 -323.5t288 -120.5t288 120.5t109 323.5v233q0 203 -109 324t-288 121t-288 -121t-109 -324v-233zM385 1606l240 278h200 l240 -278l-94 -76l-246 227l-246 -227zM936 1841l180 359l160 -80l-227 -332z" />
<glyph unicode="&#x1ed1;" horiz-adv-x="1150" d="M92 530q0 252 132.5 403.5t350.5 151.5t351 -151.5t133 -403.5t-133 -403.5t-351 -151.5t-350.5 151.5t-132.5 403.5zM236 1260l239 280h201l239 -280l-94 -74l-246 225l-245 -225zM295 451q0 -151 76 -231.5t204 -80.5t204.5 80.5t76.5 231.5v159q0 151 -76.5 231.5 t-204.5 80.5t-204 -80.5t-76 -231.5v-159zM786 1497l181 356l159 -77l-227 -332z" />
<glyph unicode="&#x1ed2;" horiz-adv-x="1449" d="M115 715q0 355 163.5 547t446.5 192t446.5 -192t163.5 -547t-163.5 -547.5t-446.5 -192.5t-446.5 192.5t-163.5 547.5zM174 2120l160 80l180 -359l-113 -53zM328 598q0 -203 109 -323.5t288 -120.5t288 120.5t109 323.5v233q0 203 -109 324t-288 121t-288 -121t-109 -324 v-233zM385 1606l240 278h200l240 -278l-94 -76l-246 227l-246 -227z" />
<glyph unicode="&#x1ed3;" horiz-adv-x="1150" d="M25 1776l159 77l181 -356l-113 -53zM92 530q0 252 132.5 403.5t350.5 151.5t351 -151.5t133 -403.5t-133 -403.5t-351 -151.5t-350.5 151.5t-132.5 403.5zM236 1260l239 280h201l239 -280l-94 -74l-246 225l-245 -225zM295 451q0 -151 76 -231.5t204 -80.5t204.5 80.5 t76.5 231.5v159q0 151 -76.5 231.5t-204.5 80.5t-204 -80.5t-76 -231.5v-159z" />
<glyph unicode="&#x1ed4;" horiz-adv-x="1449" d="M115 715q0 355 163.5 547t446.5 192t446.5 -192t163.5 -547t-163.5 -547.5t-446.5 -192.5t-446.5 192.5t-163.5 547.5zM328 598q0 -203 109 -323.5t288 -120.5t288 120.5t109 323.5v233q0 203 -109 324t-288 121t-288 -121t-109 -324v-233zM385 1606l240 278h200 l240 -278l-94 -76l-246 227l-246 -227zM823 2040v135h232q81 0 118 -33.5t37 -85.5q0 -93 -106 -221l-49 -61l-101 51l117 215h-248z" />
<glyph unicode="&#x1ed5;" horiz-adv-x="1150" d="M92 530q0 252 132.5 403.5t350.5 151.5t351 -151.5t133 -403.5t-133 -403.5t-351 -151.5t-350.5 151.5t-132.5 403.5zM236 1260l239 280h201l239 -280l-94 -74l-246 225l-245 -225zM295 451q0 -151 76 -231.5t204 -80.5t204.5 80.5t76.5 231.5v159q0 151 -76.5 231.5 t-204.5 80.5t-204 -80.5t-76 -231.5v-159zM674 1696v135h231q81 0 118.5 -33.5t37.5 -85.5q0 -91 -107 -221l-49 -64l-100 52l117 217h-248z" />
<glyph unicode="&#x1ed6;" horiz-adv-x="1449" d="M115 715q0 355 163.5 547t446.5 192t446.5 -192t163.5 -547t-163.5 -547.5t-446.5 -192.5t-446.5 192.5t-163.5 547.5zM328 598q0 -203 109 -323.5t288 -120.5t288 120.5t109 323.5v233q0 203 -109 324t-288 121t-288 -121t-109 -324v-233zM373 2064q75 113 200 113 q10 0 20.5 -1t19 -2t19 -4t16.5 -4.5t17 -5.5t15 -5.5t15.5 -7.5t14 -7t14.5 -7t13 -7q90 -47 146 -47q33 0 59.5 12.5t61.5 40.5l73 -84q-75 -113 -200 -113q-13 0 -26 1.5t-22.5 3t-22.5 6t-20 6.5t-20.5 8.5t-17.5 8.5t-18.5 9.5t-16.5 8.5q-90 47 -146 47 q-33 0 -59.5 -12.5t-61.5 -41.5zM385 1606l238 274h204l238 -274l-94 -76l-246 223l-246 -223z" />
<glyph unicode="&#x1ed7;" horiz-adv-x="1150" d="M92 530q0 252 132.5 403.5t350.5 151.5t351 -151.5t133 -403.5t-133 -403.5t-351 -151.5t-350.5 151.5t-132.5 403.5zM223 1720q75 113 201 113q10 0 20.5 -1t19 -2t19 -4t16.5 -4.5t17 -5.5t15 -5.5t15.5 -7.5t14 -7t14.5 -7t13 -7q90 -47 145 -47q33 0 59.5 12.5 t61.5 40.5l74 -84q-75 -113 -201 -113q-10 0 -20.5 1t-19 2t-19 4t-16.5 4.5t-17 5.5t-15 5.5t-15.5 7.5t-14 7t-14.5 7t-13 7q-92 48 -145 48q-33 0 -59.5 -12.5t-61.5 -41.5zM236 1260l237 274h205l237 -274l-94 -74l-246 223l-245 -223zM295 451q0 -151 76 -231.5 t204 -80.5t204.5 80.5t76.5 231.5v159q0 151 -76.5 231.5t-204.5 80.5t-204 -80.5t-76 -231.5v-159z" />
<glyph unicode="&#x1ed8;" horiz-adv-x="1449" d="M115 715q0 355 163.5 547t446.5 192t446.5 -192t163.5 -547t-163.5 -547.5t-446.5 -192.5t-446.5 192.5t-163.5 547.5zM328 598q0 -203 109 -323.5t288 -120.5t288 120.5t109 323.5v233q0 203 -109 324t-288 121t-288 -121t-109 -324v-233zM383 1624l235 299h213 l236 -299l-100 -74l-242 238l-242 -238zM608 -231q0 47 29.5 74.5t87.5 27.5t87.5 -27.5t29.5 -74.5v-27q0 -47 -29.5 -74.5t-87.5 -27.5t-87.5 27.5t-29.5 74.5v27z" />
<glyph unicode="&#x1ed9;" horiz-adv-x="1150" d="M92 530q0 252 132.5 403.5t350.5 151.5t351 -151.5t133 -403.5t-133 -403.5t-351 -151.5t-350.5 151.5t-132.5 403.5zM233 1280l236 299h213l236 -299l-101 -74l-242 238l-241 -238zM295 451q0 -151 76 -231.5t204 -80.5t204.5 80.5t76.5 231.5v159q0 151 -76.5 231.5 t-204.5 80.5t-204 -80.5t-76 -231.5v-159zM459 -231q0 48 29 75t87 27t87.5 -27.5t29.5 -74.5v-27q0 -47 -29.5 -74.5t-87.5 -27.5t-87 27t-29 75v27z" />
<glyph unicode="&#x1eda;" horiz-adv-x="1449" d="M115 715q0 355 163.5 547t446.5 192q101 0 186 -24h277v231h166v-207q0 -70 -31.5 -106.5t-112.5 -36.5h-84q209 -202 209 -596q0 -355 -163.5 -547.5t-446.5 -192.5t-446.5 192.5t-163.5 547.5zM328 598q0 -203 109 -323.5t288 -120.5t288 120.5t109 323.5v233 q0 203 -109 324t-288 121t-288 -121t-109 -324v-233zM623 1597l180 357l168 -82l-228 -332z" />
<glyph unicode="&#x1edb;" horiz-adv-x="1150" d="M92 530q0 252 132.5 403.5t350.5 151.5q87 0 160 -24h174v231h166v-205q0 -71 -30.5 -107t-108.5 -36h-21q144 -159 144 -414q0 -252 -133 -403.5t-351 -151.5t-350.5 151.5t-132.5 403.5zM295 451q0 -151 76 -231.5t204 -80.5t204.5 80.5t76.5 231.5v159 q0 151 -76.5 231.5t-204.5 80.5t-204 -80.5t-76 -231.5v-159zM471 1251l180 359l168 -82l-227 -332z" />
<glyph unicode="&#x1edc;" horiz-adv-x="1449" d="M115 715q0 355 163.5 547t446.5 192q101 0 186 -24h277v231h166v-207q0 -70 -31.5 -106.5t-112.5 -36.5h-84q209 -202 209 -596q0 -355 -163.5 -547.5t-446.5 -192.5t-446.5 192.5t-163.5 547.5zM328 598q0 -203 109 -323.5t288 -120.5t288 120.5t109 323.5v233 q0 203 -109 324t-288 121t-288 -121t-109 -324v-233zM479 1872l168 82l180 -357l-120 -57z" />
<glyph unicode="&#x1edd;" horiz-adv-x="1150" d="M92 530q0 252 132.5 403.5t350.5 151.5q87 0 160 -24h174v231h166v-205q0 -71 -30.5 -107t-108.5 -36h-21q144 -159 144 -414q0 -252 -133 -403.5t-351 -151.5t-350.5 151.5t-132.5 403.5zM295 451q0 -151 76 -231.5t204 -80.5t204.5 80.5t76.5 231.5v159 q0 151 -76.5 231.5t-204.5 80.5t-204 -80.5t-76 -231.5v-159zM328 1528l168 82l180 -359l-121 -55z" />
<glyph unicode="&#x1ede;" horiz-adv-x="1449" d="M115 715q0 355 163.5 547t446.5 192q101 0 186 -24h277v231h166v-207q0 -70 -31.5 -106.5t-112.5 -36.5h-84q209 -202 209 -596q0 -355 -163.5 -547.5t-446.5 -192.5t-446.5 192.5t-163.5 547.5zM328 598q0 -203 109 -323.5t288 -120.5t288 120.5t109 323.5v233 q0 203 -109 324t-288 121t-288 -121t-109 -324v-233zM539 1784v141h237q80 0 117 -32.5t37 -86.5q0 -92 -105 -219l-49 -63l-106 51l112 209h-243z" />
<glyph unicode="&#x1edf;" horiz-adv-x="1150" d="M92 530q0 252 132.5 403.5t350.5 151.5q87 0 160 -24h174v231h166v-205q0 -71 -30.5 -107t-108.5 -36h-21q144 -159 144 -414q0 -252 -133 -403.5t-351 -151.5t-350.5 151.5t-132.5 403.5zM295 451q0 -151 76 -231.5t204 -80.5t204.5 80.5t76.5 231.5v159 q0 151 -76.5 231.5t-204.5 80.5t-204 -80.5t-76 -231.5v-159zM389 1438v143h238q79 0 116 -33.5t37 -85.5q0 -95 -104 -221l-49 -63l-107 53l113 207h-244z" />
<glyph unicode="&#x1ee0;" horiz-adv-x="1449" d="M115 715q0 355 163.5 547t446.5 192q101 0 186 -24h277v231h166v-207q0 -70 -31.5 -106.5t-112.5 -36.5h-84q209 -202 209 -596q0 -355 -163.5 -547.5t-446.5 -192.5t-446.5 192.5t-163.5 547.5zM328 598q0 -203 109 -323.5t288 -120.5t288 120.5t109 323.5v233 q0 203 -109 324t-288 121t-288 -121t-109 -324v-233zM397 1722q76 115 191 115q10 0 19.5 -0.5t19 -3t16.5 -3.5t17 -5t15 -5.5t15.5 -7t13.5 -6.5t14.5 -7t12.5 -7q34 -17 47.5 -23t34.5 -12t39 -6q57 0 113 53l75 -90q-76 -115 -190 -115q-13 0 -24.5 1t-24 4.5t-20.5 6 t-21.5 8.5t-17.5 8l-19 9.5t-16 8.5q-77 41 -121 41q-56 0 -113 -54z" />
<glyph unicode="&#x1ee1;" horiz-adv-x="1150" d="M92 530q0 252 132.5 403.5t350.5 151.5q87 0 160 -24h174v231h166v-205q0 -71 -30.5 -107t-108.5 -36h-21q144 -159 144 -414q0 -252 -133 -403.5t-351 -151.5t-350.5 151.5t-132.5 403.5zM254 1378q76 115 190 115q9 0 18 -1t16 -1.5t16.5 -3.5t15 -4t15.5 -5t13 -5 t13.5 -6.5t12 -6t12.5 -6.5l12 -6q34 -17 47.5 -23t34.5 -12t39 -6q56 0 112 53l76 -90q-76 -115 -190 -115q-9 0 -18 1t-16 1.5t-16.5 3.5t-15 4t-15.5 5t-13 5t-13.5 6.5t-12 6t-13.5 6.5l-11 6q-77 41 -121 41q-56 0 -112 -53zM295 451q0 -151 76 -231.5t204 -80.5 t204.5 80.5t76.5 231.5v159q0 151 -76.5 231.5t-204.5 80.5t-204 -80.5t-76 -231.5v-159z" />
<glyph unicode="&#x1ee2;" horiz-adv-x="1449" d="M115 715q0 355 163.5 547t446.5 192q101 0 186 -24h277v231h166v-207q0 -70 -31.5 -106.5t-112.5 -36.5h-84q209 -202 209 -596q0 -355 -163.5 -547.5t-446.5 -192.5t-446.5 192.5t-163.5 547.5zM328 598q0 -203 109 -323.5t288 -120.5t288 120.5t109 323.5v233 q0 203 -109 324t-288 121t-288 -121t-109 -324v-233zM608 -231q0 47 29.5 74.5t87.5 27.5t87.5 -27.5t29.5 -74.5v-27q0 -47 -29.5 -74.5t-87.5 -27.5t-87.5 27.5t-29.5 74.5v27z" />
<glyph unicode="&#x1ee3;" horiz-adv-x="1150" d="M92 530q0 252 132.5 403.5t350.5 151.5q87 0 160 -24h174v231h166v-205q0 -71 -30.5 -107t-108.5 -36h-21q144 -159 144 -414q0 -252 -133 -403.5t-351 -151.5t-350.5 151.5t-132.5 403.5zM295 451q0 -151 76 -231.5t204 -80.5t204.5 80.5t76.5 231.5v159 q0 151 -76.5 231.5t-204.5 80.5t-204 -80.5t-76 -231.5v-159zM457 -231q0 48 29 75t87 27t87.5 -27.5t29.5 -74.5v-27q0 -47 -29.5 -74.5t-87.5 -27.5t-87 27t-29 75v27z" />
<glyph unicode="&#x1ee4;" horiz-adv-x="1396" d="M174 586v844h199v-883q0 -201 74.5 -297t250.5 -96q177 0 251.5 96t74.5 297v883h199v-844q0 -319 -122.5 -465t-408.5 -146q-145 0 -244 36t-160 113.5t-87.5 189t-26.5 272.5zM578 -231q0 48 29 75t87 27t87.5 -27.5t29.5 -74.5v-27q0 -47 -29.5 -74.5t-87.5 -27.5 t-87 27t-29 75v27z" />
<glyph unicode="&#x1ee5;" horiz-adv-x="1175" d="M158 383v678h190v-649q0 -271 225 -271q99 0 171.5 50.5t72.5 144.5v725h191v-1061h-191v174h-10q-76 -199 -297 -199q-164 0 -258 108t-94 300zM459 -231q0 48 29 75t87 27t87.5 -27.5t29.5 -74.5v-27q0 -47 -29.5 -74.5t-87.5 -27.5t-87 27t-29 75v27z" />
<glyph unicode="&#x1ee6;" horiz-adv-x="1396" d="M174 586v844h199v-883q0 -201 74.5 -297t250.5 -96q177 0 251.5 96t74.5 297v883h199v-844q0 -319 -122.5 -465t-408.5 -146q-145 0 -244 36t-160 113.5t-87.5 189t-26.5 272.5zM508 1784v141h237q80 0 117 -32.5t37 -86.5q0 -93 -104 -219l-50 -63l-106 51l113 209h-244 z" />
<glyph unicode="&#x1ee7;" horiz-adv-x="1175" d="M158 383v678h190v-649q0 -271 225 -271q99 0 171.5 50.5t72.5 144.5v725h191v-1061h-191v174h-10q-76 -199 -297 -199q-164 0 -258 108t-94 300zM399 1438v143h238q79 0 116.5 -33.5t37.5 -85.5q0 -94 -105 -221l-49 -63l-107 53l113 207h-244z" />
<glyph unicode="&#x1ee8;" horiz-adv-x="1396" d="M174 586v844h199v-883q0 -201 74.5 -297t250.5 -96q177 0 251.5 96t74.5 297v883h182v231h166v-211q0 -69 -32 -106t-113 -37h-4v-721q0 -319 -122.5 -465t-408.5 -146q-145 0 -244 36t-160 113.5t-87.5 189t-26.5 272.5zM592 1597l180 357l168 -82l-227 -332z" />
<glyph unicode="&#x1ee9;" horiz-adv-x="1173" d="M156 383v678h190v-649q0 -271 225 -271q99 0 171.5 50.5t72.5 144.5v725h189v231h165v-211q0 -69 -31 -106t-112 -37h-20v-938h-191v174h-10q-76 -199 -297 -199q-164 0 -258 108t-94 300zM477 1251l180 359l168 -82l-227 -332z" />
<glyph unicode="&#x1eea;" horiz-adv-x="1396" d="M174 586v844h199v-883q0 -201 74.5 -297t250.5 -96q177 0 251.5 96t74.5 297v883h182v231h166v-211q0 -69 -32 -106t-113 -37h-4v-721q0 -319 -122.5 -465t-408.5 -146q-145 0 -244 36t-160 113.5t-87.5 189t-26.5 272.5zM449 1872l167 82l181 -357l-121 -57z" />
<glyph unicode="&#x1eeb;" horiz-adv-x="1173" d="M156 383v678h190v-649q0 -271 225 -271q99 0 171.5 50.5t72.5 144.5v725h189v231h165v-211q0 -69 -31 -106t-112 -37h-20v-938h-191v174h-10q-76 -199 -297 -199q-164 0 -258 108t-94 300zM334 1528l168 82l180 -359l-121 -55z" />
<glyph unicode="&#x1eec;" horiz-adv-x="1396" d="M174 586v844h199v-883q0 -201 74.5 -297t250.5 -96q177 0 251.5 96t74.5 297v883h182v231h166v-211q0 -69 -32 -106t-113 -37h-4v-721q0 -319 -122.5 -465t-408.5 -146q-145 0 -244 36t-160 113.5t-87.5 189t-26.5 272.5zM508 1784v141h237q80 0 117 -32.5t37 -86.5 q0 -93 -104 -219l-50 -63l-106 51l113 209h-244z" />
<glyph unicode="&#x1eed;" horiz-adv-x="1173" d="M156 383v678h190v-649q0 -271 225 -271q99 0 171.5 50.5t72.5 144.5v725h189v231h165v-211q0 -69 -31 -106t-112 -37h-20v-938h-191v174h-10q-76 -199 -297 -199q-164 0 -258 108t-94 300zM395 1438v143h238q79 0 116 -33.5t37 -85.5q0 -95 -104 -221l-49 -63l-107 53 l113 207h-244z" />
<glyph unicode="&#x1eee;" horiz-adv-x="1396" d="M174 586v844h199v-883q0 -201 74.5 -297t250.5 -96q177 0 251.5 96t74.5 297v883h182v231h166v-211q0 -69 -32 -106t-113 -37h-4v-721q0 -319 -122.5 -465t-408.5 -146q-145 0 -244 36t-160 113.5t-87.5 189t-26.5 272.5zM369 1722q76 115 190 115q10 0 19.5 -0.5t19 -3 t16.5 -3.5t17 -5t15 -5.5t15.5 -7t13.5 -6.5t14.5 -7t12.5 -7q34 -17 47.5 -23t34.5 -12t39 -6q57 0 113 53l76 -90q-76 -115 -191 -115q-13 0 -24.5 1t-24 4.5t-20.5 6t-21.5 8.5t-17.5 8l-19 9.5t-16 8.5q-77 41 -121 41q-56 0 -113 -54z" />
<glyph unicode="&#x1eef;" horiz-adv-x="1173" d="M156 383v678h190v-649q0 -271 225 -271q99 0 171.5 50.5t72.5 144.5v725h189v231h165v-211q0 -69 -31 -106t-112 -37h-20v-938h-191v174h-10q-76 -199 -297 -199q-164 0 -258 108t-94 300zM270 1378q76 115 191 115q10 0 19.5 -0.5t19 -3t16.5 -3.5t17 -5t15 -5.5 t15.5 -7t13.5 -6.5t14.5 -7t12.5 -7q34 -17 47.5 -23t34.5 -12t39 -6q57 0 113 53l75 -90q-76 -115 -190 -115q-10 0 -19.5 0.5t-19 3t-16.5 3.5t-17 5t-15 5.5t-15.5 7t-13.5 6.5t-14.5 7t-12.5 7q-77 41 -121 41q-57 0 -113 -53z" />
<glyph unicode="&#x1ef0;" horiz-adv-x="1396" d="M174 586v844h199v-883q0 -201 74.5 -297t250.5 -96q177 0 251.5 96t74.5 297v883h182v231h166v-211q0 -69 -32 -106t-113 -37h-4v-721q0 -319 -122.5 -465t-408.5 -146q-145 0 -244 36t-160 113.5t-87.5 189t-26.5 272.5zM578 -231q0 48 29 75t87 27t87.5 -27.5 t29.5 -74.5v-27q0 -47 -29.5 -74.5t-87.5 -27.5t-87 27t-29 75v27z" />
<glyph unicode="&#x1ef1;" horiz-adv-x="1173" d="M156 383v678h190v-649q0 -271 225 -271q99 0 171.5 50.5t72.5 144.5v725h189v231h165v-211q0 -69 -31 -106t-112 -37h-20v-938h-191v174h-10q-76 -199 -297 -199q-164 0 -258 108t-94 300zM457 -231q0 48 29 75t87 27t87.5 -27.5t29.5 -74.5v-27q0 -47 -29.5 -74.5 t-87.5 -27.5t-87 27t-29 75v27z" />
<glyph unicode="&#x1ef2;" horiz-adv-x="1234" d="M25 1430h227l366 -666h7l364 666h221l-495 -861v-569h-199v563zM373 1872l168 82l180 -357l-121 -57z" />
<glyph unicode="&#x1ef3;" horiz-adv-x="1036" d="M31 1061h190l236 -678l55 -199h10l62 199l237 678h185l-461 -1292q-38 -103 -91 -141t-171 -38h-105v162h174l72 205zM274 1528l168 82l181 -359l-121 -55z" />
<glyph unicode="&#x1ef4;" horiz-adv-x="1234" d="M25 1430h227l366 -666h7l364 666h221l-495 -861v-569h-199v563zM502 -231q0 48 29 75t87 27t87.5 -27.5t29.5 -74.5v-27q0 -47 -29.5 -74.5t-87.5 -27.5t-87 27t-29 75v27z" />
<glyph unicode="&#x1ef5;" horiz-adv-x="1036" d="M31 1061h190l236 -678l55 -199h10l62 199l237 678h185l-461 -1292q-38 -103 -91 -141t-171 -38h-105v162h174l72 205zM702 -231q0 47 29.5 74.5t87.5 27.5t87.5 -27.5t29.5 -74.5v-27q0 -47 -29.5 -74.5t-87.5 -27.5t-87.5 27.5t-29.5 74.5v27z" />
<glyph unicode="&#x1ef6;" horiz-adv-x="1234" d="M25 1430h227l366 -666h7l364 666h221l-495 -861v-569h-199v563zM432 1784v141h238q80 0 116.5 -32.5t36.5 -86.5q0 -93 -104 -219l-49 -63l-107 51l113 209h-244z" />
<glyph unicode="&#x1ef7;" horiz-adv-x="1036" d="M31 1061h190l236 -678l55 -199h10l62 199l237 678h185l-461 -1292q-38 -103 -91 -141t-171 -38h-105v162h174l72 205zM336 1438v143h237q79 0 116.5 -33.5t37.5 -85.5q0 -95 -104 -221l-50 -63l-106 53l113 207h-244z" />
<glyph unicode="&#x1ef8;" horiz-adv-x="1234" d="M25 1430h227l366 -666h7l364 666h221l-495 -861v-569h-199v563zM266 1731q74 112 201 112q10 0 20.5 -1t19 -2t19 -4t16.5 -4.5t17 -5.5t15 -5.5t15.5 -7.5t14 -7t14.5 -7t13 -7q90 -47 145 -47q33 0 59.5 12.5t61.5 40.5l74 -92q-75 -113 -201 -113q-13 0 -26 1.5 t-22.5 3t-22.5 6t-20 6.5t-20.5 8.5t-17.5 8.5t-18.5 9.5t-16.5 8.5q-90 47 -145 47q-33 0 -59.5 -12.5t-61.5 -41.5z" />
<glyph unicode="&#x1ef9;" horiz-adv-x="1036" d="M31 1061h190l236 -678l55 -199h10l62 199l237 678h185l-461 -1292q-38 -103 -91 -141t-171 -38h-105v162h174l72 205zM168 1386q75 113 201 113q11 0 22 -1t22 -3t19 -4t19.5 -6t17 -6t17.5 -7.5t15 -7.5t16 -8.5l15 -7.5q90 -47 146 -47q33 0 59.5 12.5t61.5 40.5 l73 -92q-75 -113 -200 -113q-10 0 -20.5 1t-19 2t-19 4t-16.5 4.5t-17 5.5t-15 5.5t-15.5 7.5t-14 7t-14.5 7t-13 7q-92 48 -146 48q-33 0 -58.5 -12.5t-61.5 -41.5z" />
<glyph unicode="&#x2000;" horiz-adv-x="1152" />
<glyph unicode="&#x2001;" horiz-adv-x="2304" />
<glyph unicode="&#x2002;" horiz-adv-x="1152" />
<glyph unicode="&#x2003;" horiz-adv-x="2304" />
<glyph unicode="&#x2004;" horiz-adv-x="768" />
<glyph unicode="&#x2005;" horiz-adv-x="576" />
<glyph unicode="&#x2006;" horiz-adv-x="384" />
<glyph unicode="&#x2007;" horiz-adv-x="384" />
<glyph unicode="&#x2008;" horiz-adv-x="288" />
<glyph unicode="&#x2009;" horiz-adv-x="460" />
<glyph unicode="&#x200a;" horiz-adv-x="128" />
<glyph unicode="&#x2010;" horiz-adv-x="819" d="M135 524v199h549v-199h-549z" />
<glyph unicode="&#x2011;" horiz-adv-x="819" d="M135 524v199h549v-199h-549z" />
<glyph unicode="&#x2012;" horiz-adv-x="819" d="M135 524v199h549v-199h-549z" />
<glyph unicode="&#x2013;" horiz-adv-x="1204" d="M74 537v172h1056v-172h-1056z" />
<glyph unicode="&#x2014;" horiz-adv-x="1597" d="M74 537v172h1450v-172h-1450z" />
<glyph unicode="&#x2018;" horiz-adv-x="567" d="M141 1112v31q0 93 52 197.5t141 177.5h149q-66 -68 -104.5 -127.5t-56.5 -128.5q90 -18 90 -119v-31q0 -60 -34 -94.5t-102 -34.5t-101.5 34.5t-33.5 94.5z" />
<glyph unicode="&#x2019;" horiz-adv-x="567" d="M84 1001q67 68 105.5 127.5t56.5 128.5q-90 18 -90 119v31q0 60 33.5 94.5t101.5 34.5t101.5 -34.5t33.5 -94.5v-31q0 -93 -52 -197.5t-141 -177.5h-149z" />
<glyph unicode="&#x201a;" horiz-adv-x="573" d="M72 -242q66 68 104.5 127.5t56.5 128.5q-90 18 -90 119v31q0 60 34 94.5t102 34.5t101.5 -34.5t33.5 -94.5v-31q0 -93 -52 -197.5t-141 -177.5h-149z" />
<glyph unicode="&#x201c;" horiz-adv-x="991" d="M141 1112v31q0 93 52 197.5t141 177.5h149q-66 -68 -104.5 -127.5t-56.5 -128.5q90 -18 90 -119v-31q0 -60 -34 -94.5t-102 -34.5t-101.5 34.5t-33.5 94.5zM565 1112v31q0 93 52 197.5t141 177.5h149q-67 -68 -105.5 -127.5t-56.5 -128.5q45 -9 68 -40.5t23 -78.5v-31 q0 -60 -34 -94.5t-102 -34.5t-101.5 34.5t-33.5 94.5z" />
<glyph unicode="&#x201d;" horiz-adv-x="991" d="M84 1001q67 68 105.5 127.5t56.5 128.5q-90 18 -90 119v31q0 60 33.5 94.5t101.5 34.5t101.5 -34.5t33.5 -94.5v-31q0 -93 -52 -197.5t-141 -177.5h-149zM508 1001q67 68 105.5 127.5t56.5 128.5q-90 18 -90 119v31q0 60 33.5 94.5t101.5 34.5t101.5 -34.5t33.5 -94.5 v-31q0 -93 -52 -197.5t-141 -177.5h-149z" />
<glyph unicode="&#x201e;" horiz-adv-x="995" d="M72 -242q66 68 104.5 127.5t56.5 128.5q-90 18 -90 119v31q0 60 34 94.5t102 34.5t101.5 -34.5t33.5 -94.5v-31q0 -93 -52 -197.5t-141 -177.5h-149zM494 -242q66 68 104.5 127.5t56.5 128.5q-90 18 -90 119v31q0 60 33.5 94.5t101.5 34.5t102 -34.5t34 -94.5v-31 q0 -93 -52 -197.5t-141 -177.5h-149z" />
<glyph unicode="&#x2020;" horiz-adv-x="1118" d="M92 913v148h385v455h164v-455h385v-148h-385v-1323h-164v1323h-385z" />
<glyph unicode="&#x2021;" horiz-adv-x="1126" d="M96 45v148h383v720h-383v148h383v455h166v-455h385v-148h-385v-720h385v-148h-385v-455h-166v455h-383z" />
<glyph unicode="&#x2022;" horiz-adv-x="823" d="M150 586v59q0 102 63.5 162.5t198.5 60.5t198.5 -60.5t63.5 -162.5v-59q0 -102 -63.5 -163t-198.5 -61t-198.5 61t-63.5 163z" />
<glyph unicode="&#x2026;" horiz-adv-x="1675" d="M150 102v31q0 58 33.5 92.5t101.5 34.5t101.5 -34.5t33.5 -92.5v-31q0 -58 -33.5 -92.5t-101.5 -34.5t-101.5 34.5t-33.5 92.5zM702 102v31q0 58 34 92.5t102 34.5t101.5 -34.5t33.5 -92.5v-31q0 -58 -33.5 -92.5t-101.5 -34.5t-102 34.5t-34 92.5zM1255 102v31 q0 58 34 92.5t102 34.5t101.5 -34.5t33.5 -92.5v-31q0 -58 -33.5 -92.5t-101.5 -34.5t-102 34.5t-34 92.5z" />
<glyph unicode="&#x202f;" horiz-adv-x="460" />
<glyph unicode="&#x2030;" horiz-adv-x="2711" d="M127 1049q0 196 87 300.5t247 104.5t247 -104.5t87 -300.5t-87 -301t-247 -105t-247 105t-87 301zM297 989q0 -225 164 -225t164 225v119q0 225 -164 225t-164 -225v-119zM375 0l991 1430h180l-991 -1430h-180zM1126 381q0 196 87 300.5t247 104.5t247 -104.5t87 -300.5 t-87 -301t-247 -105t-247 105t-87 301zM1296 322q0 -226 164 -226t164 226v118q0 226 -164 226t-164 -226v-118zM1917 381q0 196 87 300.5t247 104.5t247 -104.5t87 -300.5t-87 -301t-247 -105t-247 105t-87 301zM2087 322q0 -226 164 -226t164 226v118q0 226 -164 226 t-164 -226v-118z" />
<glyph unicode="&#x2039;" horiz-adv-x="628" d="M74 492v172l391 337l57 -124l-274 -299l274 -299l-57 -125z" />
<glyph unicode="&#x203a;" horiz-adv-x="628" d="M106 279l275 299l-275 299l58 124l391 -337v-172l-391 -338z" />
<glyph unicode="&#x2044;" horiz-adv-x="311" d="M-432 0l1012 1430h163l-1011 -1430h-164z" />
<glyph unicode="&#x205f;" horiz-adv-x="576" />
<glyph unicode="&#x2070;" horiz-adv-x="770" d="M82 1053q0 189 75 289t228 100t228 -100t75 -289t-75 -289t-228 -100t-228 100t-75 289zM238 985q0 -101 33.5 -153t113.5 -52t113.5 52t33.5 153v135q0 101 -33.5 153t-113.5 52t-113.5 -52t-33.5 -153v-135z" />
<glyph unicode="&#x2074;" horiz-adv-x="708" d="M39 821v119l330 490h186v-500h111v-109h-111v-147h-137v147h-379zM162 930h256v362h-10z" />
<glyph unicode="&#x2075;" horiz-adv-x="716" d="M70 801l102 78q33 -51 72.5 -77t103.5 -26q71 0 108.5 34t37.5 95v13q0 61 -37.5 95t-108.5 34q-79 0 -133 -58l-119 17l29 424h477v-117h-366l-23 -260h8q32 54 70 81t104 27q108 0 179 -64.5t71 -172.5q0 -118 -79.5 -190t-219.5 -72q-184 0 -276 139z" />
<glyph unicode="&#x2076;" horiz-adv-x="735" d="M76 958q0 77 26 151.5t70 134t93.5 106t103.5 80.5h196q-157 -105 -235.5 -189t-104.5 -194l8 -3q64 111 189 111q106 0 175 -64t69 -169q0 -116 -81 -188t-214 -72q-139 0 -217 79.5t-78 216.5zM225 901q0 -64 39 -97.5t107 -33.5t106.5 33.5t38.5 97.5v14 q0 65 -38.5 98.5t-106.5 33.5t-107 -34t-39 -98v-14z" />
<glyph unicode="&#x2077;" horiz-adv-x="679" d="M57 1176v254h564v-121l-285 -635h-154l295 641h-297v-139h-123z" />
<glyph unicode="&#x2078;" horiz-adv-x="763" d="M82 881q0 71 44.5 117.5t119.5 66.5v8q-64 21 -100.5 65t-36.5 107q0 89 72 143t200 54t200 -54t72 -143q0 -63 -36.5 -107t-100.5 -65v-8q76 -19 120 -66t44 -118q0 -97 -79 -158t-220 -61t-220 61t-79 158zM236 879q0 -51 37.5 -80t107.5 -29t107.5 29t37.5 80v24 q0 51 -37.5 80t-107.5 29t-107.5 -29t-37.5 -80v-24zM248 1214q0 -48 34 -74t99 -26t99 26t34 74v19q0 48 -34 74t-99 26t-99 -26t-34 -74v-19z" />
<glyph unicode="&#x2079;" horiz-adv-x="735" d="M70 1182q0 116 80.5 188t214.5 72q137 0 215.5 -80t78.5 -217q0 -148 -86.5 -272t-205.5 -199h-197q157 105 235.5 189t104.5 194l-10 2q-59 -113 -187 -113q-106 0 -174.5 65t-68.5 171zM219 1186q0 -64 39 -97.5t107 -33.5t106.5 33.5t38.5 97.5v16q0 64 -38.5 97.5 t-106.5 33.5t-107 -33.5t-39 -97.5v-16z" />
<glyph unicode="&#x2080;" horiz-adv-x="770" d="M82 377q0 189 75 289t228 100t228 -100t75 -289t-75 -289t-228 -100t-228 100t-75 289zM238 309q0 -101 33.5 -153t113.5 -52t113.5 52t33.5 153v135q0 101 -33.5 153t-113.5 52t-113.5 -52t-33.5 -153v-135z" />
<glyph unicode="&#x2081;" horiz-adv-x="729" d="M63 627l252 129h154v-641h197v-115h-557v115h217v516l-207 -107z" />
<glyph unicode="&#x2082;" horiz-adv-x="708" d="M66 580q27 83 97.5 135.5t186.5 52.5q126 0 197 -62t71 -163q0 -84 -51 -151.5t-151 -139.5l-183 -137h408v-115h-563v129l262 209q64 53 94.5 98t30.5 94v13q0 49 -33.5 76.5t-91.5 27.5q-110 0 -152 -112z" />
<glyph unicode="&#x2083;" horiz-adv-x="710" d="M41 127l109 78q31 -49 72.5 -76t105.5 -27q70 0 108.5 30.5t38.5 86.5v10q0 103 -151 103h-86v117h77q72 0 109 26.5t37 71.5v8q0 46 -33.5 72t-91.5 26q-108 0 -170 -90l-94 80q91 125 268 125q122 0 198 -53t76 -144q0 -70 -45 -114.5t-114 -57.5v-8 q75 -13 123.5 -59.5t48.5 -122.5q0 -100 -82 -160.5t-217 -60.5q-107 0 -174 37.5t-113 101.5z" />
<glyph unicode="&#x2084;" horiz-adv-x="708" d="M39 147v119l330 490h186v-500h111v-109h-111v-147h-137v147h-379zM162 256h256v362h-10z" />
<glyph unicode="&#x2085;" horiz-adv-x="716" d="M70 127l102 78q33 -51 72.5 -77t103.5 -26q71 0 108.5 34t37.5 95v13q0 61 -37.5 95t-108.5 34q-79 0 -133 -58l-119 17l29 424h477v-117h-366l-23 -260h8q32 54 70 81t104 27q108 0 179 -64.5t71 -172.5q0 -118 -79.5 -190t-219.5 -72q-184 0 -276 139z" />
<glyph unicode="&#x2086;" horiz-adv-x="735" d="M76 285q0 77 26 151t70 133.5t93.5 106t103.5 80.5h196q-157 -105 -235.5 -189t-104.5 -194l8 -2q64 110 189 110q106 0 175 -64t69 -169q0 -116 -81 -188t-214 -72q-139 0 -217 80t-78 217zM225 227q0 -64 39 -97.5t107 -33.5t106.5 33.5t38.5 97.5v15q0 64 -38.5 97.5 t-106.5 33.5t-107 -33.5t-39 -97.5v-15z" />
<glyph unicode="&#x2087;" horiz-adv-x="679" d="M57 504v252h564v-121l-285 -635h-154l295 641h-297v-137h-123z" />
<glyph unicode="&#x2088;" horiz-adv-x="763" d="M82 207q0 71 44.5 117.5t119.5 66.5v8q-64 21 -100.5 65t-36.5 107q0 89 72 143t200 54t200 -54t72 -143q0 -63 -36.5 -107t-100.5 -65v-8q76 -19 120 -66t44 -118q0 -97 -79 -158t-220 -61t-220 61t-79 158zM236 205q0 -51 37.5 -80t107.5 -29t107.5 29t37.5 80v24 q0 51 -37.5 80t-107.5 29t-107.5 -29t-37.5 -80v-24zM248 541q0 -48 34 -74.5t99 -26.5t99 26.5t34 74.5v18q0 48 -34 74t-99 26t-99 -26t-34 -74v-18z" />
<glyph unicode="&#x2089;" horiz-adv-x="735" d="M70 508q0 116 80.5 188t214.5 72q137 0 215.5 -80t78.5 -217q0 -148 -86.5 -272t-205.5 -199h-197q157 105 235.5 189t104.5 194l-10 2q-59 -113 -187 -113q-106 0 -174.5 65t-68.5 171zM219 512q0 -64 39 -97.5t107 -33.5t106.5 33.5t38.5 97.5v16q0 64 -38.5 97.5 t-106.5 33.5t-107 -33.5t-39 -97.5v-16z" />
<glyph unicode="&#x20a1;" horiz-adv-x="1282" d="M115 713q0 300 114.5 479.5t323.5 224.5l18 180h142l-19 -167h11q41 0 92 -7l18 174h141l-22 -211q159 -61 256 -253l-152 -99q-51 119 -127 168l-106 -1022q165 44 242 232l151 -105q-131 -265 -407 -301l-19 -174h-141l18 170q-59 3 -100 14l-21 -184h-139l25 229 q-143 75 -221 241t-78 411zM324 600q0 -227 116 -334l97 963q-101 -43 -157 -147.5t-56 -250.5v-231zM563 195q52 -22 107 -25l112 1081q-37 9 -94 9h-14z" />
<glyph unicode="&#x20a4;" horiz-adv-x="1212" d="M113 483v146h182q-6 27 -15 55.5t-22 64.5t-18 52h-127v145h90q-6 34 -6 78q0 193 129 311.5t350 118.5q296 0 446 -235l-147 -107q-111 168 -301 168q-128 0 -200.5 -71.5t-72.5 -207.5q0 -15 5 -55h475v-145h-443q5 -15 18 -52t22 -65.5t14 -54.5h389v-146h-375 q-7 -99 -51 -178.5t-103 -118.5v-12h733v-174h-923v219q142 61 149 264h-198z" />
<glyph unicode="&#x20a6;" horiz-adv-x="1456" d="M31 477v146h168v186h-168v145h168v476h225l274 -480h373v480h186v-476h168v-145h-168v-186h168v-146h-168v-477h-231l-276 481h-363v-481h-188v477h-168zM387 618h295l-289 523h-6v-523zM766 813l299 -543h6v543h-305z" />
<glyph unicode="&#x20a8;" horiz-adv-x="1529" d="M184 0v1430h379q184 0 281.5 -102t97.5 -288q0 -279 -207 -358l187 -387q41 -86 88 -125t120 -39q71 0 110.5 32.5t39.5 92.5q0 42 -18.5 71.5t-85.5 96.5l-39 37q-86 84 -120 148.5t-34 138.5q0 112 73 181.5t197 69.5q132 0 215 -59l-71 -133q-57 45 -129 45 q-50 0 -78.5 -26.5t-28.5 -73.5q0 -44 22.5 -78.5t86.5 -98.5l33 -30q95 -95 127 -150t32 -137q0 -131 -87 -207t-263 -76q-129 0 -215.5 53t-142.5 175l-199 438h-178v-641h-193zM377 805h166q96 0 149 47t53 135v92q0 89 -53 136t-149 47h-166v-457z" />
<glyph unicode="&#x20a9;" horiz-adv-x="1976" d="M76 479v146h227l-43 184h-184v145h149l-112 476h196l105 -480h340l123 480h223l121 -478h346l108 478h195l-119 -474h150v-145h-187l-47 -186h234v-146h-269l-123 -479h-219l-123 481h-372l-125 -481h-219l-115 479h-260zM444 813l15 -74l110 -508h6l123 508l19 74h-273z M829 618h304l-25 97l-123 506h-4l-125 -506zM1253 815l19 -74l125 -508h6l115 506l16 76h-281z" />
<glyph unicode="&#x20aa;" horiz-adv-x="1636" d="M184 0v1430h531q172 0 274.5 -104t102.5 -302v-688h-187v715q0 114 -54 164.5t-144 50.5h-336v-1266h-187zM545 0v1092h186v-928h334q89 0 145 51t56 164v1051h186v-1024q0 -198 -104.5 -302t-276.5 -104h-526z" />
<glyph unicode="&#x20ab;" horiz-adv-x="1183" d="M131 705q0 208 94.5 319t259.5 111q198 0 287 -162h8v284h-295v138h295v121h185v-121h135v-138h-135v-964h-185v143h-8q-89 -162 -287 -162q-164 0 -259 111.5t-95 319.5zM137 0v145h885v-145h-885zM322 641q0 -100 63.5 -160.5t169.5 -60.5q100 0 162.5 48t62.5 126v221 q0 78 -62.5 126t-162.5 48q-106 0 -169.5 -60.5t-63.5 -160.5v-127z" />
<glyph unicode="&#x20ac;" horiz-adv-x="1280" d="M115 715q0 353 154.5 546t428.5 193q337 0 486 -301l-152 -96q-44 106 -129 166.5t-205 60.5q-150 0 -245.5 -89t-120.5 -241h514v-145h-524v-188h524v-146h-514q28 -154 122.5 -242t243.5 -88q122 0 210.5 65t135.5 179l152 -102q-156 -312 -498 -312 q-274 0 -428.5 193.5t-154.5 546.5z" />
<glyph unicode="&#x20ad;" horiz-adv-x="1288" d="M18 655v162h175v613h196v-613h148l444 613h221l-461 -613h426v-162h-409l481 -655h-235l-463 655h-152v-655h-196v655h-175z" />
<glyph unicode="&#x20ae;" horiz-adv-x="1241" d="M80 1255v175h1081v-175h-440v-337l270 129v-150l-270 -129v-178l270 131v-150l-270 -131v-440h-199v344l-266 -127v150l266 127v178l-266 -129v149l266 129v434h-442z" />
<glyph unicode="&#x20b1;" horiz-adv-x="1310" d="M55 672v141h166v186h-166v142h166v289h494q290 0 370 -289h191v-142h-166q4 -62 4 -92q0 -32 -4 -94h166v-141h-191q-81 -291 -370 -291h-297v-381h-197v672h-166zM418 539h289q75 0 127 37t71 102h-487v-139zM418 807h500v199h-500v-199zM418 1135h485q-22 63 -73 99 t-123 36h-289v-135z" />
<glyph unicode="&#x20b2;" horiz-adv-x="1380" d="M115 715q0 348 156 531.5t421 183.5h27l29 167h163l-32 -192q226 -65 333 -289l-159 -88q-60 153 -211 207l-86 -490h485v-217q0 -119 -35 -213t-90 -151.5t-129 -95.5t-146.5 -53t-148.5 -15q-39 0 -57 2l-31 -170h-164l37 203q-172 65 -267 237t-95 443zM324 600 q0 -298 188 -391l184 1051h-4q-178 0 -273 -112.5t-95 -318.5v-229zM657 170h35q161 0 260 87t99 237v81h-324z" />
<glyph unicode="&#x20b4;" horiz-adv-x="1292" d="M90 502v145h250l326 187h-576v145h762q18 41 18 96q0 104 -62 156.5t-175 52.5q-167 0 -279 -129l-116 125q152 174 409 174q185 0 299.5 -99t114.5 -261q0 -63 -19 -115h160v-145h-256l-323 -187h579v-145h-766q-26 -57 -26 -121q0 -115 68 -176.5t188 -61.5 q84 0 160 37t153 121l115 -127q-78 -95 -192 -147t-247 -52q-199 0 -317.5 110.5t-118.5 283.5q0 62 23 133h-152z" />
<glyph unicode="&#x20b5;" horiz-adv-x="1275" d="M115 715q0 346 154.5 530.5t426.5 184.5h23l31 167h161l-32 -192q207 -63 305 -270l-152 -97q-61 141 -190 195l-185 -1061q12 -2 39 -2q124 0 212 64t132 176l152 -101q-151 -309 -496 -309q-41 0 -61 2l-31 -170h-162l35 205q-173 64 -267.5 236.5t-94.5 441.5z M324 600q0 -136 49.5 -236t140.5 -151l182 1047q-172 0 -272 -117.5t-100 -313.5v-229z" />
<glyph unicode="&#x20b8;" horiz-adv-x="1243" d="M80 934v158h1083v-158h-442v-934h-199v934h-442zM80 1272v158h1083v-158h-1083z" />
<glyph unicode="&#x20b9;" horiz-adv-x="1249" d="M113 580v157h430q105 0 167.5 49t63.5 142h-661v157h661q-3 91 -65 139t-166 48h-430v158h1065v-158h-355v-8q18 -2 36.5 -10t41 -26.5t40 -55.5t24.5 -87h213v-157h-213q-19 -154 -117 -244.5t-262 -97.5l444 -586h-242l-428 580h-247z" />
<glyph unicode="&#x20ba;" horiz-adv-x="1243" d="M29 399v150l194 94v178l-194 -94v150l194 94v459h199v-365l418 201v-150l-418 -201v-178l418 201v-150l-418 -200v-418h199q164 0 255 119t91 336h192q0 -132 -33 -244.5t-97 -198t-164.5 -134t-227.5 -48.5h-414v494z" />
<glyph unicode="&#x20bd;" horiz-adv-x="1290" d="M55 258v158h168v190h-168v158h168v666h582q192 0 298.5 -110t106.5 -302t-106.5 -302t-298.5 -110h-383v-190h539v-158h-539v-258h-199v258h-168zM422 764h377q96 0 149 48.5t53 139.5v117q0 91 -53 139.5t-149 48.5h-377v-493z" />
<glyph unicode="&#x20bf;" horiz-adv-x="1327" d="M184 43v1343h222v211h159v-211h125v211h160v-213q145 -19 226 -110t81 -234q0 -129 -66 -198t-178 -88v-13q295 -42 295 -311q0 -163 -102.5 -274.5t-255.5 -112.5v-211h-160v211h-125v-211h-159v211h-222zM379 215h407q103 0 161.5 46.5t58.5 135.5v70q0 89 -58.5 135.5 t-161.5 46.5h-407v-434zM379 813h393q182 0 182 170v61q0 170 -182 170h-393v-401z" />
<glyph unicode="&#x2113;" horiz-adv-x="1024" d="M63 401q102 62 181 123v621q0 395 303 395q149 0 226 -90.5t77 -261.5q0 -131 -49.5 -254t-140.5 -236t-234 -239v-90q0 -228 160 -228q81 0 136 53.5t105 161.5l142 -82q-57 -137 -155 -218t-239 -81q-152 0 -238.5 96t-86.5 255v18q-47 -36 -107 -72zM426 659 q248 257 248 508v33q0 178 -119 178q-129 0 -129 -221v-498z" />
<glyph unicode="&#x2116;" horiz-adv-x="2117" d="M184 0v1430h219l437 -797l184 -352h6v1149h187v-1430h-224l-454 819l-162 316h-6v-1135h-187zM1368 1100q0 166 92.5 260t239.5 94t239.5 -94t92.5 -260t-92.5 -260.5t-239.5 -94.5t-239.5 94.5t-92.5 260.5zM1409 487v142h582v-142h-582zM1526 1047q0 -77 47.5 -123.5 t126.5 -46.5t126.5 46.5t47.5 123.5v106q0 77 -47.5 123.5t-126.5 46.5t-126.5 -46.5t-47.5 -123.5v-106z" />
<glyph unicode="&#x2122;" horiz-adv-x="1314" d="M61 1331v99h469v-99h-176v-477h-116v477h-177zM604 854v576h139l138 -263h4l133 263h139v-576h-106v246l6 174h-8l-170 -313l-166 313h-8l6 -174v-246h-107z" />
<glyph unicode="&#x2126;" horiz-adv-x="1466" d="M115 0v162h325v20q-141 75 -229 228.5t-88 365.5q0 106 23 203.5t72 184.5t119.5 151t172 101.5t223.5 37.5t223.5 -37.5t172 -101.5t119.5 -151t72 -184.5t23 -203.5q0 -212 -88.5 -365t-228.5 -229v-20h326v-162h-486v248q102 37 184.5 166t82.5 274v191 q0 74 -27.5 144.5t-77.5 127t-127 91t-168 34.5t-168 -34.5t-126.5 -91t-77 -127t-27.5 -144.5v-191q0 -145 82.5 -274t183.5 -166v-248h-485z" />
<glyph unicode="&#x212e;" horiz-adv-x="1482" d="M72 715q0 166 50.5 305t139.5 234t212.5 147.5t266.5 52.5q144 0 267 -52.5t212.5 -147.5t140 -234t50.5 -305h-1028v-500q145 -131 358 -131q336 0 500 305l98 -53q-87 -165 -238.5 -263t-359.5 -98q-143 0 -266.5 52.5t-212.5 147.5t-139.5 234.5t-50.5 305.5zM383 817 h717v404q-145 131 -359 131q-213 0 -358 -131v-404z" />
<glyph unicode="&#x2150;" horiz-adv-x="1763" d="M63 1300l252 130h154v-642h195v-114h-555v114h217v517l-207 -107zM326 0l1011 1430h164l-1012 -1430h-163zM1141 504v252h563v-121l-285 -635h-153l295 641h-297v-137h-123z" />
<glyph unicode="&#x2151;" horiz-adv-x="1806" d="M63 1300l252 130h154v-642h195v-114h-555v114h217v517l-207 -107zM326 0l1011 1430h164l-1012 -1430h-163zM1141 508q0 116 80.5 188t214.5 72q137 0 216 -80t79 -217q0 -148 -87 -272t-206 -199h-197q157 105 235.5 189t104.5 194l-10 2q-59 -113 -187 -113 q-106 0 -174.5 65t-68.5 171zM1290 512q0 -64 39 -97.5t107 -33.5t106.5 33.5t38.5 97.5v16q0 64 -38.5 97.5t-106.5 33.5t-107 -33.5t-39 -97.5v-16z" />
<glyph unicode="&#x2153;" horiz-adv-x="1792" d="M63 1300l252 130h154v-642h195v-114h-555v114h217v517l-207 -107zM326 0l1011 1430h164l-1012 -1430h-163zM1122 127l109 78q31 -49 72.5 -76t105.5 -27q70 0 108.5 30.5t38.5 86.5v10q0 103 -151 103h-86v117h78q72 0 108.5 26.5t36.5 71.5v8q0 46 -33.5 72t-91.5 26 q-108 0 -170 -90l-94 80q91 125 268 125q122 0 198.5 -53t76.5 -144q0 -70 -45.5 -114.5t-114.5 -57.5v-8q75 -13 123.5 -59.5t48.5 -122.5q0 -100 -82 -160.5t-217 -60.5q-107 0 -174 37.5t-113 101.5z" />
<glyph unicode="&#x2154;" horiz-adv-x="1771" d="M66 1253q27 83 97.5 136t186.5 53q126 0 197 -62t71 -163q0 -84 -51 -151.5t-151 -139.5l-183 -138h408v-114h-563v129l262 209q66 54 95.5 97.5t29.5 94.5v13q0 49 -33.5 76.5t-91.5 27.5q-109 0 -152 -113zM305 0l1012 1430h164l-1012 -1430h-164zM1102 127l108 78 q31 -49 73 -76t106 -27q70 0 108.5 30.5t38.5 86.5v10q0 103 -152 103h-86v117h78q72 0 109 26.5t37 71.5v8q0 46 -33.5 72t-91.5 26q-108 0 -170 -90l-94 80q91 125 268 125q122 0 198 -53t76 -144q0 -70 -45 -114.5t-114 -57.5v-8q75 -13 123.5 -59.5t48.5 -122.5 q0 -100 -82 -160.5t-217 -60.5q-107 0 -174 37.5t-113 101.5z" />
</font>
</defs>
</svg>
