<?xml version="1.0" standalone="no"?>
<!DOCTYPE svg PUBLIC "-//W3C//DTD SVG 1.1//EN" "http://www.w3.org/Graphics/SVG/1.1/DTD/svg11.dtd" >
<svg xmlns="http://www.w3.org/2000/svg" xmlns:xlink="http://www.w3.org/1999/xlink" version="1.1">
<metadata></metadata>
<defs>
<font id="ibm_plex_sansmedium" horiz-adv-x="1228" >
<font-face units-per-em="2048" ascent="1597" descent="-451" />
<missing-glyph horiz-adv-x="483" />
<glyph unicode="fi" horiz-adv-x="1230" d="M53 883v182h162v176q0 131 69 203t201 72h177v-183h-224v-268h633v-1065h-223v883h-410v-883h-223v883h-162zM827 1372v35q0 53 33.5 85t100.5 32q66 0 98.5 -31.5t32.5 -85.5v-35q0 -54 -32.5 -85.5t-98.5 -31.5q-67 0 -100.5 32t-33.5 85z" />
<glyph unicode=" "  horiz-adv-x="483" />
<glyph unicode="&#x09;" horiz-adv-x="483" />
<glyph unicode="&#xa0;" horiz-adv-x="483" />
<glyph unicode="!" horiz-adv-x="610" d="M156 111v34q0 62 37 99t112 37t112.5 -37t37.5 -99v-34q0 -62 -37.5 -99t-112.5 -37t-112 37t-37 99zM182 1022v408h242v-408l-68 -612h-102z" />
<glyph unicode="&#x22;" horiz-adv-x="923" d="M160 901v615h198v-615h-198zM565 901v615h199v-615h-199z" />
<glyph unicode="#" horiz-adv-x="1388" d="M82 391v150h264l60 348h-238v149h264l68 392h155l-67 -392h323l68 392h158l-68 -392h238v-149h-265l-59 -348h238v-150h-265l-67 -391h-156l68 391h-324l-67 -391h-158l67 391h-237zM502 541h323l62 348h-324z" />
<glyph unicode="$" horiz-adv-x="1226" d="M88 240l150 135q134 -163 311 -185v459q-218 47 -318 142t-100 251q0 160 107.5 258t296.5 119v178h174v-178q251 -23 397 -211l-152 -125q-98 129 -258 154v-420q224 -50 325 -142t101 -251q0 -166 -108.5 -277t-304.5 -135v-180h-174v176q-272 21 -447 232zM344 1053 q0 -82 48.5 -127.5t156.5 -75.5v389q-97 -14 -151 -62t-54 -124zM696 193q100 17 155.5 74.5t55.5 142.5q0 79 -47.5 128.5t-163.5 79.5v-425z" />
<glyph unicode="%" horiz-adv-x="1939" d="M121 1049q0 197 88.5 301t253.5 104t253.5 -104t88.5 -301t-88.5 -301.5t-253.5 -104.5t-253.5 104.5t-88.5 301.5zM317 991q0 -211 146 -211q145 0 145 211v115q0 211 -145 211q-146 0 -146 -211v-115zM371 0l991 1430h207l-991 -1430h-207zM1135 381q0 197 88.5 301 t253.5 104t253.5 -104t88.5 -301t-88.5 -301.5t-253.5 -104.5t-253.5 104.5t-88.5 301.5zM1331 324q0 -211 146 -211q145 0 145 211v114q0 211 -145 211q-146 0 -146 -211v-114z" />
<glyph unicode="&#x26;" horiz-adv-x="1447" d="M129 373q0 74 22.5 135.5t66 110t90 83.5t112.5 72q-162 173 -162 336q0 147 108.5 245.5t282.5 98.5q167 0 273 -87t106 -228q0 -54 -16.5 -103t-43 -86.5t-69 -75t-84 -65.5t-98.5 -61l278 -302q56 141 66 322h305v-188h-139q-30 -155 -94 -277l280 -303h-278l-134 145 q-170 -170 -413 -170q-216 0 -337.5 112t-121.5 286zM358 381q0 -98 68.5 -156.5t187.5 -58.5q162 0 267 108l-349 375q-87 -48 -130.5 -102t-43.5 -139v-27zM473 1100q0 -50 31.5 -103t99.5 -127q209 114 209 240v16q0 71 -44.5 110.5t-119.5 39.5t-125.5 -44.5 t-50.5 -115.5v-16z" />
<glyph unicode="'" horiz-adv-x="518" d="M160 901v615h198v-615h-198z" />
<glyph unicode="(" horiz-adv-x="688" d="M129 637q0 288 102.5 535t262.5 384h211q-168 -154 -266.5 -379.5t-98.5 -457.5v-164q0 -233 98.5 -458.5t266.5 -379.5h-211q-160 137 -262.5 384.5t-102.5 535.5z" />
<glyph unicode=")" horiz-adv-x="688" d="M-16 -283q168 154 266 379.5t98 458.5v164q0 233 -98 458t-266 379h211q160 -137 262 -384t102 -535t-102 -535.5t-262 -384.5h-211z" />
<glyph unicode="*" horiz-adv-x="1052" d="M70 1137l59 178l313 -123l-14 338h195l-15 -338l314 123l61 -178l-328 -95l217 -270l-155 -108l-193 286l-190 -286l-156 108l217 270z" />
<glyph unicode="+" d="M137 535v182h377v405h201v-405h377v-182h-377v-406h-201v406h-377z" />
<glyph unicode="," horiz-adv-x="591" d="M80 -283q70 70 111.5 131.5t62.5 133.5q-53 10 -80 45t-27 86v32q0 64 38.5 102t111.5 38t111 -38t38 -102v-32q0 -102 -54.5 -212t-145.5 -184h-166z" />
<glyph unicode="-" horiz-adv-x="821" d="M127 510v227h567v-227h-567z" />
<glyph unicode="." horiz-adv-x="593" d="M147 115v30q0 63 38.5 101.5t111.5 38.5q72 0 110.5 -38.5t38.5 -101.5v-30q0 -63 -38.5 -101.5t-110.5 -38.5q-73 0 -111.5 38.5t-38.5 101.5z" />
<glyph unicode="/" horiz-adv-x="854" d="M14 -309l568 1825h192l-567 -1825h-193z" />
<glyph unicode="0" d="M96 715q0 358 128 548.5t390 190.5t390.5 -190.5t128.5 -548.5t-128.5 -549t-390.5 -191t-390 191t-128 549zM342 590q0 -418 272 -418q273 0 273 418v250q0 417 -273 417q-272 0 -272 -417v-250z" />
<glyph unicode="1" d="M92 1034l365 396h352v-1237h348v-193h-977v193h402v1069h-17l-332 -355z" />
<glyph unicode="2" d="M117 1106q23 72 61.5 131t96.5 109.5t142.5 79t188.5 28.5q214 0 336.5 -117t122.5 -307q0 -67 -18.5 -130.5t-46.5 -114t-76.5 -106t-92 -97t-108.5 -97.5l-336 -288h721v-197h-971v221l457 408q113 102 169 191.5t56 183.5v26q0 103 -62.5 163t-168.5 60 q-206 0 -269 -225z" />
<glyph unicode="3" d="M66 231l170 134q38 -63 77 -103t100.5 -66t141.5 -26q129 0 199.5 62.5t70.5 173.5v14q0 108 -73.5 166.5t-208.5 58.5h-152v197h146q128 0 194 54.5t66 145.5v15q0 95 -62 149t-166 54q-189 0 -295 -175l-153 134q74 108 182 171.5t272 63.5q206 0 335.5 -99.5 t129.5 -269.5q0 -130 -77 -215.5t-197 -111.5v-10q130 -25 214.5 -116.5t84.5 -238.5q0 -187 -140.5 -302.5t-369.5 -115.5q-96 0 -175 20.5t-137 59t-98.5 80t-78.5 96.5z" />
<glyph unicode="4" d="M72 279v198l579 953h303v-969h195v-182h-195v-279h-219v279h-663zM268 461h467v758h-14z" />
<glyph unicode="5" d="M131 231l168 134q29 -46 56 -78.5t64 -60.5t84 -42t105 -14q126 0 195 69t69 193v25q0 123 -69 192.5t-195 69.5q-83 0 -138.5 -30.5t-102.5 -82.5l-191 27l53 797h811v-201h-634l-37 -506h14q52 94 118 140t181 46q189 0 310.5 -120t121.5 -326q0 -218 -136 -353 t-374 -135q-91 0 -167.5 20.5t-133 59t-96.5 80.5t-76 96z" />
<glyph unicode="6" d="M115 532q0 148 46 291t122.5 256.5t163 201t180.5 149.5h307q-130 -94 -219 -172t-164.5 -166.5t-123 -184.5t-73.5 -209l15 -4q109 209 331 209q184 0 302 -121t118 -321q0 -216 -138 -351t-364 -135q-235 0 -369 149.5t-134 407.5zM354 426q0 -127 69.5 -194.5 t194.5 -67.5q126 0 195.5 68t69.5 194v29q0 126 -69.5 194t-195.5 68q-125 0 -194.5 -67.5t-69.5 -194.5v-29z" />
<glyph unicode="7" d="M129 975v455h969v-201l-504 -1229h-244l518 1239h-540v-264h-199z" />
<glyph unicode="8" d="M102 389q0 138 76.5 226.5t210.5 125.5v17q-112 40 -178 124.5t-66 204.5q0 167 124.5 267t344.5 100t344.5 -100t124.5 -267q0 -120 -65.5 -205t-177.5 -124v-17q134 -37 210 -125.5t76 -226.5q0 -183 -135 -298.5t-377 -115.5t-377 115.5t-135 298.5zM344 387 q0 -106 71 -165.5t199 -59.5q129 0 200 59.5t71 165.5v41q0 106 -71 165.5t-200 59.5q-128 0 -199 -59.5t-71 -165.5v-41zM371 1032q0 -97 62.5 -149t180.5 -52t181 52t63 149v35q0 97 -63 149t-181 52t-180.5 -52t-62.5 -149v-35z" />
<glyph unicode="9" d="M109 969q0 216 137.5 350.5t363.5 134.5q235 0 369.5 -149.5t134.5 -407.5q0 -148 -46 -291t-122.5 -256t-163 -200.5t-180.5 -149.5h-307q130 94 219 171.5t164.5 166t122.5 184.5t73 209l-14 4q-109 -209 -332 -209q-184 0 -301.5 121.5t-117.5 321.5zM346 975 q0 -127 69.5 -194.5t194.5 -67.5t194.5 67.5t69.5 194.5v29q0 127 -69.5 194.5t-194.5 67.5t-194.5 -67.5t-69.5 -194.5v-29z" />
<glyph unicode=":" horiz-adv-x="634" d="M168 115v30q0 63 38.5 101.5t110.5 38.5q73 0 111.5 -38.5t38.5 -101.5v-30q0 -63 -38.5 -101.5t-111.5 -38.5q-72 0 -110.5 38.5t-38.5 101.5zM168 909v31q0 62 38 100.5t111 38.5t111.5 -38.5t38.5 -100.5v-31q0 -62 -38.5 -100.5t-111.5 -38.5t-111 38t-38 101z" />
<glyph unicode=";" horiz-adv-x="632" d="M98 -283q70 70 111.5 131.5t62.5 133.5q-52 10 -79 45t-27 86v32q0 64 38 102t111 38t111.5 -38t38.5 -102v-32q0 -101 -55 -211.5t-146 -184.5h-166zM168 909v31q0 62 38 100.5t111 38.5t111.5 -38.5t38.5 -100.5v-31q0 -62 -38.5 -100.5t-111.5 -38.5t-111 38t-38 101z " />
<glyph unicode="&#x3c;" d="M197 504v168l835 520v-229l-612 -367v-14l612 -369v-229z" />
<glyph unicode="=" d="M137 315v183h955v-183h-955zM137 754v182h955v-182h-955z" />
<glyph unicode="&#x3e;" d="M197 -16v229l612 369v14l-612 367v229l835 -520v-168z" />
<glyph unicode="?" horiz-adv-x="997" d="M39 1124q19 67 54.5 124t89 104.5t132.5 74.5t174 27q201 0 321 -109.5t120 -291.5q0 -89 -31.5 -164t-84.5 -125t-117 -82t-136 -45v-188h-213v325q344 16 344 256v29q0 93 -57.5 145.5t-153.5 52.5q-98 0 -161.5 -57.5t-86.5 -152.5zM307 111v34q0 62 37.5 99t112.5 37 t112 -37t37 -99v-34q0 -62 -37 -99t-112 -37t-112.5 37t-37.5 99z" />
<glyph unicode="@" horiz-adv-x="1835" d="M129 592q0 251 99 445.5t284 303.5t428 109q160 0 298 -49t244 -143.5t167 -245t61 -340.5q0 -153 -40 -268.5t-124 -183.5t-205 -68q-101 0 -160 49t-67 133h-10q-67 -182 -246 -182q-147 0 -242.5 114t-95.5 326t95.5 326t242.5 114q167 0 223 -158h11v140h178v-594 q0 -66 24.5 -93.5t77.5 -27.5q85 0 131.5 90t46.5 254v80q0 173 -80 306t-218.5 203.5t-313.5 70.5q-191 0 -339.5 -85.5t-229 -234.5t-80.5 -336v-102q0 -287 176 -465t465 -178h454v-150h-456q-242 0 -423.5 104.5t-278.5 295t-97 440.5zM719 514q0 -94 50 -149.5 t142 -55.5q83 0 132 46.5t49 121.5v246q0 66 -49 110t-132 44q-92 0 -142 -55.5t-50 -149.5v-158z" />
<glyph unicode="A" horiz-adv-x="1355" d="M45 0l487 1430h291l488 -1430h-242l-129 387h-534l-125 -387h-236zM461 586h422l-205 631h-10z" />
<glyph unicode="B" horiz-adv-x="1349" d="M176 0v1430h633q176 0 278.5 -100.5t102.5 -268.5q0 -77 -22 -136t-59 -93t-78.5 -52t-88.5 -22v-13q37 -1 76 -12.5t79.5 -37.5t72 -63t51.5 -94t20 -126q0 -174 -105.5 -293t-263.5 -119h-696zM408 199h397q90 0 141 47.5t51 134.5v70q0 87 -51 134.5t-141 47.5h-397 v-434zM408 825h358q85 0 132.5 44.5t47.5 125.5v66q0 81 -47.5 125.5t-132.5 44.5h-358v-406z" />
<glyph unicode="C" horiz-adv-x="1298" d="M113 715q0 356 158.5 547.5t441.5 191.5q364 0 510 -324l-195 -106q-81 223 -315 223q-165 0 -260 -113t-95 -311v-217q0 -198 95 -311t260 -113q122 0 205.5 64t123.5 174l187 -113q-74 -159 -204 -245.5t-312 -86.5q-283 0 -441.5 192t-158.5 548z" />
<glyph unicode="D" horiz-adv-x="1398" d="M176 0v1430h506q281 0 442.5 -182.5t161.5 -532.5t-161.5 -532.5t-442.5 -182.5h-506zM408 205h274q163 0 259.5 102.5t96.5 292.5v229q0 190 -96.5 293t-259.5 103h-274v-1020z" />
<glyph unicode="E" horiz-adv-x="1214" d="M176 0v1430h916v-205h-684v-398h620v-204h-620v-418h684v-205h-916z" />
<glyph unicode="F" horiz-adv-x="1167" d="M176 0v1430h893v-205h-661v-398h587v-204h-587v-623h-232z" />
<glyph unicode="G" horiz-adv-x="1443" d="M113 715q0 352 169 545.5t455 193.5q188 0 323 -83.5t210 -237.5l-189 -111q-43 104 -130.5 164.5t-213.5 60.5q-171 0 -274 -111t-103 -305v-233q0 -194 103 -305t274 -111q143 0 240.5 71.5t97.5 199.5v110h-295v199h518v-762h-202v217h-9q-23 -107 -125 -174.5 t-260 -67.5q-128 0 -235.5 49t-186.5 141t-123 233t-44 317z" />
<glyph unicode="H" horiz-adv-x="1462" d="M176 0v1430h232v-603h647v603h231v-1430h-231v623h-647v-623h-232z" />
<glyph unicode="I" horiz-adv-x="851" d="M115 0v188h194v1053h-194v189h622v-189h-196v-1053h196v-188h-622z" />
<glyph unicode="J" horiz-adv-x="1087" d="M55 334l213 47q41 -199 217 -199q95 0 149 59t54 173v823h-467v193h699v-1041q0 -188 -118.5 -301t-316.5 -113q-180 0 -290 96.5t-140 262.5z" />
<glyph unicode="K" horiz-adv-x="1351" d="M176 0v1430h232v-725h8l205 260l385 465h270l-510 -603l551 -827h-279l-434 668l-196 -226v-442h-232z" />
<glyph unicode="L" horiz-adv-x="1050" d="M176 0v1430h232v-1225h581v-205h-813z" />
<glyph unicode="M" horiz-adv-x="1667" d="M176 0v1430h275l383 -728h12l383 728h262v-1430h-221v1094h-10l-113 -232l-313 -571l-314 571l-112 232h-11v-1094h-221z" />
<glyph unicode="N" horiz-adv-x="1462" d="M176 0v1430h258l467 -791l158 -303h6v1094h221v-1430h-258l-467 791l-158 303h-6v-1094h-221z" />
<glyph unicode="O" horiz-adv-x="1458" d="M113 715q0 355 165.5 547t450.5 192t451 -192t166 -547t-166 -547.5t-451 -192.5t-450.5 192.5t-165.5 547.5zM360 602q0 -193 101 -306.5t268 -113.5t268 113.5t101 306.5v225q0 193 -101 306.5t-268 113.5t-268 -113.5t-101 -306.5v-225z" />
<glyph unicode="P" horiz-adv-x="1284" d="M176 0v1430h615q194 0 304.5 -117t110.5 -314t-110 -313.5t-305 -116.5h-383v-569h-232zM408 772h368q88 0 137.5 46t49.5 132v99q0 86 -49.5 132t-137.5 46h-368v-455z" />
<glyph unicode="Q" horiz-adv-x="1458" d="M113 715q0 355 165.5 547t450.5 192t451 -192t166 -547q0 -314 -131 -502t-363 -227v-148h219v-192h-203q-117 0 -175 60t-58 167v109q-244 31 -383 220.5t-139 512.5zM360 602q0 -193 101 -306.5t268 -113.5t268 113.5t101 306.5v225q0 193 -101 306.5t-268 113.5 t-268 -113.5t-101 -306.5v-225z" />
<glyph unicode="R" horiz-adv-x="1341" d="M176 0v1430h617q191 0 302 -116t111 -315q0 -153 -71 -255t-207 -142l309 -602h-258l-287 578h-284v-578h-232zM408 772h368q88 0 137.5 46t49.5 132v99q0 86 -49.5 132t-137.5 46h-368v-455z" />
<glyph unicode="S" horiz-adv-x="1224" d="M82 217l160 150q152 -187 374 -187q134 0 205.5 61.5t71.5 166.5q0 85 -50.5 133.5t-172.5 72.5l-127 23q-209 39 -313.5 138.5t-104.5 268.5q0 190 136 300t364 110q311 0 483 -219l-162 -143q-121 157 -334 157q-124 0 -191 -49.5t-67 -142.5q0 -87 54 -132t174 -69 l127 -27q214 -41 313.5 -140t99.5 -269q0 -202 -137.5 -323.5t-380.5 -121.5q-326 0 -522 242z" />
<glyph unicode="T" horiz-adv-x="1181" d="M49 1225v205h1084v-205h-426v-1225h-232v1225h-426z" />
<glyph unicode="U" horiz-adv-x="1404" d="M168 586v844h227v-881q0 -186 72 -276.5t235 -90.5q164 0 236 90.5t72 276.5v881h227v-844q0 -319 -123 -465t-412 -146q-288 0 -411 146t-123 465z" />
<glyph unicode="V" horiz-adv-x="1286" d="M37 1430h239l228 -707l137 -498h8l139 498l228 707h233l-475 -1430h-268z" />
<glyph unicode="W" horiz-adv-x="1896" d="M49 1430h236l145 -689l100 -475h7l114 475l170 689h258l168 -689l113 -473h6l104 473l150 689h227l-352 -1430h-260l-182 739l-107 435h-4l-108 -435l-187 -739h-260z" />
<glyph unicode="X" horiz-adv-x="1308" d="M43 0l463 731l-447 699h273l325 -533h5l329 533h256l-450 -697l469 -733h-273l-346 569h-6l-342 -569h-256z" />
<glyph unicode="Y" horiz-adv-x="1263" d="M23 1430h264l348 -637h6l346 637h254l-496 -863v-567h-231v563z" />
<glyph unicode="Z" horiz-adv-x="1210" d="M76 0v207l776 1018h-735v205h995v-207l-776 -1018h799v-205h-1059z" />
<glyph unicode="[" horiz-adv-x="665" d="M176 -283v1839h375v-165h-174v-1508h174v-166h-375z" />
<glyph unicode="\" horiz-adv-x="854" d="M80 1516h192l568 -1825h-193z" />
<glyph unicode="]" horiz-adv-x="665" d="M115 -117h174v1508h-174v165h374v-1839h-374v166z" />
<glyph unicode="^" d="M96 678l416 752h205l416 -752l-177 -88l-342 612h-10l-340 -612z" />
<glyph unicode="_" horiz-adv-x="1148" d="M61 -168h1026v-192h-1026v192z" />
<glyph unicode="`" d="M350 1534l195 94l186 -368l-139 -68z" />
<glyph unicode="a" horiz-adv-x="1124" d="M82 293q0 158 116 238.5t339 80.5h192v90q0 99 -54.5 152t-164.5 53q-163 0 -254 -145l-133 121q122 207 401 207q205 0 316.5 -97t111.5 -276v-535h113v-182h-125q-84 0 -132.5 48t-59.5 130h-11q-30 -99 -111.5 -151t-199.5 -52q-162 0 -253 86t-91 232zM309 289 q0 -70 48 -107t132 -37q105 0 172.5 46.5t67.5 123.5v154h-188q-232 0 -232 -143v-37z" />
<glyph unicode="b" horiz-adv-x="1212" d="M160 0v1516h223v-627h10q34 95 113.5 148t185.5 53q201 0 312.5 -147.5t111.5 -410.5t-111.5 -410t-312.5 -147q-106 0 -185.5 53.5t-113.5 147.5h-10v-176h-223zM383 350q0 -80 69.5 -131t172.5 -51q116 0 186 74.5t70 197.5v185q0 123 -70 197.5t-186 74.5 q-103 0 -172.5 -51t-69.5 -131v-365z" />
<glyph unicode="c" horiz-adv-x="1044" d="M88 532q0 258 127.5 408t355.5 150q155 0 259 -70t153 -193l-184 -86q-24 76 -82 119t-146 43q-120 0 -183.5 -74.5t-63.5 -201.5v-191q0 -127 63.5 -201.5t183.5 -74.5q175 0 250 176l170 -90q-53 -131 -160 -201t-260 -70q-228 0 -355.5 149.5t-127.5 407.5z" />
<glyph unicode="d" horiz-adv-x="1212" d="M96 532q0 263 111.5 410.5t312.5 147.5q106 0 185.5 -53t113.5 -148h10v627h224v-1516h-224v176h-10q-34 -94 -113.5 -147.5t-185.5 -53.5q-201 0 -312.5 147t-111.5 410zM332 440q0 -123 70 -197.5t186 -74.5q103 0 172 50.5t69 131.5v365q0 81 -69 131.5t-172 50.5 q-116 0 -186 -74.5t-70 -197.5v-185z" />
<glyph unicode="e" horiz-adv-x="1138" d="M88 532q0 256 132 407t358 151q152 0 260.5 -72t160.5 -190.5t52 -268.5v-84h-732v-35q0 -126 74.5 -203t206.5 -77q182 0 281 159l131 -129q-62 -99 -175 -157t-259 -58q-227 0 -358.5 150.5t-131.5 406.5zM319 623h496v20q0 124 -63.5 198t-173.5 74q-115 0 -187 -77.5 t-72 -200.5v-14z" />
<glyph unicode="f" horiz-adv-x="696" d="M53 883v182h162v176q0 131 69 203t201 72h177v-183h-224v-268h224v-182h-224v-883h-223v883h-162z" />
<glyph unicode="g" horiz-adv-x="1099" d="M70 -178q0 165 182 205v22q-58 19 -89.5 61.5t-31.5 102.5q0 142 188 188v9q-94 44 -144 126t-50 189q0 166 112.5 265.5t311.5 99.5q113 0 192 -33v28q0 72 35.5 112t104.5 40h163v-180h-217v-43q72 -47 111 -122t39 -167q0 -164 -113 -262t-313 -98q-77 0 -139 16 q-44 -15 -73.5 -42.5t-29.5 -64.5q0 -79 150 -79h262q373 0 373 -295q0 -169 -129 -251.5t-412 -82.5q-253 0 -368 65t-115 191zM256 -127q0 -145 229 -145h140q260 0 260 147q0 121 -195 121h-360q-74 -44 -74 -123zM344 707q0 -90 53.5 -135.5t153.5 -45.5t153.5 45.5 t53.5 135.5v41q0 89 -53.5 134.5t-153.5 45.5t-153.5 -45.5t-53.5 -134.5v-41z" />
<glyph unicode="h" horiz-adv-x="1187" d="M160 0v1516h223v-627h10q79 201 299 201q163 0 254.5 -109t91.5 -305v-676h-223v649q0 248 -201 248q-95 0 -163 -47.5t-68 -134.5v-715h-223z" />
<glyph unicode="i" horiz-adv-x="542" d="M139 1372v35q0 53 33.5 85t99.5 32t98.5 -31.5t32.5 -85.5v-35q0 -54 -32.5 -85.5t-98.5 -31.5t-99.5 32t-33.5 85zM160 0v1065h223v-1065h-223z" />
<glyph unicode="j" horiz-adv-x="542" d="M-6 -227h166v1292h223v-1208q0 -127 -64.5 -197t-195.5 -70h-129v183zM139 1372v35q0 53 33.5 85t99.5 32t98.5 -31.5t32.5 -85.5v-35q0 -54 -32.5 -85.5t-98.5 -31.5t-99.5 32t-33.5 85z" />
<glyph unicode="k" horiz-adv-x="1120" d="M160 0v1516h223v-930h10l148 190l256 289h260l-373 -412l418 -653h-266l-306 508l-147 -160v-348h-223z" />
<glyph unicode="l" horiz-adv-x="583" d="M160 221v1295h223v-1334h147v-182h-143q-112 0 -169.5 58t-57.5 163z" />
<glyph unicode="m" horiz-adv-x="1806" d="M160 0v1065h223v-176h10q78 201 285 201q111 0 194.5 -55.5t120.5 -162.5h6q31 95 115 156.5t207 61.5q159 0 247.5 -109t88.5 -305v-676h-223v649q0 248 -197 248q-91 0 -154 -47.5t-63 -134.5v-715h-223v649q0 248 -195 248q-90 0 -154.5 -47.5t-64.5 -134.5v-715h-223 z" />
<glyph unicode="n" horiz-adv-x="1187" d="M160 0v1065h223v-176h10q79 201 299 201q163 0 254.5 -109t91.5 -305v-676h-223v647q0 250 -201 250q-95 0 -163 -48t-68 -136v-713h-223z" />
<glyph unicode="o" horiz-adv-x="1155" d="M88 532q0 255 133.5 406.5t356.5 151.5t356 -151.5t133 -406.5t-133 -406t-356 -151t-356.5 151t-133.5 406zM324 442q0 -138 68.5 -210t185.5 -72t185 72t68 210v181q0 138 -68 210t-185 72t-185.5 -72t-68.5 -210v-181z" />
<glyph unicode="p" horiz-adv-x="1212" d="M160 -410v1475h223v-176h10q34 95 113.5 148t185.5 53q201 0 312.5 -147.5t111.5 -410.5t-111.5 -410t-312.5 -147q-106 0 -185.5 53.5t-113.5 147.5h-10v-586h-223zM383 350q0 -80 69.5 -131t172.5 -51q116 0 186 74.5t70 197.5v185q0 123 -70 197.5t-186 74.5 q-103 0 -172.5 -51t-69.5 -131v-365z" />
<glyph unicode="q" horiz-adv-x="1212" d="M96 532q0 263 111.5 410.5t312.5 147.5q106 0 185.5 -53t113.5 -148h10v176h224v-1475h-224v586h-10q-34 -94 -113.5 -147.5t-185.5 -53.5q-201 0 -312.5 147t-111.5 410zM332 440q0 -123 70 -197.5t186 -74.5q103 0 172 50.5t69 131.5v365q0 81 -69 131.5t-172 50.5 q-116 0 -186 -74.5t-70 -197.5v-185z" />
<glyph unicode="r" horiz-adv-x="784" d="M160 0v1065h223v-205h10q25 89 99 147t194 58h59v-215h-88q-133 0 -203.5 -43.5t-70.5 -126.5v-680h-223z" />
<glyph unicode="s" horiz-adv-x="1011" d="M66 176l143 131q125 -151 301 -151q96 0 145.5 37.5t49.5 105.5q0 114 -152 133l-98 12q-351 44 -351 318q0 153 109 240.5t287 87.5q137 0 228.5 -42t168.5 -128l-137 -132q-45 54 -112 87.5t-148 33.5q-90 0 -135.5 -35.5t-45.5 -97.5q0 -60 39 -91.5t125 -45.5l99 -12 q173 -26 255.5 -103t82.5 -207q0 -154 -115.5 -248t-306.5 -94q-145 0 -249 51t-183 150z" />
<glyph unicode="t" horiz-adv-x="747" d="M53 883v182h90q55 0 77 24t22 80v187h200v-291h224v-182h-224v-701h207v-182h-194q-114 0 -175 60.5t-61 170.5v652h-166z" />
<glyph unicode="u" horiz-adv-x="1187" d="M150 387v678h223v-649q0 -248 205 -248q94 0 160.5 48t66.5 136v713h223v-1065h-223v176h-8q-75 -201 -299 -201q-165 0 -256.5 108t-91.5 304z" />
<glyph unicode="v" horiz-adv-x="1048" d="M29 1065h221l162 -485l108 -373h12l109 373l166 485h213l-367 -1065h-262z" />
<glyph unicode="w" horiz-adv-x="1636" d="M53 1065h217l109 -447l96 -403h6l111 403l129 447h201l131 -447l112 -403h6l95 403l110 447h207l-287 -1065h-252l-139 485l-86 299h-4l-84 -299l-141 -485h-246z" />
<glyph unicode="x" horiz-adv-x="1085" d="M41 0l375 539l-365 526h258l240 -371h6l246 371h237l-364 -524l370 -541h-258l-245 387h-6l-256 -387h-238z" />
<glyph unicode="y" horiz-adv-x="1052" d="M25 1065h223l213 -627l61 -231h10l68 231l213 627h215l-448 -1276q-39 -110 -99 -154.5t-182 -44.5h-129v183h180l62 180z" />
<glyph unicode="z" horiz-adv-x="997" d="M74 0v180l571 703h-553v182h817v-172l-579 -711h594v-182h-850z" />
<glyph unicode="{" horiz-adv-x="724" d="M41 543v190q89 0 144 47.5t55 132.5v459q0 84 48.5 134t129.5 50h192v-165h-170v-482q0 -96 -57.5 -170.5t-144.5 -91.5v-20q87 -17 144.5 -91.5t57.5 -170.5v-482h170v-166h-192q-81 0 -129.5 50.5t-48.5 134.5v458q0 87 -55 135t-144 48z" />
<glyph unicode="|" horiz-adv-x="722" d="M266 -283v1839h191v-1839h-191z" />
<glyph unicode="}" horiz-adv-x="729" d="M115 -117h174v482q0 97 57 171t146 91v20q-89 17 -146 91t-57 171v482h-174v165h192q82 0 132 -50.5t50 -133.5v-459q0 -85 55 -132.5t144 -47.5v-190q-89 0 -144 -48t-55 -135v-458q0 -83 -50 -134t-132 -51h-192v166z" />
<glyph unicode="~" d="M119 670q86 118 254 118q69 0 126.5 -17.5t135.5 -55.5q49 -24 76.5 -36t70.5 -23t82 -11q46 0 82 14t84 48l80 -125q-87 -119 -254 -119q-69 0 -126 17.5t-136 56.5q-47 23 -76 35.5t-71 23t-82 10.5q-46 0 -82.5 -14t-83.5 -47z" />
<glyph unicode="&#xa1;" horiz-adv-x="610" d="M156 920v34q0 62 37 99t112 37t112.5 -37t37.5 -99v-34q0 -62 -37.5 -99t-112.5 -37t-112 37t-37 99zM186 43l68 612h102l72 -612v-408h-242v408z" />
<glyph unicode="&#xa2;" horiz-adv-x="1083" d="M90 528q0 227 103.5 371.5t287.5 173.5v217h178v-213q121 -14 205 -79t129 -167l-168 -92q-54 130 -176 156v-733q134 24 199 164l160 -99q-46 -103 -135 -168.5t-214 -78.5v-213h-178v217q-186 31 -288.5 174.5t-102.5 369.5zM313 440q0 -104 46 -177t133 -97v725 q-86 -24 -132.5 -97t-46.5 -178v-176z" />
<glyph unicode="&#xa3;" horiz-adv-x="1206" d="M100 590v186h140q-19 59 -26 83t-16.5 74t-9.5 95q0 191 132.5 308.5t357.5 117.5q304 0 457 -240l-170 -120q-110 159 -287 159q-121 0 -187.5 -65.5t-66.5 -190.5q0 -84 45 -221h426v-186h-365q7 -40 7 -72q0 -105 -45.5 -185.5t-110.5 -119.5v-12h719v-201h-946v236 q80 35 118.5 106t38.5 162q0 32 -8 86h-203z" />
<glyph unicode="&#xa5;" horiz-adv-x="1273" d="M57 1430h262l326 -611h8l316 611h250l-367 -656h254v-158h-352v-172h352v-157h-352v-287h-232v287h-352v157h352v172h-352v158h256z" />
<glyph unicode="&#xa6;" horiz-adv-x="722" d="M266 -283v729h191v-729h-191zM266 827v729h191v-729h-191z" />
<glyph unicode="&#xa7;" horiz-adv-x="1181" d="M131 535q0 94 56.5 168.5t164.5 119.5v23q-153 101 -153 274q0 155 114.5 244.5t304.5 89.5q228 0 373 -129l-119 -141q-113 98 -258 98q-100 0 -158.5 -41t-58.5 -115q0 -65 48 -104t151 -70l141 -39q162 -47 238 -128t76 -183q0 -94 -58 -169.5t-166 -119.5v-20 q156 -102 156 -277q0 -156 -117 -248t-307 -92q-226 0 -369 129l117 144q110 -99 256 -99q100 0 158.5 42.5t58.5 115.5q0 66 -48 106.5t-148 69.5l-142 41q-161 45 -236 126t-75 184zM330 598q0 -72 48.5 -122t158.5 -81l139 -37q29 -7 65 -22q109 88 109 203 q0 73 -48.5 122.5t-158.5 79.5l-139 39q-39 10 -66 21q-108 -87 -108 -203z" />
<glyph unicode="&#xa8;" d="M283 1358v37q0 108 127 108t127 -108v-37q0 -109 -127 -109t-127 109zM692 1358v37q0 108 127 108t127 -108v-37q0 -109 -127 -109t-127 109z" />
<glyph unicode="&#xa9;" horiz-adv-x="1601" d="M104 715q0 167 53.5 306.5t147 233.5t221 145.5t275.5 51.5t275.5 -51.5t220.5 -145.5t146.5 -233.5t53.5 -306.5t-53.5 -306.5t-146.5 -233.5t-220.5 -146t-275.5 -52t-275.5 52t-221 146t-147 233.5t-53.5 306.5zM250 649q0 -154 70 -279t196.5 -196.5t284.5 -71.5 t284.5 71.5t196.5 196.5t70 279v131q0 154 -70 279t-196.5 196.5t-284.5 71.5t-284.5 -71.5t-196.5 -196.5t-70 -279v-131zM442 715q0 191 99.5 303t275.5 112q227 0 313 -200l-153 -80q-50 117 -160 117q-78 0 -122 -50t-44 -131v-145q0 -81 44 -130.5t122 -49.5 q62 0 102.5 31.5t73.5 89.5l152 -80q-42 -92 -123.5 -147.5t-204.5 -55.5q-175 0 -275 112.5t-100 303.5z" />
<glyph unicode="&#xaa;" horiz-adv-x="860" d="M88 897q0 219 313 219h134v47q0 150 -144 150q-124 0 -182 -101l-98 84q36 63 110.5 103.5t184.5 40.5q137 0 214.5 -70t77.5 -199v-337h78v-132h-92q-128 0 -137 119h-8q-23 -61 -80.5 -98t-143.5 -37q-105 0 -166 57t-61 154zM250 895q0 -90 117 -90q71 0 119.5 33.5 t48.5 89.5v84h-134q-151 0 -151 -92v-25z" />
<glyph unicode="&#xab;" horiz-adv-x="1089" d="M76 471v201l387 334l65 -144l-264 -291l264 -290l-65 -144zM532 471v201l388 334l65 -144l-264 -291l264 -290l-65 -144z" />
<glyph unicode="&#xac;" horiz-adv-x="1261" d="M125 535v182h999v-557h-186v375h-813z" />
<glyph unicode="&#xad;" horiz-adv-x="821" d="M127 510v227h567v-227h-567z" />
<glyph unicode="&#xae;" horiz-adv-x="966" d="M74 1032q0 179 119 300.5t290 121.5t290.5 -121.5t119.5 -300.5t-119.5 -300.5t-290.5 -121.5t-290 121.5t-119 300.5zM170 1006q0 -130 90 -219t223 -89t223.5 89.5t90.5 218.5v53q0 129 -90.5 218t-223.5 89t-223 -89t-90 -218v-53zM317 815v428h195q70 0 107.5 -37 t37.5 -98q0 -100 -77 -129l96 -164h-115l-80 148h-59v-148h-105zM422 1040h78q51 0 51 45v31q0 45 -51 45h-78v-121z" />
<glyph unicode="&#xaf;" d="M315 1292v170h598v-170h-598z" />
<glyph unicode="&#xb0;" horiz-adv-x="962" d="M121 1087q0 157 103 262t257 105t257.5 -105t103.5 -262t-103.5 -261.5t-257.5 -104.5t-257 104.5t-103 261.5zM293 1087q0 -90 51 -148t137 -58t137.5 58t51.5 148t-51.5 148.5t-137.5 58.5t-137 -58.5t-51 -148.5z" />
<glyph unicode="&#xb1;" d="M137 0v182h955v-182h-955zM137 719v182h377v379h201v-379h377v-182h-377v-377h-201v377h-377z" />
<glyph unicode="&#xb2;" horiz-adv-x="708" d="M57 1251q31 84 104 137.5t191 53.5q128 0 201.5 -63t73.5 -165q0 -87 -54.5 -154.5t-156.5 -137.5l-166 -117h395v-131h-571v143l248 197q71 55 101 96t30 90v8q0 48 -31 73.5t-84 25.5q-103 0 -139 -109z" />
<glyph unicode="&#xb3;" horiz-adv-x="706" d="M31 805l121 90q65 -107 174 -107q64 0 99.5 28.5t35.5 78.5v10q0 92 -146 92h-79v131h77q65 0 99 23.5t34 60.5v9q0 42 -31.5 68t-84.5 26q-102 0 -168 -92l-105 92q95 127 279 127q128 0 205 -54.5t77 -146.5q0 -69 -44.5 -114t-112.5 -56v-6q75 -13 122.5 -59.5 t47.5 -120.5q0 -101 -83.5 -162t-221.5 -61q-199 0 -295 143z" />
<glyph unicode="&#xb4;" d="M498 1260l186 368l195 -94l-242 -342z" />
<glyph unicode="&#xb5;" horiz-adv-x="1198" d="M160 -410v1475h223v-647q0 -250 203 -250q95 0 162 47t67 133v717h223v-1065h-223v176h-8q-33 -89 -98.5 -145t-169.5 -56q-132 0 -181 99h-8l33 -219v-265h-223z" />
<glyph unicode="&#xb6;" horiz-adv-x="1357" d="M88 1004q0 175 120.5 300.5t291.5 125.5h714v-173h-135v-1562h-182v1562h-215v-1562h-182v883q-171 0 -291.5 125.5t-120.5 300.5z" />
<glyph unicode="&#xb7;" horiz-adv-x="729" d="M201 598v49q0 62 41 100.5t123 38.5t122.5 -38.5t40.5 -100.5v-49q0 -62 -40.5 -100.5t-122.5 -38.5t-123 38.5t-41 100.5z" />
<glyph unicode="&#xb8;" d="M416 -342l86 98q45 -59 129 -59q40 0 65 15t25 44q0 65 -146 82l-51 6l41 205h117l-35 -168l8 -8q51 14 88 14q63 0 103.5 -35.5t40.5 -103.5q0 -88 -70 -132t-176 -44q-85 0 -141 25.5t-84 60.5z" />
<glyph unicode="&#xb9;" horiz-adv-x="722" d="M61 1305l246 125h172v-629h187v-127h-557v127h208v485l-192 -96z" />
<glyph unicode="&#xba;" horiz-adv-x="847" d="M84 1063q0 175 90.5 276t249.5 101t249.5 -101t90.5 -276t-90.5 -276t-249.5 -101t-249.5 101t-90.5 276zM258 1001q0 -88 42.5 -137t123.5 -49t123.5 49t42.5 137v123q0 88 -42.5 137.5t-123.5 49.5t-123.5 -49.5t-42.5 -137.5v-123z" />
<glyph unicode="&#xbb;" horiz-adv-x="1089" d="M104 281l265 290l-265 291l66 144l387 -334v-201l-387 -334zM561 281l264 290l-264 291l66 144l387 -334v-201l-387 -334z" />
<glyph unicode="&#xbc;" horiz-adv-x="1734" d="M61 1305l246 125h172v-629h187v-127h-557v127h208v485l-192 -96zM301 0l1034 1430h181l-1033 -1430h-182zM1065 145v136l321 475h201v-488h107v-123h-107v-145h-155v145h-367zM1198 268h234v324h-11z" />
<glyph unicode="&#xbd;" horiz-adv-x="1740" d="M61 1305l246 125h172v-629h187v-127h-557v127h208v485l-192 -96zM270 0l1035 1430h180l-1032 -1430h-183zM1090 578q31 84 103.5 137t190.5 53q128 0 201.5 -62.5t73.5 -164.5q0 -88 -54.5 -156t-156.5 -137l-166 -117h395v-131h-571v143l248 197q70 55 100.5 96.5 t30.5 89.5v9q0 48 -31 73t-84 25q-103 0 -139 -109z" />
<glyph unicode="&#xbe;" horiz-adv-x="1697" d="M31 805l121 90q65 -107 174 -107q64 0 99.5 28.5t35.5 78.5v10q0 92 -146 92h-79v131h77q65 0 99 23.5t34 60.5v9q0 42 -31.5 68t-84.5 26q-102 0 -168 -92l-105 92q95 127 279 127q128 0 205 -54.5t77 -146.5q0 -69 -44.5 -114t-112.5 -56v-6q75 -13 122.5 -59.5 t47.5 -120.5q0 -101 -83.5 -162t-221.5 -61q-199 0 -295 143zM264 0l1034 1430h181l-1033 -1430h-182zM1028 145v136l322 475h200v-488h107v-123h-107v-145h-155v145h-367zM1161 268h234v324h-11z" />
<glyph unicode="&#xbf;" horiz-adv-x="980" d="M68 12q0 89 31 164t84 125t117 82t136 45v188h213v-325q-344 -16 -344 -256v-29q0 -93 57.5 -146t153.5 -53q97 0 161 58t87 153l194 -77q-19 -67 -54.5 -124t-89 -104.5t-132.5 -74.5t-174 -27q-201 0 -320.5 109.5t-119.5 291.5zM391 920v34q0 62 37.5 99t112.5 37 t112 -37t37 -99v-34q0 -62 -37 -99t-112 -37t-112.5 37t-37.5 99z" />
<glyph unicode="&#xc0;" horiz-adv-x="1355" d="M45 0l487 1430h291l488 -1430h-242l-129 387h-534l-125 -387h-236zM412 1874l194 94l187 -369l-140 -65zM461 586h422l-205 631h-10z" />
<glyph unicode="&#xc1;" horiz-adv-x="1355" d="M45 0l487 1430h291l488 -1430h-242l-129 387h-534l-125 -387h-236zM461 586h422l-205 631h-10zM559 1599l186 369l195 -94l-242 -340z" />
<glyph unicode="&#xc2;" horiz-adv-x="1355" d="M45 0l487 1430h291l488 -1430h-242l-129 387h-534l-125 -387h-236zM317 1626l246 307h225l246 -307l-114 -86l-244 238l-244 -238zM461 586h422l-205 631h-10z" />
<glyph unicode="&#xc3;" horiz-adv-x="1355" d="M45 0l487 1430h291l488 -1430h-242l-129 387h-534l-125 -387h-236zM313 1733q77 118 211 118q32 0 64 -9t47 -16t49 -24q96 -47 152 -47t118 53l84 -106q-77 -119 -211 -119q-31 0 -64 9t-46.5 15.5t-48.5 24.5q-96 47 -152 47q-57 0 -119 -53zM461 586h422l-205 631h-10 z" />
<glyph unicode="&#xc4;" horiz-adv-x="1355" d="M45 0l487 1430h291l488 -1430h-242l-129 387h-534l-125 -387h-236zM342 1700v37q0 50 31.5 80t97.5 30t97.5 -30t31.5 -80v-37q0 -50 -31.5 -80.5t-97.5 -30.5t-97.5 30.5t-31.5 80.5zM461 586h422l-205 631h-10zM752 1700v37q0 50 31.5 80t97.5 30t97.5 -30t31.5 -80 v-37q0 -50 -31.5 -80.5t-97.5 -30.5t-97.5 30.5t-31.5 80.5z" />
<glyph unicode="&#xc5;" horiz-adv-x="1355" d="M45 0l487 1430h291l488 -1430h-242l-129 387h-534l-125 -387h-236zM410 1763q0 112 76.5 186t189.5 74t189.5 -74t76.5 -186t-76.5 -186t-189.5 -74t-189.5 74t-76.5 186zM461 586h422l-205 631h-10zM563 1737q0 -51 29.5 -80t83.5 -29t83 29t29 80v55q0 51 -29 80 t-83 29t-83.5 -29t-29.5 -80v-55z" />
<glyph unicode="&#xc6;" horiz-adv-x="1910" d="M4 0l717 1430h1067v-205h-684v-398h620v-204h-620v-418h684v-205h-916v385h-446l-188 -385h-234zM520 586h352v639h-34z" />
<glyph unicode="&#xc7;" horiz-adv-x="1298" d="M113 715q0 356 158.5 547.5t441.5 191.5q364 0 510 -324l-195 -106q-81 223 -315 223q-165 0 -260 -113t-95 -311v-217q0 -198 95 -311t260 -113q122 0 205.5 64t123.5 174l187 -113q-71 -153 -194 -239t-294 -93l-18 -94l6 -8q51 14 88 14q63 0 103.5 -35.5t40.5 -103.5 q0 -88 -70 -132t-176 -44q-153 0 -226 86l86 98q45 -59 130 -59q40 0 65 15t25 44q0 65 -146 82l-51 6l27 138q-242 28 -377 217.5t-135 515.5z" />
<glyph unicode="&#xc8;" horiz-adv-x="1214" d="M176 0v1430h916v-205h-684v-398h620v-204h-620v-418h684v-205h-916zM369 1874l194 94l187 -369l-140 -65z" />
<glyph unicode="&#xc9;" horiz-adv-x="1214" d="M176 0v1430h916v-205h-684v-398h620v-204h-620v-418h684v-205h-916zM516 1599l186 369l195 -94l-242 -340z" />
<glyph unicode="&#xca;" horiz-adv-x="1214" d="M176 0v1430h916v-205h-684v-398h620v-204h-620v-418h684v-205h-916zM274 1626l246 307h225l246 -307l-114 -86l-244 238l-244 -238z" />
<glyph unicode="&#xcb;" horiz-adv-x="1214" d="M176 0v1430h916v-205h-684v-398h620v-204h-620v-418h684v-205h-916zM299 1700v37q0 50 31.5 80t97.5 30t97.5 -30t31.5 -80v-37q0 -50 -31.5 -80.5t-97.5 -30.5t-97.5 30.5t-31.5 80.5zM709 1700v37q0 50 31.5 80t97.5 30t97.5 -30t31.5 -80v-37q0 -50 -31.5 -80.5 t-97.5 -30.5t-97.5 30.5t-31.5 80.5z" />
<glyph unicode="&#xcc;" horiz-adv-x="851" d="M115 0v188h194v1053h-194v189h622v-189h-196v-1053h196v-188h-622zM160 1874l194 94l187 -369l-140 -65z" />
<glyph unicode="&#xcd;" horiz-adv-x="851" d="M115 0v188h194v1053h-194v189h622v-189h-196v-1053h196v-188h-622zM307 1599l187 369l194 -94l-242 -340z" />
<glyph unicode="&#xce;" horiz-adv-x="851" d="M66 1626l245 307h226l245 -307l-114 -86l-244 238l-244 -238zM115 0v188h194v1053h-194v189h622v-189h-196v-1053h196v-188h-622z" />
<glyph unicode="&#xcf;" horiz-adv-x="851" d="M90 1700v37q0 50 31.5 80t97.5 30t97.5 -30t31.5 -80v-37q0 -50 -31.5 -80.5t-97.5 -30.5t-97.5 30.5t-31.5 80.5zM115 0v188h194v1053h-194v189h622v-189h-196v-1053h196v-188h-622zM500 1700v37q0 50 31.5 80t97.5 30t97.5 -30t31.5 -80v-37q0 -50 -31.5 -80.5 t-97.5 -30.5t-97.5 30.5t-31.5 80.5z" />
<glyph unicode="&#xd0;" horiz-adv-x="1406" d="M27 655v176h157v599h506q281 0 442.5 -182.5t161.5 -532.5t-161.5 -532.5t-442.5 -182.5h-506v655h-157zM416 205h274q163 0 260 102.5t97 292.5v229q0 190 -97 293t-260 103h-274v-394h266v-176h-266v-450z" />
<glyph unicode="&#xd1;" horiz-adv-x="1462" d="M176 0v1430h258l467 -791l158 -303h6v1094h221v-1430h-258l-467 791l-158 303h-6v-1094h-221zM369 1733q77 118 211 118q31 0 64 -9t46.5 -15.5t48.5 -24.5q96 -47 152 -47q57 0 119 53l84 -106q-77 -119 -211 -119q-32 0 -64 9t-47 16t-49 24q-96 47 -152 47t-118 -53z " />
<glyph unicode="&#xd2;" horiz-adv-x="1458" d="M113 715q0 355 165.5 547t450.5 192t451 -192t166 -547t-166 -547.5t-451 -192.5t-450.5 192.5t-165.5 547.5zM360 602q0 -193 101 -306.5t268 -113.5t268 113.5t101 306.5v225q0 193 -101 306.5t-268 113.5t-268 -113.5t-101 -306.5v-225zM465 1874l194 94l187 -369 l-139 -65z" />
<glyph unicode="&#xd3;" horiz-adv-x="1458" d="M113 715q0 355 165.5 547t450.5 192t451 -192t166 -547t-166 -547.5t-451 -192.5t-450.5 192.5t-165.5 547.5zM360 602q0 -193 101 -306.5t268 -113.5t268 113.5t101 306.5v225q0 193 -101 306.5t-268 113.5t-268 -113.5t-101 -306.5v-225zM612 1599l187 369l194 -94 l-241 -340z" />
<glyph unicode="&#xd4;" horiz-adv-x="1458" d="M113 715q0 355 165.5 547t450.5 192t451 -192t166 -547t-166 -547.5t-451 -192.5t-450.5 192.5t-165.5 547.5zM360 602q0 -193 101 -306.5t268 -113.5t268 113.5t101 306.5v225q0 193 -101 306.5t-268 113.5t-268 -113.5t-101 -306.5v-225zM371 1626l245 307h226 l245 -307l-114 -86l-244 238l-244 -238z" />
<glyph unicode="&#xd5;" horiz-adv-x="1458" d="M113 715q0 355 165.5 547t450.5 192t451 -192t166 -547t-166 -547.5t-451 -192.5t-450.5 192.5t-165.5 547.5zM360 602q0 -193 101 -306.5t268 -113.5t268 113.5t101 306.5v225q0 193 -101 306.5t-268 113.5t-268 -113.5t-101 -306.5v-225zM367 1733q77 118 211 118 q31 0 64 -9t46.5 -15.5t48.5 -24.5q96 -47 152 -47q57 0 119 53l84 -106q-77 -119 -211 -119q-32 0 -64 9t-47 16t-49 24q-96 47 -152 47t-118 -53z" />
<glyph unicode="&#xd6;" horiz-adv-x="1458" d="M113 715q0 355 165.5 547t450.5 192t451 -192t166 -547t-166 -547.5t-451 -192.5t-450.5 192.5t-165.5 547.5zM360 602q0 -193 101 -306.5t268 -113.5t268 113.5t101 306.5v225q0 193 -101 306.5t-268 113.5t-268 -113.5t-101 -306.5v-225zM395 1700v37q0 50 31.5 80 t97.5 30t97.5 -30t31.5 -80v-37q0 -50 -31.5 -80.5t-97.5 -30.5t-97.5 30.5t-31.5 80.5zM805 1700v37q0 50 31.5 80t97.5 30t97.5 -30t31.5 -80v-37q0 -50 -31.5 -80.5t-97.5 -30.5t-97.5 30.5t-31.5 80.5z" />
<glyph unicode="&#xd7;" d="M176 299l309 319l-309 320l131 129l307 -317l308 317l131 -129l-310 -320l310 -319l-131 -129l-308 317l-307 -317z" />
<glyph unicode="&#xd8;" horiz-adv-x="1458" d="M113 715q0 355 165.5 547t450.5 192q194 0 334 -90l117 168l147 -96l-133 -193q152 -195 152 -528q0 -355 -166 -547.5t-451 -192.5q-192 0 -334 91l-116 -168l-148 96l133 192q-151 193 -151 529zM354 598q0 -131 47 -227l549 817q-90 69 -221 69q-170 0 -272.5 -115.5 t-102.5 -310.5v-233zM508 242q92 -70 221 -70q170 0 272.5 115.5t102.5 310.5v233q0 132 -47 228z" />
<glyph unicode="&#xd9;" horiz-adv-x="1404" d="M168 586v844h227v-881q0 -186 72 -276.5t235 -90.5q164 0 236 90.5t72 276.5v881h227v-844q0 -319 -123 -465t-412 -146q-288 0 -411 146t-123 465zM438 1874l195 94l186 -369l-139 -65z" />
<glyph unicode="&#xda;" horiz-adv-x="1404" d="M168 586v844h227v-881q0 -186 72 -276.5t235 -90.5q164 0 236 90.5t72 276.5v881h227v-844q0 -319 -123 -465t-412 -146q-288 0 -411 146t-123 465zM586 1599l186 369l195 -94l-242 -340z" />
<glyph unicode="&#xdb;" horiz-adv-x="1404" d="M168 586v844h227v-881q0 -186 72 -276.5t235 -90.5q164 0 236 90.5t72 276.5v881h227v-844q0 -319 -123 -465t-412 -146q-288 0 -411 146t-123 465zM344 1626l246 307h225l246 -307l-115 -86l-244 238l-243 -238z" />
<glyph unicode="&#xdc;" horiz-adv-x="1404" d="M168 586v844h227v-881q0 -186 72 -276.5t235 -90.5q164 0 236 90.5t72 276.5v881h227v-844q0 -319 -123 -465t-412 -146q-288 0 -411 146t-123 465zM369 1700v37q0 50 31.5 80t97.5 30t97.5 -30t31.5 -80v-37q0 -50 -31.5 -80.5t-97.5 -30.5t-97.5 30.5t-31.5 80.5z M778 1700v37q0 50 31.5 80t97.5 30t97.5 -30t31.5 -80v-37q0 -50 -31.5 -80.5t-97.5 -30.5t-97.5 30.5t-31.5 80.5z" />
<glyph unicode="&#xdd;" horiz-adv-x="1263" d="M23 1430h264l348 -637h6l346 637h254l-496 -863v-567h-231v563zM516 1599l186 369l195 -94l-242 -340z" />
<glyph unicode="&#xde;" horiz-adv-x="1284" d="M176 0v1430h232v-275h383q194 0 304.5 -117t110.5 -313t-110.5 -313t-304.5 -117h-383v-295h-232zM408 498h368q88 0 137.5 46t49.5 132v98q0 86 -49.5 132t-137.5 46h-368v-454z" />
<glyph unicode="&#xdf;" horiz-adv-x="1355" d="M53 883v182h162v8q0 216 128 341.5t349 125.5q218 0 344.5 -125t126.5 -340v-155h-104q-117 0 -173.5 -32t-56.5 -104q0 -61 35 -91t113 -52l61 -18q136 -36 200.5 -106.5t64.5 -190.5q0 -162 -104 -256.5t-277 -94.5q-244 0 -371 164l135 131q98 -118 240 -118 q79 0 123.5 38.5t44.5 108.5q0 60 -32 96t-108 56l-63 16q-131 36 -200.5 104.5t-69.5 196.5q0 131 88 211.5t243 95.5v8q0 142 -63.5 211.5t-194.5 69.5q-130 0 -193 -69t-63 -212v-1083h-223v883h-162z" />
<glyph unicode="&#xe0;" horiz-adv-x="1124" d="M82 293q0 158 116 238.5t339 80.5h192v90q0 99 -54.5 152t-164.5 53q-163 0 -254 -145l-133 121q122 207 401 207q205 0 316.5 -97t111.5 -276v-535h113v-182h-125q-84 0 -132.5 48t-59.5 130h-11q-30 -99 -111.5 -151t-199.5 -52q-162 0 -253 86t-91 232zM266 1534 l195 94l186 -368l-139 -68zM309 289q0 -70 48 -107t132 -37q105 0 172.5 46.5t67.5 123.5v154h-188q-232 0 -232 -143v-37z" />
<glyph unicode="&#xe1;" horiz-adv-x="1124" d="M82 293q0 158 116 238.5t339 80.5h192v90q0 99 -54.5 152t-164.5 53q-163 0 -254 -145l-133 121q122 207 401 207q205 0 316.5 -97t111.5 -276v-535h113v-182h-125q-84 0 -132.5 48t-59.5 130h-11q-30 -99 -111.5 -151t-199.5 -52q-162 0 -253 86t-91 232zM309 289 q0 -70 48 -107t132 -37q105 0 172.5 46.5t67.5 123.5v154h-188q-232 0 -232 -143v-37zM414 1260l186 368l195 -94l-242 -342z" />
<glyph unicode="&#xe2;" horiz-adv-x="1124" d="M82 293q0 158 116 238.5t339 80.5h192v90q0 99 -54.5 152t-164.5 53q-163 0 -254 -145l-133 121q122 207 401 207q205 0 316.5 -97t111.5 -276v-535h113v-182h-125q-84 0 -132.5 48t-59.5 130h-11q-30 -99 -111.5 -151t-199.5 -52q-162 0 -253 86t-91 232zM172 1286 l246 307h225l246 -307l-115 -88l-244 240l-243 -240zM309 289q0 -70 48 -107t132 -37q105 0 172.5 46.5t67.5 123.5v154h-188q-232 0 -232 -143v-37z" />
<glyph unicode="&#xe3;" horiz-adv-x="1124" d="M82 293q0 158 116 238.5t339 80.5h192v90q0 99 -54.5 152t-164.5 53q-163 0 -254 -145l-133 121q122 207 401 207q205 0 316.5 -97t111.5 -276v-535h113v-182h-125q-84 0 -132.5 48t-59.5 130h-11q-30 -99 -111.5 -151t-199.5 -52q-162 0 -253 86t-91 232zM168 1393 q77 118 211 118q32 0 64 -9t47 -16t49 -24q100 -49 151 -49q55 0 119 55l84 -106q-77 -119 -211 -119q-32 0 -64 9t-47 16t-49 24q-100 49 -151 49q-55 0 -119 -55zM309 289q0 -70 48 -107t132 -37q105 0 172.5 46.5t67.5 123.5v154h-188q-232 0 -232 -143v-37z" />
<glyph unicode="&#xe4;" horiz-adv-x="1124" d="M82 293q0 158 116 238.5t339 80.5h192v90q0 99 -54.5 152t-164.5 53q-163 0 -254 -145l-133 121q122 207 401 207q205 0 316.5 -97t111.5 -276v-535h113v-182h-125q-84 0 -132.5 48t-59.5 130h-11q-30 -99 -111.5 -151t-199.5 -52q-162 0 -253 86t-91 232zM199 1358v37 q0 108 127 108t127 -108v-37q0 -109 -127 -109t-127 109zM309 289q0 -70 48 -107t132 -37q105 0 172.5 46.5t67.5 123.5v154h-188q-232 0 -232 -143v-37zM608 1358v37q0 108 127 108t127 -108v-37q0 -109 -127 -109t-127 109z" />
<glyph unicode="&#xe5;" horiz-adv-x="1124" d="M82 293q0 158 116 238.5t339 80.5h192v90q0 99 -54.5 152t-164.5 53q-163 0 -254 -145l-133 121q122 207 401 207q205 0 316.5 -97t111.5 -276v-535h113v-182h-125q-84 0 -132.5 48t-59.5 130h-11q-30 -99 -111.5 -151t-199.5 -52q-162 0 -253 86t-91 232zM264 1423 q0 112 76.5 186t189.5 74t190 -74t77 -186t-77 -186t-190 -74t-189.5 74t-76.5 186zM309 289q0 -70 48 -107t132 -37q105 0 172.5 46.5t67.5 123.5v154h-188q-232 0 -232 -143v-37zM418 1395q0 -53 29 -81t83 -28t83.5 28.5t29.5 80.5v57q0 52 -29.5 80.5t-83.5 28.5 t-83 -28t-29 -81v-57z" />
<glyph unicode="&#xe6;" horiz-adv-x="1771" d="M82 293q0 160 119 245t336 85h192v79q0 99 -54.5 152t-162.5 53q-91 0 -151 -37t-105 -106l-133 119q122 207 401 207q230 0 320 -201h12q35 81 134 141t233 60q148 0 253.5 -72t156 -190t50.5 -269v-84h-731v-35q0 -125 76 -202.5t209 -77.5q184 0 279 157l131 -127 q-61 -100 -171 -157.5t-249 -57.5q-151 0 -262 69.5t-142 156.5h-12q-25 -87 -125.5 -156.5t-259.5 -69.5t-251.5 87.5t-92.5 230.5zM309 293q0 -70 48.5 -109t136.5 -39q101 0 168 47t67 123v160h-188q-232 -3 -232 -145v-37zM952 623h496v20q0 124 -64 198t-174 74 q-115 0 -186.5 -77.5t-71.5 -200.5v-14z" />
<glyph unicode="&#xe7;" horiz-adv-x="1044" d="M88 532q0 258 127.5 408t355.5 150q155 0 259 -70t153 -193l-184 -86q-24 76 -82 119t-146 43q-120 0 -183.5 -74.5t-63.5 -201.5v-191q0 -127 63.5 -201.5t183.5 -74.5q175 0 250 176l170 -90q-50 -123 -148 -192.5t-237 -78.5l-18 -94l6 -8q51 14 88 14q63 0 103 -35.5 t40 -103.5q0 -88 -70 -132t-175 -44q-153 0 -226 86l86 98q45 -59 129 -59q40 0 65 15t25 44q0 65 -145 82l-51 6l26 138q-191 26 -296 171.5t-105 378.5z" />
<glyph unicode="&#xe8;" horiz-adv-x="1138" d="M88 532q0 256 132 407t358 151q152 0 260.5 -72t160.5 -190.5t52 -268.5v-84h-732v-35q0 -126 74.5 -203t206.5 -77q182 0 281 159l131 -129q-62 -99 -175 -157t-259 -58q-227 0 -358.5 150.5t-131.5 406.5zM315 1534l195 94l186 -368l-139 -68zM319 623h496v20 q0 124 -63.5 198t-173.5 74q-115 0 -187 -77.5t-72 -200.5v-14z" />
<glyph unicode="&#xe9;" horiz-adv-x="1138" d="M88 532q0 256 132 407t358 151q152 0 260.5 -72t160.5 -190.5t52 -268.5v-84h-732v-35q0 -126 74.5 -203t206.5 -77q182 0 281 159l131 -129q-62 -99 -175 -157t-259 -58q-227 0 -358.5 150.5t-131.5 406.5zM319 623h496v20q0 124 -63.5 198t-173.5 74q-115 0 -187 -77.5 t-72 -200.5v-14zM463 1260l186 368l195 -94l-242 -342z" />
<glyph unicode="&#xea;" horiz-adv-x="1138" d="M88 532q0 256 132 407t358 151q152 0 260.5 -72t160.5 -190.5t52 -268.5v-84h-732v-35q0 -126 74.5 -203t206.5 -77q182 0 281 159l131 -129q-62 -99 -175 -157t-259 -58q-227 0 -358.5 150.5t-131.5 406.5zM221 1286l246 307h225l246 -307l-115 -88l-243 240l-244 -240z M319 623h496v20q0 124 -63.5 198t-173.5 74q-115 0 -187 -77.5t-72 -200.5v-14z" />
<glyph unicode="&#xeb;" horiz-adv-x="1138" d="M88 532q0 256 132 407t358 151q152 0 260.5 -72t160.5 -190.5t52 -268.5v-84h-732v-35q0 -126 74.5 -203t206.5 -77q182 0 281 159l131 -129q-62 -99 -175 -157t-259 -58q-227 0 -358.5 150.5t-131.5 406.5zM248 1358v37q0 108 127 108t127 -108v-37q0 -109 -127 -109 t-127 109zM319 623h496v20q0 124 -63.5 198t-173.5 74q-115 0 -187 -77.5t-72 -200.5v-14zM657 1358v37q0 108 127 108t127 -108v-37q0 -109 -127 -109t-127 109z" />
<glyph unicode="&#xec;" horiz-adv-x="542" d="M8 1534l195 94l186 -368l-139 -68zM160 0v1065h223v-1065h-223z" />
<glyph unicode="&#xed;" horiz-adv-x="542" d="M156 1260l186 368l195 -94l-242 -342zM160 0v1065h223v-1065h-223z" />
<glyph unicode="&#xee;" horiz-adv-x="542" d="M-86 1286l246 307h225l246 -307l-115 -88l-244 240l-243 -240zM160 0v1065h223v-1065h-223z" />
<glyph unicode="&#xef;" horiz-adv-x="542" d="M-59 1358v37q0 108 127 108t127 -108v-37q0 -109 -127 -109t-127 109zM160 0v1065h223v-1065h-223zM350 1358v37q0 108 127 108t127 -108v-37q0 -109 -127 -109t-127 109z" />
<glyph unicode="&#xf0;" horiz-adv-x="1175" d="M90 510q0 233 120 375.5t320 142.5q104 0 177 -52.5t112 -148.5l12 7q-46 201 -247 395l-172 -111l-80 101l151 100q-128 103 -293 197h342q67 -43 121 -89l172 115l82 -100l-155 -105q148 -149 235.5 -345t87.5 -431q0 -289 -132 -437.5t-357 -148.5q-230 0 -363 145.5 t-133 389.5zM326 438q0 -132 70 -208t188 -76t188 76t70 208v127q0 132 -70 208.5t-188 76.5t-188 -76.5t-70 -208.5v-127z" />
<glyph unicode="&#xf1;" horiz-adv-x="1187" d="M160 0v1065h223v-176h10q79 201 299 201q163 0 254.5 -109t91.5 -305v-676h-223v647q0 250 -201 250q-95 0 -163 -48t-68 -136v-713h-223zM238 1393q77 118 211 118q31 0 64 -9t46.5 -15.5t48.5 -24.5q100 -49 152 -49q55 0 119 55l84 -106q-77 -119 -211 -119 q-32 0 -64 9t-47 16t-49 24q-100 49 -152 49q-54 0 -118 -55z" />
<glyph unicode="&#xf2;" horiz-adv-x="1155" d="M88 532q0 255 133.5 406.5t356.5 151.5t356 -151.5t133 -406.5t-133 -406t-356 -151t-356.5 151t-133.5 406zM311 1534l195 94l186 -368l-139 -68zM324 442q0 -138 68.5 -210t185.5 -72t185 72t68 210v181q0 138 -68 210t-185 72t-185.5 -72t-68.5 -210v-181z" />
<glyph unicode="&#xf3;" horiz-adv-x="1155" d="M88 532q0 255 133.5 406.5t356.5 151.5t356 -151.5t133 -406.5t-133 -406t-356 -151t-356.5 151t-133.5 406zM324 442q0 -138 68.5 -210t185.5 -72t185 72t68 210v181q0 138 -68 210t-185 72t-185.5 -72t-68.5 -210v-181zM459 1260l186 368l195 -94l-242 -342z" />
<glyph unicode="&#xf4;" horiz-adv-x="1155" d="M88 532q0 255 133.5 406.5t356.5 151.5t356 -151.5t133 -406.5t-133 -406t-356 -151t-356.5 151t-133.5 406zM217 1286l246 307h225l246 -307l-115 -88l-244 240l-243 -240zM324 442q0 -138 68.5 -210t185.5 -72t185 72t68 210v181q0 138 -68 210t-185 72t-185.5 -72 t-68.5 -210v-181z" />
<glyph unicode="&#xf5;" horiz-adv-x="1155" d="M88 532q0 255 133.5 406.5t356.5 151.5t356 -151.5t133 -406.5t-133 -406t-356 -151t-356.5 151t-133.5 406zM213 1393q77 118 211 118q32 0 64 -9t47 -16t49 -24q100 -49 151 -49q55 0 119 55l84 -106q-77 -119 -211 -119q-32 0 -64 9t-47 16t-49 24q-100 49 -151 49 q-55 0 -119 -55zM324 442q0 -138 68.5 -210t185.5 -72t185 72t68 210v181q0 138 -68 210t-185 72t-185.5 -72t-68.5 -210v-181z" />
<glyph unicode="&#xf6;" horiz-adv-x="1155" d="M88 532q0 255 133.5 406.5t356.5 151.5t356 -151.5t133 -406.5t-133 -406t-356 -151t-356.5 151t-133.5 406zM244 1358v37q0 108 127 108t127 -108v-37q0 -109 -127 -109t-127 109zM324 442q0 -138 68.5 -210t185.5 -72t185 72t68 210v181q0 138 -68 210t-185 72 t-185.5 -72t-68.5 -210v-181zM653 1358v37q0 108 127 108t127 -108v-37q0 -109 -127 -109t-127 109z" />
<glyph unicode="&#xf7;" d="M137 535v182h955v-182h-955zM465 203v47q0 52 36 84.5t113 32.5t113.5 -32.5t36.5 -84.5v-47q0 -52 -36.5 -84.5t-113.5 -32.5t-113 32.5t-36 84.5zM465 999v48q0 52 36 84t113 32t113.5 -32.5t36.5 -83.5v-48q0 -51 -36.5 -83.5t-113.5 -32.5t-113 32t-36 84z" />
<glyph unicode="&#xf8;" horiz-adv-x="1167" d="M53 2l137 170q-96 148 -96 360q0 255 133.5 406.5t356.5 151.5q160 0 282 -86l125 151l123 -92l-139 -172q98 -143 98 -359q0 -255 -133 -406t-356 -151q-163 0 -283 84l-125 -149zM326 446q0 -56 12 -102l416 508q-68 59 -170 59q-118 0 -188 -76.5t-70 -216.5v-172z M414 211q63 -57 170 -57q118 0 188 76t70 216v172q0 53 -13 103z" />
<glyph unicode="&#xf9;" horiz-adv-x="1187" d="M150 387v678h223v-649q0 -248 205 -248q94 0 160.5 48t66.5 136v713h223v-1065h-223v176h-8q-75 -201 -299 -201q-165 0 -256.5 108t-91.5 304zM326 1534l194 94l187 -368l-140 -68z" />
<glyph unicode="&#xfa;" horiz-adv-x="1187" d="M150 387v678h223v-649q0 -248 205 -248q94 0 160.5 48t66.5 136v713h223v-1065h-223v176h-8q-75 -201 -299 -201q-165 0 -256.5 108t-91.5 304zM473 1260l186 368l195 -94l-242 -342z" />
<glyph unicode="&#xfb;" horiz-adv-x="1187" d="M150 387v678h223v-649q0 -248 205 -248q94 0 160.5 48t66.5 136v713h223v-1065h-223v176h-8q-75 -201 -299 -201q-165 0 -256.5 108t-91.5 304zM231 1286l246 307h225l246 -307l-114 -88l-244 240l-244 -240z" />
<glyph unicode="&#xfc;" horiz-adv-x="1187" d="M150 387v678h223v-649q0 -248 205 -248q94 0 160.5 48t66.5 136v713h223v-1065h-223v176h-8q-75 -201 -299 -201q-165 0 -256.5 108t-91.5 304zM258 1358v37q0 108 127 108t127 -108v-37q0 -109 -127 -109t-127 109zM668 1358v37q0 108 127 108t127 -108v-37 q0 -109 -127 -109t-127 109z" />
<glyph unicode="&#xfd;" horiz-adv-x="1052" d="M25 1065h223l213 -627l61 -231h10l68 231l213 627h215l-448 -1276q-39 -110 -99 -154.5t-182 -44.5h-129v183h180l62 180zM414 1260l186 368l195 -94l-242 -342z" />
<glyph unicode="&#xfe;" horiz-adv-x="1212" d="M160 -410v1926h223v-627h10q34 95 113.5 148t185.5 53q201 0 312.5 -147.5t111.5 -410.5t-111.5 -410t-312.5 -147q-106 0 -185.5 53.5t-113.5 147.5h-10v-586h-223zM383 350q0 -80 69.5 -131t172.5 -51q116 0 186 74.5t70 197.5v185q0 123 -70 197.5t-186 74.5 q-103 0 -172.5 -51t-69.5 -131v-365z" />
<glyph unicode="&#xff;" horiz-adv-x="1052" d="M25 1065h223l213 -627l61 -231h10l68 231l213 627h215l-448 -1276q-39 -110 -99 -154.5t-182 -44.5h-129v183h180l62 180zM199 1358v37q0 108 127 108t127 -108v-37q0 -109 -127 -109t-127 109zM608 1358v37q0 108 127 108t127 -108v-37q0 -109 -127 -109t-127 109z" />
<glyph unicode="&#x100;" horiz-adv-x="1355" d="M45 0l487 1430h291l488 -1430h-242l-129 387h-534l-125 -387h-236zM377 1634v170h598v-170h-598zM461 586h422l-205 631h-10z" />
<glyph unicode="&#x101;" horiz-adv-x="1124" d="M82 293q0 158 116 238.5t339 80.5h192v90q0 99 -54.5 152t-164.5 53q-163 0 -254 -145l-133 121q122 207 401 207q205 0 316.5 -97t111.5 -276v-535h113v-182h-125q-84 0 -132.5 48t-59.5 130h-11q-30 -99 -111.5 -151t-199.5 -52q-162 0 -253 86t-91 232zM231 1292v170 h598v-170h-598zM309 289q0 -70 48 -107t132 -37q105 0 172.5 46.5t67.5 123.5v154h-188q-232 0 -232 -143v-37z" />
<glyph unicode="&#x102;" horiz-adv-x="1355" d="M45 0l487 1430h291l488 -1430h-242l-129 387h-534l-125 -387h-236zM330 1841l123 64l41 -68q40 -66 78 -96.5t102 -30.5t102 30.5t78 96.5l41 68l123 -64q-15 -45 -30 -80t-43.5 -78t-63 -70.5t-88.5 -47t-119 -19.5t-119 19.5t-88.5 47t-63 70.5t-43.5 78t-30 80z M461 586h422l-205 631h-10z" />
<glyph unicode="&#x103;" horiz-adv-x="1124" d="M82 293q0 158 116 238.5t339 80.5h192v90q0 99 -54.5 152t-164.5 53q-163 0 -254 -145l-133 121q122 207 401 207q205 0 316.5 -97t111.5 -276v-535h113v-182h-125q-84 0 -132.5 48t-59.5 130h-11q-30 -99 -111.5 -151t-199.5 -52q-162 0 -253 86t-91 232zM184 1501 l123 62l43 -68q40 -65 78 -95t100 -30t100.5 30t78.5 95l43 68l122 -62q-16 -46 -30.5 -80.5t-43.5 -77.5t-63 -70.5t-88 -47t-119 -19.5t-119 19.5t-88 47t-63 70.5t-43.5 77.5t-30.5 80.5zM309 289q0 -70 48 -107t132 -37q105 0 172.5 46.5t67.5 123.5v154h-188 q-232 0 -232 -143v-37z" />
<glyph unicode="&#x104;" horiz-adv-x="1355" d="M45 0l487 1430h291l488 -1430q-133 -101 -175 -149.5t-42 -86.5q0 -65 69 -65q59 0 105 53l92 -90q-23 -41 -76.5 -65.5t-132.5 -24.5q-97 0 -159 40t-62 124q0 52 31.5 99t75 80t116.5 77l-2 8h-82l-129 387h-534l-125 -387h-236zM461 586h422l-205 631h-10z" />
<glyph unicode="&#x105;" horiz-adv-x="1124" d="M82 293q0 158 116 238.5t339 80.5h192v90q0 99 -54.5 152t-164.5 53q-163 0 -254 -145l-133 121q122 207 401 207q205 0 316.5 -97t111.5 -276v-535h113v-182q-131 -101 -173 -149.5t-42 -86.5q0 -65 70 -65q58 0 104 53l92 -90q-23 -41 -76.5 -65.5t-132.5 -24.5 q-97 0 -159 40t-62 124q0 76 56.5 134.5t168.5 123.5l-4 8q-68 9 -109 56t-50 120h-11q-30 -99 -111.5 -151t-199.5 -52q-162 0 -253 86t-91 232zM309 289q0 -70 48 -107t132 -37q105 0 172.5 46.5t67.5 123.5v154h-188q-232 0 -232 -143v-37z" />
<glyph unicode="&#x106;" horiz-adv-x="1298" d="M113 715q0 356 158.5 547.5t441.5 191.5q364 0 510 -324l-195 -106q-81 223 -315 223q-165 0 -260 -113t-95 -311v-217q0 -198 95 -311t260 -113q122 0 205.5 64t123.5 174l187 -113q-74 -159 -204 -245.5t-312 -86.5q-283 0 -441.5 192t-158.5 548zM590 1599l186 369 l195 -94l-242 -340z" />
<glyph unicode="&#x107;" horiz-adv-x="1044" d="M88 532q0 258 127.5 408t355.5 150q155 0 259 -70t153 -193l-184 -86q-24 76 -82 119t-146 43q-120 0 -183.5 -74.5t-63.5 -201.5v-191q0 -127 63.5 -201.5t183.5 -74.5q175 0 250 176l170 -90q-53 -131 -160 -201t-260 -70q-228 0 -355.5 149.5t-127.5 407.5zM449 1260 l186 368l194 -94l-241 -342z" />
<glyph unicode="&#x108;" horiz-adv-x="1298" d="M113 715q0 356 158.5 547.5t441.5 191.5q364 0 510 -324l-195 -106q-81 223 -315 223q-165 0 -260 -113t-95 -311v-217q0 -198 95 -311t260 -113q122 0 205.5 64t123.5 174l187 -113q-74 -159 -204 -245.5t-312 -86.5q-283 0 -441.5 192t-158.5 548zM348 1626l246 307 h225l246 -307l-115 -86l-243 238l-244 -238z" />
<glyph unicode="&#x109;" horiz-adv-x="1044" d="M88 532q0 258 127.5 408t355.5 150q155 0 259 -70t153 -193l-184 -86q-24 76 -82 119t-146 43q-120 0 -183.5 -74.5t-63.5 -201.5v-191q0 -127 63.5 -201.5t183.5 -74.5q175 0 250 176l170 -90q-53 -131 -160 -201t-260 -70q-228 0 -355.5 149.5t-127.5 407.5zM207 1286 l246 307h225l246 -307l-115 -88l-244 240l-243 -240z" />
<glyph unicode="&#x10a;" horiz-adv-x="1298" d="M113 715q0 356 158.5 547.5t441.5 191.5q364 0 510 -324l-195 -106q-81 223 -315 223q-165 0 -260 -113t-95 -311v-217q0 -198 95 -311t260 -113q122 0 205.5 64t123.5 174l187 -113q-74 -159 -204 -245.5t-312 -86.5q-283 0 -441.5 192t-158.5 548zM563 1696v43 q0 57 35.5 90t108.5 33t108 -33t35 -90v-43q0 -57 -35 -90t-108 -33t-108.5 33t-35.5 90z" />
<glyph unicode="&#x10b;" horiz-adv-x="1044" d="M88 532q0 258 127.5 408t355.5 150q155 0 259 -70t153 -193l-184 -86q-24 76 -82 119t-146 43q-120 0 -183.5 -74.5t-63.5 -201.5v-191q0 -127 63.5 -201.5t183.5 -74.5q175 0 250 176l170 -90q-53 -131 -160 -201t-260 -70q-228 0 -355.5 149.5t-127.5 407.5zM428 1356 v37q0 54 33.5 85t103.5 31t103.5 -31t33.5 -85v-37q0 -54 -33.5 -85.5t-103.5 -31.5t-103.5 31.5t-33.5 85.5z" />
<glyph unicode="&#x10c;" horiz-adv-x="1298" d="M113 715q0 356 158.5 547.5t441.5 191.5q364 0 510 -324l-195 -106q-81 223 -315 223q-165 0 -260 -113t-95 -311v-217q0 -198 95 -311t260 -113q122 0 205.5 64t123.5 174l187 -113q-74 -159 -204 -245.5t-312 -86.5q-283 0 -441.5 192t-158.5 548zM348 1864l115 86 l244 -238l243 238l115 -86l-246 -308h-225z" />
<glyph unicode="&#x10d;" horiz-adv-x="1044" d="M88 532q0 258 127.5 408t355.5 150q155 0 259 -70t153 -193l-184 -86q-24 76 -82 119t-146 43q-120 0 -183.5 -74.5t-63.5 -201.5v-191q0 -127 63.5 -201.5t183.5 -74.5q175 0 250 176l170 -90q-53 -131 -160 -201t-260 -70q-228 0 -355.5 149.5t-127.5 407.5zM207 1524 l115 86l243 -238l244 238l115 -86l-246 -307h-225z" />
<glyph unicode="&#x10e;" horiz-adv-x="1398" d="M176 0v1430h506q281 0 442.5 -182.5t161.5 -532.5t-161.5 -532.5t-442.5 -182.5h-506zM285 1864l114 86l244 -238l244 238l114 -86l-245 -308h-226zM408 205h274q163 0 259.5 102.5t96.5 292.5v229q0 190 -96.5 293t-259.5 103h-274v-1020z" />
<glyph unicode="&#x10f;" horiz-adv-x="1302" d="M96 532q0 263 111.5 410.5t312.5 147.5q106 0 185.5 -53t113.5 -148h10v627h224v-1516h-224v176h-10q-34 -94 -113.5 -147.5t-185.5 -53.5q-201 0 -312.5 147t-111.5 410zM332 440q0 -123 70 -197.5t186 -74.5q103 0 172 50.5t69 131.5v365q0 81 -69 131.5t-172 50.5 q-116 0 -186 -74.5t-70 -197.5v-185zM1167 1110l21 406h246l-119 -406h-148z" />
<glyph unicode="&#x110;" horiz-adv-x="1406" d="M27 655v176h157v599h506q281 0 442.5 -182.5t161.5 -532.5t-161.5 -532.5t-442.5 -182.5h-506v655h-157zM416 205h274q163 0 260 102.5t97 292.5v229q0 190 -97 293t-260 103h-274v-394h266v-176h-266v-450z" />
<glyph unicode="&#x111;" horiz-adv-x="1212" d="M96 532q0 263 111.5 410.5t312.5 147.5q106 0 185.5 -53t113.5 -148h10v340h-299v162h299v125h224v-125h129v-162h-129v-1229h-224v176h-10q-34 -94 -113.5 -147.5t-185.5 -53.5q-201 0 -312.5 147t-111.5 410zM332 440q0 -123 70 -197.5t186 -74.5q103 0 172 50.5 t69 131.5v365q0 81 -69 131.5t-172 50.5q-116 0 -186 -74.5t-70 -197.5v-185z" />
<glyph unicode="&#x112;" horiz-adv-x="1214" d="M176 0v1430h916v-205h-684v-398h620v-204h-620v-418h684v-205h-916zM334 1634v170h598v-170h-598z" />
<glyph unicode="&#x113;" horiz-adv-x="1138" d="M88 532q0 256 132 407t358 151q152 0 260.5 -72t160.5 -190.5t52 -268.5v-84h-732v-35q0 -126 74.5 -203t206.5 -77q182 0 281 159l131 -129q-62 -99 -175 -157t-259 -58q-227 0 -358.5 150.5t-131.5 406.5zM281 1292v170h598v-170h-598zM319 623h496v20q0 124 -63.5 198 t-173.5 74q-115 0 -187 -77.5t-72 -200.5v-14z" />
<glyph unicode="&#x114;" horiz-adv-x="1214" d="M176 0v1430h916v-205h-684v-398h620v-204h-620v-418h684v-205h-916zM287 1841l123 64l41 -68q40 -66 78 -96.5t102 -30.5t102 30.5t78 96.5l41 68l123 -64q-15 -45 -30 -80t-43.5 -78t-63 -70.5t-88.5 -47t-119 -19.5t-119 19.5t-88.5 47t-63 70.5t-43.5 78t-30 80z" />
<glyph unicode="&#x115;" horiz-adv-x="1138" d="M88 532q0 256 132 407t358 151q152 0 260.5 -72t160.5 -190.5t52 -268.5v-84h-732v-35q0 -126 74.5 -203t206.5 -77q182 0 281 159l131 -129q-62 -99 -175 -157t-259 -58q-227 0 -358.5 150.5t-131.5 406.5zM233 1501l123 62l43 -68q40 -65 78.5 -95t100.5 -30t100 30 t78 95l43 68l123 -62q-16 -46 -30.5 -80.5t-43.5 -77.5t-63 -70.5t-88 -47t-119 -19.5t-119 19.5t-88 47t-63 70.5t-44 77.5t-31 80.5zM319 623h496v20q0 124 -63.5 198t-173.5 74q-115 0 -187 -77.5t-72 -200.5v-14z" />
<glyph unicode="&#x116;" horiz-adv-x="1214" d="M176 0v1430h916v-205h-684v-398h620v-204h-620v-418h684v-205h-916zM489 1696v43q0 57 35.5 90t108.5 33t108 -33t35 -90v-43q0 -57 -35 -90t-108 -33t-108.5 33t-35.5 90z" />
<glyph unicode="&#x117;" horiz-adv-x="1138" d="M88 532q0 256 132 407t358 151q152 0 260.5 -72t160.5 -190.5t52 -268.5v-84h-732v-35q0 -126 74.5 -203t206.5 -77q182 0 281 159l131 -129q-62 -99 -175 -157t-259 -58q-227 0 -358.5 150.5t-131.5 406.5zM319 623h496v20q0 124 -63.5 198t-173.5 74q-115 0 -187 -77.5 t-72 -200.5v-14zM442 1356v37q0 54 34 85t104 31t103.5 -31t33.5 -85v-37q0 -54 -33.5 -85.5t-103.5 -31.5t-104 31.5t-34 85.5z" />
<glyph unicode="&#x118;" horiz-adv-x="1214" d="M176 0v1430h916v-205h-684v-398h620v-204h-620v-418h684v-205q-130 -101 -171.5 -149.5t-41.5 -86.5q0 -65 69 -65q59 0 105 53l92 -90q-23 -41 -76.5 -65.5t-132.5 -24.5q-97 0 -159 40t-62 124q0 76 57 134.5t166 119.5l-2 10h-760z" />
<glyph unicode="&#x119;" horiz-adv-x="1136" d="M88 532q0 255 129.5 406.5t355.5 151.5q115 0 206.5 -41.5t150 -114t89 -168t30.5 -207.5v-84h-730v-35q0 -126 74 -203t209 -77q92 0 163.5 42t115.5 115l131 -127q-33 -50 -133 -137q-19 -19 -59 -56.5t-62.5 -60.5t-50 -55t-40 -61t-12.5 -56q0 -65 70 -65 q58 0 104 53l91 -90q-49 -90 -209 -90q-96 0 -156.5 40t-60.5 124q0 81 57.5 139t161.5 115l-4 8q-71 -23 -134 -23q-226 0 -356.5 150.5t-130.5 406.5zM319 623h494v20q0 124 -63.5 198t-174.5 74q-115 0 -185.5 -77t-70.5 -201v-14z" />
<glyph unicode="&#x11a;" horiz-adv-x="1214" d="M176 0v1430h916v-205h-684v-398h620v-204h-620v-418h684v-205h-916zM274 1864l115 86l244 -238l244 238l114 -86l-246 -308h-225z" />
<glyph unicode="&#x11b;" horiz-adv-x="1138" d="M88 532q0 256 132 407t358 151q152 0 260.5 -72t160.5 -190.5t52 -268.5v-84h-732v-35q0 -126 74.5 -203t206.5 -77q182 0 281 159l131 -129q-62 -99 -175 -157t-259 -58q-227 0 -358.5 150.5t-131.5 406.5zM221 1524l115 86l244 -238l243 238l115 -86l-246 -307h-225z M319 623h496v20q0 124 -63.5 198t-173.5 74q-115 0 -187 -77.5t-72 -200.5v-14z" />
<glyph unicode="&#x11c;" horiz-adv-x="1443" d="M113 715q0 352 169 545.5t455 193.5q188 0 323 -83.5t210 -237.5l-189 -111q-43 104 -130.5 164.5t-213.5 60.5q-171 0 -274 -111t-103 -305v-233q0 -194 103 -305t274 -111q143 0 240.5 71.5t97.5 199.5v110h-295v199h518v-762h-202v217h-9q-23 -107 -125 -174.5 t-260 -67.5q-128 0 -235.5 49t-186.5 141t-123 233t-44 317zM373 1626l245 307h226l246 -307l-115 -86l-244 238l-244 -238z" />
<glyph unicode="&#x11d;" horiz-adv-x="1112" d="M70 -178q0 165 182 205v22q-58 19 -89.5 61.5t-31.5 102.5q0 142 191 188v9q-95 44 -146 126t-51 189q0 165 113 265t311 100q95 0 178 -25h342v-162h-149q57 -72 57 -178q0 -164 -112.5 -262t-313.5 -98q-73 0 -139 16q-44 -15 -73.5 -42.5t-29.5 -64.5q0 -79 150 -79 h262q373 0 373 -295q0 -169 -129 -251.5t-412 -82.5q-253 0 -368 65t-115 191zM193 1286l245 307h226l245 -307l-114 -88l-244 240l-244 -240zM256 -127q0 -145 229 -145h140q260 0 260 147q0 121 -195 121h-360q-74 -44 -74 -123zM344 707q0 -90 53.5 -135.5t153.5 -45.5 t153.5 45.5t53.5 135.5v41q0 89 -53.5 134.5t-153.5 45.5t-153.5 -45.5t-53.5 -134.5v-41z" />
<glyph unicode="&#x11e;" horiz-adv-x="1443" d="M113 715q0 352 169 545.5t455 193.5q188 0 323 -83.5t210 -237.5l-189 -111q-43 104 -130.5 164.5t-213.5 60.5q-171 0 -274 -111t-103 -305v-233q0 -194 103 -305t274 -111q143 0 240.5 71.5t97.5 199.5v110h-295v199h518v-762h-202v217h-9q-23 -107 -125 -174.5 t-260 -67.5q-128 0 -235.5 49t-186.5 141t-123 233t-44 317zM385 1841l123 64l41 -68q40 -66 78 -96.5t102 -30.5t102 30.5t78 96.5l41 68l123 -64q-15 -45 -30 -80t-43.5 -78t-63 -70.5t-88.5 -47t-119 -19.5t-119 19.5t-88.5 47t-63 70.5t-43.5 78t-30 80z" />
<glyph unicode="&#x11f;" horiz-adv-x="1112" d="M70 -178q0 165 182 205v22q-58 19 -89.5 61.5t-31.5 102.5q0 142 191 188v9q-95 44 -146 126t-51 189q0 165 113 265t311 100q95 0 178 -25h342v-162h-149q57 -72 57 -178q0 -164 -112.5 -262t-313.5 -98q-73 0 -139 16q-44 -15 -73.5 -42.5t-29.5 -64.5q0 -79 150 -79 h262q373 0 373 -295q0 -169 -129 -251.5t-412 -82.5q-253 0 -368 65t-115 191zM205 1501l123 62l43 -68q40 -65 78 -95t100 -30t100 30t78 95l43 68l123 -62q-16 -46 -30.5 -80.5t-43.5 -77.5t-63 -70.5t-88 -47t-119 -19.5t-119 19.5t-88 47t-63 70.5t-43.5 77.5 t-30.5 80.5zM256 -127q0 -145 229 -145h140q260 0 260 147q0 121 -195 121h-360q-74 -44 -74 -123zM344 707q0 -90 53.5 -135.5t153.5 -45.5t153.5 45.5t53.5 135.5v41q0 89 -53.5 134.5t-153.5 45.5t-153.5 -45.5t-53.5 -134.5v-41z" />
<glyph unicode="&#x120;" horiz-adv-x="1443" d="M113 715q0 352 169 545.5t455 193.5q188 0 323 -83.5t210 -237.5l-189 -111q-43 104 -130.5 164.5t-213.5 60.5q-171 0 -274 -111t-103 -305v-233q0 -194 103 -305t274 -111q143 0 240.5 71.5t97.5 199.5v110h-295v199h518v-762h-202v217h-9q-23 -107 -125 -174.5 t-260 -67.5q-128 0 -235.5 49t-186.5 141t-123 233t-44 317zM588 1696v43q0 57 35 90t108 33t108 -33t35 -90v-43q0 -57 -35 -90t-108 -33t-108 33t-35 90z" />
<glyph unicode="&#x121;" horiz-adv-x="1099" d="M70 -178q0 165 182 205v22q-58 19 -89.5 61.5t-31.5 102.5q0 142 188 188v9q-94 44 -144 126t-50 189q0 166 112.5 265.5t311.5 99.5q113 0 192 -33v28q0 72 35.5 112t104.5 40h163v-180h-217v-43q72 -47 111 -122t39 -167q0 -164 -113 -262t-313 -98q-77 0 -139 16 q-44 -15 -73.5 -42.5t-29.5 -64.5q0 -79 150 -79h262q373 0 373 -295q0 -169 -129 -251.5t-412 -82.5q-253 0 -368 65t-115 191zM256 -127q0 -145 229 -145h140q260 0 260 147q0 121 -195 121h-360q-74 -44 -74 -123zM344 707q0 -90 53.5 -135.5t153.5 -45.5t153.5 45.5 t53.5 135.5v41q0 89 -53.5 134.5t-153.5 45.5t-153.5 -45.5t-53.5 -134.5v-41zM414 1356v37q0 54 33.5 85t103.5 31t103.5 -31t33.5 -85v-37q0 -54 -33.5 -85.5t-103.5 -31.5t-103.5 31.5t-33.5 85.5z" />
<glyph unicode="&#x122;" horiz-adv-x="1443" d="M113 715q0 352 169 545.5t455 193.5q188 0 323 -83.5t210 -237.5l-189 -111q-43 104 -130.5 164.5t-213.5 60.5q-171 0 -274 -111t-103 -305v-233q0 -194 103 -305t274 -111q143 0 240.5 71.5t97.5 199.5v110h-295v199h518v-762h-202v217h-9q-23 -107 -125 -174.5 t-260 -67.5q-128 0 -235.5 49t-186.5 141t-123 233t-44 317zM563 -528q48 46 74 86t39 92q-42 6 -63 34.5t-21 69.5v23q0 52 31 80t90 28t90 -28t31 -80v-25q0 -79 -36.5 -155t-92.5 -125h-142z" />
<glyph unicode="&#x123;" horiz-adv-x="1099" d="M70 -178q0 165 182 205v22q-58 19 -89.5 61.5t-31.5 102.5q0 142 188 188v9q-94 44 -144 126t-50 189q0 166 112.5 265.5t311.5 99.5q113 0 192 -33v28q0 72 35.5 112t104.5 40h163v-180h-217v-43q72 -47 111 -122t39 -167q0 -164 -113 -262t-313 -98q-77 0 -139 16 q-44 -15 -73.5 -42.5t-29.5 -64.5q0 -79 150 -79h262q373 0 373 -295q0 -169 -129 -251.5t-412 -82.5q-253 0 -368 65t-115 191zM256 -127q0 -145 229 -145h140q260 0 260 147q0 121 -195 121h-360q-74 -44 -74 -123zM344 707q0 -90 53.5 -135.5t153.5 -45.5t153.5 45.5 t53.5 135.5v41q0 89 -53.5 134.5t-153.5 45.5t-153.5 -45.5t-53.5 -134.5v-41zM430 1311v26q0 79 36.5 154.5t92.5 124.5h141q-88 -82 -112 -178q42 -6 63 -35t21 -70v-22q0 -51 -31.5 -80t-89.5 -29t-89.5 29t-31.5 80z" />
<glyph unicode="&#x124;" horiz-adv-x="1462" d="M176 0v1430h232v-603h647v603h231v-1430h-231v623h-647v-623h-232zM373 1626l245 307h226l246 -307l-115 -86l-244 238l-244 -238z" />
<glyph unicode="&#x125;" horiz-adv-x="1187" d="M-84 1610l246 307h225l246 -307l-115 -88l-244 239l-243 -239zM160 0v1516h223v-627h10q79 201 299 201q163 0 254.5 -109t91.5 -305v-676h-223v649q0 248 -201 248q-95 0 -163 -47.5t-68 -134.5v-715h-223z" />
<glyph unicode="&#x126;" horiz-adv-x="1478" d="M39 1051v174h145v205h232v-205h647v205h231v-205h146v-174h-146v-1051h-231v623h-647v-623h-232v1051h-145zM416 827h647v224h-647v-224z" />
<glyph unicode="&#x127;" horiz-adv-x="1187" d="M31 1229v162h129v125h223v-125h299v-162h-299v-340h10q82 201 299 201q164 0 255 -108.5t91 -305.5v-676h-223v649q0 248 -201 248q-95 0 -163 -47.5t-68 -134.5v-715h-223v1229h-129z" />
<glyph unicode="&#x128;" horiz-adv-x="851" d="M61 1733q77 118 211 118q32 0 64 -9t47 -16t49 -24q96 -47 152 -47t118 53l84 -106q-77 -119 -211 -119q-31 0 -64 9t-46.5 15.5t-48.5 24.5q-96 47 -152 47q-57 0 -119 -53zM115 0v188h194v1053h-194v189h622v-189h-196v-1053h196v-188h-622z" />
<glyph unicode="&#x129;" horiz-adv-x="542" d="M-90 1393q77 118 211 118q32 0 64 -9t47 -16t49 -24q100 -49 151 -49q55 0 119 55l84 -106q-77 -119 -211 -119q-32 0 -64 9t-47 16t-49 24q-100 49 -151 49q-55 0 -119 -55zM160 0v1065h223v-1065h-223z" />
<glyph unicode="&#x12a;" horiz-adv-x="851" d="M115 0v188h194v1053h-194v189h622v-189h-196v-1053h196v-188h-622zM125 1634v170h598v-170h-598z" />
<glyph unicode="&#x12b;" horiz-adv-x="542" d="M-27 1292v170h598v-170h-598zM160 0v1065h223v-1065h-223z" />
<glyph unicode="&#x12c;" horiz-adv-x="851" d="M78 1841l123 64l41 -68q40 -66 78 -96.5t102 -30.5t102 30.5t78 96.5l41 68l123 -64q-15 -45 -30 -80t-43.5 -78t-63 -70.5t-88.5 -47t-119 -19.5t-119 19.5t-88.5 47t-63 70.5t-43.5 78t-30 80zM115 0v188h194v1053h-194v189h622v-189h-196v-1053h196v-188h-622z" />
<glyph unicode="&#x12d;" horiz-adv-x="542" d="M-74 1501l123 62l43 -68q40 -65 78 -95t100 -30t100.5 30t78.5 95l43 68l122 -62q-16 -46 -30.5 -80.5t-43.5 -77.5t-63 -70.5t-88 -47t-119 -19.5t-119 19.5t-88 47t-63 70.5t-43.5 77.5t-30.5 80.5zM160 0v1065h223v-1065h-223z" />
<glyph unicode="&#x12e;" horiz-adv-x="851" d="M115 0v188h194v1053h-194v189h622v-189h-196v-1053h196v-188q-131 -101 -173 -149.5t-42 -86.5q0 -65 70 -65q58 0 104 53l95 -90q-53 -90 -211 -90q-97 0 -158.5 40t-61.5 124q0 75 54.5 132.5t167.5 121.5l-2 10h-465z" />
<glyph unicode="&#x12f;" horiz-adv-x="542" d="M6 -264q0 52 31.5 99t75 80t116.5 77l-2 8h-67v1065h223v-1065q-131 -102 -173 -150t-42 -86q0 -65 70 -65q58 0 104 53l94 -90q-23 -41 -77 -65.5t-134 -24.5q-97 0 -158 40t-61 124zM139 1372v35q0 53 33.5 85t99.5 32t98.5 -31.5t32.5 -85.5v-35q0 -54 -32.5 -85.5 t-98.5 -31.5t-99.5 32t-33.5 85z" />
<glyph unicode="&#x130;" horiz-adv-x="851" d="M115 0v188h194v1053h-194v189h622v-189h-196v-1053h196v-188h-622zM281 1696v43q0 57 35 90t108 33t108 -33t35 -90v-43q0 -57 -35 -90t-108 -33t-108 33t-35 90z" />
<glyph unicode="&#x131;" horiz-adv-x="542" d="M160 0v1065h223v-1065h-223z" />
<glyph unicode="&#x132;" horiz-adv-x="1331" d="M168 610v820h231v-820h-231zM180 342l213 47q21 -96 90 -151.5t185 -55.5q121 0 192.5 63.5t71.5 190.5v799h-254v195h485v-981q0 -219 -134 -346.5t-363 -127.5q-207 0 -330.5 99.5t-155.5 267.5z" />
<glyph unicode="&#x133;" horiz-adv-x="1077" d="M139 1372v35q0 53 33.5 85t99.5 32t98.5 -31.5t32.5 -85.5v-35q0 -54 -32.5 -85.5t-98.5 -31.5t-99.5 32t-33.5 85zM160 0v1065h223v-1065h-223zM528 -227h166v1292h224v-1208q0 -127 -65 -197t-196 -70h-129v183zM674 1372v35q0 53 33.5 85t99.5 32t98.5 -31.5 t32.5 -85.5v-35q0 -54 -32.5 -85.5t-98.5 -31.5t-99.5 32t-33.5 85z" />
<glyph unicode="&#x134;" horiz-adv-x="1087" d="M55 334l213 47q41 -199 217 -199q95 0 149 59t54 173v823h-467v193h699v-1041q0 -188 -118.5 -301t-316.5 -113q-180 0 -290 96.5t-140 262.5zM215 1626l246 307h225l246 -307l-115 -86l-244 238l-243 -238z" />
<glyph unicode="&#x135;" horiz-adv-x="542" d="M-86 1286l246 307h225l246 -307l-115 -88l-244 240l-243 -240zM-6 -227h166v1292h223v-1208q0 -127 -64.5 -197t-195.5 -70h-129v183z" />
<glyph unicode="&#x136;" horiz-adv-x="1351" d="M176 0v1430h232v-725h8l205 260l385 465h270l-510 -603l551 -827h-279l-434 668l-196 -226v-442h-232zM561 -528q48 46 74 86t39 92q-42 6 -63 34.5t-21 69.5v23q0 52 31 80t90 28q58 0 89 -27.5t31 -80.5v-25q0 -79 -36.5 -155t-92.5 -125h-141z" />
<glyph unicode="&#x137;" horiz-adv-x="1120" d="M160 0v1516h223v-930h10l148 190l256 289h260l-373 -412l418 -653h-266l-306 508l-147 -160v-348h-223zM475 -528q48 46 74 86t39 92q-42 6 -63 34.5t-21 69.5v23q0 52 31 80t90 28q58 0 89 -27.5t31 -80.5v-25q0 -79 -36.5 -155t-92.5 -125h-141z" />
<glyph unicode="&#x138;" horiz-adv-x="1120" d="M160 0v1065h223v-479h10l154 184l272 295h260l-391 -416l414 -649h-264l-308 502l-147 -154v-348h-223z" />
<glyph unicode="&#x139;" horiz-adv-x="1050" d="M176 0v1430h232v-1225h581v-205h-813zM176 1599l186 369l195 -94l-242 -340z" />
<glyph unicode="&#x13a;" horiz-adv-x="583" d="M156 1669l186 369l195 -94l-242 -342zM160 221v1295h223v-1334h147v-182h-143q-112 0 -169.5 58t-57.5 163z" />
<glyph unicode="&#x13b;" horiz-adv-x="1050" d="M176 0v1430h232v-1225h581v-205h-813zM449 -528q48 46 73.5 86t38.5 92q-42 6 -63 34.5t-21 69.5v23q0 52 31 80t90 28t90 -28t31 -80v-25q0 -79 -36.5 -155t-92.5 -125h-141z" />
<glyph unicode="&#x13c;" horiz-adv-x="583" d="M160 221v1295h223v-1334h147v-182h-143q-112 0 -169.5 58t-57.5 163zM195 -528q48 46 73.5 86t38.5 92q-42 6 -63 34.5t-21 69.5v23q0 52 31 80t90 28t90 -28t31 -80v-25q0 -79 -36.5 -155t-92.5 -125h-141z" />
<glyph unicode="&#x13d;" horiz-adv-x="1050" d="M176 0v1430h232v-1225h581v-205h-813zM563 1110l21 406h245l-118 -406h-148z" />
<glyph unicode="&#x13e;" horiz-adv-x="634" d="M160 221v1295h223v-1334h147v-182h-143q-112 0 -169.5 58t-57.5 163zM498 1110l20 406h246l-119 -406h-147z" />
<glyph unicode="&#x13f;" horiz-adv-x="1050" d="M176 0v1430h232v-1225h581v-205h-813zM678 741v37q0 54 33.5 85.5t103.5 31.5t103.5 -31.5t33.5 -85.5v-37q0 -54 -33.5 -85t-103.5 -31t-103.5 31t-33.5 85z" />
<glyph unicode="&#x140;" horiz-adv-x="811" d="M160 221v1295h223v-1334h147v-182h-143q-112 0 -169.5 58t-57.5 163zM539 653v37q0 54 33.5 85.5t103.5 31.5t103.5 -31.5t33.5 -85.5v-37q0 -54 -33.5 -85t-103.5 -31t-103.5 31t-33.5 85z" />
<glyph unicode="&#x141;" horiz-adv-x="1069" d="M-14 465v178l198 66v721h232v-646l350 117v-182l-350 -115v-399h581v-205h-813v530z" />
<glyph unicode="&#x142;" horiz-adv-x="598" d="M18 590v176l150 49v701h223v-627l211 69v-176l-211 -69v-531h148v-182h-144q-112 0 -169.5 58t-57.5 163v418z" />
<glyph unicode="&#x143;" horiz-adv-x="1462" d="M176 0v1430h258l467 -791l158 -303h6v1094h221v-1430h-258l-467 791l-158 303h-6v-1094h-221zM614 1599l187 369l194 -94l-241 -340z" />
<glyph unicode="&#x144;" horiz-adv-x="1187" d="M160 0v1065h223v-176h10q79 201 299 201q163 0 254.5 -109t91.5 -305v-676h-223v647q0 250 -201 250q-95 0 -163 -48t-68 -136v-713h-223zM483 1260l187 368l194 -94l-241 -342z" />
<glyph unicode="&#x145;" horiz-adv-x="1462" d="M176 0v1430h258l467 -791l158 -303h6v1094h221v-1430h-258l-467 791l-158 303h-6v-1094h-221zM580 -528q48 46 73.5 86t38.5 92q-42 6 -63 34.5t-21 69.5v23q0 52 31 80t90 28t90 -28t31 -80v-25q0 -79 -36.5 -155t-92.5 -125h-141z" />
<glyph unicode="&#x146;" horiz-adv-x="1187" d="M160 0v1065h223v-176h10q79 201 299 201q163 0 254.5 -109t91.5 -305v-676h-223v647q0 250 -201 250q-95 0 -163 -48t-68 -136v-713h-223zM449 -528q48 46 73.5 86t38.5 92q-42 6 -63 34.5t-21 69.5v23q0 52 31 80t90 28t90 -28t31 -80v-25q0 -79 -36.5 -155t-92.5 -125 h-141z" />
<glyph unicode="&#x147;" horiz-adv-x="1462" d="M176 0v1430h258l467 -791l158 -303h6v1094h221v-1430h-258l-467 791l-158 303h-6v-1094h-221zM373 1864l114 86l244 -238l244 238l115 -86l-246 -308h-226z" />
<glyph unicode="&#x148;" horiz-adv-x="1187" d="M160 0v1065h223v-176h10q79 201 299 201q163 0 254.5 -109t91.5 -305v-676h-223v647q0 250 -201 250q-95 0 -163 -48t-68 -136v-713h-223zM242 1524l114 86l244 -238l244 238l114 -86l-245 -307h-226z" />
<glyph unicode="&#x149;" horiz-adv-x="1728" d="M84 981q131 128 170 258q-51 10 -77.5 44t-26.5 83v37q0 61 36.5 97t110.5 36t110.5 -36t36.5 -97v-35q0 -98 -55 -206t-145 -181h-160zM700 0v1065h224v-176h10q79 201 299 201q163 0 254.5 -109t91.5 -305v-676h-223v647q0 250 -201 250q-95 0 -163 -48t-68 -136v-713 h-224z" />
<glyph unicode="&#x14a;" horiz-adv-x="1462" d="M176 0v1430h258l467 -791l158 -303h6v1094h221v-1567q0 -129 -66 -201t-196 -72h-133v189h174v221h-37l-467 791l-158 303h-6v-1094h-221z" />
<glyph unicode="&#x14b;" horiz-adv-x="1187" d="M160 0v1065h223v-176h10q79 201 299 201q163 0 254.5 -109t91.5 -305v-821q0 -127 -64 -196t-194 -69h-131v183h166v876q0 125 -49.5 186.5t-151.5 61.5q-96 0 -163.5 -47t-67.5 -135v-715h-223z" />
<glyph unicode="&#x14c;" horiz-adv-x="1458" d="M113 715q0 355 165.5 547t450.5 192t451 -192t166 -547t-166 -547.5t-451 -192.5t-450.5 192.5t-165.5 547.5zM360 602q0 -193 101 -306.5t268 -113.5t268 113.5t101 306.5v225q0 193 -101 306.5t-268 113.5t-268 -113.5t-101 -306.5v-225zM430 1634v170h598v-170h-598z " />
<glyph unicode="&#x14d;" horiz-adv-x="1155" d="M88 532q0 255 133.5 406.5t356.5 151.5t356 -151.5t133 -406.5t-133 -406t-356 -151t-356.5 151t-133.5 406zM276 1292v170h598v-170h-598zM324 442q0 -138 68.5 -210t185.5 -72t185 72t68 210v181q0 138 -68 210t-185 72t-185.5 -72t-68.5 -210v-181z" />
<glyph unicode="&#x14e;" horiz-adv-x="1458" d="M113 715q0 355 165.5 547t450.5 192t451 -192t166 -547t-166 -547.5t-451 -192.5t-450.5 192.5t-165.5 547.5zM360 602q0 -193 101 -306.5t268 -113.5t268 113.5t101 306.5v225q0 193 -101 306.5t-268 113.5t-268 -113.5t-101 -306.5v-225zM383 1841l123 64l41 -68 q40 -66 78 -96.5t102 -30.5t102 30.5t78 96.5l41 68l123 -64q-15 -45 -30 -80t-43.5 -78t-63 -70.5t-88.5 -47t-119 -19.5t-119 19.5t-88.5 47t-63 70.5t-43.5 78t-30 80z" />
<glyph unicode="&#x14f;" horiz-adv-x="1155" d="M88 532q0 255 133.5 406.5t356.5 151.5t356 -151.5t133 -406.5t-133 -406t-356 -151t-356.5 151t-133.5 406zM229 1501l123 62l43 -68q40 -65 78 -95t100 -30t100.5 30t78.5 95l43 68l123 -62q-16 -46 -31 -80.5t-44 -77.5t-63 -70.5t-88 -47t-119 -19.5t-119 19.5 t-88 47t-63 70.5t-43.5 77.5t-30.5 80.5zM324 442q0 -138 68.5 -210t185.5 -72t185 72t68 210v181q0 138 -68 210t-185 72t-185.5 -72t-68.5 -210v-181z" />
<glyph unicode="&#x150;" horiz-adv-x="1458" d="M113 715q0 355 165.5 547t450.5 192t451 -192t166 -547t-166 -547.5t-451 -192.5t-450.5 192.5t-165.5 547.5zM360 602q0 -193 101 -306.5t268 -113.5t268 113.5t101 306.5v225q0 193 -101 306.5t-268 113.5t-268 -113.5t-101 -306.5v-225zM438 1593l187 371l182 -90 l-242 -340zM805 1593l186 371l183 -90l-242 -340z" />
<glyph unicode="&#x151;" horiz-adv-x="1155" d="M88 532q0 255 133.5 406.5t356.5 151.5t356 -151.5t133 -406.5t-133 -406t-356 -151t-356.5 151t-133.5 406zM285 1253l186 371l182 -90l-241 -340zM324 442q0 -138 68.5 -210t185.5 -72t185 72t68 210v181q0 138 -68 210t-185 72t-185.5 -72t-68.5 -210v-181zM651 1253 l187 371l182 -90l-242 -340z" />
<glyph unicode="&#x152;" horiz-adv-x="2027" d="M113 715q0 357 167.5 548t462.5 191q128 0 258 -24h904v-205h-684v-398h620v-204h-620v-418h684v-205h-910q-125 -25 -252 -25q-295 0 -462.5 191.5t-167.5 548.5zM360 602q0 -198 101.5 -309t294.5 -111q129 0 233 29v1008q-112 28 -233 28q-193 0 -294.5 -111 t-101.5 -309v-225z" />
<glyph unicode="&#x153;" horiz-adv-x="1886" d="M88 532q0 255 133.5 406.5t356.5 151.5q127 0 221 -51t143 -150h12q45 94 142.5 147.5t230.5 53.5q218 0 344.5 -146t126.5 -385v-84h-731v-35q0 -126 75 -203t210 -77q181 0 280 159l131 -129q-62 -100 -172 -157.5t-254 -57.5q-140 0 -240.5 55.5t-142.5 143.5h-12 q-44 -90 -140.5 -144.5t-223.5 -54.5q-223 0 -356.5 151t-133.5 406zM324 442q0 -138 68.5 -210t185.5 -72t185 72t68 210v181q0 138 -68 210t-185 72t-185.5 -72t-68.5 -210v-181zM1067 623h496v20q0 124 -64 198t-174 74q-115 0 -186.5 -77.5t-71.5 -200.5v-14z" />
<glyph unicode="&#x154;" horiz-adv-x="1341" d="M176 0v1430h617q191 0 302 -116t111 -315q0 -153 -71 -255t-207 -142l309 -602h-258l-287 578h-284v-578h-232zM408 772h368q88 0 137.5 46t49.5 132v99q0 86 -49.5 132t-137.5 46h-368v-455zM526 1599l187 369l194 -94l-241 -340z" />
<glyph unicode="&#x155;" horiz-adv-x="784" d="M160 0v1065h223v-205h10q25 89 99 147t194 58h59v-215h-88q-133 0 -203.5 -43.5t-70.5 -126.5v-680h-223zM336 1260l186 368l195 -94l-242 -342z" />
<glyph unicode="&#x156;" horiz-adv-x="1341" d="M176 0v1430h617q191 0 302 -116t111 -315q0 -153 -71 -255t-207 -142l309 -602h-258l-287 578h-284v-578h-232zM408 772h368q88 0 137.5 46t49.5 132v99q0 86 -49.5 132t-137.5 46h-368v-455zM539 -528q48 46 73.5 86t38.5 92q-42 6 -63 34.5t-21 69.5v23q0 52 31 80 t90 28t90 -28t31 -80v-25q0 -79 -36.5 -155t-92.5 -125h-141z" />
<glyph unicode="&#x157;" horiz-adv-x="784" d="M123 -528q48 46 74 86t39 92q-42 6 -63 34.5t-21 69.5v23q0 53 31 80.5t89 27.5q59 0 90 -28t31 -80v-25q0 -79 -36.5 -155t-92.5 -125h-141zM160 0v1065h223v-205h10q25 89 99 147t194 58h59v-215h-88q-133 0 -203.5 -43.5t-70.5 -126.5v-680h-223z" />
<glyph unicode="&#x158;" horiz-adv-x="1341" d="M176 0v1430h617q191 0 302 -116t111 -315q0 -153 -71 -255t-207 -142l309 -602h-258l-287 578h-284v-578h-232zM285 1864l114 86l244 -238l244 238l114 -86l-245 -308h-226zM408 772h368q88 0 137.5 46t49.5 132v99q0 86 -49.5 132t-137.5 46h-368v-455z" />
<glyph unicode="&#x159;" horiz-adv-x="784" d="M94 1524l115 86l244 -238l243 238l115 -86l-246 -307h-225zM160 0v1065h223v-205h10q25 89 99 147t194 58h59v-215h-88q-133 0 -203.5 -43.5t-70.5 -126.5v-680h-223z" />
<glyph unicode="&#x15a;" horiz-adv-x="1224" d="M82 217l160 150q152 -187 374 -187q134 0 205.5 61.5t71.5 166.5q0 85 -50.5 133.5t-172.5 72.5l-127 23q-209 39 -313.5 138.5t-104.5 268.5q0 190 136 300t364 110q311 0 483 -219l-162 -143q-121 157 -334 157q-124 0 -191 -49.5t-67 -142.5q0 -87 54 -132t174 -69 l127 -27q214 -41 313.5 -140t99.5 -269q0 -202 -137.5 -323.5t-380.5 -121.5q-326 0 -522 242zM487 1599l187 369l194 -94l-241 -340z" />
<glyph unicode="&#x15b;" horiz-adv-x="1011" d="M66 176l143 131q125 -151 301 -151q96 0 145.5 37.5t49.5 105.5q0 114 -152 133l-98 12q-351 44 -351 318q0 153 109 240.5t287 87.5q137 0 228.5 -42t168.5 -128l-137 -132q-45 54 -112 87.5t-148 33.5q-90 0 -135.5 -35.5t-45.5 -97.5q0 -60 39 -91.5t125 -45.5l99 -12 q173 -26 255.5 -103t82.5 -207q0 -154 -115.5 -248t-306.5 -94q-145 0 -249 51t-183 150zM381 1260l186 368l195 -94l-242 -342z" />
<glyph unicode="&#x15c;" horiz-adv-x="1224" d="M82 217l160 150q152 -187 374 -187q134 0 205.5 61.5t71.5 166.5q0 85 -50.5 133.5t-172.5 72.5l-127 23q-209 39 -313.5 138.5t-104.5 268.5q0 190 136 300t364 110q311 0 483 -219l-162 -143q-121 157 -334 157q-124 0 -191 -49.5t-67 -142.5q0 -87 54 -132t174 -69 l127 -27q214 -41 313.5 -140t99.5 -269q0 -202 -137.5 -323.5t-380.5 -121.5q-326 0 -522 242zM246 1626l246 307h225l246 -307l-115 -86l-244 238l-244 -238z" />
<glyph unicode="&#x15d;" horiz-adv-x="1011" d="M66 176l143 131q125 -151 301 -151q96 0 145.5 37.5t49.5 105.5q0 114 -152 133l-98 12q-351 44 -351 318q0 153 109 240.5t287 87.5q137 0 228.5 -42t168.5 -128l-137 -132q-45 54 -112 87.5t-148 33.5q-90 0 -135.5 -35.5t-45.5 -97.5q0 -60 39 -91.5t125 -45.5l99 -12 q173 -26 255.5 -103t82.5 -207q0 -154 -115.5 -248t-306.5 -94q-145 0 -249 51t-183 150zM139 1286l246 307h225l246 -307l-115 -88l-243 240l-244 -240z" />
<glyph unicode="&#x15e;" horiz-adv-x="1224" d="M82 217l160 150q149 -187 374 -187q134 0 205.5 61.5t71.5 166.5q0 85 -50.5 133.5t-172.5 72.5l-127 23q-209 39 -313.5 138.5t-104.5 268.5q0 190 136 300t364 110q311 0 483 -219l-162 -143q-121 157 -334 157q-124 0 -191 -49.5t-67 -142.5q0 -87 54 -132t174 -69 l127 -27q214 -41 313.5 -140t99.5 -269q0 -191 -123.5 -310.5t-343.5 -132.5l-18 -96l6 -8q54 14 88 14q64 0 103.5 -35.5t39.5 -103.5q0 -88 -70 -132t-175 -44q-84 0 -139.5 25.5t-83.5 60.5l83 98q45 -59 129 -59q41 0 66 15t25 44q0 65 -146 82l-51 6l27 133 q-281 19 -457 240z" />
<glyph unicode="&#x15f;" horiz-adv-x="1011" d="M66 176l143 131q125 -151 301 -151q96 0 145.5 37.5t49.5 105.5q0 55 -36 88t-116 45l-98 12q-171 24 -261 100t-90 218q0 153 109 240.5t287 87.5q137 0 228.5 -42t168.5 -128l-137 -132q-45 54 -112 87.5t-148 33.5q-90 0 -135.5 -35.5t-45.5 -97.5q0 -60 39 -91.5 t125 -45.5l99 -12q173 -26 255.5 -103t82.5 -207q0 -142 -100 -234t-269 -106l-19 -96l7 -8q54 14 88 14q64 0 103.5 -35.5t39.5 -103.5q0 -88 -70 -132t-176 -44q-84 0 -139.5 25.5t-83.5 60.5l84 98q45 -59 129 -59q40 0 65 15t25 44q0 65 -145 82l-51 6l26 133 q-225 19 -368 199z" />
<glyph unicode="&#x160;" horiz-adv-x="1224" d="M82 217l160 150q152 -187 374 -187q134 0 205.5 61.5t71.5 166.5q0 85 -50.5 133.5t-172.5 72.5l-127 23q-209 39 -313.5 138.5t-104.5 268.5q0 190 136 300t364 110q311 0 483 -219l-162 -143q-121 157 -334 157q-124 0 -191 -49.5t-67 -142.5q0 -87 54 -132t174 -69 l127 -27q214 -41 313.5 -140t99.5 -269q0 -202 -137.5 -323.5t-380.5 -121.5q-326 0 -522 242zM246 1864l114 86l244 -238l244 238l115 -86l-246 -308h-225z" />
<glyph unicode="&#x161;" horiz-adv-x="1011" d="M66 176l143 131q125 -151 301 -151q96 0 145.5 37.5t49.5 105.5q0 114 -152 133l-98 12q-351 44 -351 318q0 153 109 240.5t287 87.5q137 0 228.5 -42t168.5 -128l-137 -132q-45 54 -112 87.5t-148 33.5q-90 0 -135.5 -35.5t-45.5 -97.5q0 -60 39 -91.5t125 -45.5l99 -12 q173 -26 255.5 -103t82.5 -207q0 -154 -115.5 -248t-306.5 -94q-145 0 -249 51t-183 150zM139 1524l115 86l244 -238l243 238l115 -86l-246 -307h-225z" />
<glyph unicode="&#x162;" horiz-adv-x="1181" d="M49 1225v205h1084v-205h-426v-1225h-232v1225h-426zM438 -528q48 46 74 86t39 92q-42 6 -63 34.5t-21 69.5v23q0 52 31 80t90 28t90 -28t31 -80v-25q0 -79 -36.5 -155t-92.5 -125h-142z" />
<glyph unicode="&#x163;" horiz-adv-x="747" d="M53 883v182h90q55 0 77 24t22 80v187h200v-291h224v-182h-224v-701h207v-182h-194q-114 0 -175 60.5t-61 170.5v652h-166zM299 -528q48 46 74 86t39 92q-42 6 -63 34.5t-21 69.5v23q0 52 31 80t90 28q58 0 89 -27.5t31 -80.5v-25q0 -79 -36.5 -155t-92.5 -125h-141z" />
<glyph unicode="&#x164;" horiz-adv-x="1181" d="M49 1225v205h1084v-205h-426v-1225h-232v1225h-426zM231 1864l115 86l244 -238l244 238l114 -86l-246 -308h-225z" />
<glyph unicode="&#x165;" horiz-adv-x="751" d="M53 883v182h90q55 0 77 24t22 80v187h200v-291h224v-182h-224v-701h207v-182h-194q-114 0 -175 60.5t-61 170.5v652h-166zM573 1165l21 406h246l-119 -406h-148z" />
<glyph unicode="&#x166;" horiz-adv-x="1206" d="M61 1225v205h1084v-205h-426v-408h315v-174h-315v-643h-232v643h-315v174h315v408h-426z" />
<glyph unicode="&#x167;" horiz-adv-x="761" d="M61 883v182h89q56 0 77 23.5t21 80.5v187h201v-291h223v-182h-223v-238h182v-162h-182v-301h206v-182h-194q-114 0 -175 60.5t-61 170.5v252h-131v162h131v238h-164z" />
<glyph unicode="&#x168;" horiz-adv-x="1404" d="M168 586v844h227v-881q0 -186 72 -276.5t235 -90.5q164 0 236 90.5t72 276.5v881h227v-844q0 -319 -123 -465t-412 -146q-288 0 -411 146t-123 465zM340 1733q77 118 211 118q32 0 64 -9t47 -16t49 -24q96 -47 151 -47q57 0 119 53l84 -106q-77 -119 -211 -119 q-32 0 -64 9t-47 16t-49 24q-96 47 -151 47q-57 0 -119 -53z" />
<glyph unicode="&#x169;" horiz-adv-x="1187" d="M150 387v678h223v-649q0 -248 205 -248q94 0 160.5 48t66.5 136v713h223v-1065h-223v176h-8q-75 -201 -299 -201q-165 0 -256.5 108t-91.5 304zM227 1393q77 118 211 118q32 0 64 -9t47 -16t49 -24q100 -49 152 -49q54 0 118 55l84 -106q-77 -119 -211 -119q-31 0 -64 9 t-46.5 15.5t-48.5 24.5q-100 49 -152 49q-55 0 -119 -55z" />
<glyph unicode="&#x16a;" horiz-adv-x="1404" d="M168 586v844h227v-881q0 -186 72 -276.5t235 -90.5q164 0 236 90.5t72 276.5v881h227v-844q0 -319 -123 -465t-412 -146q-288 0 -411 146t-123 465zM403 1634v170h598v-170h-598z" />
<glyph unicode="&#x16b;" horiz-adv-x="1187" d="M150 387v678h223v-649q0 -248 205 -248q94 0 160.5 48t66.5 136v713h223v-1065h-223v176h-8q-75 -201 -299 -201q-165 0 -256.5 108t-91.5 304zM291 1292v170h598v-170h-598z" />
<glyph unicode="&#x16c;" horiz-adv-x="1404" d="M168 586v844h227v-881q0 -186 72 -276.5t235 -90.5q164 0 236 90.5t72 276.5v881h227v-844q0 -319 -123 -465t-412 -146q-288 0 -411 146t-123 465zM356 1841l123 64l41 -68q40 -66 78 -96.5t102 -30.5t102.5 30.5t78.5 96.5l41 68l122 -64q-15 -45 -30 -80t-43.5 -78 t-63 -70.5t-88.5 -47t-119 -19.5t-119 19.5t-88.5 47t-63 70.5t-43.5 78t-30 80z" />
<glyph unicode="&#x16d;" horiz-adv-x="1187" d="M150 387v678h223v-649q0 -248 205 -248q94 0 160.5 48t66.5 136v713h223v-1065h-223v176h-8q-75 -201 -299 -201q-165 0 -256.5 108t-91.5 304zM244 1501l123 62l43 -68q40 -65 78 -95t100 -30t100 30t78 95l43 68l123 -62q-16 -46 -30.5 -80.5t-43.5 -77.5t-63 -70.5 t-88 -47t-119 -19.5t-119 19.5t-88 47t-63 70.5t-43.5 77.5t-30.5 80.5z" />
<glyph unicode="&#x16e;" horiz-adv-x="1404" d="M168 586v844h227v-881q0 -186 72 -276.5t235 -90.5q164 0 236 90.5t72 276.5v881h227v-844q0 -319 -123 -465t-412 -146q-288 0 -411 146t-123 465zM436 1763q0 112 76.5 186t189.5 74t190 -74t77 -186t-77 -186t-190 -74t-189.5 74t-76.5 186zM590 1737q0 -51 29 -80 t83 -29t83.5 29t29.5 80v55q0 51 -29.5 80t-83.5 29t-83 -29t-29 -80v-55z" />
<glyph unicode="&#x16f;" horiz-adv-x="1187" d="M150 387v678h223v-649q0 -248 205 -248q94 0 160.5 48t66.5 136v713h223v-1065h-223v176h-8q-75 -201 -299 -201q-165 0 -256.5 108t-91.5 304zM324 1423q0 112 76.5 186t189.5 74t189.5 -74t76.5 -186t-76.5 -186t-189.5 -74t-189.5 74t-76.5 186zM477 1395 q0 -52 29.5 -80.5t83.5 -28.5t83 28t29 81v57q0 53 -29 81t-83 28t-83.5 -28.5t-29.5 -80.5v-57z" />
<glyph unicode="&#x170;" horiz-adv-x="1404" d="M168 586v844h227v-881q0 -186 72 -276.5t235 -90.5q164 0 236 90.5t72 276.5v881h227v-844q0 -319 -123 -465t-412 -146q-288 0 -411 146t-123 465zM412 1593l186 371l182 -90l-241 -340zM778 1593l187 371l182 -90l-242 -340z" />
<glyph unicode="&#x171;" horiz-adv-x="1187" d="M150 387v678h223v-649q0 -248 205 -248q94 0 160.5 48t66.5 136v713h223v-1065h-223v176h-8q-75 -201 -299 -201q-165 0 -256.5 108t-91.5 304zM299 1253l186 371l183 -90l-242 -340zM666 1253l186 371l182 -90l-241 -340z" />
<glyph unicode="&#x172;" horiz-adv-x="1404" d="M168 586v844h227v-881q0 -186 72 -276.5t235 -90.5q164 0 236 90.5t72 276.5v881h227v-844q0 -214 -51.5 -348.5t-190.5 -255.5q-19 -17 -47 -41t-42.5 -37t-34 -31t-29 -30t-19.5 -26.5t-14 -27.5t-4 -27q0 -63 69 -63q59 0 105 53l92 -90q-23 -41 -76.5 -65.5 t-132.5 -24.5q-95 0 -157 40t-62 120q0 42 16.5 76.5t53.5 66.5t72.5 55t97.5 58l-6 10q-76 -23 -179 -23q-147 0 -248.5 36t-164 113t-90 189.5t-27.5 272.5z" />
<glyph unicode="&#x173;" horiz-adv-x="1189" d="M150 387v678h223v-649q0 -248 205 -248q94 0 160.5 48t66.5 136v713h223v-1065q-131 -101 -173 -149.5t-42 -86.5q0 -65 70 -65q61 0 104 53l94 -90q-23 -41 -77 -65.5t-134 -24.5q-97 0 -158 40t-61 124q0 75 56 134t167 124l-2 6h-67v176h-8q-75 -201 -299 -201 q-165 0 -256.5 108t-91.5 304z" />
<glyph unicode="&#x174;" horiz-adv-x="1896" d="M49 1430h236l145 -689l100 -475h7l114 475l170 689h258l168 -689l113 -473h6l104 473l150 689h227l-352 -1430h-260l-182 739l-107 435h-4l-108 -435l-187 -739h-260zM592 1626l246 307h225l246 -307l-115 -86l-244 238l-243 -238z" />
<glyph unicode="&#x175;" horiz-adv-x="1636" d="M53 1065h217l109 -447l96 -403h6l111 403l129 447h201l131 -447l112 -403h6l95 403l110 447h207l-287 -1065h-252l-139 485l-86 299h-4l-84 -299l-141 -485h-246zM461 1286l246 307h225l246 -307l-115 -88l-244 240l-244 -240z" />
<glyph unicode="&#x176;" horiz-adv-x="1263" d="M23 1430h264l348 -637h6l346 637h254l-496 -863v-567h-231v563zM274 1626l246 307h225l246 -307l-114 -86l-244 238l-244 -238z" />
<glyph unicode="&#x177;" horiz-adv-x="1052" d="M25 1065h223l213 -627l61 -231h10l68 231l213 627h215l-448 -1276q-39 -110 -99 -154.5t-182 -44.5h-129v183h180l62 180zM172 1286l246 307h225l246 -307l-115 -88l-244 240l-243 -240z" />
<glyph unicode="&#x178;" horiz-adv-x="1263" d="M23 1430h264l348 -637h6l346 637h254l-496 -863v-567h-231v563zM299 1700v37q0 50 31.5 80t97.5 30t97.5 -30t31.5 -80v-37q0 -50 -31.5 -80.5t-97.5 -30.5t-97.5 30.5t-31.5 80.5zM709 1700v37q0 50 31.5 80t97.5 30t97.5 -30t31.5 -80v-37q0 -50 -31.5 -80.5 t-97.5 -30.5t-97.5 30.5t-31.5 80.5z" />
<glyph unicode="&#x179;" horiz-adv-x="1210" d="M76 0v207l776 1018h-735v205h995v-207l-776 -1018h799v-205h-1059zM498 1599l186 369l195 -94l-242 -340z" />
<glyph unicode="&#x17a;" horiz-adv-x="997" d="M74 0v180l571 703h-553v182h817v-172l-579 -711h594v-182h-850zM383 1260l186 368l195 -94l-242 -342z" />
<glyph unicode="&#x17b;" horiz-adv-x="1210" d="M76 0v207l776 1018h-735v205h995v-207l-776 -1018h799v-205h-1059zM471 1696v43q0 57 35 90t108 33t108.5 -33t35.5 -90v-43q0 -57 -35.5 -90t-108.5 -33t-108 33t-35 90z" />
<glyph unicode="&#x17c;" horiz-adv-x="997" d="M74 0v180l571 703h-553v182h817v-172l-579 -711h594v-182h-850zM362 1356v37q0 54 34 85t104 31t103.5 -31t33.5 -85v-37q0 -54 -33.5 -85.5t-103.5 -31.5t-104 31.5t-34 85.5z" />
<glyph unicode="&#x17d;" horiz-adv-x="1210" d="M76 0v207l776 1018h-735v205h995v-207l-776 -1018h799v-205h-1059zM256 1864l115 86l243 -238l244 238l115 -86l-246 -308h-225z" />
<glyph unicode="&#x17e;" horiz-adv-x="997" d="M74 0v180l571 703h-553v182h817v-172l-579 -711h594v-182h-850zM141 1524l115 86l244 -238l243 238l115 -86l-246 -307h-225z" />
<glyph unicode="&#x18f;" horiz-adv-x="1458" d="M113 715v69h987v37q0 194 -104.5 310t-268.5 116q-262 0 -354 -258l-203 84q64 170 206.5 275.5t350.5 105.5q287 0 453 -194.5t166 -544.5t-166 -545t-453 -195q-288 0 -451 190.5t-163 549.5zM356 594q4 -188 108 -300t263 -112q161 0 265 112t108 300h-744z" />
<glyph unicode="&#x192;" horiz-adv-x="991" d="M0 -274l18 182h271l67 665h-260l21 191h258l41 393q12 125 88.5 199t210.5 74h237l-20 -183h-283l-51 -483h309l-18 -191h-309l-58 -577q-12 -123 -88.5 -196.5t-210.5 -73.5h-223z" />
<glyph unicode="&#x1a0;" horiz-adv-x="1458" d="M113 715q0 355 165.5 547t450.5 192q100 0 186 -24h263v223h190v-199q0 -82 -34.5 -122t-127.5 -40h-55q195 -198 195 -577q0 -355 -166 -547.5t-451 -192.5t-450.5 192.5t-165.5 547.5zM360 602q0 -193 101 -306.5t268 -113.5t268 113.5t101 306.5v225q0 193 -101 306.5 t-268 113.5t-268 -113.5t-101 -306.5v-225z" />
<glyph unicode="&#x1a1;" horiz-adv-x="1153" d="M88 535q0 255 133 405t357 150q83 0 163 -25h160v223h193v-196q0 -82 -35 -122t-119 -40q125 -150 125 -395q0 -255 -132 -407.5t-355 -152.5t-356.5 152.5t-133.5 407.5zM324 444q0 -137 68.5 -210.5t185.5 -73.5q116 0 183.5 73.5t67.5 210.5v179q0 138 -67 210 t-184 72t-185.5 -72t-68.5 -210v-179z" />
<glyph unicode="&#x1af;" horiz-adv-x="1404" d="M168 586v844h227v-881q0 -186 72 -276.5t235 -90.5q164 0 236 90.5t72 276.5v881h176v223h190v-201q0 -76 -31 -117t-108 -45v-704q0 -319 -123 -465t-412 -146q-288 0 -411 146t-123 465z" />
<glyph unicode="&#x1b0;" horiz-adv-x="1189" d="M150 387v678h223v-649q0 -248 205 -248q94 0 160.5 48t66.5 136v713h184v223h193v-201q0 -81 -33.5 -121t-120.5 -40v-926h-223v176h-8q-75 -201 -299 -201q-165 0 -256.5 108t-91.5 304z" />
<glyph unicode="&#x1fa;" horiz-adv-x="1355" d="M45 0l487 1430h291l488 -1430h-242l-129 387h-534l-125 -387h-236zM408 1737q0 107 76 173t192 66t192 -66t76 -173t-76 -173.5t-192 -66.5t-192 66.5t-76 173.5zM461 586h422l-205 631h-10zM559 1718q0 -50 30.5 -76t86.5 -26t86.5 26t30.5 76v37q0 50 -30.5 76.5 t-86.5 26.5t-86.5 -26.5t-30.5 -76.5v-37zM584 2085l198 233l148 -100l-244 -207z" />
<glyph unicode="&#x1fb;" horiz-adv-x="1124" d="M82 293q0 158 116 238.5t339 80.5h192v90q0 99 -54.5 152t-164.5 53q-163 0 -254 -145l-133 121q122 207 401 207q205 0 316.5 -97t111.5 -276v-535h113v-182h-125q-84 0 -132.5 48t-59.5 130h-11q-30 -99 -111.5 -151t-199.5 -52q-162 0 -253 86t-91 232zM262 1397 q0 107 76 173t192 66t192.5 -66t76.5 -173t-76.5 -173.5t-192.5 -66.5t-192 66.5t-76 173.5zM309 289q0 -70 48 -107t132 -37q105 0 172.5 46.5t67.5 123.5v154h-188q-232 0 -232 -143v-37zM414 1378q0 -102 116 -102q56 0 86.5 26t30.5 76v37q0 50 -30.5 76.5t-86.5 26.5 t-86 -26t-30 -77v-37zM442 1749l201 238l135 -115l-241 -205z" />
<glyph unicode="&#x1fc;" horiz-adv-x="1910" d="M4 0l717 1430h1067v-205h-684v-398h620v-204h-620v-418h684v-205h-916v385h-446l-188 -385h-234zM520 586h352v639h-34zM1122 1599l187 369l194 -94l-241 -340z" />
<glyph unicode="&#x1fd;" horiz-adv-x="1771" d="M82 293q0 160 119 245t336 85h192v79q0 99 -54.5 152t-162.5 53q-91 0 -151 -37t-105 -106l-133 119q122 207 401 207q230 0 320 -201h12q35 81 134 141t233 60q148 0 253.5 -72t156 -190t50.5 -269v-84h-731v-35q0 -125 76 -202.5t209 -77.5q184 0 279 157l131 -127 q-61 -100 -171 -157.5t-249 -57.5q-151 0 -262 69.5t-142 156.5h-12q-25 -87 -125.5 -156.5t-259.5 -69.5t-251.5 87.5t-92.5 230.5zM309 293q0 -70 48.5 -109t136.5 -39q101 0 168 47t67 123v160h-188q-232 -3 -232 -145v-37zM748 1260l186 368l194 -94l-241 -342zM952 623 h496v20q0 124 -64 198t-174 74q-115 0 -186.5 -77.5t-71.5 -200.5v-14z" />
<glyph unicode="&#x1fe;" horiz-adv-x="1458" d="M113 715q0 355 165.5 547t450.5 192q194 0 334 -90l117 168l147 -96l-133 -193q152 -195 152 -528q0 -355 -166 -547.5t-451 -192.5q-192 0 -334 91l-116 -168l-148 96l133 192q-151 193 -151 529zM354 598q0 -131 47 -227l549 817q-90 69 -221 69q-170 0 -272.5 -115.5 t-102.5 -310.5v-233zM508 242q92 -70 221 -70q170 0 272.5 115.5t102.5 310.5v233q0 132 -47 228zM612 1599l187 369l194 -94l-241 -340z" />
<glyph unicode="&#x1ff;" horiz-adv-x="1167" d="M53 2l137 170q-96 148 -96 360q0 255 133.5 406.5t356.5 151.5q160 0 282 -86l125 151l123 -92l-139 -172q98 -143 98 -359q0 -255 -133 -406t-356 -151q-163 0 -283 84l-125 -149zM326 446q0 -56 12 -102l416 508q-68 59 -170 59q-118 0 -188 -76.5t-70 -216.5v-172z M414 211q63 -57 170 -57q118 0 188 76t70 216v172q0 53 -13 103zM459 1260l186 368l195 -94l-242 -342z" />
<glyph unicode="&#x218;" horiz-adv-x="1224" d="M82 217l160 150q152 -187 374 -187q134 0 205.5 61.5t71.5 166.5q0 85 -50.5 133.5t-172.5 72.5l-127 23q-209 39 -313.5 138.5t-104.5 268.5q0 190 136 300t364 110q311 0 483 -219l-162 -143q-121 157 -334 157q-124 0 -191 -49.5t-67 -142.5q0 -87 54 -132t174 -69 l127 -27q214 -41 313.5 -140t99.5 -269q0 -202 -137.5 -323.5t-380.5 -121.5q-326 0 -522 242zM453 -528q48 46 73.5 86t38.5 92q-42 6 -63 34.5t-21 69.5v23q0 52 31 80t90 28t90 -28t31 -80v-25q0 -79 -36.5 -155t-92.5 -125h-141z" />
<glyph unicode="&#x219;" horiz-adv-x="1011" d="M66 176l143 131q125 -151 301 -151q96 0 145.5 37.5t49.5 105.5q0 114 -152 133l-98 12q-351 44 -351 318q0 153 109 240.5t287 87.5q137 0 228.5 -42t168.5 -128l-137 -132q-45 54 -112 87.5t-148 33.5q-90 0 -135.5 -35.5t-45.5 -97.5q0 -60 39 -91.5t125 -45.5l99 -12 q173 -26 255.5 -103t82.5 -207q0 -154 -115.5 -248t-306.5 -94q-145 0 -249 51t-183 150zM348 -528q48 46 74 86t39 92q-42 6 -63 34.5t-21 69.5v23q0 52 31 80t90 28q58 0 89 -27.5t31 -80.5v-25q0 -79 -36.5 -155t-92.5 -125h-141z" />
<glyph unicode="&#x21a;" horiz-adv-x="1181" d="M49 1225v205h1084v-205h-426v-1225h-232v1225h-426zM438 -528q48 46 74 86t39 92q-42 6 -63 34.5t-21 69.5v23q0 52 31 80t90 28t90 -28t31 -80v-25q0 -79 -36.5 -155t-92.5 -125h-142z" />
<glyph unicode="&#x21b;" horiz-adv-x="747" d="M53 883v182h90q55 0 77 24t22 80v187h200v-291h224v-182h-224v-701h207v-182h-194q-114 0 -175 60.5t-61 170.5v652h-166zM299 -528q48 46 74 86t39 92q-42 6 -63 34.5t-21 69.5v23q0 52 31 80t90 28q58 0 89 -27.5t31 -80.5v-25q0 -79 -36.5 -155t-92.5 -125h-141z" />
<glyph unicode="&#x237;" horiz-adv-x="542" d="M-6 -227h166v1292h223v-1208q0 -127 -64.5 -197t-195.5 -70h-129v183z" />
<glyph unicode="&#x259;" horiz-adv-x="1138" d="M88 506v84h731v35q0 126 -72.5 203t-203.5 77q-185 0 -277 -160l-133 129q62 100 174 158t256 58q226 0 357 -151t131 -407t-131 -406.5t-357 -150.5q-152 0 -261 72t-161.5 190.5t-52.5 268.5zM322 422q0 -124 64 -198t175 -74q115 0 186.5 77.5t71.5 200.5v14h-497v-20 z" />
<glyph unicode="&#x2bb;" d="M496 1311v26q0 79 36.5 154.5t92.5 124.5h141q-47 -44 -73.5 -84.5t-39.5 -93.5q42 -6 63 -35t21 -70v-22q0 -51 -31.5 -80t-89.5 -29t-89 28.5t-31 80.5z" />
<glyph unicode="&#x2bc;" d="M471 1110l21 406h245l-119 -406h-147z" />
<glyph unicode="&#x2c6;" d="M256 1286l246 307h225l246 -307l-115 -88l-244 240l-243 -240z" />
<glyph unicode="&#x2c7;" d="M256 1524l115 86l243 -238l244 238l115 -86l-246 -307h-225z" />
<glyph unicode="&#x2d8;" d="M270 1501l123 62l43 -68q40 -65 78 -95t100 -30t100.5 30t78.5 95l43 68l122 -62q-16 -46 -30.5 -80.5t-43.5 -77.5t-63 -70.5t-88 -47t-119 -19.5t-119 19.5t-88 47t-63 70.5t-43.5 77.5t-30.5 80.5z" />
<glyph unicode="&#x2d9;" d="M477 1356v37q0 54 33.5 85t103.5 31t104 -31t34 -85v-37q0 -54 -34 -85.5t-104 -31.5t-103.5 31.5t-33.5 85.5z" />
<glyph unicode="&#x2da;" d="M348 1423q0 112 76.5 186t189.5 74t190 -74t77 -186t-77 -186t-190 -74t-189.5 74t-76.5 186zM502 1395q0 -53 29 -81t83 -28t83.5 28.5t29.5 80.5v57q0 52 -29.5 80.5t-83.5 28.5t-83 -28t-29 -81v-57z" />
<glyph unicode="&#x2db;" d="M270 -264q0 77 55.5 135.5t172.5 130.5l-13 43h144l18 -45q-131 -101 -173 -149.5t-42 -86.5q0 -65 70 -65q58 0 104 53l94 -90q-23 -41 -77.5 -65.5t-133.5 -24.5q-97 0 -158 40t-61 124z" />
<glyph unicode="&#x2dc;" d="M252 1393q77 118 211 118q32 0 64 -9t47 -16t49 -24q100 -49 151 -49q55 0 119 55l84 -106q-77 -119 -211 -119q-32 0 -64 9t-47 16t-49 24q-100 49 -151 49q-55 0 -119 -55z" />
<glyph unicode="&#x2dd;" d="M324 1253l186 371l182 -90l-241 -340zM690 1253l187 371l182 -90l-242 -340z" />
<glyph unicode="&#x300;" horiz-adv-x="0" d="M-264 1534l194 94l187 -368l-140 -68z" />
<glyph unicode="&#x301;" horiz-adv-x="0" d="M-117 1260l187 368l194 -94l-241 -342z" />
<glyph unicode="&#x302;" horiz-adv-x="0" d="M-358 1286l245 307h226l245 -307l-114 -88l-244 240l-244 -240z" />
<glyph unicode="&#x303;" horiz-adv-x="0" d="M-362 1393q77 118 210 118q32 0 64 -9t47 -16t49 -24q100 -49 152 -49q55 0 119 55l83 -106q-77 -119 -210 -119q-32 0 -64 9t-47 16t-49 24q-100 49 -152 49q-55 0 -119 -55z" />
<glyph unicode="&#x304;" horiz-adv-x="0" d="M-299 1292v170h598v-170h-598z" />
<glyph unicode="&#x306;" horiz-adv-x="0" d="M-346 1501l123 62l43 -68q40 -65 78 -95t100 -30t100 30t78 95l43 68l123 -62q-16 -46 -30.5 -80.5t-43.5 -77.5t-63 -70.5t-88 -47t-119 -19.5t-119 19.5t-88 47t-63 70.5t-43.5 77.5t-30.5 80.5z" />
<glyph unicode="&#x307;" horiz-adv-x="0" d="M-137 1356v37q0 54 33.5 85t103.5 31t103.5 -31t33.5 -85v-37q0 -54 -33.5 -85.5t-103.5 -31.5t-103.5 31.5t-33.5 85.5z" />
<glyph unicode="&#x308;" horiz-adv-x="0" d="M-332 1358v37q0 108 127 108t127 -108v-37q0 -109 -127 -109t-127 109zM78 1358v37q0 108 127 108t127 -108v-37q0 -109 -127 -109t-127 109z" />
<glyph unicode="&#x309;" horiz-adv-x="0" d="M-203 1436v163h252q88 0 128 -35.5t40 -93.5q0 -99 -106 -231l-54 -63l-118 57l102 203h-244z" />
<glyph unicode="&#x30a;" horiz-adv-x="0" d="M-266 1423q0 112 76.5 186t189.5 74t189.5 -74t76.5 -186t-76.5 -186t-189.5 -74t-189.5 74t-76.5 186zM-113 1395q0 -52 29.5 -80.5t83.5 -28.5t83.5 28.5t29.5 80.5v57q0 52 -29.5 80.5t-83.5 28.5t-83.5 -28.5t-29.5 -80.5v-57z" />
<glyph unicode="&#x30b;" horiz-adv-x="0" d="M-291 1253l187 371l182 -90l-242 -340zM76 1253l186 371l182 -90l-241 -340z" />
<glyph unicode="&#x30c;" horiz-adv-x="0" d="M-358 1524l114 86l244 -238l244 238l114 -86l-245 -307h-226z" />
<glyph unicode="&#x312;" horiz-adv-x="0" d="M-121 1311v26q0 79 36.5 154.5t92.5 124.5h142q-47 -44 -73.5 -84.5t-39.5 -93.5q42 -6 63 -35t21 -70v-22q0 -51 -31.5 -80t-89.5 -29t-89.5 29t-31.5 80z" />
<glyph unicode="&#x315;" horiz-adv-x="0" d="M0 1110l20 406h246l-119 -406h-147z" />
<glyph unicode="&#x31b;" horiz-adv-x="0" d="M-199 926v139h207v223h191v-201q0 -81 -34.5 -121t-125.5 -40h-238z" />
<glyph unicode="&#x323;" horiz-adv-x="0" d="M-131 -231q0 50 32.5 79t98.5 29t98.5 -29t32.5 -79v-37q0 -50 -32.5 -79.5t-98.5 -29.5t-98.5 29.5t-32.5 79.5v37z" />
<glyph unicode="&#x326;" horiz-adv-x="0" d="M-152 -528q48 46 74 86t39 92q-42 6 -63 34.5t-21 69.5v23q0 52 31 80t90 28t90 -28t31 -80v-25q0 -79 -36.5 -155t-92.5 -125h-142z" />
<glyph unicode="&#x327;" horiz-adv-x="0" d="M-199 -342l86 98q45 -59 129 -59q40 0 65 15t25 44q0 65 -145 82l-51 6l41 205h117l-35 -168l8 -8q51 14 88 14q63 0 103 -35.5t40 -103.5q0 -88 -70 -132t-175 -44q-85 0 -141.5 25.5t-84.5 60.5z" />
<glyph unicode="&#x328;" horiz-adv-x="0" d="M-334 -264q0 77 55.5 135.5t172.5 130.5l-13 43h144l18 -45q-131 -101 -173 -149.5t-42 -86.5q0 -65 70 -65q58 0 104 53l94 -90q-23 -41 -77.5 -65.5t-133.5 -24.5q-97 0 -158 40t-61 124z" />
<glyph unicode="&#x3c0;" horiz-adv-x="1286" d="M53 883v182h1161v-182h-167v-701h167v-182h-153q-115 0 -176.5 61t-61.5 168v654h-379v-883h-223v883h-168z" />
<glyph unicode="&#x400;" horiz-adv-x="1214" d="M176 0v1430h916v-205h-684v-398h620v-204h-620v-418h684v-205h-916zM369 1874l194 94l187 -369l-140 -65z" />
<glyph unicode="&#x401;" horiz-adv-x="1214" d="M176 0v1430h916v-205h-684v-398h620v-204h-620v-418h684v-205h-916zM299 1700v37q0 50 31.5 80t97.5 30t97.5 -30t31.5 -80v-37q0 -50 -31.5 -80.5t-97.5 -30.5t-97.5 30.5t-31.5 80.5zM709 1700v37q0 50 31.5 80t97.5 30t97.5 -30t31.5 -80v-37q0 -50 -31.5 -80.5 t-97.5 -30.5t-97.5 30.5t-31.5 80.5z" />
<glyph unicode="&#x402;" horiz-adv-x="1628" d="M49 1225v205h1084v-205h-426v-369h10q113 47 287 47q257 0 383 -127.5t126 -386.5v-258q0 -244 -103 -364.5t-300 -120.5h-100v211h188q84 81 84 278v258q0 158 -73.5 233.5t-221.5 75.5q-175 0 -280 -43v-659h-232v1225h-426z" />
<glyph unicode="&#x403;" horiz-adv-x="1034" d="M176 0v1430h805v-205h-573v-1225h-232zM459 1599l186 369l195 -94l-242 -340z" />
<glyph unicode="&#x404;" horiz-adv-x="1327" d="M113 707q0 359 160 553t454 194q190 0 316.5 -79t205.5 -236l-190 -113q-44 108 -123 164.5t-209 56.5q-175 0 -270.5 -111t-98.5 -307v-4h547v-204h-547v-31q3 -195 98 -301.5t271 -106.5q259 0 344 236l186 -117q-151 -326 -530 -326q-296 0 -455 187t-159 545z" />
<glyph unicode="&#x405;" horiz-adv-x="1224" d="M82 217l160 150q152 -187 374 -187q134 0 205.5 61.5t71.5 166.5q0 85 -50.5 133.5t-172.5 72.5l-127 23q-209 39 -313.5 138.5t-104.5 268.5q0 190 136 300t364 110q311 0 483 -219l-162 -143q-121 157 -334 157q-124 0 -191 -49.5t-67 -142.5q0 -87 54 -132t174 -69 l127 -27q214 -41 313.5 -140t99.5 -269q0 -202 -137.5 -323.5t-380.5 -121.5q-326 0 -522 242z" />
<glyph unicode="&#x406;" horiz-adv-x="851" d="M115 0v188h194v1053h-194v189h622v-189h-196v-1053h196v-188h-622z" />
<glyph unicode="&#x407;" horiz-adv-x="851" d="M90 1700v37q0 50 31.5 80t97.5 30t97.5 -30t31.5 -80v-37q0 -50 -31.5 -80.5t-97.5 -30.5t-97.5 30.5t-31.5 80.5zM115 0v188h194v1053h-194v189h622v-189h-196v-1053h196v-188h-622zM500 1700v37q0 50 31.5 80t97.5 30t97.5 -30t31.5 -80v-37q0 -50 -31.5 -80.5 t-97.5 -30.5t-97.5 30.5t-31.5 80.5z" />
<glyph unicode="&#x408;" horiz-adv-x="1087" d="M55 334l213 47q41 -199 217 -199q95 0 149 59t54 173v823h-467v193h699v-1041q0 -188 -118.5 -301t-316.5 -113q-180 0 -290 96.5t-140 262.5z" />
<glyph unicode="&#x409;" horiz-adv-x="2105" d="M29 -6v211h157q57 58 91 145t52.5 247.5t18.5 412.5v420h877v-549h391q194 0 304 -118.5t110 -322.5t-110 -322t-304 -118h-623v1225h-422v-242q0 -393 -47.5 -594.5t-142.5 -296.5q-53 -51 -115 -74.5t-149 -23.5h-88zM1225 203h374q89 0 138 48t49 140v98q0 93 -49 141 t-138 48h-374v-475z" />
<glyph unicode="&#x40a;" horiz-adv-x="2125" d="M176 0v1430h232v-603h606v603h231v-549h389q194 0 305 -118.5t111 -322.5q0 -203 -111 -321.5t-305 -118.5h-620v623h-606v-623h-232zM1245 203h373q89 0 138.5 48t49.5 140v98q0 92 -49.5 140.5t-138.5 48.5h-373v-475z" />
<glyph unicode="&#x40b;" horiz-adv-x="1648" d="M49 1225v205h1084v-205h-426v-369h10q113 47 297 47q264 0 392 -127.5t128 -386.5v-389h-231v393q0 159 -75.5 234t-230.5 75q-185 0 -290 -43v-659h-232v1225h-426z" />
<glyph unicode="&#x40c;" horiz-adv-x="1368" d="M176 0v1430h232v-603h247l254 447q47 83 100 119.5t128 36.5h108v-205h-129l-205 -361q-35 -59 -64.5 -86t-72.5 -41v-10q51 -9 85.5 -36t70.5 -89l227 -397h125v-205h-141q-68 0 -117 34.5t-98 119.5l-271 471h-247v-625h-232zM569 1599l187 369l194 -94l-241 -340z" />
<glyph unicode="&#x40d;" horiz-adv-x="1462" d="M176 0v1430h225v-814l-22 -294h6l143 264l549 844h209v-1430h-225v813l22 295h-6l-143 -264l-549 -844h-209zM467 1874l195 94l186 -369l-139 -65z" />
<glyph unicode="&#x40e;" horiz-adv-x="1249" d="M35 1430h246l262 -564l112 -264h9l96 268l223 560h231l-501 -1240q-44 -110 -104.5 -150t-182.5 -40h-154v205h226l53 131zM285 1825l182 73l70 -184q47 -14 100 -14t100 14l70 184l182 -73l-41 -90q-92 -189 -311 -189t-311 189z" />
<glyph unicode="&#x40f;" horiz-adv-x="1431" d="M176 0v1430h232v-1225h616v1225h231v-1430h-432v-307h-215v307h-432z" />
<glyph unicode="&#x410;" horiz-adv-x="1355" d="M45 0l487 1430h291l488 -1430h-242l-129 387h-534l-125 -387h-236zM461 586h422l-205 631h-10z" />
<glyph unicode="&#x411;" horiz-adv-x="1320" d="M176 0v1430h914v-205h-682v-357h399q195 0 305.5 -117t110.5 -317t-110.5 -317t-305.5 -117h-631zM408 203h385q89 0 137.5 47.5t48.5 140.5v86q0 93 -48.5 141t-137.5 48h-385v-463z" />
<glyph unicode="&#x412;" horiz-adv-x="1349" d="M176 0v1430h633q176 0 278.5 -100.5t102.5 -268.5q0 -77 -22 -136t-59 -93t-78.5 -52t-88.5 -22v-13q37 -1 76 -12.5t79.5 -37.5t72 -63t51.5 -94t20 -126q0 -174 -105.5 -293t-263.5 -119h-696zM408 199h397q90 0 141 47.5t51 134.5v70q0 87 -51 134.5t-141 47.5h-397 v-434zM408 825h358q85 0 132.5 44.5t47.5 125.5v66q0 81 -47.5 125.5t-132.5 44.5h-358v-406z" />
<glyph unicode="&#x413;" horiz-adv-x="1034" d="M176 0v1430h805v-205h-573v-1225h-232z" />
<glyph unicode="&#x414;" horiz-adv-x="1564" d="M27 205h151q88 110 134 297.5t46 492.5v435h932v-1225h213v-512h-215v307h-1046v-307h-215v512zM444 205h615v1020h-477v-256q0 -294 -35 -473.5t-103 -282.5v-8z" />
<glyph unicode="&#x415;" horiz-adv-x="1214" d="M176 0v1430h916v-205h-684v-398h620v-204h-620v-418h684v-205h-916z" />
<glyph unicode="&#x416;" horiz-adv-x="2029" d="M86 0v205h127l195 385q32 64 66.5 95t82.5 42v10q-93 29 -141 133l-166 355h-127v205h113q78 0 133 -36.5t94 -119.5l211 -447h225v603h231v-603h226l211 447q39 83 94 119.5t133 36.5h113v-205h-127l-166 -355q-48 -104 -141 -133v-10q48 -11 82.5 -42t66.5 -95 l195 -385h127v-205h-144q-72 0 -119 34.5t-92 125.5l-233 465h-226v-625h-231v625h-225l-234 -465q-45 -91 -92 -125.5t-119 -34.5h-143z" />
<glyph unicode="&#x417;" horiz-adv-x="1226" d="M70 211l157 145q135 -174 353 -174q141 0 216.5 54.5t75.5 160.5v23q0 205 -262 205h-229v204h217q246 0 246 209v21q0 92 -63.5 140t-188.5 48q-213 0 -324 -147l-157 133q176 221 481 221q238 0 368 -103.5t130 -281.5q0 -141 -76 -222t-207 -102v-10 q135 -13 223 -95.5t88 -231.5q0 -195 -145 -314t-393 -119q-323 0 -510 236z" />
<glyph unicode="&#x418;" horiz-adv-x="1462" d="M176 0v1430h225v-814l-22 -294h6l143 264l549 844h209v-1430h-225v813l22 295h-6l-143 -264l-549 -844h-209z" />
<glyph unicode="&#x419;" horiz-adv-x="1462" d="M176 0v1430h225v-814l-22 -294h6l143 264l549 844h209v-1430h-225v813l22 295h-6l-143 -264l-549 -844h-209zM377 1825l182 73l70 -184q47 -14 100 -14t100 14l70 184l182 -73l-41 -90q-92 -189 -311 -189t-311 189z" />
<glyph unicode="&#x41a;" horiz-adv-x="1368" d="M176 0v1430h232v-603h247l254 447q47 83 100 119.5t128 36.5h108v-205h-129l-205 -361q-35 -59 -64.5 -86t-72.5 -41v-10q51 -9 85.5 -36t70.5 -89l227 -397h125v-205h-141q-68 0 -117 34.5t-98 119.5l-271 471h-247v-625h-232z" />
<glyph unicode="&#x41b;" horiz-adv-x="1447" d="M29 -6v211h157q57 58 91 145t52.5 247.5t18.5 412.5v420h924v-1430h-232v1225h-469v-242q0 -393 -47.5 -594.5t-142.5 -296.5q-53 -51 -115 -74.5t-149 -23.5h-88z" />
<glyph unicode="&#x41c;" horiz-adv-x="1667" d="M176 0v1430h275l383 -728h12l383 728h262v-1430h-221v1094h-10l-113 -232l-313 -571l-314 571l-112 232h-11v-1094h-221z" />
<glyph unicode="&#x41d;" horiz-adv-x="1462" d="M176 0v1430h232v-603h647v603h231v-1430h-231v623h-647v-623h-232z" />
<glyph unicode="&#x41e;" horiz-adv-x="1458" d="M113 715q0 355 165.5 547t450.5 192t451 -192t166 -547t-166 -547.5t-451 -192.5t-450.5 192.5t-165.5 547.5zM360 602q0 -193 101 -306.5t268 -113.5t268 113.5t101 306.5v225q0 193 -101 306.5t-268 113.5t-268 -113.5t-101 -306.5v-225z" />
<glyph unicode="&#x41f;" horiz-adv-x="1431" d="M176 0v1430h1079v-1430h-231v1225h-616v-1225h-232z" />
<glyph unicode="&#x420;" horiz-adv-x="1284" d="M176 0v1430h615q194 0 304.5 -117t110.5 -314t-110 -313.5t-305 -116.5h-383v-569h-232zM408 772h368q88 0 137.5 46t49.5 132v99q0 86 -49.5 132t-137.5 46h-368v-455z" />
<glyph unicode="&#x421;" horiz-adv-x="1298" d="M113 715q0 356 158.5 547.5t441.5 191.5q364 0 510 -324l-195 -106q-81 223 -315 223q-165 0 -260 -113t-95 -311v-217q0 -198 95 -311t260 -113q122 0 205.5 64t123.5 174l187 -113q-74 -159 -204 -245.5t-312 -86.5q-283 0 -441.5 192t-158.5 548z" />
<glyph unicode="&#x422;" horiz-adv-x="1181" d="M49 1225v205h1084v-205h-426v-1225h-232v1225h-426z" />
<glyph unicode="&#x423;" horiz-adv-x="1249" d="M35 1430h246l262 -564l112 -264h9l96 268l223 560h231l-501 -1240q-44 -110 -104.5 -150t-182.5 -40h-154v205h226l53 131z" />
<glyph unicode="&#x424;" horiz-adv-x="1781" d="M90 713q0 170 73 305.5t213.5 215t325.5 79.5h72v184h234v-184h71q139 0 255 -46t194 -126.5t121 -190.5t43 -237q0 -171 -73.5 -306.5t-214 -214.5t-325.5 -79h-71v-185h-234v185h-72q-184 0 -324.5 79t-214 214.5t-73.5 306.5zM332 649q0 -152 100 -249t270 -97h76v819 h-76q-171 0 -270.5 -97t-99.5 -249v-127zM1004 303h75q170 0 270.5 97t100.5 249v127q0 151 -100 248.5t-271 97.5h-75v-819z" />
<glyph unicode="&#x425;" horiz-adv-x="1308" d="M43 0l463 731l-447 699h273l325 -533h5l329 533h256l-450 -697l469 -733h-273l-346 569h-6l-342 -569h-256z" />
<glyph unicode="&#x426;" horiz-adv-x="1529" d="M176 0v1430h232v-1225h616v1225h231v-1225h213v-512h-215v307h-1077z" />
<glyph unicode="&#x427;" horiz-adv-x="1349" d="M115 1008v422h231v-429q0 -157 75 -232t230 -75q186 0 291 43v693h232v-1430h-232v539h-10q-113 -47 -297 -47q-265 0 -392.5 128t-127.5 388z" />
<glyph unicode="&#x428;" horiz-adv-x="2021" d="M176 0v1430h232v-1225h487v1225h231v-1225h488v1225h231v-1430h-1669z" />
<glyph unicode="&#x429;" horiz-adv-x="2121" d="M176 0v1430h232v-1225h487v1225h231v-1225h488v1225h231v-1225h215v-512h-215v307h-1669z" />
<glyph unicode="&#x42a;" horiz-adv-x="1533" d="M45 1225v205h578v-549h419q195 0 305.5 -118.5t110.5 -322.5t-110.5 -322t-305.5 -118h-651v1225h-346zM623 203h403q89 0 138.5 48t49.5 140v98q0 92 -49.5 140.5t-138.5 48.5h-403v-475z" />
<glyph unicode="&#x42b;" horiz-adv-x="1843" d="M176 0v1430h232v-549h399q195 0 305.5 -118.5t110.5 -322.5t-110.5 -322t-305.5 -118h-631zM408 203h385q89 0 137.5 47.5t48.5 140.5v98q0 93 -48.5 141t-137.5 48h-385v-475zM1436 0v1430h231v-1430h-231z" />
<glyph unicode="&#x42c;" horiz-adv-x="1318" d="M176 0v1430h232v-549h419q195 0 305.5 -118.5t110.5 -322.5t-110.5 -322t-305.5 -118h-651zM408 203h405q89 0 137.5 47.5t48.5 140.5v98q0 93 -48.5 141t-137.5 48h-405v-475z" />
<glyph unicode="&#x42d;" horiz-adv-x="1327" d="M70 301l186 117q89 -236 346 -236q173 0 270 111t97 305v23h-547v204h547v17q0 192 -97 298.5t-270 106.5q-131 0 -210.5 -57t-121.5 -164l-190 113q79 157 205.5 236t316.5 79q293 0 452.5 -187t159.5 -544q0 -358 -160.5 -553t-451.5 -195q-378 0 -532 326z" />
<glyph unicode="&#x42e;" horiz-adv-x="2013" d="M176 0v1430h232v-603h292q24 307 182 467t416 160q283 0 443 -189t160 -550t-160 -550.5t-443 -189.5q-267 0 -423 166.5t-179 481.5h-288v-623h-232zM942 602q0 -199 94.5 -309.5t261.5 -110.5t262 111t95 309v225q0 198 -95 309t-262 111t-261.5 -110.5t-94.5 -309.5 v-225z" />
<glyph unicode="&#x42f;" horiz-adv-x="1343" d="M84 0v205h125l151 274q31 55 60.5 81t79.5 38v10q-177 10 -270 114.5t-93 278.5q0 200 110.5 314.5t303.5 114.5h616v-1430h-231v575h-260l-242 -430q-48 -84 -94.5 -114.5t-116.5 -30.5h-139zM381 950q0 -85 49.5 -131.5t138.5 -46.5h367v455h-367q-89 0 -138.5 -46.5 t-49.5 -131.5v-99z" />
<glyph unicode="&#x430;" horiz-adv-x="1124" d="M82 293q0 158 116 238.5t339 80.5h192v90q0 99 -54.5 152t-164.5 53q-163 0 -254 -145l-133 121q122 207 401 207q205 0 316.5 -97t111.5 -276v-535h113v-182h-125q-84 0 -132.5 48t-59.5 130h-11q-30 -99 -111.5 -151t-199.5 -52q-162 0 -253 86t-91 232zM309 289 q0 -70 48 -107t132 -37q105 0 172.5 46.5t67.5 123.5v154h-188q-232 0 -232 -143v-37z" />
<glyph unicode="&#x431;" horiz-adv-x="1161" d="M96 645q0 433 131.5 633.5t427.5 226.5l340 31v-219l-352 -33q-114 -10 -177 -52.5t-94.5 -134t-41.5 -259.5h10q41 108 113 160.5t190 52.5q191 0 310.5 -141.5t119.5 -385.5q0 -250 -132.5 -399.5t-354.5 -149.5q-236 0 -363 163t-127 507zM334 446q0 -139 67 -212.5 t185 -73.5t185 73.5t67 212.5v134q0 139 -67 212.5t-185 73.5q-120 0 -186 -64.5t-66 -176.5v-179z" />
<glyph unicode="&#x432;" horiz-adv-x="1159" d="M160 0v1065h567q135 0 211 -73.5t76 -196.5q0 -201 -215 -228v-10q125 -9 189.5 -74t64.5 -170q0 -137 -84 -225t-226 -88h-583zM379 170h313q61 0 95 31.5t34 89.5v55q0 58 -34.5 90.5t-94.5 32.5h-313v-299zM379 623h285q57 0 87.5 28.5t30.5 81.5v51q0 53 -30.5 82 t-87.5 29h-285v-272z" />
<glyph unicode="&#x433;" horiz-adv-x="899" d="M160 0v1065h694v-182h-471v-883h-223z" />
<glyph unicode="&#x434;" horiz-adv-x="1275" d="M18 182h129q127 195 127 578v305h779v-883h180v-469h-203v287h-809v-287h-203v469zM385 182h444v701h-342v-135q0 -373 -102 -566z" />
<glyph unicode="&#x435;" horiz-adv-x="1138" d="M88 532q0 256 132 407t358 151q152 0 260.5 -72t160.5 -190.5t52 -268.5v-84h-732v-35q0 -126 74.5 -203t206.5 -77q182 0 281 159l131 -129q-62 -99 -175 -157t-259 -58q-227 0 -358.5 150.5t-131.5 406.5zM319 623h496v20q0 124 -63.5 198t-173.5 74q-115 0 -187 -77.5 t-72 -200.5v-14z" />
<glyph unicode="&#x436;" horiz-adv-x="1660" d="M80 0v182h119l116 258q41 88 125 105v8q-77 21 -121 111l-100 219h-119v182h109q73 0 122.5 -33t84.5 -106l137 -291h166v430h223v-430h166l137 291q35 73 84.5 106t122.5 33h109v-182h-119l-101 -219q-44 -90 -120 -111v-8q84 -17 125 -105l116 -258h119v-182h-127 q-72 0 -121 33t-86 114l-139 308h-166v-455h-223v455h-166l-139 -308q-37 -81 -86 -114t-121 -33h-127z" />
<glyph unicode="&#x437;" horiz-adv-x="1052" d="M53 180l146 133q105 -153 293 -153q111 0 167 39.5t56 107.5v25q0 65 -44 99t-126 34h-230v164h207q82 0 126 32t44 93v22q0 61 -51 95t-154 34q-92 0 -161.5 -38t-110.5 -105l-139 121q136 207 426 207q207 0 313.5 -77.5t106.5 -211.5q0 -100 -53 -158t-160 -78v-10 q114 -13 175.5 -77t61.5 -165q0 -157 -121.5 -247.5t-332.5 -90.5q-154 0 -258 51t-181 154z" />
<glyph unicode="&#x438;" horiz-adv-x="1224" d="M160 0v1065h219v-520l-21 -252h9l127 227l368 545h203v-1065h-219v520l20 252h-8l-127 -227l-369 -545h-202z" />
<glyph unicode="&#x439;" horiz-adv-x="1224" d="M160 0v1065h219v-520l-21 -252h9l127 227l368 545h203v-1065h-219v520l20 252h-8l-127 -227l-369 -545h-202zM262 1485l182 74l70 -185q47 -14 100 -14q54 0 101 14l69 185l183 -74l-41 -90q-92 -189 -312 -189q-219 0 -311 189z" />
<glyph unicode="&#x43a;" horiz-adv-x="1163" d="M160 0v1065h223v-430h188l177 297q45 76 89.5 104.5t114.5 28.5h109v-182h-119l-135 -226q-30 -52 -54 -72.5t-63 -31.5v-8q43 -8 73 -31t58 -74l144 -258h116v-182h-127q-68 0 -116 31.5t-90 107.5l-177 316h-188v-455h-223z" />
<glyph unicode="&#x43b;" horiz-adv-x="1198" d="M23 -6v188h139q50 70 75 200.5t25 365.5v317h774v-1065h-223v883h-336v-146q0 -516 -147 -663q-80 -80 -232 -80h-75z" />
<glyph unicode="&#x43c;" horiz-adv-x="1454" d="M160 0v1065h270l301 -504h4l301 504h258v-1065h-219v791h-8l-70 -132l-270 -450l-270 450l-70 132h-8v-791h-219z" />
<glyph unicode="&#x43d;" horiz-adv-x="1224" d="M160 0v1065h223v-428h459v428h223v-1065h-223v455h-459v-455h-223z" />
<glyph unicode="&#x43e;" horiz-adv-x="1155" d="M88 532q0 255 133.5 406.5t356.5 151.5t356 -151.5t133 -406.5t-133 -406t-356 -151t-356.5 151t-133.5 406zM324 442q0 -138 68.5 -210t185.5 -72t185 72t68 210v181q0 138 -68 210t-185 72t-185.5 -72t-68.5 -210v-181z" />
<glyph unicode="&#x43f;" horiz-adv-x="1193" d="M160 0v1065h874v-1065h-223v883h-428v-883h-223z" />
<glyph unicode="&#x440;" horiz-adv-x="1212" d="M160 -410v1475h223v-176h10q34 95 113.5 148t185.5 53q201 0 312.5 -147.5t111.5 -410.5t-111.5 -410t-312.5 -147q-106 0 -185.5 53.5t-113.5 147.5h-10v-586h-223zM383 350q0 -80 69.5 -131t172.5 -51q116 0 186 74.5t70 197.5v185q0 123 -70 197.5t-186 74.5 q-103 0 -172.5 -51t-69.5 -131v-365z" />
<glyph unicode="&#x441;" horiz-adv-x="1044" d="M88 532q0 258 127.5 408t355.5 150q155 0 259 -70t153 -193l-184 -86q-24 76 -82 119t-146 43q-120 0 -183.5 -74.5t-63.5 -201.5v-191q0 -127 63.5 -201.5t183.5 -74.5q175 0 250 176l170 -90q-53 -131 -160 -201t-260 -70q-228 0 -355.5 149.5t-127.5 407.5z" />
<glyph unicode="&#x442;" horiz-adv-x="985" d="M41 883v182h903v-182h-340v-883h-223v883h-340z" />
<glyph unicode="&#x443;" horiz-adv-x="1052" d="M25 1065h223l213 -627l61 -231h10l68 231l213 627h215l-448 -1276q-39 -110 -99 -154.5t-182 -44.5h-129v183h180l62 180z" />
<glyph unicode="&#x444;" horiz-adv-x="1583" d="M94 532q0 288 85 423t263 135q149 0 230 -140h8v504h223v-504h8q81 140 230 140q178 0 263 -135t85 -423t-85 -422.5t-263 -134.5q-150 0 -230 138h-8v-523h-223v523h-8q-80 -138 -230 -138q-178 0 -263 134.5t-85 422.5zM328 436q0 -151 45 -217.5t145 -66.5 q164 0 164 133v495q0 133 -164 133q-100 0 -145 -67t-45 -217v-193zM901 285q0 -133 164 -133q100 0 145 66.5t45 217.5v193q0 150 -45 217t-145 67q-164 0 -164 -133v-495z" />
<glyph unicode="&#x445;" horiz-adv-x="1085" d="M41 0l375 539l-365 526h258l240 -371h6l246 371h237l-364 -524l370 -541h-258l-245 387h-6l-256 -387h-238z" />
<glyph unicode="&#x446;" horiz-adv-x="1257" d="M160 0v1065h223v-883h428v883h223v-883h180v-469h-202v287h-852z" />
<glyph unicode="&#x447;" horiz-adv-x="1136" d="M102 690v375h224v-360q0 -90 48 -132.5t150 -42.5q106 0 168 31.5t62 87.5v416h223v-1065h-223v473h-11q-98 -133 -297 -133q-344 0 -344 350z" />
<glyph unicode="&#x448;" horiz-adv-x="1673" d="M160 0v1065h223v-883h342v883h223v-883h342v883h223v-1065h-1353z" />
<glyph unicode="&#x449;" horiz-adv-x="1736" d="M160 0v1065h223v-883h342v883h223v-883h342v883h223v-883h181v-469h-203v287h-1331z" />
<glyph unicode="&#x44a;" horiz-adv-x="1253" d="M41 883v182h494v-356h292q161 0 260 -95t99 -258q0 -167 -98 -261.5t-261 -94.5h-516v883h-270zM535 174h251q168 0 168 139v84q0 138 -168 138h-251v-361z" />
<glyph unicode="&#x44b;" horiz-adv-x="1556" d="M160 0v1065h223v-356h272q161 0 260 -95t99 -260q0 -166 -98 -260t-259 -94h-497zM383 174h231q168 0 168 139v84q0 138 -168 138h-231v-361zM1174 0v1065h223v-1065h-223z" />
<glyph unicode="&#x44c;" horiz-adv-x="1101" d="M160 0v1065h223v-356h293q162 0 260 -95t98 -260q0 -166 -97 -260t-259 -94h-518zM383 174h252q168 0 168 139v84q0 138 -168 138h-252v-361z" />
<glyph unicode="&#x44d;" horiz-adv-x="1067" d="M55 838q118 252 430 252q238 0 367 -149.5t129 -408.5t-130 -408t-368 -149q-163 0 -263 64t-161 194l177 91q63 -164 247 -164q131 0 196.5 73t65.5 205v19h-405v164h405v12q0 125 -67 198.5t-193 73.5q-100 0 -161.5 -41.5t-96.5 -124.5z" />
<glyph unicode="&#x44e;" horiz-adv-x="1638" d="M160 0v1065h223v-428h219q25 214 148.5 333.5t322.5 119.5q223 0 350 -148.5t127 -409.5q0 -260 -127 -408.5t-350 -148.5q-204 0 -329 127t-144 353h-217v-455h-223zM831 442q0 -142 62.5 -211t179.5 -69t179.5 69t62.5 211v181q0 142 -62.5 211t-179.5 69t-179.5 -69 t-62.5 -211v-181z" />
<glyph unicode="&#x44f;" horiz-adv-x="1138" d="M84 0v182h115l59 131q44 92 123 101v8q-131 14 -204 92t-73 209q0 157 98.5 249.5t258.5 92.5h518v-1065h-223v393h-228l-112 -243q-37 -82 -86 -116t-119 -34h-127zM336 698q0 -66 44.5 -100.5t123.5 -34.5h252v328h-252q-168 0 -168 -139v-54z" />
<glyph unicode="&#x450;" horiz-adv-x="1138" d="M88 532q0 256 132 407t358 151q152 0 260.5 -72t160.5 -190.5t52 -268.5v-84h-732v-35q0 -126 74.5 -203t206.5 -77q182 0 281 159l131 -129q-62 -99 -175 -157t-259 -58q-227 0 -358.5 150.5t-131.5 406.5zM315 1534l195 94l186 -368l-139 -68zM319 623h496v20 q0 124 -63.5 198t-173.5 74q-115 0 -187 -77.5t-72 -200.5v-14z" />
<glyph unicode="&#x451;" horiz-adv-x="1138" d="M88 532q0 256 132 407t358 151q152 0 260.5 -72t160.5 -190.5t52 -268.5v-84h-732v-35q0 -126 74.5 -203t206.5 -77q182 0 281 159l131 -129q-62 -99 -175 -157t-259 -58q-227 0 -358.5 150.5t-131.5 406.5zM248 1358v37q0 108 127 108t127 -108v-37q0 -109 -127 -109 t-127 109zM319 623h496v20q0 124 -63.5 198t-173.5 74q-115 0 -187 -77.5t-72 -200.5v-14zM657 1358v37q0 108 127 108t127 -108v-37q0 -109 -127 -109t-127 109z" />
<glyph unicode="&#x452;" horiz-adv-x="1193" d="M31 1229v162h129v125h223v-125h299v-162h-299v-340h10q79 201 299 201q163 0 254.5 -109t91.5 -305v-821q0 -127 -64 -196t-196 -69h-129v183h166v876q0 250 -201 250q-95 0 -163 -47.5t-68 -134.5v-717h-223v1229h-129z" />
<glyph unicode="&#x453;" horiz-adv-x="899" d="M160 0v1065h694v-182h-471v-883h-223zM383 1260l186 368l195 -94l-242 -342z" />
<glyph unicode="&#x454;" horiz-adv-x="1069" d="M86 532q0 259 129 408.5t367 149.5q311 0 424 -250l-183 -95q-53 160 -241 160q-127 0 -192.5 -74.5t-67.5 -199.5v-10h407v-164h-407v-19q0 -128 66.5 -203t195.5 -75q188 0 264 172l166 -99q-63 -129 -166.5 -193.5t-263.5 -64.5q-239 0 -368.5 149t-129.5 408z" />
<glyph unicode="&#x455;" horiz-adv-x="1011" d="M66 176l143 131q125 -151 301 -151q96 0 145.5 37.5t49.5 105.5q0 114 -152 133l-98 12q-351 44 -351 318q0 153 109 240.5t287 87.5q137 0 228.5 -42t168.5 -128l-137 -132q-45 54 -112 87.5t-148 33.5q-90 0 -135.5 -35.5t-45.5 -97.5q0 -60 39 -91.5t125 -45.5l99 -12 q173 -26 255.5 -103t82.5 -207q0 -154 -115.5 -248t-306.5 -94q-145 0 -249 51t-183 150z" />
<glyph unicode="&#x456;" horiz-adv-x="542" d="M139 1372v35q0 53 33.5 85t99.5 32t98.5 -31.5t32.5 -85.5v-35q0 -54 -32.5 -85.5t-98.5 -31.5t-99.5 32t-33.5 85zM160 0v1065h223v-1065h-223z" />
<glyph unicode="&#x457;" horiz-adv-x="542" d="M-59 1358v37q0 108 127 108t127 -108v-37q0 -109 -127 -109t-127 109zM160 0v1065h223v-1065h-223zM350 1358v37q0 108 127 108t127 -108v-37q0 -109 -127 -109t-127 109z" />
<glyph unicode="&#x458;" horiz-adv-x="542" d="M-6 -227h166v1292h223v-1208q0 -127 -64.5 -197t-195.5 -70h-129v183zM139 1372v35q0 53 33.5 85t99.5 32t98.5 -31.5t32.5 -85.5v-35q0 -54 -32.5 -85.5t-98.5 -31.5t-99.5 32t-33.5 85z" />
<glyph unicode="&#x459;" horiz-adv-x="1699" d="M23 -6v188h139q50 70 75 200.5t25 365.5v317h742v-356h272q161 0 258.5 -95t97.5 -260q0 -166 -97 -260t-259 -94h-496v883h-303v-146q0 -516 -147 -663q-80 -80 -232 -80h-75zM1004 174h231q166 0 166 139v84q0 138 -166 138h-231v-361z" />
<glyph unicode="&#x45a;" horiz-adv-x="1736" d="M160 0v1065h223v-428h434v428h223v-356h273q161 0 258.5 -95t97.5 -260q0 -166 -97 -260t-259 -94h-496v455h-434v-455h-223zM1040 174h232q166 0 166 139v84q0 138 -166 138h-232v-361z" />
<glyph unicode="&#x45b;" horiz-adv-x="1187" d="M31 1229v162h129v125h223v-125h299v-162h-299v-340h10q82 201 299 201q164 0 255 -108.5t91 -305.5v-676h-223v649q0 248 -201 248q-95 0 -163 -47.5t-68 -134.5v-715h-223v1229h-129z" />
<glyph unicode="&#x45c;" horiz-adv-x="1163" d="M160 0v1065h223v-430h188l177 297q45 76 89.5 104.5t114.5 28.5h109v-182h-119l-135 -226q-30 -52 -54 -72.5t-63 -31.5v-8q43 -8 73 -31t58 -74l144 -258h116v-182h-127q-68 0 -116 31.5t-90 107.5l-177 316h-188v-455h-223zM475 1260l187 368l194 -94l-242 -342z" />
<glyph unicode="&#x45d;" horiz-adv-x="1224" d="M160 0v1065h219v-520l-21 -252h9l127 227l368 545h203v-1065h-219v520l20 252h-8l-127 -227l-369 -545h-202zM350 1534l195 94l186 -368l-139 -68z" />
<glyph unicode="&#x45e;" horiz-adv-x="1052" d="M25 1065h223l213 -627l61 -231h10l68 231l213 627h215l-448 -1276q-39 -110 -99 -154.5t-182 -44.5h-129v183h180l62 180zM178 1485l182 74l70 -185q47 -14 100 -14q54 0 101 14l69 185l183 -74l-41 -90q-92 -189 -312 -189q-219 0 -311 189z" />
<glyph unicode="&#x45f;" horiz-adv-x="1193" d="M160 0v1065h223v-883h428v883h223v-1065h-336v-287h-202v287h-336z" />
<glyph unicode="&#x472;" horiz-adv-x="1454" d="M113 715q0 355 164.5 547t449.5 192t449.5 -192t164.5 -547t-164.5 -547.5t-449.5 -192.5t-449.5 192.5t-164.5 547.5zM350 600q0 -198 103.5 -313t273.5 -115t273.5 115t103.5 313v21h-754v-21zM350 823h754v6q0 198 -103.5 313t-273.5 115t-273.5 -115t-103.5 -313v-6z " />
<glyph unicode="&#x473;" horiz-adv-x="1155" d="M88 532q0 255 133.5 406.5t356.5 151.5t356 -151.5t133 -406.5t-133 -406t-356 -151t-356.5 151t-133.5 406zM315 438q0 -138 71.5 -211t191.5 -73t191 73t71 211v21h-525v-21zM315 618h525v9q0 138 -71 211t-191 73t-191.5 -73t-71.5 -211v-9z" />
<glyph unicode="&#x490;" horiz-adv-x="1034" d="M176 0v1430h590v307h215v-512h-573v-1225h-232z" />
<glyph unicode="&#x491;" horiz-adv-x="899" d="M160 0v1065h491v287h203v-469h-471v-883h-223z" />
<glyph unicode="&#x492;" horiz-adv-x="1085" d="M35 643v174h192v613h805v-205h-573v-408h383v-174h-383v-643h-232v643h-192z" />
<glyph unicode="&#x493;" horiz-adv-x="935" d="M53 446v162h144v457h694v-182h-471v-275h299v-162h-299v-446h-223v446h-144z" />
<glyph unicode="&#x494;" horiz-adv-x="1329" d="M176 0v1430h805v-205h-573v-455h10q113 47 287 47q257 0 383 -127.5t126 -386.5v-139q0 -250 -117.5 -384t-316.5 -134h-98v211h188q113 88 113 313v137q0 158 -73.5 233.5t-219.5 75.5q-177 0 -282 -43v-573h-232z" />
<glyph unicode="&#x495;" horiz-adv-x="1132" d="M160 0v1065h694v-182h-471v-391h10q101 133 297 133q176 0 260 -93t84 -301v-233q0 -408 -336 -408h-118v183h174q57 66 57 250v194q0 121 -45.5 169t-153.5 48q-105 0 -167 -32t-62 -89v-313h-223z" />
<glyph unicode="&#x496;" horiz-adv-x="2058" d="M86 0v205h127l195 385q32 64 66.5 95t82.5 42v10q-93 29 -141 133l-166 355h-127v205h113q78 0 133 -36.5t94 -119.5l211 -447h225v603h231v-603h226l211 447q39 83 94 119.5t133 36.5h113v-205h-127l-166 -355q-48 -104 -141 -133v-10q48 -11 82.5 -42t66.5 -95 l195 -385h215v-512h-215v307h-17q-72 0 -119 34.5t-92 125.5l-233 465h-226v-625h-231v625h-225l-234 -465q-45 -91 -92 -125.5t-119 -34.5h-143z" />
<glyph unicode="&#x497;" horiz-adv-x="1673" d="M80 0v182h119l116 258q41 88 125 105v8q-77 21 -121 111l-100 219h-119v182h109q73 0 122.5 -33t84.5 -106l137 -291h166v430h223v-430h166l137 291q35 73 84.5 106t122.5 33h109v-182h-119l-101 -219q-44 -90 -120 -111v-8q84 -17 125 -105l116 -258h178v-469h-202v287 q-65 3 -111 37t-80 110l-139 308h-166v-455h-223v455h-166l-139 -308q-37 -81 -86 -114t-121 -33h-127z" />
<glyph unicode="&#x498;" horiz-adv-x="1226" d="M70 211l157 145q135 -174 353 -174q141 0 216.5 54.5t75.5 160.5v23q0 205 -262 205h-229v204h217q246 0 246 209v21q0 92 -63.5 140t-188.5 48q-213 0 -324 -147l-157 133q176 221 481 221q238 0 368 -103.5t130 -281.5q0 -141 -76 -222t-207 -102v-10 q135 -13 223 -95.5t88 -231.5q0 -172 -113.5 -285t-312.5 -139v-291h-217v291q-250 27 -405 227z" />
<glyph unicode="&#x499;" horiz-adv-x="1052" d="M53 180l146 133q105 -153 293 -153q111 0 167 39.5t56 107.5v25q0 65 -44 99t-126 34h-230v164h207q82 0 126 32t44 93v22q0 61 -51 95t-154 34q-92 0 -161.5 -38t-110.5 -105l-139 121q136 207 426 207q207 0 313.5 -77.5t106.5 -211.5q0 -100 -53 -158t-160 -78v-10 q114 -13 175.5 -77t61.5 -165q0 -136 -93.5 -223.5t-258.5 -107.5v-269h-203v271q-212 24 -338 196z" />
<glyph unicode="&#x49a;" horiz-adv-x="1396" d="M176 0v1430h232v-603h247l254 447q47 83 100 119.5t128 36.5h108v-205h-129l-205 -361q-35 -59 -64.5 -86t-72.5 -41v-10q51 -9 85.5 -36t70.5 -89l227 -397h213v-512h-215v307h-14q-68 0 -117 34.5t-98 119.5l-271 471h-247v-625h-232z" />
<glyph unicode="&#x49b;" horiz-adv-x="1177" d="M160 0v1065h223v-430h188l177 297q45 76 89.5 104.5t114.5 28.5h109v-182h-119l-135 -226q-30 -52 -54 -72.5t-63 -31.5v-8q43 -8 73 -31t58 -74l144 -258h180v-469h-203v287q-64 2 -109.5 34t-84.5 105l-177 316h-188v-455h-223z" />
<glyph unicode="&#x49c;" horiz-adv-x="1472" d="M176 0v1430h232v-603h104v297h174v-297h96l234 443q44 85 97 122.5t128 37.5h111v-205h-129l-191 -361q-31 -57 -61.5 -86t-71.5 -41v-10q49 -11 86.5 -43t71.5 -96l205 -383h124v-205h-141q-69 0 -117.5 34.5t-93.5 119.5l-252 471h-96v-297h-174v297h-104v-625h-232z " />
<glyph unicode="&#x49d;" horiz-adv-x="1267" d="M160 0v1065h223v-430h88v239h152v-239h73l154 287q41 82 87.5 112.5t119.5 30.5h108v-182h-118l-121 -226q-28 -51 -51.5 -72t-59.5 -32v-8q45 -8 72.5 -30t54.5 -75l129 -258h117v-182h-129q-70 0 -119 33t-88 110l-156 312h-73v-238h-152v238h-88v-455h-223z" />
<glyph unicode="&#x4a0;" horiz-adv-x="1581" d="M45 1225v205h578v-603h247l254 447q47 83 100 119.5t128 36.5h108v-205h-129l-205 -361q-35 -59 -64.5 -86t-72.5 -41v-10q51 -9 85.5 -36t70.5 -89l227 -397h125v-205h-141q-68 0 -117 34.5t-98 119.5l-271 471h-247v-625h-232v1225h-346z" />
<glyph unicode="&#x4a1;" horiz-adv-x="1312" d="M41 883v182h494v-430h186l178 297q43 75 88.5 104t114.5 29h108v-182h-118l-136 -226q-29 -51 -53 -72t-63 -32v-8q43 -8 73 -31t58 -74l145 -258h117v-182h-129q-67 0 -116 32t-91 107l-176 316h-186v-455h-224v883h-270z" />
<glyph unicode="&#x4a2;" horiz-adv-x="1560" d="M176 0v1430h232v-603h647v603h231v-1225h213v-512h-215v307h-229v623h-647v-623h-232z" />
<glyph unicode="&#x4a3;" horiz-adv-x="1288" d="M160 0v1065h223v-428h459v428h223v-883h180v-469h-203v287h-200v455h-459v-455h-223z" />
<glyph unicode="&#x4a4;" horiz-adv-x="1871" d="M176 0v1430h232v-603h606v603h805v-205h-574v-1225h-231v623h-606v-623h-232z" />
<glyph unicode="&#x4a5;" horiz-adv-x="1556" d="M160 0v1065h223v-428h434v428h692v-182h-469v-883h-223v455h-434v-455h-223z" />
<glyph unicode="&#x4aa;" horiz-adv-x="1298" d="M113 715q0 356 158.5 547.5t441.5 191.5q364 0 510 -324l-195 -106q-81 223 -315 223q-165 0 -260 -113t-95 -311v-217q0 -198 95 -311t260 -113q122 0 205.5 64t123.5 174l187 -113q-128 -274 -408 -323v-291h-215v291q-234 34 -363.5 222t-129.5 509z" />
<glyph unicode="&#x4ab;" horiz-adv-x="1044" d="M88 532q0 258 127.5 408t355.5 150q155 0 259 -70t153 -193l-184 -86q-24 76 -82 119t-146 43q-120 0 -183.5 -74.5t-63.5 -201.5v-191q0 -127 63.5 -201.5t183.5 -74.5q175 0 250 176l170 -90q-87 -219 -315 -260v-273h-203v271q-184 32 -284.5 176.5t-100.5 371.5z" />
<glyph unicode="&#x4ae;" horiz-adv-x="1263" d="M23 1430h264l348 -637h6l346 637h254l-496 -863v-567h-231v563z" />
<glyph unicode="&#x4af;" horiz-adv-x="1050" d="M31 1065h221l170 -487l102 -340h13l104 340l168 487h211l-383 -1065v-410h-223v410z" />
<glyph unicode="&#x4b0;" horiz-adv-x="1263" d="M23 1430h262l350 -639h6l342 639h258l-496 -867h314v-176h-314v-387h-231v387h-313v176h313z" />
<glyph unicode="&#x4b1;" horiz-adv-x="1050" d="M31 1065h221l170 -487l102 -340h13l104 340l168 487h211l-383 -1065h250v-162h-250v-248h-223v248h-250v162h250z" />
<glyph unicode="&#x4b2;" horiz-adv-x="1363" d="M43 0l463 731l-447 699h273l325 -533h5l329 533h256l-450 -697l338 -528h213v-512h-215v307h-140l-346 569h-6l-342 -569h-256z" />
<glyph unicode="&#x4b3;" horiz-adv-x="1124" d="M41 0l375 539l-365 526h258l240 -371h6l246 371h237l-364 -524l246 -359h188v-469h-203v287h-119l-245 387h-6l-256 -387h-238z" />
<glyph unicode="&#x4b6;" horiz-adv-x="1447" d="M115 1008v422h231v-429q0 -157 75 -232t230 -75q186 0 291 43v693h232v-1225h212v-512h-215v307h-229v539h-10q-113 -47 -297 -47q-265 0 -392.5 128t-127.5 388z" />
<glyph unicode="&#x4b7;" horiz-adv-x="1200" d="M102 690v375h224v-360q0 -90 48 -132.5t150 -42.5q106 0 168 31.5t62 87.5v416h223v-883h180v-469h-203v287h-200v473h-11q-98 -133 -297 -133q-344 0 -344 350z" />
<glyph unicode="&#x4b8;" horiz-adv-x="1368" d="M115 1008v422h231v-429q0 -136 55.5 -210t169.5 -91v320h174v-324q133 6 213 41v693h232v-1430h-232v539h-10q-79 -31 -203 -43v-273h-174v271q-232 15 -344 142.5t-112 371.5z" />
<glyph unicode="&#x4b9;" horiz-adv-x="1153" d="M102 690v375h224v-360q0 -149 147 -170v288h152v-288q63 5 104 35.5t41 74.5v420h223v-1065h-223v457h-10q-56 -74 -135 -101v-188h-152v172q-188 0 -279.5 86.5t-91.5 263.5z" />
<glyph unicode="&#x4ba;" horiz-adv-x="1349" d="M176 0v1430h232v-539h10q113 47 297 47q265 0 392.5 -128t127.5 -388v-422h-231v428q0 157 -75.5 232t-228.5 75q-187 0 -292 -43v-692h-232z" />
<glyph unicode="&#x4bb;" horiz-adv-x="1187" d="M160 0v1516h223v-627h10q79 201 299 201q163 0 254.5 -109t91.5 -305v-676h-223v649q0 248 -201 248q-95 0 -163 -47.5t-68 -134.5v-715h-223z" />
<glyph unicode="&#x4c0;" horiz-adv-x="851" d="M115 0v188h194v1053h-194v189h622v-189h-196v-1053h196v-188h-622z" />
<glyph unicode="&#x4c1;" horiz-adv-x="2029" d="M86 0v205h127l195 385q32 64 66.5 95t82.5 42v10q-93 29 -141 133l-166 355h-127v205h113q78 0 133 -36.5t94 -119.5l211 -447h225v603h231v-603h226l211 447q39 83 94 119.5t133 36.5h113v-205h-127l-166 -355q-48 -104 -141 -133v-10q48 -11 82.5 -42t66.5 -95 l195 -385h127v-205h-144q-72 0 -119 34.5t-92 125.5l-233 465h-226v-625h-231v625h-225l-234 -465q-45 -91 -92 -125.5t-119 -34.5h-143zM659 1825l183 73l69 -184q47 -14 101 -14q53 0 100 14l70 184l182 -73l-41 -90q-92 -189 -311 -189q-220 0 -312 189z" />
<glyph unicode="&#x4c2;" horiz-adv-x="1660" d="M80 0v182h119l116 258q41 88 125 105v8q-77 21 -121 111l-100 219h-119v182h109q73 0 122.5 -33t84.5 -106l137 -291h166v430h223v-430h166l137 291q35 73 84.5 106t122.5 33h109v-182h-119l-101 -219q-44 -90 -120 -111v-8q84 -17 125 -105l116 -258h119v-182h-127 q-72 0 -121 33t-86 114l-139 308h-166v-455h-223v455h-166l-139 -308q-37 -81 -86 -114t-121 -33h-127zM477 1485l182 74l70 -185q47 -14 100 -14q54 0 101 14l69 185l183 -74l-41 -90q-92 -189 -312 -189q-219 0 -311 189z" />
<glyph unicode="&#x4cf;" horiz-adv-x="542" d="M160 0v1516h223v-1516h-223z" />
<glyph unicode="&#x4d0;" horiz-adv-x="1355" d="M45 0l487 1430h291l488 -1430h-242l-129 387h-534l-125 -387h-236zM322 1825l182 73l69 -184q47 -14 101 -14q53 0 100 14l70 184l182 -73l-41 -90q-92 -189 -311 -189q-220 0 -312 189zM461 586h422l-205 631h-10z" />
<glyph unicode="&#x4d1;" horiz-adv-x="1124" d="M82 293q0 158 116 238.5t339 80.5h192v90q0 99 -54.5 152t-164.5 53q-163 0 -254 -145l-133 121q122 207 401 207q205 0 316.5 -97t111.5 -276v-535h113v-182h-125q-84 0 -132.5 48t-59.5 130h-11q-30 -99 -111.5 -151t-199.5 -52q-162 0 -253 86t-91 232zM178 1485 l182 74l70 -185q47 -14 100 -14q54 0 101 14l69 185l183 -74l-41 -90q-92 -189 -312 -189q-219 0 -311 189zM309 289q0 -70 48 -107t132 -37q105 0 172.5 46.5t67.5 123.5v154h-188q-232 0 -232 -143v-37z" />
<glyph unicode="&#x4d2;" horiz-adv-x="1355" d="M45 0l487 1430h291l488 -1430h-242l-129 387h-534l-125 -387h-236zM342 1700v37q0 50 31.5 80t97.5 30t97.5 -30t31.5 -80v-37q0 -50 -31.5 -80.5t-97.5 -30.5t-97.5 30.5t-31.5 80.5zM461 586h422l-205 631h-10zM752 1700v37q0 50 31.5 80t97.5 30t97.5 -30t31.5 -80 v-37q0 -50 -31.5 -80.5t-97.5 -30.5t-97.5 30.5t-31.5 80.5z" />
<glyph unicode="&#x4d3;" horiz-adv-x="1124" d="M82 293q0 158 116 238.5t339 80.5h192v90q0 99 -54.5 152t-164.5 53q-163 0 -254 -145l-133 121q122 207 401 207q205 0 316.5 -97t111.5 -276v-535h113v-182h-125q-84 0 -132.5 48t-59.5 130h-11q-30 -99 -111.5 -151t-199.5 -52q-162 0 -253 86t-91 232zM199 1358v37 q0 108 127 108t127 -108v-37q0 -109 -127 -109t-127 109zM309 289q0 -70 48 -107t132 -37q105 0 172.5 46.5t67.5 123.5v154h-188q-232 0 -232 -143v-37zM608 1358v37q0 108 127 108t127 -108v-37q0 -109 -127 -109t-127 109z" />
<glyph unicode="&#x4d4;" horiz-adv-x="1910" d="M4 0l717 1430h1067v-205h-684v-398h620v-204h-620v-418h684v-205h-916v385h-446l-188 -385h-234zM520 586h352v639h-34z" />
<glyph unicode="&#x4d5;" horiz-adv-x="1771" d="M82 293q0 160 119 245t336 85h192v79q0 99 -54.5 152t-162.5 53q-91 0 -151 -37t-105 -106l-133 119q122 207 401 207q230 0 320 -201h12q35 81 134 141t233 60q148 0 253.5 -72t156 -190t50.5 -269v-84h-731v-35q0 -125 76 -202.5t209 -77.5q184 0 279 157l131 -127 q-61 -100 -171 -157.5t-249 -57.5q-151 0 -262 69.5t-142 156.5h-12q-25 -87 -125.5 -156.5t-259.5 -69.5t-251.5 87.5t-92.5 230.5zM309 293q0 -70 48.5 -109t136.5 -39q101 0 168 47t67 123v160h-188q-232 -3 -232 -145v-37zM952 623h496v20q0 124 -64 198t-174 74 q-115 0 -186.5 -77.5t-71.5 -200.5v-14z" />
<glyph unicode="&#x4d6;" horiz-adv-x="1214" d="M176 0v1430h916v-205h-684v-398h620v-204h-620v-418h684v-205h-916zM279 1825l182 73l69 -184q47 -14 101 -14q53 0 100 14l70 184l182 -73l-41 -90q-92 -189 -311 -189q-220 0 -312 189z" />
<glyph unicode="&#x4d7;" horiz-adv-x="1138" d="M88 532q0 256 132 407t358 151q152 0 260.5 -72t160.5 -190.5t52 -268.5v-84h-732v-35q0 -126 74.5 -203t206.5 -77q182 0 281 159l131 -129q-62 -99 -175 -157t-259 -58q-227 0 -358.5 150.5t-131.5 406.5zM227 1485l183 74l69 -185q47 -14 101 -14q53 0 100 14l70 185 l182 -74l-41 -90q-92 -189 -311 -189q-220 0 -312 189zM319 623h496v20q0 124 -63.5 198t-173.5 74q-115 0 -187 -77.5t-72 -200.5v-14z" />
<glyph unicode="&#x4d8;" horiz-adv-x="1458" d="M113 715v69h987v37q0 194 -104.5 310t-268.5 116q-262 0 -354 -258l-203 84q64 170 206.5 275.5t350.5 105.5q287 0 453 -194.5t166 -544.5t-166 -545t-453 -195q-288 0 -451 190.5t-163 549.5zM356 594q4 -188 108 -300t263 -112q161 0 265 112t108 300h-744z" />
<glyph unicode="&#x4d9;" horiz-adv-x="1138" d="M88 506v84h731v35q0 126 -72.5 203t-203.5 77q-185 0 -277 -160l-133 129q62 100 174 158t256 58q226 0 357 -151t131 -407t-131 -406.5t-357 -150.5q-152 0 -261 72t-161.5 190.5t-52.5 268.5zM322 422q0 -124 64 -198t175 -74q115 0 186.5 77.5t71.5 200.5v14h-497v-20 z" />
<glyph unicode="&#x4dc;" horiz-adv-x="2029" d="M86 0v205h127l195 385q32 64 66.5 95t82.5 42v10q-93 29 -141 133l-166 355h-127v205h113q78 0 133 -36.5t94 -119.5l211 -447h225v603h231v-603h226l211 447q39 83 94 119.5t133 36.5h113v-205h-127l-166 -355q-48 -104 -141 -133v-10q48 -11 82.5 -42t66.5 -95 l195 -385h127v-205h-144q-72 0 -119 34.5t-92 125.5l-233 465h-226v-625h-231v625h-225l-234 -465q-45 -91 -92 -125.5t-119 -34.5h-143zM680 1700v37q0 50 31.5 80t97.5 30t97.5 -30t31.5 -80v-37q0 -50 -31.5 -80.5t-97.5 -30.5t-97.5 30.5t-31.5 80.5zM1090 1700v37 q0 50 31.5 80t97.5 30t97.5 -30t31.5 -80v-37q0 -50 -31.5 -80.5t-97.5 -30.5t-97.5 30.5t-31.5 80.5z" />
<glyph unicode="&#x4dd;" horiz-adv-x="1660" d="M80 0v182h119l116 258q41 88 125 105v8q-77 21 -121 111l-100 219h-119v182h109q73 0 122.5 -33t84.5 -106l137 -291h166v430h223v-430h166l137 291q35 73 84.5 106t122.5 33h109v-182h-119l-101 -219q-44 -90 -120 -111v-8q84 -17 125 -105l116 -258h119v-182h-127 q-72 0 -121 33t-86 114l-139 308h-166v-455h-223v455h-166l-139 -308q-37 -81 -86 -114t-121 -33h-127zM498 1358v37q0 108 127 108t127 -108v-37q0 -109 -127 -109t-127 109zM907 1358v37q0 108 127 108t127 -108v-37q0 -109 -127 -109t-127 109z" />
<glyph unicode="&#x4de;" horiz-adv-x="1226" d="M70 211l157 145q135 -174 353 -174q141 0 216.5 54.5t75.5 160.5v23q0 205 -262 205h-229v204h217q246 0 246 209v21q0 92 -63.5 140t-188.5 48q-213 0 -324 -147l-157 133q176 221 481 221q238 0 368 -103.5t130 -281.5q0 -141 -76 -222t-207 -102v-10 q135 -13 223 -95.5t88 -231.5q0 -195 -145 -314t-393 -119q-323 0 -510 236zM258 1700v37q0 50 31.5 80t97.5 30t97.5 -30t31.5 -80v-37q0 -50 -31.5 -80.5t-97.5 -30.5t-97.5 30.5t-31.5 80.5zM668 1700v37q0 50 31.5 80t97.5 30t97.5 -30t31.5 -80v-37q0 -50 -31.5 -80.5 t-97.5 -30.5t-97.5 30.5t-31.5 80.5z" />
<glyph unicode="&#x4df;" horiz-adv-x="1052" d="M53 180l146 133q105 -153 293 -153q111 0 167 39.5t56 107.5v25q0 65 -44 99t-126 34h-230v164h207q82 0 126 32t44 93v22q0 61 -51 95t-154 34q-92 0 -161.5 -38t-110.5 -105l-139 121q136 207 426 207q207 0 313.5 -77.5t106.5 -211.5q0 -100 -53 -158t-160 -78v-10 q114 -13 175.5 -77t61.5 -165q0 -157 -121.5 -247.5t-332.5 -90.5q-154 0 -258 51t-181 154zM166 1358v37q0 108 127 108t127 -108v-37q0 -109 -127 -109t-127 109zM575 1358v37q0 108 127 108t127 -108v-37q0 -109 -127 -109t-127 109z" />
<glyph unicode="&#x4e2;" horiz-adv-x="1462" d="M176 0v1430h225v-814l-22 -294h6l143 264l549 844h209v-1430h-225v813l22 295h-6l-143 -264l-549 -844h-209zM432 1634v170h598v-170h-598z" />
<glyph unicode="&#x4e3;" horiz-adv-x="1224" d="M160 0v1065h219v-520l-21 -252h9l127 227l368 545h203v-1065h-219v520l20 252h-8l-127 -227l-369 -545h-202zM315 1292v170h598v-170h-598z" />
<glyph unicode="&#x4e4;" horiz-adv-x="1462" d="M176 0v1430h225v-814l-22 -294h6l143 264l549 844h209v-1430h-225v813l22 295h-6l-143 -264l-549 -844h-209zM397 1700v37q0 50 31.5 80t97.5 30t97.5 -30t31.5 -80v-37q0 -50 -31.5 -80.5t-97.5 -30.5t-97.5 30.5t-31.5 80.5zM807 1700v37q0 50 31.5 80t97.5 30 t97.5 -30t31.5 -80v-37q0 -50 -31.5 -80.5t-97.5 -30.5t-97.5 30.5t-31.5 80.5z" />
<glyph unicode="&#x4e5;" horiz-adv-x="1224" d="M160 0v1065h219v-520l-21 -252h9l127 227l368 545h203v-1065h-219v520l20 252h-8l-127 -227l-369 -545h-202zM283 1358v37q0 108 127 108t127 -108v-37q0 -109 -127 -109t-127 109zM692 1358v37q0 108 127 108t127 -108v-37q0 -109 -127 -109t-127 109z" />
<glyph unicode="&#x4e6;" horiz-adv-x="1458" d="M113 715q0 355 165.5 547t450.5 192t451 -192t166 -547t-166 -547.5t-451 -192.5t-450.5 192.5t-165.5 547.5zM360 602q0 -193 101 -306.5t268 -113.5t268 113.5t101 306.5v225q0 193 -101 306.5t-268 113.5t-268 -113.5t-101 -306.5v-225zM395 1700v37q0 50 31.5 80 t97.5 30t97.5 -30t31.5 -80v-37q0 -50 -31.5 -80.5t-97.5 -30.5t-97.5 30.5t-31.5 80.5zM805 1700v37q0 50 31.5 80t97.5 30t97.5 -30t31.5 -80v-37q0 -50 -31.5 -80.5t-97.5 -30.5t-97.5 30.5t-31.5 80.5z" />
<glyph unicode="&#x4e7;" horiz-adv-x="1155" d="M88 532q0 255 133.5 406.5t356.5 151.5t356 -151.5t133 -406.5t-133 -406t-356 -151t-356.5 151t-133.5 406zM244 1358v37q0 108 127 108t127 -108v-37q0 -109 -127 -109t-127 109zM324 442q0 -138 68.5 -210t185.5 -72t185 72t68 210v181q0 138 -68 210t-185 72 t-185.5 -72t-68.5 -210v-181zM653 1358v37q0 108 127 108t127 -108v-37q0 -109 -127 -109t-127 109z" />
<glyph unicode="&#x4e8;" horiz-adv-x="1454" d="M113 715q0 355 164.5 547t449.5 192t449.5 -192t164.5 -547t-164.5 -547.5t-449.5 -192.5t-449.5 192.5t-164.5 547.5zM350 600q0 -198 103.5 -313t273.5 -115t273.5 115t103.5 313v21h-754v-21zM350 823h754v6q0 198 -103.5 313t-273.5 115t-273.5 -115t-103.5 -313v-6z " />
<glyph unicode="&#x4e9;" horiz-adv-x="1155" d="M88 532q0 255 133.5 406.5t356.5 151.5t356 -151.5t133 -406.5t-133 -406t-356 -151t-356.5 151t-133.5 406zM315 438q0 -138 71.5 -211t191.5 -73t191 73t71 211v21h-525v-21zM315 618h525v9q0 138 -71 211t-191 73t-191.5 -73t-71.5 -211v-9z" />
<glyph unicode="&#x4ee;" horiz-adv-x="1249" d="M35 1430h246l262 -564l112 -264h9l96 268l223 560h231l-501 -1240q-44 -110 -104.5 -150t-182.5 -40h-154v205h226l53 131zM340 1634v170h598v-170h-598z" />
<glyph unicode="&#x4ef;" horiz-adv-x="1052" d="M25 1065h223l213 -627l61 -231h10l68 231l213 627h215l-448 -1276q-39 -110 -99 -154.5t-182 -44.5h-129v183h180l62 180zM231 1292v170h598v-170h-598z" />
<glyph unicode="&#x4f0;" horiz-adv-x="1249" d="M35 1430h246l262 -564l112 -264h9l96 268l223 560h231l-501 -1240q-44 -110 -104.5 -150t-182.5 -40h-154v205h226l53 131zM305 1700v37q0 50 31.5 80t97.5 30t97.5 -30t31.5 -80v-37q0 -50 -31.5 -80.5t-97.5 -30.5t-97.5 30.5t-31.5 80.5zM715 1700v37q0 50 31.5 80 t97.5 30t97.5 -30t31.5 -80v-37q0 -50 -31.5 -80.5t-97.5 -30.5t-97.5 30.5t-31.5 80.5z" />
<glyph unicode="&#x4f1;" horiz-adv-x="1052" d="M25 1065h223l213 -627l61 -231h10l68 231l213 627h215l-448 -1276q-39 -110 -99 -154.5t-182 -44.5h-129v183h180l62 180zM199 1358v37q0 108 127 108t127 -108v-37q0 -109 -127 -109t-127 109zM608 1358v37q0 108 127 108t127 -108v-37q0 -109 -127 -109t-127 109z" />
<glyph unicode="&#x4f2;" horiz-adv-x="1249" d="M35 1430h246l262 -564l112 -264h9l96 268l223 560h231l-501 -1240q-44 -110 -104.5 -150t-182.5 -40h-154v205h226l53 131zM348 1593l187 371l182 -90l-242 -340zM715 1593l186 371l182 -90l-241 -340z" />
<glyph unicode="&#x4f3;" horiz-adv-x="1052" d="M25 1065h223l213 -627l61 -231h10l68 231l213 627h215l-448 -1276q-39 -110 -99 -154.5t-182 -44.5h-129v183h180l62 180zM240 1253l186 371l182 -90l-241 -340zM606 1253l187 371l182 -90l-242 -340z" />
<glyph unicode="&#x4f4;" horiz-adv-x="1349" d="M115 1008v422h231v-429q0 -157 75 -232t230 -75q186 0 291 43v693h232v-1430h-232v539h-10q-113 -47 -297 -47q-265 0 -392.5 128t-127.5 388zM309 1700v37q0 50 31.5 80t97.5 30t97.5 -30t31.5 -80v-37q0 -50 -31.5 -80.5t-97.5 -30.5t-97.5 30.5t-31.5 80.5zM719 1700 v37q0 50 31.5 80t97.5 30t97.5 -30t31.5 -80v-37q0 -50 -31.5 -80.5t-97.5 -30.5t-97.5 30.5t-31.5 80.5z" />
<glyph unicode="&#x4f5;" horiz-adv-x="1136" d="M102 690v375h224v-360q0 -90 48 -132.5t150 -42.5q106 0 168 31.5t62 87.5v416h223v-1065h-223v473h-11q-98 -133 -297 -133q-344 0 -344 350zM207 1358v37q0 108 127 108t127 -108v-37q0 -109 -127 -109t-127 109zM616 1358v37q0 108 127 108t127 -108v-37 q0 -109 -127 -109t-127 109z" />
<glyph unicode="&#x4f8;" horiz-adv-x="1843" d="M176 0v1430h232v-549h399q195 0 305.5 -118.5t110.5 -322.5t-110.5 -322t-305.5 -118h-631zM408 203h385q89 0 137.5 47.5t48.5 140.5v98q0 93 -48.5 141t-137.5 48h-385v-475zM588 1700v37q0 50 31.5 80t97.5 30t97.5 -30t31.5 -80v-37q0 -50 -31.5 -80.5t-97.5 -30.5 t-97.5 30.5t-31.5 80.5zM997 1700v37q0 50 31.5 80t97.5 30t97.5 -30t31.5 -80v-37q0 -50 -31.5 -80.5t-97.5 -30.5t-97.5 30.5t-31.5 80.5zM1436 0v1430h231v-1430h-231z" />
<glyph unicode="&#x4f9;" horiz-adv-x="1556" d="M160 0v1065h223v-356h272q161 0 260 -95t99 -260q0 -166 -98 -260t-259 -94h-497zM383 174h231q168 0 168 139v84q0 138 -168 138h-231v-361zM446 1358v37q0 108 127 108t127 -108v-37q0 -109 -127 -109t-127 109zM856 1358v37q0 108 127 108t127 -108v-37 q0 -109 -127 -109t-127 109zM1174 0v1065h223v-1065h-223z" />
<glyph unicode="&#xe3f;" horiz-adv-x="1335" d="M176 43v1343h395v211h181v-211h55q171 0 270 -94t99 -252q0 -248 -248 -286v-13q61 -6 111 -24.5t94 -53.5t69 -94.5t25 -138.5q0 -164 -103.5 -275.5t-257.5 -111.5h-114v-217h-181v217h-395zM397 236h185v399h-185v-399zM397 817h185v377h-185v-377zM741 236h64 q90 0 140 41.5t50 123.5v68q0 82 -50 124t-140 42h-64v-399zM741 817h37q166 0 166 156v65q0 156 -166 156h-37v-377z" />
<glyph unicode="&#x1e80;" horiz-adv-x="1896" d="M49 1430h236l145 -689l100 -475h7l114 475l170 689h258l168 -689l113 -473h6l104 473l150 689h227l-352 -1430h-260l-182 739l-107 435h-4l-108 -435l-187 -739h-260zM686 1874l195 94l186 -369l-139 -65z" />
<glyph unicode="&#x1e81;" horiz-adv-x="1636" d="M53 1065h217l109 -447l96 -403h6l111 403l129 447h201l131 -447l112 -403h6l95 403l110 447h207l-287 -1065h-252l-139 485l-86 299h-4l-84 -299l-141 -485h-246zM555 1534l195 94l186 -368l-139 -68z" />
<glyph unicode="&#x1e82;" horiz-adv-x="1896" d="M49 1430h236l145 -689l100 -475h7l114 475l170 689h258l168 -689l113 -473h6l104 473l150 689h227l-352 -1430h-260l-182 739l-107 435h-4l-108 -435l-187 -739h-260zM834 1599l186 369l194 -94l-241 -340z" />
<glyph unicode="&#x1e83;" horiz-adv-x="1636" d="M53 1065h217l109 -447l96 -403h6l111 403l129 447h201l131 -447l112 -403h6l95 403l110 447h207l-287 -1065h-252l-139 485l-86 299h-4l-84 -299l-141 -485h-246zM702 1260l187 368l194 -94l-241 -342z" />
<glyph unicode="&#x1e84;" horiz-adv-x="1896" d="M49 1430h236l145 -689l100 -475h7l114 475l170 689h258l168 -689l113 -473h6l104 473l150 689h227l-352 -1430h-260l-182 739l-107 435h-4l-108 -435l-187 -739h-260zM616 1700v37q0 50 31.5 80t97.5 30t97.5 -30t31.5 -80v-37q0 -50 -31.5 -80.5t-97.5 -30.5t-97.5 30.5 t-31.5 80.5zM1026 1700v37q0 50 31.5 80t97.5 30t97.5 -30t31.5 -80v-37q0 -50 -31.5 -80.5t-97.5 -30.5t-97.5 30.5t-31.5 80.5z" />
<glyph unicode="&#x1e85;" horiz-adv-x="1636" d="M53 1065h217l109 -447l96 -403h6l111 403l129 447h201l131 -447l112 -403h6l95 403l110 447h207l-287 -1065h-252l-139 485l-86 299h-4l-84 -299l-141 -485h-246zM487 1358v37q0 108 127 108t127 -108v-37q0 -109 -127 -109t-127 109zM897 1358v37q0 108 127 108 t127 -108v-37q0 -109 -127 -109t-127 109z" />
<glyph unicode="&#x1e9e;" horiz-adv-x="1460" d="M176 0v1430h1090v-218l-322 -374v-9q187 -5 308.5 -111t121.5 -298q0 -202 -124.5 -323.5t-334.5 -121.5q-269 0 -407 179l151 143q104 -129 256 -129q103 0 161.5 59t58.5 154v65q0 96 -60.5 151.5t-177.5 55.5h-195v193l332 385h-626v-1231h-232z" />
<glyph unicode="&#x1ea0;" horiz-adv-x="1355" d="M45 0l487 1430h291l488 -1430h-242l-129 387h-534l-125 -387h-236zM461 586h422l-205 631h-10zM545 -231q0 50 32.5 79t98.5 29t98.5 -29t32.5 -79v-37q0 -50 -32.5 -79.5t-98.5 -29.5t-98.5 29.5t-32.5 79.5v37z" />
<glyph unicode="&#x1ea1;" horiz-adv-x="1124" d="M82 293q0 158 116 238.5t339 80.5h192v90q0 99 -54.5 152t-164.5 53q-163 0 -254 -145l-133 121q122 207 401 207q205 0 316.5 -97t111.5 -276v-535h113v-182h-125q-84 0 -132.5 48t-59.5 130h-11q-30 -99 -111.5 -151t-199.5 -52q-162 0 -253 86t-91 232zM309 289 q0 -70 48 -107t132 -37q105 0 172.5 46.5t67.5 123.5v154h-188q-232 0 -232 -143v-37zM391 -231q0 50 32.5 79t98.5 29t98.5 -29t32.5 -79v-37q0 -50 -32.5 -79.5t-98.5 -29.5t-98.5 29.5t-32.5 79.5v37z" />
<glyph unicode="&#x1ea2;" horiz-adv-x="1355" d="M45 0l487 1430h291l488 -1430h-242l-129 387h-534l-125 -387h-236zM461 586h422l-205 631h-10zM473 1776v163h252q88 0 128 -35.5t40 -93.5q0 -98 -107 -231l-53 -63l-119 57l103 203h-244z" />
<glyph unicode="&#x1ea3;" horiz-adv-x="1124" d="M82 293q0 158 116 238.5t339 80.5h192v90q0 99 -54.5 152t-164.5 53q-163 0 -254 -145l-133 121q122 207 401 207q205 0 316.5 -97t111.5 -276v-535h113v-182h-125q-84 0 -132.5 48t-59.5 130h-11q-30 -99 -111.5 -151t-199.5 -52q-162 0 -253 86t-91 232zM309 289 q0 -70 48 -107t132 -37q105 0 172.5 46.5t67.5 123.5v154h-188q-232 0 -232 -143v-37zM328 1436v163h252q88 0 128 -35.5t40 -93.5q0 -98 -107 -231l-53 -63l-119 57l102 203h-243z" />
<glyph unicode="&#x1ea4;" horiz-adv-x="1355" d="M45 0l487 1430h291l488 -1430h-242l-129 387h-534l-125 -387h-236zM319 1612l256 286h201l256 -286l-108 -92l-248 223l-248 -223zM461 586h422l-205 631h-10zM881 1862l186 368l182 -90l-241 -340z" />
<glyph unicode="&#x1ea5;" horiz-adv-x="1124" d="M82 293q0 158 116 238.5t339 80.5h192v90q0 99 -54.5 152t-164.5 53q-163 0 -254 -145l-133 121q122 207 401 207q205 0 316.5 -97t111.5 -276v-535h113v-182h-125q-84 0 -132.5 48t-59.5 130h-11q-30 -99 -111.5 -151t-199.5 -52q-162 0 -253 86t-91 232zM174 1272 l256 284h201l256 -284l-109 -92l-248 223l-247 -223zM309 289q0 -70 48 -107t132 -37q105 0 172.5 46.5t67.5 123.5v154h-188q-232 0 -232 -143v-37zM735 1522l187 368l182 -90l-242 -340z" />
<glyph unicode="&#x1ea6;" horiz-adv-x="1355" d="M45 0l487 1430h291l488 -1430h-242l-129 387h-534l-125 -387h-236zM102 2140l183 90l186 -368l-127 -62zM319 1612l256 286h201l256 -286l-108 -92l-248 223l-248 -223zM461 586h422l-205 631h-10z" />
<glyph unicode="&#x1ea7;" horiz-adv-x="1124" d="M-43 1800l182 90l187 -368l-127 -62zM82 293q0 158 116 238.5t339 80.5h192v90q0 99 -54.5 152t-164.5 53q-163 0 -254 -145l-133 121q122 207 401 207q205 0 316.5 -97t111.5 -276v-535h113v-182h-125q-84 0 -132.5 48t-59.5 130h-11q-30 -99 -111.5 -151t-199.5 -52 q-162 0 -253 86t-91 232zM174 1272l256 284h201l256 -284l-109 -92l-248 223l-247 -223zM309 289q0 -70 48 -107t132 -37q105 0 172.5 46.5t67.5 123.5v154h-188q-232 0 -232 -143v-37z" />
<glyph unicode="&#x1ea8;" horiz-adv-x="1355" d="M45 0l487 1430h291l488 -1430h-242l-129 387h-534l-125 -387h-236zM319 1612l256 286h201l256 -286l-108 -92l-248 223l-248 -223zM461 586h422l-205 631h-10zM768 2050v156h246q87 0 127.5 -35.5t40.5 -91.5q0 -87 -113 -234l-53 -63l-109 57l109 211h-248z" />
<glyph unicode="&#x1ea9;" horiz-adv-x="1124" d="M82 293q0 158 116 238.5t339 80.5h192v90q0 99 -54.5 152t-164.5 53q-163 0 -254 -145l-133 121q122 207 401 207q205 0 316.5 -97t111.5 -276v-535h113v-182h-125q-84 0 -132.5 48t-59.5 130h-11q-30 -99 -111.5 -151t-199.5 -52q-162 0 -253 86t-91 232zM174 1272 l256 284h201l256 -284l-109 -92l-248 223l-247 -223zM309 289q0 -70 48 -107t132 -37q105 0 172.5 46.5t67.5 123.5v154h-188q-232 0 -232 -143v-37zM623 1708v158h245q87 0 127.5 -36t40.5 -93q0 -86 -112 -232l-54 -63l-108 57l108 209h-247z" />
<glyph unicode="&#x1eaa;" horiz-adv-x="1355" d="M45 0l487 1430h291l488 -1430h-242l-129 387h-534l-125 -387h-236zM315 2083q77 119 211 119q31 0 64.5 -9.5t46 -15.5t49.5 -25q102 -47 152 -47q55 0 118 54l80 -97q-77 -118 -211 -118q-32 0 -63 8t-48 15.5t-48 23.5q-96 47 -152 47q-57 0 -119 -53zM322 1612 l253 274h201l254 -274l-106 -92l-248 215l-248 -215zM461 586h422l-205 631h-10z" />
<glyph unicode="&#x1eab;" horiz-adv-x="1124" d="M82 293q0 158 116 238.5t339 80.5h192v90q0 99 -54.5 152t-164.5 53q-163 0 -254 -145l-133 121q122 207 401 207q205 0 316.5 -97t111.5 -276v-535h113v-182h-125q-84 0 -132.5 48t-59.5 130h-11q-30 -99 -111.5 -151t-199.5 -52q-162 0 -253 86t-91 232zM170 1743 q76 117 211 117q32 0 63.5 -8.5t48 -16t48.5 -23.5q96 -47 151 -47q56 0 119 54l80 -99q-78 -116 -211 -116q-32 0 -63.5 8t-49 16t-47.5 23q-96 47 -151 47q-57 0 -119 -53zM176 1272l254 274h201l254 -274l-107 -92l-248 215l-247 -215zM309 289q0 -70 48 -107t132 -37 q105 0 172.5 46.5t67.5 123.5v154h-188q-232 0 -232 -143v-37z" />
<glyph unicode="&#x1eac;" horiz-adv-x="1355" d="M45 0l487 1430h291l488 -1430h-242l-129 387h-534l-125 -387h-236zM317 1626l246 307h225l246 -307l-114 -86l-244 238l-244 -238zM461 586h422l-205 631h-10zM545 -231q0 50 32.5 79t98.5 29t98.5 -29t32.5 -79v-37q0 -50 -32.5 -79.5t-98.5 -29.5t-98.5 29.5 t-32.5 79.5v37z" />
<glyph unicode="&#x1ead;" horiz-adv-x="1124" d="M82 293q0 158 116 238.5t339 80.5h192v90q0 99 -54.5 152t-164.5 53q-163 0 -254 -145l-133 121q122 207 401 207q205 0 316.5 -97t111.5 -276v-535h113v-182h-125q-84 0 -132.5 48t-59.5 130h-11q-30 -99 -111.5 -151t-199.5 -52q-162 0 -253 86t-91 232zM172 1286 l246 307h225l246 -307l-115 -88l-244 240l-243 -240zM309 289q0 -70 48 -107t132 -37q105 0 172.5 46.5t67.5 123.5v154h-188q-232 0 -232 -143v-37zM391 -231q0 50 32.5 79t98.5 29t98.5 -29t32.5 -79v-37q0 -50 -32.5 -79.5t-98.5 -29.5t-98.5 29.5t-32.5 79.5v37z" />
<glyph unicode="&#x1eae;" horiz-adv-x="1355" d="M45 0l487 1430h291l488 -1430h-242l-129 387h-534l-125 -387h-236zM324 1804l118 68l43 -70q37 -61 81.5 -88.5t109.5 -27.5t109 27.5t81 88.5l43 70l119 -68q-16 -42 -32.5 -76.5t-46.5 -73.5t-65.5 -65t-89.5 -43.5t-118 -17.5t-118 17.5t-89.5 43.5t-65.5 65 t-46.5 73.5t-32.5 76.5zM461 586h422l-205 631h-10zM571 1862l185 368l180 -90l-238 -340z" />
<glyph unicode="&#x1eaf;" horiz-adv-x="1124" d="M82 293q0 158 116 238.5t339 80.5h192v90q0 99 -54.5 152t-164.5 53q-163 0 -254 -145l-133 121q122 207 401 207q205 0 316.5 -97t111.5 -276v-535h113v-182h-125q-84 0 -132.5 48t-59.5 130h-11q-30 -99 -111.5 -151t-199.5 -52q-162 0 -253 86t-91 232zM176 1464 l119 68l43 -66q41 -62 85 -92.5t107 -30.5t107.5 30.5t85.5 92.5l43 66l119 -68q-15 -42 -32.5 -76.5t-47.5 -74t-66.5 -66t-90.5 -44t-118 -17.5q-79 0 -141.5 25t-103.5 69.5t-65 87t-44 96.5zM309 289q0 -70 48 -107t132 -37q105 0 172.5 46.5t67.5 123.5v154h-188 q-232 0 -232 -143v-37zM426 1522l184 368l181 -90l-238 -340z" />
<glyph unicode="&#x1eb0;" horiz-adv-x="1355" d="M45 0l487 1430h291l488 -1430h-242l-129 387h-534l-125 -387h-236zM324 1804l118 68l43 -70q37 -61 81.5 -88.5t109.5 -27.5t109 27.5t81 88.5l43 70l119 -68q-16 -42 -32.5 -76.5t-46.5 -73.5t-65.5 -65t-89.5 -43.5t-118 -17.5t-118 17.5t-89.5 43.5t-65.5 65 t-46.5 73.5t-32.5 76.5zM418 2140l180 90l182 -366l-127 -64zM461 586h422l-205 631h-10z" />
<glyph unicode="&#x1eb1;" horiz-adv-x="1124" d="M82 293q0 158 116 238.5t339 80.5h192v90q0 99 -54.5 152t-164.5 53q-163 0 -254 -145l-133 121q122 207 401 207q205 0 316.5 -97t111.5 -276v-535h113v-182h-125q-84 0 -132.5 48t-59.5 130h-11q-30 -99 -111.5 -151t-199.5 -52q-162 0 -253 86t-91 232zM176 1464 l119 68l43 -66q41 -62 85 -92.5t107 -30.5t107.5 30.5t85.5 92.5l43 66l119 -68q-15 -42 -32.5 -76.5t-47.5 -74t-66.5 -66t-90.5 -44t-118 -17.5q-79 0 -141.5 25t-103.5 69.5t-65 87t-44 96.5zM272 1800l181 90l182 -366l-127 -64zM309 289q0 -70 48 -107t132 -37 q105 0 172.5 46.5t67.5 123.5v154h-188q-232 0 -232 -143v-37z" />
<glyph unicode="&#x1eb2;" horiz-adv-x="1355" d="M45 0l487 1430h291l488 -1430h-242l-129 387h-534l-125 -387h-236zM324 1804l118 68l43 -70q37 -61 81.5 -88.5t109.5 -27.5t109 27.5t81 88.5l43 70l119 -68q-16 -42 -32.5 -76.5t-46.5 -73.5t-65.5 -65t-89.5 -43.5t-118 -17.5t-118 17.5t-89.5 43.5t-65.5 65 t-46.5 73.5t-32.5 76.5zM457 2050v156h229q89 0 128.5 -35t39.5 -92q0 -96 -111 -234l-51 -63l-110 55l108 213h-233zM461 586h422l-205 631h-10z" />
<glyph unicode="&#x1eb3;" horiz-adv-x="1124" d="M82 293q0 158 116 238.5t339 80.5h192v90q0 99 -54.5 152t-164.5 53q-163 0 -254 -145l-133 121q122 207 401 207q205 0 316.5 -97t111.5 -276v-535h113v-182h-125q-84 0 -132.5 48t-59.5 130h-11q-30 -99 -111.5 -151t-199.5 -52q-162 0 -253 86t-91 232zM176 1464 l119 68l43 -66q41 -62 85 -92.5t107 -30.5t107.5 30.5t85.5 92.5l43 66l119 -68q-15 -42 -32.5 -76.5t-47.5 -74t-66.5 -66t-90.5 -44t-118 -17.5q-79 0 -141.5 25t-103.5 69.5t-65 87t-44 96.5zM309 289q0 -70 48 -107t132 -37q105 0 172.5 46.5t67.5 123.5v154h-188 q-232 0 -232 -143v-37zM311 1708v158h230q89 0 128.5 -35.5t39.5 -93.5q0 -94 -111 -232l-51 -63l-111 55l109 211h-234z" />
<glyph unicode="&#x1eb4;" horiz-adv-x="1355" d="M45 0l487 1430h291l488 -1430h-242l-129 387h-534l-125 -387h-236zM317 2075q78 116 211 116q31 0 63 -9t46.5 -16t48.5 -24q98 -45 148 -45q33 0 59 12t61 41l80 -98q-80 -117 -211 -117q-16 0 -32.5 2.5t-27 4.5t-28 8.5t-23 8.5t-25 11t-21.5 10q-102 50 -150 50 q-56 0 -119 -54zM324 1804l118 68l43 -70q37 -61 81.5 -88.5t109.5 -27.5t109 27.5t81 88.5l43 70l119 -68q-16 -42 -32.5 -76.5t-46.5 -73.5t-65.5 -65t-89.5 -43.5t-118 -17.5t-118 17.5t-89.5 43.5t-65.5 65t-46.5 73.5t-32.5 76.5zM461 586h422l-205 631h-10z" />
<glyph unicode="&#x1eb5;" horiz-adv-x="1124" d="M82 293q0 158 116 238.5t339 80.5h192v90q0 99 -54.5 152t-164.5 53q-163 0 -254 -145l-133 121q122 207 401 207q205 0 316.5 -97t111.5 -276v-535h113v-182h-125q-84 0 -132.5 48t-59.5 130h-11q-30 -99 -111.5 -151t-199.5 -52q-162 0 -253 86t-91 232zM172 1735 q78 116 211 116q66 0 158 -47q96 -47 147 -47q33 0 59.5 12.5t61.5 40.5l80 -96q-81 -119 -211 -119q-14 0 -27 1t-26 4.5t-22 5.5t-23 8t-20 8t-21.5 9t-18.5 9q-102 50 -149 50q-56 0 -119 -54zM176 1464l119 68l43 -66q41 -62 85 -92.5t107 -30.5t107.5 30.5t85.5 92.5 l43 66l119 -68q-15 -42 -32.5 -76.5t-47.5 -74t-66.5 -66t-90.5 -44t-118 -17.5q-79 0 -141.5 25t-103.5 69.5t-65 87t-44 96.5zM309 289q0 -70 48 -107t132 -37q105 0 172.5 46.5t67.5 123.5v154h-188q-232 0 -232 -143v-37z" />
<glyph unicode="&#x1eb6;" horiz-adv-x="1355" d="M45 0l487 1430h291l488 -1430h-242l-129 387h-534l-125 -387h-236zM330 1841l123 64l41 -68q40 -66 78 -96.5t102 -30.5t102 30.5t78 96.5l41 68l123 -64q-15 -45 -30 -80t-43.5 -78t-63 -70.5t-88.5 -47t-119 -19.5t-119 19.5t-88.5 47t-63 70.5t-43.5 78t-30 80z M461 586h422l-205 631h-10zM545 -231q0 50 32.5 79t98.5 29t98.5 -29t32.5 -79v-37q0 -50 -32.5 -79.5t-98.5 -29.5t-98.5 29.5t-32.5 79.5v37z" />
<glyph unicode="&#x1eb7;" horiz-adv-x="1124" d="M82 293q0 158 116 238.5t339 80.5h192v90q0 99 -54.5 152t-164.5 53q-163 0 -254 -145l-133 121q122 207 401 207q205 0 316.5 -97t111.5 -276v-535h113v-182h-125q-84 0 -132.5 48t-59.5 130h-11q-30 -99 -111.5 -151t-199.5 -52q-162 0 -253 86t-91 232zM184 1501 l123 62l43 -68q40 -65 78 -95t100 -30t100.5 30t78.5 95l43 68l122 -62q-16 -46 -30.5 -80.5t-43.5 -77.5t-63 -70.5t-88 -47t-119 -19.5t-119 19.5t-88 47t-63 70.5t-43.5 77.5t-30.5 80.5zM309 289q0 -70 48 -107t132 -37q105 0 172.5 46.5t67.5 123.5v154h-188 q-232 0 -232 -143v-37zM391 -231q0 50 32.5 79t98.5 29t98.5 -29t32.5 -79v-37q0 -50 -32.5 -79.5t-98.5 -29.5t-98.5 29.5t-32.5 79.5v37z" />
<glyph unicode="&#x1eb8;" horiz-adv-x="1214" d="M176 0v1430h916v-205h-684v-398h620v-204h-620v-418h684v-205h-916zM502 -231q0 50 32.5 79t98.5 29t98.5 -29t32.5 -79v-37q0 -50 -32.5 -79.5t-98.5 -29.5t-98.5 29.5t-32.5 79.5v37z" />
<glyph unicode="&#x1eb9;" horiz-adv-x="1138" d="M88 532q0 256 132 407t358 151q152 0 260.5 -72t160.5 -190.5t52 -268.5v-84h-732v-35q0 -126 74.5 -203t206.5 -77q182 0 281 159l131 -129q-62 -99 -175 -157t-259 -58q-227 0 -358.5 150.5t-131.5 406.5zM319 623h496v20q0 124 -63.5 198t-173.5 74q-115 0 -187 -77.5 t-72 -200.5v-14zM449 -231q0 50 32.5 79t98.5 29t98.5 -29t32.5 -79v-37q0 -50 -32.5 -79.5t-98.5 -29.5t-98.5 29.5t-32.5 79.5v37z" />
<glyph unicode="&#x1eba;" horiz-adv-x="1214" d="M176 0v1430h916v-205h-684v-398h620v-204h-620v-418h684v-205h-916zM430 1776v163h252q88 0 128 -35.5t40 -93.5q0 -98 -107 -231l-53 -63l-119 57l103 203h-244z" />
<glyph unicode="&#x1ebb;" horiz-adv-x="1138" d="M88 532q0 256 132 407t358 151q152 0 260.5 -72t160.5 -190.5t52 -268.5v-84h-732v-35q0 -126 74.5 -203t206.5 -77q182 0 281 159l131 -129q-62 -99 -175 -157t-259 -58q-227 0 -358.5 150.5t-131.5 406.5zM319 623h496v20q0 124 -63.5 198t-173.5 74q-115 0 -187 -77.5 t-72 -200.5v-14zM377 1436v163h252q88 0 128 -35.5t40 -93.5q0 -98 -107 -231l-53 -63l-119 57l103 203h-244z" />
<glyph unicode="&#x1ebc;" horiz-adv-x="1214" d="M176 0v1430h916v-205h-684v-398h620v-204h-620v-418h684v-205h-916zM270 1733q77 118 211 118q32 0 64 -9t47 -16t49 -24q96 -47 152 -47t118 53l84 -106q-77 -119 -211 -119q-31 0 -64 9t-46.5 15.5t-48.5 24.5q-96 47 -152 47q-57 0 -119 -53z" />
<glyph unicode="&#x1ebd;" horiz-adv-x="1138" d="M88 532q0 256 132 407t358 151q152 0 260.5 -72t160.5 -190.5t52 -268.5v-84h-732v-35q0 -126 74.5 -203t206.5 -77q182 0 281 159l131 -129q-62 -99 -175 -157t-259 -58q-227 0 -358.5 150.5t-131.5 406.5zM217 1393q77 118 211 118q32 0 64 -9t47 -16t49 -24 q100 -49 151 -49q55 0 119 55l84 -106q-77 -119 -211 -119q-32 0 -64 9t-47 16t-49 24q-100 49 -151 49q-55 0 -119 -55zM319 623h496v20q0 124 -63.5 198t-173.5 74q-115 0 -187 -77.5t-72 -200.5v-14z" />
<glyph unicode="&#x1ebe;" horiz-adv-x="1214" d="M176 0v1430h916v-205h-684v-398h620v-204h-620v-418h684v-205h-916zM276 1612l256 286h201l256 -286l-108 -92l-248 223l-248 -223zM838 1862l186 368l182 -90l-241 -340z" />
<glyph unicode="&#x1ebf;" horiz-adv-x="1138" d="M88 532q0 256 132 407t358 151q152 0 260.5 -72t160.5 -190.5t52 -268.5v-84h-732v-35q0 -126 74.5 -203t206.5 -77q182 0 281 159l131 -129q-62 -99 -175 -157t-259 -58q-227 0 -358.5 150.5t-131.5 406.5zM223 1272l256 284h201l256 -284l-109 -92l-247 223l-248 -223z M319 623h496v20q0 124 -63.5 198t-173.5 74q-115 0 -187 -77.5t-72 -200.5v-14zM784 1522l187 368l182 -90l-242 -340z" />
<glyph unicode="&#x1ec0;" horiz-adv-x="1214" d="M59 2140l183 90l186 -368l-127 -62zM176 0v1430h916v-205h-684v-398h620v-204h-620v-418h684v-205h-916zM276 1612l256 286h201l256 -286l-108 -92l-248 223l-248 -223z" />
<glyph unicode="&#x1ec1;" horiz-adv-x="1138" d="M6 1800l182 90l187 -368l-127 -62zM88 532q0 256 132 407t358 151q152 0 260.5 -72t160.5 -190.5t52 -268.5v-84h-732v-35q0 -126 74.5 -203t206.5 -77q182 0 281 159l131 -129q-62 -99 -175 -157t-259 -58q-227 0 -358.5 150.5t-131.5 406.5zM223 1272l256 284h201 l256 -284l-109 -92l-247 223l-248 -223zM319 623h496v20q0 124 -63.5 198t-173.5 74q-115 0 -187 -77.5t-72 -200.5v-14z" />
<glyph unicode="&#x1ec2;" horiz-adv-x="1214" d="M176 0v1430h916v-205h-684v-398h620v-204h-620v-418h684v-205h-916zM276 1612l256 286h201l256 -286l-108 -92l-248 223l-248 -223zM725 2050v156h246q87 0 127.5 -35.5t40.5 -91.5q0 -87 -113 -234l-53 -63l-109 57l109 211h-248z" />
<glyph unicode="&#x1ec3;" horiz-adv-x="1138" d="M88 532q0 256 132 407t358 151q152 0 260.5 -72t160.5 -190.5t52 -268.5v-84h-732v-35q0 -126 74.5 -203t206.5 -77q182 0 281 159l131 -129q-62 -99 -175 -157t-259 -58q-227 0 -358.5 150.5t-131.5 406.5zM223 1272l256 284h201l256 -284l-109 -92l-247 223l-248 -223z M319 623h496v20q0 124 -63.5 198t-173.5 74q-115 0 -187 -77.5t-72 -200.5v-14zM672 1708v158h246q87 0 127 -36t40 -93q0 -86 -112 -232l-53 -63l-109 57l109 209h-248z" />
<glyph unicode="&#x1ec4;" horiz-adv-x="1214" d="M176 0v1430h916v-205h-684v-398h620v-204h-620v-418h684v-205h-916zM272 2083q77 119 211 119q31 0 64.5 -9.5t46 -15.5t49.5 -25q102 -47 152 -47q55 0 118 54l80 -97q-77 -118 -211 -118q-32 0 -63 8t-48 15.5t-48 23.5q-96 47 -152 47q-57 0 -119 -53zM279 1612 l253 274h201l254 -274l-106 -92l-248 215l-248 -215z" />
<glyph unicode="&#x1ec5;" horiz-adv-x="1138" d="M88 532q0 256 132 407t358 151q152 0 260.5 -72t160.5 -190.5t52 -268.5v-84h-732v-35q0 -126 74.5 -203t206.5 -77q182 0 281 159l131 -129q-62 -99 -175 -157t-259 -58q-227 0 -358.5 150.5t-131.5 406.5zM219 1743q76 117 211 117q32 0 63.5 -8.5t48 -16t48.5 -23.5 q96 -47 151 -47q56 0 119 54l80 -99q-78 -116 -211 -116q-32 0 -63.5 8t-49 16t-47.5 23q-96 47 -151 47q-57 0 -119 -53zM225 1272l254 274h201l254 -274l-107 -92l-247 215l-248 -215zM319 623h496v20q0 124 -63.5 198t-173.5 74q-115 0 -187 -77.5t-72 -200.5v-14z" />
<glyph unicode="&#x1ec6;" horiz-adv-x="1214" d="M176 0v1430h916v-205h-684v-398h620v-204h-620v-418h684v-205h-916zM274 1626l246 307h225l246 -307l-114 -86l-244 238l-244 -238zM502 -231q0 50 32.5 79t98.5 29t98.5 -29t32.5 -79v-37q0 -50 -32.5 -79.5t-98.5 -29.5t-98.5 29.5t-32.5 79.5v37z" />
<glyph unicode="&#x1ec7;" horiz-adv-x="1138" d="M88 532q0 256 132 407t358 151q152 0 260.5 -72t160.5 -190.5t52 -268.5v-84h-732v-35q0 -126 74.5 -203t206.5 -77q182 0 281 159l131 -129q-62 -99 -175 -157t-259 -58q-227 0 -358.5 150.5t-131.5 406.5zM221 1286l246 307h225l246 -307l-115 -88l-243 240l-244 -240z M319 623h496v20q0 124 -63.5 198t-173.5 74q-115 0 -187 -77.5t-72 -200.5v-14zM449 -231q0 50 32.5 79t98.5 29t98.5 -29t32.5 -79v-37q0 -50 -32.5 -79.5t-98.5 -29.5t-98.5 29.5t-32.5 79.5v37z" />
<glyph unicode="&#x1ec8;" horiz-adv-x="851" d="M115 0v188h194v1053h-194v189h622v-189h-196v-1053h196v-188h-622zM221 1776v163h252q88 0 128 -35.5t40 -93.5q0 -99 -106 -231l-54 -63l-119 57l103 203h-244z" />
<glyph unicode="&#x1ec9;" horiz-adv-x="542" d="M70 1436v163h252q88 0 127.5 -35.5t39.5 -93.5q0 -99 -106 -231l-53 -63l-119 57l102 203h-243zM160 0v1065h223v-1065h-223z" />
<glyph unicode="&#x1eca;" horiz-adv-x="851" d="M115 0v188h194v1053h-194v189h622v-189h-196v-1053h196v-188h-622zM293 -231q0 50 32.5 79t98.5 29t98.5 -29t32.5 -79v-37q0 -50 -32.5 -79.5t-98.5 -29.5t-98.5 29.5t-32.5 79.5v37z" />
<glyph unicode="&#x1ecb;" horiz-adv-x="542" d="M139 1372v35q0 53 33.5 85t99.5 32t98.5 -31.5t32.5 -85.5v-35q0 -54 -32.5 -85.5t-98.5 -31.5t-99.5 32t-33.5 85zM141 -231q0 50 32.5 79t98.5 29t98.5 -29t32.5 -79v-37q0 -50 -32.5 -79.5t-98.5 -29.5t-98.5 29.5t-32.5 79.5v37zM160 0v1065h223v-1065h-223z" />
<glyph unicode="&#x1ecc;" horiz-adv-x="1458" d="M113 715q0 355 165.5 547t450.5 192t451 -192t166 -547t-166 -547.5t-451 -192.5t-450.5 192.5t-165.5 547.5zM360 602q0 -193 101 -306.5t268 -113.5t268 113.5t101 306.5v225q0 193 -101 306.5t-268 113.5t-268 -113.5t-101 -306.5v-225zM598 -231q0 50 32.5 79 t98.5 29t98.5 -29t32.5 -79v-37q0 -50 -32.5 -79.5t-98.5 -29.5t-98.5 29.5t-32.5 79.5v37z" />
<glyph unicode="&#x1ecd;" horiz-adv-x="1155" d="M88 532q0 255 133.5 406.5t356.5 151.5t356 -151.5t133 -406.5t-133 -406t-356 -151t-356.5 151t-133.5 406zM324 442q0 -138 68.5 -210t185.5 -72t185 72t68 210v181q0 138 -68 210t-185 72t-185.5 -72t-68.5 -210v-181zM444 -231q0 50 32.5 79t98.5 29t99 -29t33 -79 v-37q0 -50 -33 -79.5t-99 -29.5t-98.5 29.5t-32.5 79.5v37z" />
<glyph unicode="&#x1ece;" horiz-adv-x="1458" d="M113 715q0 355 165.5 547t450.5 192t451 -192t166 -547t-166 -547.5t-451 -192.5t-450.5 192.5t-165.5 547.5zM360 602q0 -193 101 -306.5t268 -113.5t268 113.5t101 306.5v225q0 193 -101 306.5t-268 113.5t-268 -113.5t-101 -306.5v-225zM526 1776v163h252 q88 0 128 -35.5t40 -93.5q0 -99 -106 -231l-54 -63l-118 57l102 203h-244z" />
<glyph unicode="&#x1ecf;" horiz-adv-x="1155" d="M88 532q0 255 133.5 406.5t356.5 151.5t356 -151.5t133 -406.5t-133 -406t-356 -151t-356.5 151t-133.5 406zM324 442q0 -138 68.5 -210t185.5 -72t185 72t68 210v181q0 138 -68 210t-185 72t-185.5 -72t-68.5 -210v-181zM373 1436v163h252q88 0 128 -35.5t40 -93.5 q0 -98 -107 -231l-53 -63l-119 57l102 203h-243z" />
<glyph unicode="&#x1ed0;" horiz-adv-x="1458" d="M113 715q0 355 165.5 547t450.5 192t451 -192t166 -547t-166 -547.5t-451 -192.5t-450.5 192.5t-165.5 547.5zM360 602q0 -193 101 -306.5t268 -113.5t268 113.5t101 306.5v225q0 193 -101 306.5t-268 113.5t-268 -113.5t-101 -306.5v-225zM373 1612l256 286h200 l256 -286l-108 -92l-248 223l-248 -223zM934 1862l186 368l183 -90l-242 -340z" />
<glyph unicode="&#x1ed1;" horiz-adv-x="1155" d="M88 532q0 255 133.5 406.5t356.5 151.5t356 -151.5t133 -406.5t-133 -406t-356 -151t-356.5 151t-133.5 406zM219 1272l256 284h201l256 -284l-109 -92l-248 223l-247 -223zM324 442q0 -138 68.5 -210t185.5 -72t185 72t68 210v181q0 138 -68 210t-185 72t-185.5 -72 t-68.5 -210v-181zM780 1522l187 368l182 -90l-242 -340z" />
<glyph unicode="&#x1ed2;" horiz-adv-x="1458" d="M113 715q0 355 165.5 547t450.5 192t451 -192t166 -547t-166 -547.5t-451 -192.5t-450.5 192.5t-165.5 547.5zM156 2140l182 90l186 -368l-127 -62zM360 602q0 -193 101 -306.5t268 -113.5t268 113.5t101 306.5v225q0 193 -101 306.5t-268 113.5t-268 -113.5t-101 -306.5 v-225zM373 1612l256 286h200l256 -286l-108 -92l-248 223l-248 -223z" />
<glyph unicode="&#x1ed3;" horiz-adv-x="1155" d="M2 1800l182 90l187 -368l-127 -62zM88 532q0 255 133.5 406.5t356.5 151.5t356 -151.5t133 -406.5t-133 -406t-356 -151t-356.5 151t-133.5 406zM219 1272l256 284h201l256 -284l-109 -92l-248 223l-247 -223zM324 442q0 -138 68.5 -210t185.5 -72t185 72t68 210v181 q0 138 -68 210t-185 72t-185.5 -72t-68.5 -210v-181z" />
<glyph unicode="&#x1ed4;" horiz-adv-x="1458" d="M113 715q0 355 165.5 547t450.5 192t451 -192t166 -547t-166 -547.5t-451 -192.5t-450.5 192.5t-165.5 547.5zM360 602q0 -193 101 -306.5t268 -113.5t268 113.5t101 306.5v225q0 193 -101 306.5t-268 113.5t-268 -113.5t-101 -306.5v-225zM373 1612l256 286h200 l256 -286l-108 -92l-248 223l-248 -223zM821 2050v156h246q87 0 127.5 -35.5t40.5 -91.5q0 -87 -113 -234l-53 -63l-108 57l108 211h-248z" />
<glyph unicode="&#x1ed5;" horiz-adv-x="1155" d="M88 532q0 255 133.5 406.5t356.5 151.5t356 -151.5t133 -406.5t-133 -406t-356 -151t-356.5 151t-133.5 406zM219 1272l256 284h201l256 -284l-109 -92l-248 223l-247 -223zM324 442q0 -138 68.5 -210t185.5 -72t185 72t68 210v181q0 138 -68 210t-185 72t-185.5 -72 t-68.5 -210v-181zM668 1708v158h245q87 0 127.5 -36t40.5 -93q0 -86 -112 -232l-54 -63l-108 57l108 209h-247z" />
<glyph unicode="&#x1ed6;" horiz-adv-x="1458" d="M113 715q0 355 165.5 547t450.5 192t451 -192t166 -547t-166 -547.5t-451 -192.5t-450.5 192.5t-165.5 547.5zM360 602q0 -193 101 -306.5t268 -113.5t268 113.5t101 306.5v225q0 193 -101 306.5t-268 113.5t-268 -113.5t-101 -306.5v-225zM369 2083q77 119 211 119 q11 0 21.5 -1t21 -3t18.5 -3.5t19 -6t16.5 -6t17 -7t15 -7.5t16 -8.5t14.5 -7.5q102 -47 152 -47q56 0 119 54l80 -97q-77 -118 -211 -118q-32 0 -63.5 8t-49 16t-47.5 23q-96 47 -152 47t-118 -53zM375 1612l254 274h200l254 -274l-106 -92l-248 215l-248 -215z" />
<glyph unicode="&#x1ed7;" horiz-adv-x="1155" d="M88 532q0 255 133.5 406.5t356.5 151.5t356 -151.5t133 -406.5t-133 -406t-356 -151t-356.5 151t-133.5 406zM215 1743q76 117 211 117q32 0 63.5 -8.5t48 -16t48.5 -23.5q96 -47 151 -47q56 0 119 54l80 -99q-78 -116 -211 -116q-32 0 -63.5 8t-49 16t-47.5 23 q-96 47 -151 47q-57 0 -119 -53zM221 1272l254 274h201l254 -274l-107 -92l-248 215l-247 -215zM324 442q0 -138 68.5 -210t185.5 -72t185 72t68 210v181q0 138 -68 210t-185 72t-185.5 -72t-68.5 -210v-181z" />
<glyph unicode="&#x1ed8;" horiz-adv-x="1458" d="M113 715q0 355 165.5 547t450.5 192t451 -192t166 -547t-166 -547.5t-451 -192.5t-450.5 192.5t-165.5 547.5zM360 602q0 -193 101 -306.5t268 -113.5t268 113.5t101 306.5v225q0 193 -101 306.5t-268 113.5t-268 -113.5t-101 -306.5v-225zM371 1626l245 307h226 l245 -307l-114 -86l-244 238l-244 -238zM598 -231q0 50 32.5 79t98.5 29t98.5 -29t32.5 -79v-37q0 -50 -32.5 -79.5t-98.5 -29.5t-98.5 29.5t-32.5 79.5v37z" />
<glyph unicode="&#x1ed9;" horiz-adv-x="1155" d="M88 532q0 255 133.5 406.5t356.5 151.5t356 -151.5t133 -406.5t-133 -406t-356 -151t-356.5 151t-133.5 406zM217 1286l246 307h225l246 -307l-115 -88l-244 240l-243 -240zM324 442q0 -138 68.5 -210t185.5 -72t185 72t68 210v181q0 138 -68 210t-185 72t-185.5 -72 t-68.5 -210v-181zM444 -231q0 50 32.5 79t98.5 29t99 -29t33 -79v-37q0 -50 -33 -79.5t-99 -29.5t-98.5 29.5t-32.5 79.5v37z" />
<glyph unicode="&#x1eda;" horiz-adv-x="1458" d="M113 715q0 355 165.5 547t450.5 192q100 0 186 -24h263v223h190v-199q0 -82 -34.5 -122t-127.5 -40h-55q195 -198 195 -577q0 -355 -166 -547.5t-451 -192.5t-450.5 192.5t-165.5 547.5zM360 602q0 -193 101 -306.5t268 -113.5t268 113.5t101 306.5v225q0 193 -101 306.5 t-268 113.5t-268 -113.5t-101 -306.5v-225zM612 1599l187 369l194 -94l-241 -340z" />
<glyph unicode="&#x1edb;" horiz-adv-x="1153" d="M88 535q0 255 133 405t357 150q83 0 163 -25h160v223h193v-196q0 -82 -35 -122t-119 -40q125 -150 125 -395q0 -255 -132 -407.5t-355 -152.5t-356.5 152.5t-133.5 407.5zM324 444q0 -137 68.5 -210.5t185.5 -73.5q116 0 183.5 73.5t67.5 210.5v179q0 138 -67 210 t-184 72t-185.5 -72t-68.5 -210v-179zM459 1260l186 368l195 -94l-242 -342z" />
<glyph unicode="&#x1edc;" horiz-adv-x="1458" d="M113 715q0 355 165.5 547t450.5 192q100 0 186 -24h263v223h190v-199q0 -82 -34.5 -122t-127.5 -40h-55q195 -198 195 -577q0 -355 -166 -547.5t-451 -192.5t-450.5 192.5t-165.5 547.5zM360 602q0 -193 101 -306.5t268 -113.5t268 113.5t101 306.5v225q0 193 -101 306.5 t-268 113.5t-268 -113.5t-101 -306.5v-225zM465 1874l194 94l187 -369l-139 -65z" />
<glyph unicode="&#x1edd;" horiz-adv-x="1153" d="M88 535q0 255 133 405t357 150q83 0 163 -25h160v223h193v-196q0 -82 -35 -122t-119 -40q125 -150 125 -395q0 -255 -132 -407.5t-355 -152.5t-356.5 152.5t-133.5 407.5zM311 1534l195 94l186 -368l-139 -68zM324 444q0 -137 68.5 -210.5t185.5 -73.5q116 0 183.5 73.5 t67.5 210.5v179q0 138 -67 210t-184 72t-185.5 -72t-68.5 -210v-179z" />
<glyph unicode="&#x1ede;" horiz-adv-x="1458" d="M113 715q0 355 165.5 547t450.5 192q100 0 186 -24h263v223h190v-199q0 -82 -34.5 -122t-127.5 -40h-55q195 -198 195 -577q0 -355 -166 -547.5t-451 -192.5t-450.5 192.5t-165.5 547.5zM360 602q0 -193 101 -306.5t268 -113.5t268 113.5t101 306.5v225q0 193 -101 306.5 t-268 113.5t-268 -113.5t-101 -306.5v-225zM526 1776v163h252q88 0 128 -35.5t40 -93.5q0 -99 -106 -231l-54 -63l-118 57l102 203h-244z" />
<glyph unicode="&#x1edf;" horiz-adv-x="1153" d="M88 535q0 255 133 405t357 150q83 0 163 -25h160v223h193v-196q0 -82 -35 -122t-119 -40q125 -150 125 -395q0 -255 -132 -407.5t-355 -152.5t-356.5 152.5t-133.5 407.5zM324 444q0 -137 68.5 -210.5t185.5 -73.5q116 0 183.5 73.5t67.5 210.5v179q0 138 -67 210 t-184 72t-185.5 -72t-68.5 -210v-179zM373 1436v163h252q88 0 128 -35.5t40 -93.5q0 -98 -107 -231l-53 -63l-119 57l102 203h-243z" />
<glyph unicode="&#x1ee0;" horiz-adv-x="1458" d="M113 715q0 355 165.5 547t450.5 192q100 0 186 -24h263v223h190v-199q0 -82 -34.5 -122t-127.5 -40h-55q195 -198 195 -577q0 -355 -166 -547.5t-451 -192.5t-450.5 192.5t-165.5 547.5zM360 602q0 -193 101 -306.5t268 -113.5t268 113.5t101 306.5v225q0 193 -101 306.5 t-268 113.5t-268 -113.5t-101 -306.5v-225zM401 1726q77 119 197 119q27 0 55.5 -8t41 -14t42.5 -21q34 -17 48.5 -23.5t37 -13t41.5 -6.5q52 0 109 51l84 -102q-77 -119 -197 -119q-27 0 -55.5 8t-41 14t-42.5 21q-34 17 -48.5 23.5t-37 13t-41.5 6.5q-52 0 -109 -51z" />
<glyph unicode="&#x1ee1;" horiz-adv-x="1153" d="M88 535q0 255 133 405t357 150q83 0 163 -25h160v223h193v-196q0 -82 -35 -122t-119 -40q125 -150 125 -395q0 -255 -132 -407.5t-355 -152.5t-356.5 152.5t-133.5 407.5zM248 1386q77 119 196 119q27 0 55.5 -8t42 -14t42.5 -21q81 -43 127 -43q54 0 108 51l84 -102 q-77 -119 -196 -119q-27 0 -55.5 8t-42 14t-42.5 21q-34 17 -48.5 23.5t-37 13t-41.5 6.5q-51 0 -108 -51zM324 444q0 -137 68.5 -210.5t185.5 -73.5q116 0 183.5 73.5t67.5 210.5v179q0 138 -67 210t-184 72t-185.5 -72t-68.5 -210v-179z" />
<glyph unicode="&#x1ee2;" horiz-adv-x="1458" d="M113 715q0 355 165.5 547t450.5 192q100 0 186 -24h263v223h190v-199q0 -82 -34.5 -122t-127.5 -40h-55q195 -198 195 -577q0 -355 -166 -547.5t-451 -192.5t-450.5 192.5t-165.5 547.5zM360 602q0 -193 101 -306.5t268 -113.5t268 113.5t101 306.5v225q0 193 -101 306.5 t-268 113.5t-268 -113.5t-101 -306.5v-225zM598 -231q0 50 32.5 79t98.5 29t98.5 -29t32.5 -79v-37q0 -50 -32.5 -79.5t-98.5 -29.5t-98.5 29.5t-32.5 79.5v37z" />
<glyph unicode="&#x1ee3;" horiz-adv-x="1153" d="M88 535q0 255 133 405t357 150q83 0 163 -25h160v223h193v-196q0 -82 -35 -122t-119 -40q125 -150 125 -395q0 -255 -132 -407.5t-355 -152.5t-356.5 152.5t-133.5 407.5zM324 444q0 -137 68.5 -210.5t185.5 -73.5q116 0 183.5 73.5t67.5 210.5v179q0 138 -67 210 t-184 72t-185.5 -72t-68.5 -210v-179zM444 -231q0 50 32.5 79t98.5 29t99 -29t33 -79v-37q0 -50 -33 -79.5t-99 -29.5t-98.5 29.5t-32.5 79.5v37z" />
<glyph unicode="&#x1ee4;" horiz-adv-x="1404" d="M168 586v844h227v-881q0 -186 72 -276.5t235 -90.5q164 0 236 90.5t72 276.5v881h227v-844q0 -319 -123 -465t-412 -146q-288 0 -411 146t-123 465zM571 -231q0 50 32.5 79t98.5 29t99 -29t33 -79v-37q0 -50 -33 -79.5t-99 -29.5t-98.5 29.5t-32.5 79.5v37z" />
<glyph unicode="&#x1ee5;" horiz-adv-x="1187" d="M150 387v678h223v-649q0 -248 205 -248q94 0 160.5 48t66.5 136v713h223v-1065h-223v176h-8q-75 -201 -299 -201q-165 0 -256.5 108t-91.5 304zM455 -231q0 50 32.5 79t98.5 29t98.5 -29t32.5 -79v-37q0 -50 -32.5 -79.5t-98.5 -29.5t-98.5 29.5t-32.5 79.5v37z" />
<glyph unicode="&#x1ee6;" horiz-adv-x="1404" d="M168 586v844h227v-881q0 -186 72 -276.5t235 -90.5q164 0 236 90.5t72 276.5v881h227v-844q0 -319 -123 -465t-412 -146q-288 0 -411 146t-123 465zM500 1776v163h252q88 0 128 -35.5t40 -93.5q0 -98 -107 -231l-53 -63l-119 57l102 203h-243z" />
<glyph unicode="&#x1ee7;" horiz-adv-x="1187" d="M150 387v678h223v-649q0 -248 205 -248q94 0 160.5 48t66.5 136v713h223v-1065h-223v176h-8q-75 -201 -299 -201q-165 0 -256.5 108t-91.5 304zM387 1436v163h252q88 0 128 -35.5t40 -93.5q0 -98 -107 -231l-53 -63l-119 57l103 203h-244z" />
<glyph unicode="&#x1ee8;" horiz-adv-x="1404" d="M168 586v844h227v-881q0 -186 72 -276.5t235 -90.5q164 0 236 90.5t72 276.5v881h176v223h190v-201q0 -76 -31 -117t-108 -45v-704q0 -319 -123 -465t-412 -146q-288 0 -411 146t-123 465zM584 1599l186 369l195 -94l-242 -340z" />
<glyph unicode="&#x1ee9;" horiz-adv-x="1189" d="M150 387v678h223v-649q0 -248 205 -248q94 0 160.5 48t66.5 136v713h184v223h193v-201q0 -81 -33.5 -121t-120.5 -40v-926h-223v176h-8q-75 -201 -299 -201q-165 0 -256.5 108t-91.5 304zM473 1260l186 368l195 -94l-242 -342z" />
<glyph unicode="&#x1eea;" horiz-adv-x="1404" d="M168 586v844h227v-881q0 -186 72 -276.5t235 -90.5q164 0 236 90.5t72 276.5v881h176v223h190v-201q0 -76 -31 -117t-108 -45v-704q0 -319 -123 -465t-412 -146q-288 0 -411 146t-123 465zM436 1874l195 94l186 -369l-139 -65z" />
<glyph unicode="&#x1eeb;" horiz-adv-x="1189" d="M150 387v678h223v-649q0 -248 205 -248q94 0 160.5 48t66.5 136v713h184v223h193v-201q0 -81 -33.5 -121t-120.5 -40v-926h-223v176h-8q-75 -201 -299 -201q-165 0 -256.5 108t-91.5 304zM326 1534l194 94l187 -368l-140 -68z" />
<glyph unicode="&#x1eec;" horiz-adv-x="1404" d="M168 586v844h227v-881q0 -186 72 -276.5t235 -90.5q164 0 236 90.5t72 276.5v881h176v223h190v-201q0 -76 -31 -117t-108 -45v-704q0 -319 -123 -465t-412 -146q-288 0 -411 146t-123 465zM498 1776v163h252q88 0 128 -35.5t40 -93.5q0 -98 -107 -231l-53 -63l-119 57 l102 203h-243z" />
<glyph unicode="&#x1eed;" horiz-adv-x="1189" d="M150 387v678h223v-649q0 -248 205 -248q94 0 160.5 48t66.5 136v713h184v223h193v-201q0 -81 -33.5 -121t-120.5 -40v-926h-223v176h-8q-75 -201 -299 -201q-165 0 -256.5 108t-91.5 304zM387 1436v163h252q88 0 128 -35.5t40 -93.5q0 -98 -107 -231l-53 -63l-119 57 l103 203h-244z" />
<glyph unicode="&#x1eee;" horiz-adv-x="1404" d="M168 586v844h227v-881q0 -186 72 -276.5t235 -90.5q164 0 236 90.5t72 276.5v881h176v223h190v-201q0 -76 -31 -117t-108 -45v-704q0 -319 -123 -465t-412 -146q-288 0 -411 146t-123 465zM354 1726q77 119 197 119q27 0 55.5 -8t41 -14t42.5 -21q34 -17 48.5 -23.5 t37 -13t41.5 -6.5q52 0 109 51l84 -102q-77 -119 -197 -119q-27 0 -55.5 8t-41 14t-42.5 21q-34 17 -48.5 23.5t-37 13t-41.5 6.5q-52 0 -109 -51z" />
<glyph unicode="&#x1eef;" horiz-adv-x="1189" d="M150 387v678h223v-649q0 -248 205 -248q94 0 160.5 48t66.5 136v713h184v223h193v-201q0 -81 -33.5 -121t-120.5 -40v-926h-223v176h-8q-75 -201 -299 -201q-165 0 -256.5 108t-91.5 304zM266 1386q77 119 197 119q27 0 55.5 -8t41 -14t42.5 -21q81 -43 127 -43 q55 0 109 51l84 -102q-77 -119 -197 -119q-27 0 -55.5 8t-41 14t-42.5 21q-34 17 -48.5 23.5t-37 13t-41.5 6.5q-52 0 -109 -51z" />
<glyph unicode="&#x1ef0;" horiz-adv-x="1404" d="M168 586v844h227v-881q0 -186 72 -276.5t235 -90.5q164 0 236 90.5t72 276.5v881h176v223h190v-201q0 -76 -31 -117t-108 -45v-704q0 -319 -123 -465t-412 -146q-288 0 -411 146t-123 465zM569 -231q0 50 32.5 79t98.5 29t98.5 -29t32.5 -79v-37q0 -50 -32.5 -79.5 t-98.5 -29.5t-98.5 29.5t-32.5 79.5v37z" />
<glyph unicode="&#x1ef1;" horiz-adv-x="1189" d="M150 387v678h223v-649q0 -248 205 -248q94 0 160.5 48t66.5 136v713h184v223h193v-201q0 -81 -33.5 -121t-120.5 -40v-926h-223v176h-8q-75 -201 -299 -201q-165 0 -256.5 108t-91.5 304zM453 -231q0 50 32.5 79t98.5 29t98.5 -29t32.5 -79v-37q0 -50 -32.5 -79.5 t-98.5 -29.5t-98.5 29.5t-32.5 79.5v37z" />
<glyph unicode="&#x1ef2;" horiz-adv-x="1263" d="M23 1430h264l348 -637h6l346 637h254l-496 -863v-567h-231v563zM369 1874l194 94l187 -369l-140 -65z" />
<glyph unicode="&#x1ef3;" horiz-adv-x="1052" d="M25 1065h223l213 -627l61 -231h10l68 231l213 627h215l-448 -1276q-39 -110 -99 -154.5t-182 -44.5h-129v183h180l62 180zM266 1534l195 94l186 -368l-139 -68z" />
<glyph unicode="&#x1ef4;" horiz-adv-x="1263" d="M23 1430h264l348 -637h6l346 637h254l-496 -863v-567h-231v563zM500 -231q0 50 32.5 79t98.5 29t98.5 -29t32.5 -79v-37q0 -50 -32.5 -79.5t-98.5 -29.5t-98.5 29.5t-32.5 79.5v37z" />
<glyph unicode="&#x1ef5;" horiz-adv-x="1052" d="M25 1065h223l213 -627l61 -231h10l68 231l213 627h215l-448 -1276q-39 -110 -99 -154.5t-182 -44.5h-129v183h180l62 180zM707 -231q0 50 32.5 79t98.5 29t98.5 -29t32.5 -79v-37q0 -50 -32.5 -79.5t-98.5 -29.5t-98.5 29.5t-32.5 79.5v37z" />
<glyph unicode="&#x1ef6;" horiz-adv-x="1263" d="M23 1430h264l348 -637h6l346 637h254l-496 -863v-567h-231v563zM430 1776v163h252q88 0 128 -35.5t40 -93.5q0 -98 -107 -231l-53 -63l-119 57l103 203h-244z" />
<glyph unicode="&#x1ef7;" horiz-adv-x="1052" d="M25 1065h223l213 -627l61 -231h10l68 231l213 627h215l-448 -1276q-39 -110 -99 -154.5t-182 -44.5h-129v183h180l62 180zM328 1436v163h252q88 0 128 -35.5t40 -93.5q0 -98 -107 -231l-53 -63l-119 57l102 203h-243z" />
<glyph unicode="&#x1ef8;" horiz-adv-x="1263" d="M23 1430h264l348 -637h6l346 637h254l-496 -863v-567h-231v563zM270 1733q77 118 211 118q32 0 64 -9t47 -16t49 -24q96 -47 152 -47t118 53l84 -106q-77 -119 -211 -119q-31 0 -64 9t-46.5 15.5t-48.5 24.5q-96 47 -152 47q-57 0 -119 -53z" />
<glyph unicode="&#x1ef9;" horiz-adv-x="1052" d="M25 1065h223l213 -627l61 -231h10l68 231l213 627h215l-448 -1276q-39 -110 -99 -154.5t-182 -44.5h-129v183h180l62 180zM168 1393q77 118 211 118q32 0 64 -9t47 -16t49 -24q100 -49 151 -49q55 0 119 55l84 -106q-77 -119 -211 -119q-32 0 -64 9t-47 16t-49 24 q-100 49 -151 49q-55 0 -119 -55z" />
<glyph unicode="&#x2000;" horiz-adv-x="1159" />
<glyph unicode="&#x2001;" horiz-adv-x="2318" />
<glyph unicode="&#x2002;" horiz-adv-x="1159" />
<glyph unicode="&#x2003;" horiz-adv-x="2318" />
<glyph unicode="&#x2004;" horiz-adv-x="772" />
<glyph unicode="&#x2005;" horiz-adv-x="579" />
<glyph unicode="&#x2006;" horiz-adv-x="386" />
<glyph unicode="&#x2007;" horiz-adv-x="386" />
<glyph unicode="&#x2008;" horiz-adv-x="289" />
<glyph unicode="&#x2009;" horiz-adv-x="463" />
<glyph unicode="&#x200a;" horiz-adv-x="128" />
<glyph unicode="&#x2010;" horiz-adv-x="821" d="M127 510v227h567v-227h-567z" />
<glyph unicode="&#x2011;" horiz-adv-x="821" d="M127 510v227h567v-227h-567z" />
<glyph unicode="&#x2012;" horiz-adv-x="821" d="M127 510v227h567v-227h-567z" />
<glyph unicode="&#x2013;" horiz-adv-x="1204" d="M74 526v193h1056v-193h-1056z" />
<glyph unicode="&#x2014;" horiz-adv-x="1597" d="M74 526v193h1450v-193h-1450z" />
<glyph unicode="&#x2018;" horiz-adv-x="581" d="M137 1092v34q0 98 57 207t146 183h158q-133 -133 -168 -259q51 -10 76.5 -45t25.5 -84v-36q0 -59 -37.5 -95t-109.5 -36q-73 0 -110.5 36t-37.5 95z" />
<glyph unicode="&#x2019;" horiz-adv-x="581" d="M84 981q131 128 170 258q-51 10 -77.5 44t-26.5 83v37q0 61 36.5 97t110.5 36t110.5 -36t36.5 -97v-35q0 -98 -55 -206t-145 -181h-160z" />
<glyph unicode="&#x201a;" horiz-adv-x="585" d="M74 -238q131 128 170 258q-51 10 -78 44t-27 83v37q0 61 37 97t111 36t110.5 -36t36.5 -97v-34q0 -98 -55.5 -206.5t-145.5 -181.5h-159z" />
<glyph unicode="&#x201c;" horiz-adv-x="1026" d="M137 1092v34q0 98 57 207t146 183h158q-133 -133 -168 -259q51 -10 76.5 -45t25.5 -84v-36q0 -59 -37.5 -95t-109.5 -36q-73 0 -110.5 36t-37.5 95zM582 1092v34q0 98 56.5 207.5t145.5 182.5h158q-133 -133 -168 -259q51 -10 77 -45t26 -84v-36q0 -59 -37.5 -95 t-110.5 -36q-72 0 -109.5 36t-37.5 95z" />
<glyph unicode="&#x201d;" horiz-adv-x="1024" d="M84 981q131 128 170 258q-51 10 -77.5 44t-26.5 83v37q0 61 36.5 97t110.5 36t110.5 -36t36.5 -97v-35q0 -98 -55 -206t-145 -181h-160zM526 981q131 128 170 258q-51 10 -77.5 44t-26.5 83v37q0 61 36.5 97t110.5 36t111 -36t37 -97v-35q0 -98 -55.5 -206t-145.5 -181 h-160z" />
<glyph unicode="&#x201e;" horiz-adv-x="1028" d="M74 -238q131 128 170 258q-51 10 -78 44t-27 83v37q0 61 37 97t111 36t110.5 -36t36.5 -97v-34q0 -98 -55.5 -206.5t-145.5 -181.5h-159zM516 -238q131 128 170 258q-51 10 -77.5 44t-26.5 83v37q0 61 36.5 97t110.5 36t111 -36t37 -97v-34q0 -98 -55.5 -206.5 t-145.5 -181.5h-160z" />
<glyph unicode="&#x2020;" horiz-adv-x="1105" d="M82 887v170h375v459h192v-459h375v-170h-375v-1297h-192v1297h-375z" />
<glyph unicode="&#x2021;" horiz-adv-x="1122" d="M90 49v170h375v668h-375v170h375v459h192v-459h375v-170h-375v-668h375v-170h-375v-459h-192v459h-375z" />
<glyph unicode="&#x2022;" horiz-adv-x="839" d="M143 575v64q0 109 67 173.5t210 64.5t209.5 -64.5t66.5 -173.5v-64q0 -109 -66.5 -173t-209.5 -64t-210 64t-67 173z" />
<glyph unicode="&#x2026;" horiz-adv-x="1732" d="M147 115v30q0 63 38.5 101.5t111.5 38.5q72 0 110.5 -38.5t38.5 -101.5v-30q0 -63 -38.5 -101.5t-110.5 -38.5q-73 0 -111.5 38.5t-38.5 101.5zM715 115v30q0 63 38.5 101.5t110.5 38.5t111 -38.5t39 -101.5v-30q0 -63 -39 -101.5t-111 -38.5t-110.5 38.5t-38.5 101.5z M1286 115v30q0 63 39 101.5t111 38.5t110.5 -38.5t38.5 -101.5v-30q0 -63 -38.5 -101.5t-110.5 -38.5t-111 38.5t-39 101.5z" />
<glyph unicode="&#x202f;" horiz-adv-x="463" />
<glyph unicode="&#x2030;" horiz-adv-x="2742" d="M121 1049q0 197 88.5 301t253.5 104t253.5 -104t88.5 -301t-88.5 -301.5t-253.5 -104.5t-253.5 104.5t-88.5 301.5zM317 991q0 -211 146 -211q145 0 145 211v115q0 211 -145 211q-146 0 -146 -211v-115zM371 0l991 1430h207l-991 -1430h-207zM1135 381q0 197 88.5 301 t253.5 104t253.5 -104t88.5 -301t-88.5 -301.5t-253.5 -104.5t-253.5 104.5t-88.5 301.5zM1331 324q0 -211 146 -211q145 0 145 211v114q0 211 -145 211q-146 0 -146 -211v-114zM1937 381q0 197 88.5 301t253.5 104t253.5 -104t88.5 -301t-88.5 -301.5t-253.5 -104.5 t-253.5 104.5t-88.5 301.5zM2134 324q0 -211 145 -211q146 0 146 211v114q0 211 -146 211q-145 0 -145 -211v-114z" />
<glyph unicode="&#x2039;" horiz-adv-x="632" d="M76 471v201l387 334l65 -144l-264 -291l264 -290l-65 -144z" />
<glyph unicode="&#x203a;" horiz-adv-x="632" d="M104 281l265 290l-265 291l66 144l387 -334v-201l-387 -334z" />
<glyph unicode="&#x2044;" horiz-adv-x="309" d="M-453 0l1035 1430h180l-1032 -1430h-183z" />
<glyph unicode="&#x205f;" horiz-adv-x="579" />
<glyph unicode="&#x2070;" horiz-adv-x="765" d="M74 1053q0 189 76.5 289t232.5 100t232.5 -100t76.5 -289t-76.5 -289t-232.5 -100t-232.5 100t-76.5 289zM250 981q0 -92 30.5 -138t102.5 -46t102.5 46t30.5 138v143q0 92 -30.5 138.5t-102.5 46.5t-102.5 -46.5t-30.5 -138.5v-143z" />
<glyph unicode="&#x2074;" horiz-adv-x="708" d="M39 819v135l321 476h201v-488h107v-123h-107v-145h-155v145h-367zM172 942h234v324h-11z" />
<glyph unicode="&#x2075;" horiz-adv-x="720" d="M63 805l119 90q32 -51 71.5 -79t100.5 -28q63 0 97 32t34 89v9q0 56 -33.5 88t-97.5 32q-76 0 -129 -53l-133 16l29 429h491v-136h-370l-19 -245h10q27 59 65.5 88.5t107.5 29.5q109 0 180 -64t71 -175q0 -119 -81.5 -192.5t-225.5 -73.5q-195 0 -287 143z" />
<glyph unicode="&#x2076;" horiz-adv-x="735" d="M68 961q0 147 86 270t206 199h224q-161 -107 -242 -191t-104 -188l8 -2q62 110 184 110q104 0 173 -64t69 -169q0 -117 -83.5 -190.5t-219.5 -73.5q-143 0 -222 80.5t-79 218.5zM236 903q0 -59 35 -89t98 -30t98 30t35 89v17q0 59 -35 88.5t-98 29.5t-98 -29.5t-35 -88.5 v-17z" />
<glyph unicode="&#x2077;" horiz-adv-x="677" d="M51 1163v267h572v-138l-273 -618h-172l283 626h-273v-137h-137z" />
<glyph unicode="&#x2078;" horiz-adv-x="753" d="M74 881q0 70 43.5 116t118.5 66v8q-63 21 -99.5 64.5t-36.5 107.5q0 89 73.5 144t203.5 55t203 -54.5t73 -144.5q0 -63 -36.5 -107t-98.5 -65v-8q75 -20 118.5 -66t43.5 -116q0 -96 -81 -157.5t-222 -61.5t-222 61.5t-81 157.5zM246 881q0 -45 34.5 -72t96.5 -27t96.5 27 t34.5 72v22q0 45 -34.5 71.5t-96.5 26.5t-96.5 -26.5t-34.5 -71.5v-22zM254 1210q0 -43 32 -67.5t91 -24.5t91 24.5t32 67.5v17q0 43 -32 67.5t-91 24.5t-91 -24.5t-32 -67.5v-17z" />
<glyph unicode="&#x2079;" horiz-adv-x="733" d="M61 1178q0 118 82.5 191t218.5 73q143 0 222.5 -80.5t79.5 -218.5q0 -147 -85.5 -270t-205.5 -199h-223q160 107 240.5 191t103.5 188l-11 2q-57 -113 -182 -113q-104 0 -172 65t-68 171zM229 1184q0 -59 35 -90t98 -31t98.5 31t35.5 90v14q0 59 -35.5 90t-98.5 31 t-98 -31t-35 -90v-14z" />
<glyph unicode="&#x2080;" horiz-adv-x="765" d="M74 377q0 189 76.5 289t232.5 100t232.5 -100t76.5 -289t-76.5 -289t-232.5 -100t-232.5 100t-76.5 289zM250 307q0 -92 30.5 -139t102.5 -47t102.5 47t30.5 139v142q0 92 -30.5 138t-102.5 46t-102.5 -46t-30.5 -138v-142z" />
<glyph unicode="&#x2081;" horiz-adv-x="724" d="M61 631l246 125h172v-629h189v-127h-559v127h208v485l-192 -96z" />
<glyph unicode="&#x2082;" horiz-adv-x="708" d="M57 578q31 84 104 137t191 53q128 0 201.5 -62.5t73.5 -164.5q0 -88 -54.5 -156t-156.5 -137l-166 -117h395v-131h-571v143l248 197q70 55 100.5 96.5t30.5 89.5v9q0 48 -31 73t-84 25q-103 0 -139 -109z" />
<glyph unicode="&#x2083;" horiz-adv-x="706" d="M31 131l121 90q64 -106 174 -106q64 0 99.5 28t35.5 78v10q0 46 -38.5 69.5t-107.5 23.5h-79v131h77q65 0 99 23.5t34 60.5v8q0 42 -31.5 68t-84.5 26q-102 0 -168 -92l-105 92q95 127 279 127q128 0 205 -54.5t77 -146.5q0 -69 -44.5 -114t-112.5 -56v-6 q75 -13 122.5 -59.5t47.5 -120.5q0 -101 -83.5 -162t-221.5 -61q-199 0 -295 143z" />
<glyph unicode="&#x2084;" horiz-adv-x="708" d="M39 145v136l321 475h201v-488h107v-123h-107v-145h-155v145h-367zM172 268h234v324h-11z" />
<glyph unicode="&#x2085;" horiz-adv-x="720" d="M63 131l119 90q32 -51 71.5 -78.5t100.5 -27.5q63 0 97 32t34 89v8q0 57 -34 89t-97 32q-75 0 -129 -54l-133 17l29 428h491v-135h-370l-19 -246h10q27 60 65.5 89.5t107.5 29.5q109 0 180 -64.5t71 -175.5q0 -119 -81.5 -192.5t-225.5 -73.5q-195 0 -287 143z" />
<glyph unicode="&#x2086;" horiz-adv-x="735" d="M68 287q0 147 86 270t206 199h224q-161 -107 -242 -191t-104 -188l8 -2q62 110 184 110q104 0 173 -64t69 -169q0 -117 -83.5 -190.5t-219.5 -73.5q-143 0 -222 80.5t-79 218.5zM236 229q0 -59 35 -88.5t98 -29.5t98 29.5t35 88.5v17q0 59 -35 89t-98 30t-98 -30t-35 -89 v-17z" />
<glyph unicode="&#x2087;" horiz-adv-x="677" d="M51 489v267h572v-138l-273 -618h-172l283 627h-273v-138h-137z" />
<glyph unicode="&#x2088;" horiz-adv-x="753" d="M74 207q0 70 43.5 116t118.5 66v8q-63 21 -99.5 64.5t-36.5 107.5q0 89 73.5 144t203.5 55t203 -54.5t73 -144.5q0 -63 -36.5 -107t-98.5 -65v-8q75 -20 118.5 -66t43.5 -116q0 -96 -81 -157.5t-222 -61.5t-222 61.5t-81 157.5zM246 207q0 -45 34.5 -71.5t96.5 -26.5 t96.5 26.5t34.5 71.5v22q0 45 -34.5 72t-96.5 27t-96.5 -27t-34.5 -72v-22zM254 537q0 -43 32 -68t91 -25t91 25t32 68v16q0 43 -32 67.5t-91 24.5t-91 -24.5t-32 -67.5v-16z" />
<glyph unicode="&#x2089;" horiz-adv-x="733" d="M61 504q0 118 82.5 191t218.5 73q143 0 222.5 -80.5t79.5 -218.5q0 -147 -85.5 -270t-205.5 -199h-223q160 107 240.5 191t103.5 188l-11 2q-57 -113 -182 -113q-104 0 -172 65t-68 171zM229 510q0 -59 35 -90t98 -31t98.5 31t35.5 90v14q0 59 -35.5 90t-98.5 31t-98 -31 t-35 -90v-14z" />
<glyph unicode="&#x20a1;" horiz-adv-x="1275" d="M113 713q0 293 117 472t329 224l21 188h139l-19 -172h15q45 0 86 -6l18 178h139l-20 -211q157 -62 256 -241l-168 -113q-49 103 -115 146l-100 -971q151 43 219 205l168 -117q-130 -252 -405 -285l-19 -178h-139l18 174q-39 2 -96 14l-20 -188h-142l25 236 q-147 75 -227 239.5t-80 405.5zM350 598q0 -193 101 -297l90 897q-91 -43 -141 -139t-50 -228v-233zM573 217q49 -19 103 -22l106 1034q-46 8 -88 8h-14z" />
<glyph unicode="&#x20a4;" horiz-adv-x="1206" d="M100 477v158h191q-8 32 -29.5 92.5t-25.5 71.5h-136v157h95q-7 44 -7 72q0 191 132.5 308.5t357.5 117.5q304 0 457 -240l-170 -114q-111 160 -287 160q-120 0 -187 -68.5t-67 -194.5q0 -7 1 -21t1 -20h451v-157h-412q6 -17 18 -50.5t21.5 -61t15.5 -52.5h357v-158h-345 q-9 -89 -52 -161.5t-99 -108.5v-12h719v-195h-946v229q71 32 109 98.5t44 149.5h-207z" />
<glyph unicode="&#x20a6;" horiz-adv-x="1495" d="M33 473v158h170v172h-170v158h170v469h264l260 -474h354v474h209v-469h172v-158h-172v-172h172v-158h-172v-473h-268l-264 477h-342v-477h-213v473h-170zM416 627h270l-264 487h-6v-487zM801 807l274 -506h6v506h-280z" />
<glyph unicode="&#x20a8;" horiz-adv-x="1617" d="M176 0v1430h410q188 0 291.5 -105t103.5 -295q0 -128 -49 -219t-144 -137l173 -348q45 -89 96.5 -130.5t122.5 -41.5q67 0 105 29.5t38 82.5q0 42 -18.5 72t-79.5 88l-39 39q-85 80 -121.5 147t-36.5 146q0 122 81.5 196t217.5 74q135 0 227 -59l-79 -152q-59 41 -129 41 q-49 0 -78 -25t-29 -71q0 -41 23 -74t84 -92l34 -31q92 -91 126 -150t34 -143q0 -135 -94.5 -216t-286.5 -81q-142 0 -237.5 56t-155.5 184l-186 401h-177v-616h-227zM403 807h156q89 0 139 43.5t50 126.5v90q0 83 -50 126.5t-139 43.5h-156v-430z" />
<glyph unicode="&#x20a9;" horiz-adv-x="2011" d="M76 475v158h219l-39 170h-180v158h143l-110 469h229l100 -474h322l119 474h258l114 -472h326l104 472h226l-117 -467h145v-158h-184l-41 -172h225v-158h-264l-119 -475h-258l-118 477h-353l-121 -477h-258l-110 475h-258zM469 807l16 -70l101 -475h6l115 475l16 70h-254z M862 627h277l-23 90l-112 467h-5l-114 -465zM1288 809l17 -68l114 -477h6l103 471l16 74h-256z" />
<glyph unicode="&#x20aa;" horiz-adv-x="1699" d="M176 0v1430h596q171 0 272 -104t101 -302v-670h-211v688q0 100 -48 148.5t-132 48.5h-367v-1239h-211zM555 0v1075h211v-885h362q83 0 134 49t51 148v1043h211v-1024q0 -198 -102.5 -302t-274.5 -104h-592z" />
<glyph unicode="&#x20ab;" horiz-adv-x="1181" d="M115 711q0 206 93 312.5t255 106.5q197 0 282 -163h9v278h-281v150h281v121h219v-121h131v-150h-131v-936h-219v146h-9q-85 -164 -282 -164q-162 0 -255 107t-93 313zM129 0v172h895v-172h-895zM334 657q0 -91 58 -145.5t157 -54.5q91 0 148 44.5t57 112.5v193 q0 68 -57 113t-148 45q-99 0 -157 -55t-58 -146v-107z" />
<glyph unicode="&#x20ac;" horiz-adv-x="1284" d="M113 715q0 351 160 545t438 194q178 0 293 -75t188 -210l-172 -116q-92 209 -309 209q-135 0 -225.5 -81t-118.5 -220h499v-158h-510v-176h510v-158h-499q28 -141 118.5 -221t225.5 -80q225 0 323 223l172 -121q-155 -295 -495 -295q-278 0 -438 194.5t-160 545.5z" />
<glyph unicode="&#x20ad;" horiz-adv-x="1323" d="M16 639v184h179v607h231v-607h125l426 607h260l-446 -607h409v-184h-391l471 -639h-274l-451 639h-129v-639h-231v639h-179z" />
<glyph unicode="&#x20ae;" horiz-adv-x="1243" d="M80 1235v195h1083v-195h-426v-313l262 125v-160l-262 -125v-166l262 127v-160l-262 -127v-436h-231v326l-262 -125v159l262 125v166l-262 -125v160l262 125v424h-426z" />
<glyph unicode="&#x20b1;" horiz-adv-x="1345" d="M49 662v149h170v170h-170v149h170v300h518q305 0 381 -300h193v-149h-172q4 -54 4 -84q0 -32 -4 -86h172v-149h-197q-39 -149 -134 -226.5t-243 -77.5h-286v-358h-232v662h-170zM451 532h270q70 0 118.5 37t63.5 101h-452v-138zM451 803h462v186h-462v-186zM451 1122h450 q-19 62 -66 97.5t-114 35.5h-270v-133z" />
<glyph unicode="&#x20b2;" horiz-adv-x="1378" d="M113 715q0 345 157.5 527.5t436.5 182.5h4l28 172h185l-35 -196q226 -66 332 -289l-183 -96q-58 147 -192 198l-80 -454h481v-236q0 -114 -34 -206t-88 -149t-126.5 -95.5t-144.5 -54t-147 -15.5q-42 0 -60 2l-31 -174h-184l37 213q-170 67 -263 237t-93 433zM352 602 q0 -261 160 -360l174 995q-158 -6 -246 -112t-88 -298v-225zM668 193h39q148 0 236.5 79.5t88.5 223.5v73h-299z" />
<glyph unicode="&#x20b4;" horiz-adv-x="1300" d="M88 492v157h240l309 170h-549v158h754q14 47 14 88q0 99 -57 148t-162 49q-168 0 -272 -121l-127 139q75 86 182 130t229 44q191 0 306.5 -103t115.5 -266q0 -62 -14 -108h155v-158h-251l-304 -170h555v-157h-755q-23 -48 -23 -101q0 -108 64.5 -165.5t177.5 -57.5 q83 0 155 33t148 114l125 -141q-78 -95 -191 -147t-249 -52q-206 0 -325.5 114.5t-119.5 291.5q0 45 17 111h-148z" />
<glyph unicode="&#x20b5;" horiz-adv-x="1267" d="M113 715q0 339 160 524.5t432 185.5h6l28 172h185l-35 -198q196 -59 297 -250l-170 -115q-56 125 -170 174l-178 -1011h37q111 0 192.5 56t124.5 159l168 -115q-152 -293 -485 -293q-40 0 -58 2l-31 -174h-184l37 215q-169 69 -262.5 240t-93.5 428zM350 602 q0 -122 42.5 -213t121.5 -141l172 989q-154 -6 -245 -116t-91 -290v-229z" />
<glyph unicode="&#x20b8;" horiz-adv-x="1243" d="M80 905v174h1083v-174h-426v-905h-231v905h-426zM80 1255v175h1083v-175h-1083z" />
<glyph unicode="&#x20b9;" horiz-adv-x="1259" d="M117 539v174h401q102 0 161 47.5t62 136.5h-624v174h624q-11 184 -223 184h-401v175h1071v-175h-373v-8q45 -6 87 -47.5t59 -128.5h227v-174h-223q-19 -145 -108 -235.5t-239 -108.5l429 -553h-281l-401 539h-248z" />
<glyph unicode="&#x20ba;" horiz-adv-x="1247" d="M31 385v160l190 92v166l-190 -92v159l190 93v467h234v-357l385 184v-159l-385 -185v-165l385 184v-160l-385 -184v-395h168q159 0 242 107.5t83 324.5h223q0 -133 -32.5 -245t-96 -197.5t-165.5 -134t-232 -48.5h-424v477z" />
<glyph unicode="&#x20bd;" horiz-adv-x="1308" d="M49 248v174h170v184h-170v174h170v650h598q195 0 304.5 -109t109.5 -303t-109.5 -303t-304.5 -109h-366v-184h510v-174h-510v-248h-232v248h-170zM451 780h350q90 0 138 45t48 131v103q0 86 -48 131t-138 45h-350v-455z" />
<glyph unicode="&#x20bf;" horiz-adv-x="1335" d="M176 43v1343h215v211h178v-211h129v211h179v-213q141 -20 220 -111.5t79 -232.5q0 -248 -248 -286v-13q62 -6 113 -25t94.5 -54t67.5 -94t24 -138q0 -162 -100 -273t-250 -114v-211h-179v211h-129v-211h-178v211h-215zM397 238h408q89 0 139.5 42.5t50.5 122.5v64 q0 81 -50.5 123.5t-139.5 42.5h-408v-395zM397 817h381q166 0 166 156v63q0 156 -166 156h-381v-375z" />
<glyph unicode="&#x2113;" horiz-adv-x="1056" d="M53 426q119 74 187 125v586q0 212 87 307.5t236 95.5q156 0 239 -94t83 -268q0 -191 -104.5 -358.5t-327.5 -358.5v-88q0 -203 147 -203q73 0 125 50.5t106 162.5l173 -94q-60 -145 -161.5 -229.5t-248.5 -84.5q-157 0 -251.5 96.5t-94.5 254.5v16q-32 -27 -101 -70z M453 692q227 230 227 463v29q0 162 -111 162q-116 0 -116 -197v-457z" />
<glyph unicode="&#x2116;" horiz-adv-x="2131" d="M176 0v1430h256l406 -756l170 -340h6v1096h217v-1430h-258l-422 772l-154 313h-6v-1085h-215zM1380 1098q0 166 91.5 261t242.5 95t242.5 -95t91.5 -261q0 -167 -91.5 -262t-242.5 -95t-242.5 95t-91.5 262zM1413 475v148h602v-148h-602zM1554 1044q0 -75 43 -119 t117 -44t117 44t43 119v107q0 75 -43.5 119.5t-116.5 44.5t-116.5 -44.5t-43.5 -119.5v-107z" />
<glyph unicode="&#x2122;" horiz-adv-x="1288" d="M59 1323v107h459v-107h-162v-473h-133v473h-164zM586 850v580h151l129 -250h11l127 250h143v-580h-119v229l10 181h-8l-164 -310l-164 310h-8l11 -181v-229h-119z" />
<glyph unicode="&#x2126;" horiz-adv-x="1466" d="M106 0v186h326v21q-142 76 -228.5 225t-86.5 354q0 106 24 203.5t74 182.5t122 147.5t173.5 98.5t222.5 36q150 0 270 -55t194.5 -148.5t113.5 -212t39 -252.5q0 -205 -86.5 -354t-229.5 -225v-21h326v-186h-506v285q98 35 174 153t76 250v191q0 70 -25.5 135.5 t-72 117.5t-118 83.5t-155.5 31.5t-155.5 -31.5t-118 -83.5t-72 -117.5t-25.5 -135.5v-191q0 -132 76 -250t174 -153v-285h-506z" />
<glyph unicode="&#x212e;" horiz-adv-x="1474" d="M68 715q0 166 50.5 305t139.5 234t212.5 147.5t266.5 52.5q144 0 267 -52.5t212.5 -147.5t140 -234t50.5 -305h-1010v-510q141 -117 340 -117q336 0 500 305l102 -57q-87 -165 -240 -263t-362 -98q-143 0 -266.5 52.5t-212.5 147.5t-139.5 234.5t-50.5 305.5zM397 821 h680v410q-141 117 -340 117t-340 -117v-410z" />
<glyph unicode="&#x2150;" horiz-adv-x="1765" d="M61 1305l246 125h172v-629h187v-127h-557v127h208v485l-192 -96zM301 0l1034 1430h181l-1033 -1430h-182zM1139 489v267h571v-138l-272 -618h-172l282 627h-272v-138h-137z" />
<glyph unicode="&#x2151;" horiz-adv-x="1800" d="M61 1305l246 125h172v-629h187v-127h-557v127h208v485l-192 -96zM301 0l1034 1430h181l-1033 -1430h-182zM1128 504q0 118 83 191t219 73q143 0 222 -80.5t79 -218.5q0 -147 -85.5 -270t-205.5 -199h-223q160 107 240.5 191t103.5 188l-11 2q-57 -113 -182 -113 q-104 0 -172 65t-68 171zM1296 510q0 -59 35.5 -90t98.5 -31t98 31t35 90v14q0 59 -35 90t-98 31t-98.5 -31t-35.5 -90v-14z" />
<glyph unicode="&#x2153;" horiz-adv-x="1783" d="M61 1305l246 125h172v-629h187v-127h-557v127h208v485l-192 -96zM301 0l1034 1430h181l-1033 -1430h-182zM1108 131l121 90q64 -106 174 -106q64 0 99.5 28t35.5 78v10q0 93 -145 93h-80v131h78q65 0 99 23.5t34 60.5v8q0 42 -32 68t-85 26q-102 0 -168 -92l-104 92 q95 127 278 127q128 0 205.5 -54.5t77.5 -146.5q0 -69 -45 -114t-113 -56v-6q75 -13 122.5 -59.5t47.5 -120.5q0 -101 -83.5 -162t-221.5 -61q-199 0 -295 143z" />
<glyph unicode="&#x2154;" horiz-adv-x="1724" d="M57 1251q31 84 104 137.5t191 53.5q128 0 201.5 -63t73.5 -165q0 -87 -54.5 -154.5t-156.5 -137.5l-166 -117h395v-131h-571v143l248 197q71 55 101 96t30 90v8q0 48 -31 73.5t-84 25.5q-103 0 -139 -109zM256 0l1034 1430h180l-1032 -1430h-182zM1049 131l120 90 q64 -106 174 -106q64 0 100 28t36 78v10q0 46 -38.5 69.5t-107.5 23.5h-80v131h78q65 0 99 23.5t34 60.5v8q0 42 -31.5 68t-84.5 26q-102 0 -168 -92l-105 92q95 127 279 127q128 0 205 -54.5t77 -146.5q0 -69 -44.5 -114t-112.5 -56v-6q75 -13 122.5 -59.5t47.5 -120.5 q0 -101 -84 -162t-222 -61q-198 0 -294 143z" />
<glyph unicode="&#x2155;" horiz-adv-x="1787" d="M61 1305l246 125h172v-629h187v-127h-557v127h208v485l-192 -96zM301 0l1034 1430h181l-1033 -1430h-182zM1130 131l119 90q32 -51 71.5 -78.5t100.5 -27.5q63 0 97 32t34 89v8q0 57 -34 89t-97 32q-75 0 -129 -54l-133 17l29 428h491v-135h-370l-19 -246h10 q27 60 65.5 89.5t107.5 29.5q109 0 180 -64.5t71 -175.5q0 -119 -81.5 -192.5t-225.5 -73.5q-195 0 -287 143z" />
<glyph unicode="&#x2156;" horiz-adv-x="1738" d="M57 1251q31 84 104 137.5t191 53.5q128 0 201.5 -63t73.5 -165q0 -87 -54.5 -154.5t-156.5 -137.5l-166 -117h395v-131h-571v143l248 197q71 55 101 96t30 90v8q0 48 -31 73.5t-84 25.5q-103 0 -139 -109zM256 0l1034 1430h180l-1032 -1430h-182zM1081 131l119 90 q32 -51 71.5 -78.5t100.5 -27.5q63 0 97 32t34 89v8q0 57 -34 89t-97 32q-75 0 -129 -54l-133 17l29 428h491v-135h-370l-19 -246h10q27 60 65 89.5t107 29.5q109 0 180.5 -64.5t71.5 -175.5q0 -119 -81.5 -192.5t-225.5 -73.5q-195 0 -287 143z" />
<glyph unicode="&#x2157;" horiz-adv-x="1751" d="M31 805l121 90q65 -107 174 -107q64 0 99.5 28.5t35.5 78.5v10q0 92 -146 92h-79v131h77q65 0 99 23.5t34 60.5v9q0 42 -31.5 68t-84.5 26q-102 0 -168 -92l-105 92q95 127 279 127q128 0 205 -54.5t77 -146.5q0 -69 -44.5 -114t-112.5 -56v-6q75 -13 122.5 -59.5 t47.5 -120.5q0 -101 -83.5 -162t-221.5 -61q-199 0 -295 143zM264 0l1034 1430h181l-1033 -1430h-182zM1094 131l118 90q32 -51 71.5 -78.5t100.5 -27.5q64 0 98 32.5t34 88.5v8q0 56 -34 88.5t-98 32.5q-75 0 -129 -54l-133 17l29 428h491v-135h-370l-19 -246h11 q27 60 65 89.5t107 29.5q109 0 180.5 -64.5t71.5 -175.5q0 -118 -82 -192t-226 -74q-194 0 -286 143z" />
<glyph unicode="&#x2158;" horiz-adv-x="1763" d="M39 819v135l321 476h201v-488h107v-123h-107v-145h-155v145h-367zM172 942h234v324h-11zM276 0l1035 1430h180l-1032 -1430h-183zM1106 131l119 90q32 -51 71.5 -78.5t100.5 -27.5q63 0 97 32t34 89v8q0 57 -34 89t-97 32q-75 0 -129 -54l-133 17l28 428h492v-135h-371 l-18 -246h10q27 60 65 89.5t107 29.5q109 0 180.5 -64.5t71.5 -175.5q0 -119 -81.5 -192.5t-225.5 -73.5q-195 0 -287 143z" />
<glyph unicode="&#x2159;" horiz-adv-x="1742" d="M61 1305l246 125h172v-629h187v-127h-557v127h208v485l-192 -96zM301 0l1034 1430h181l-1033 -1430h-182zM1075 287q0 147 86.5 270t206.5 199h223q-161 -107 -242 -191t-104 -188l8 -2q62 110 185 110q104 0 172.5 -64t68.5 -169q0 -117 -83.5 -190.5t-219.5 -73.5 q-143 0 -222 80.5t-79 218.5zM1243 229q0 -59 35 -88.5t98 -29.5t98 29.5t35 88.5v17q0 59 -35 89t-98 30t-98 -30t-35 -89v-17z" />
<glyph unicode="&#x215a;" horiz-adv-x="1720" d="M63 805l119 90q32 -51 71.5 -79t100.5 -28q63 0 97 32t34 89v9q0 56 -33.5 88t-97.5 32q-76 0 -129 -53l-133 16l29 429h491v-136h-370l-19 -245h10q27 59 65.5 88.5t107.5 29.5q109 0 180 -64t71 -175q0 -119 -81.5 -192.5t-225.5 -73.5q-195 0 -287 143zM279 0 l1034 1430h180l-1032 -1430h-182zM1053 287q0 147 86.5 270t206.5 199h223q-161 -107 -242 -191t-104 -188l8 -2q62 110 184 110q104 0 173 -64t69 -169q0 -117 -83.5 -190.5t-219.5 -73.5q-143 0 -222 80.5t-79 218.5zM1221 229q0 -59 35 -88.5t98 -29.5t98 29.5t35 88.5 v17q0 59 -35 89t-98 30t-98 -30t-35 -89v-17z" />
<glyph unicode="&#x215b;" horiz-adv-x="1816" d="M61 1305l246 125h172v-629h187v-127h-557v127h208v485l-192 -96zM301 0l1034 1430h181l-1033 -1430h-182zM1137 207q0 70 43 116.5t118 65.5v8q-135 46 -135 172q0 89 73.5 144t203.5 55t203 -54.5t73 -144.5q0 -63 -36.5 -107t-98.5 -65v-8q75 -20 118.5 -66t43.5 -116 q0 -96 -81 -157.5t-222 -61.5t-222 61.5t-81 157.5zM1309 207q0 -45 34.5 -71.5t96.5 -26.5t96.5 26.5t34.5 71.5v22q0 45 -34.5 72t-96.5 27t-96.5 -27t-34.5 -72v-22zM1317 537q0 -43 32 -68t91 -25t91 25t32 68v16q0 43 -32 67.5t-91 24.5t-91 -24.5t-32 -67.5v-16z" />
<glyph unicode="&#x215c;" horiz-adv-x="1779" d="M31 805l121 90q65 -107 174 -107q64 0 99.5 28.5t35.5 78.5v10q0 92 -146 92h-79v131h77q65 0 99 23.5t34 60.5v9q0 42 -31.5 68t-84.5 26q-102 0 -168 -92l-105 92q95 127 279 127q128 0 205 -54.5t77 -146.5q0 -69 -44.5 -114t-112.5 -56v-6q75 -13 122.5 -59.5 t47.5 -120.5q0 -101 -83.5 -162t-221.5 -61q-199 0 -295 143zM264 0l1034 1430h181l-1033 -1430h-182zM1100 207q0 70 43.5 116t118.5 66v8q-63 21 -99.5 64.5t-36.5 107.5q0 89 73.5 144t203.5 55t203 -54.5t73 -144.5q0 -63 -36.5 -107t-98.5 -65v-8q75 -20 118.5 -66 t43.5 -116q0 -96 -81 -157.5t-222 -61.5t-222 61.5t-81 157.5zM1272 207q0 -45 34.5 -71.5t96.5 -26.5t96.5 26.5t34.5 71.5v22q0 45 -34.5 72t-96.5 27t-96.5 -27t-34.5 -72v-22zM1280 537q0 -43 32 -68t91 -25t91 25t32 68v16q0 43 -32 67.5t-91 24.5t-91 -24.5t-32 -67.5 v-16z" />
</font>
</defs>
</svg>
