<?xml version="1.0" encoding="UTF-8"?>
<!DOCTYPE svg PUBLIC "-//W3C//DTD SVG 1.1//EN" "http://www.w3.org/Graphics/SVG/1.1/DTD/svg11.dtd">
<!-- Creator: CorelDRAW 2017 -->
<svg xmlns="http://www.w3.org/2000/svg" xml:space="preserve" width="163.266mm" height="48.3905mm" version="1.1" style="shape-rendering:geometricPrecision; text-rendering:geometricPrecision; image-rendering:optimizeQuality; fill-rule:evenodd; clip-rule:evenodd"
viewBox="0 0 16354.89 4847.44"
 xmlns:xlink="http://www.w3.org/1999/xlink">
 <defs>
  <style type="text/css">
   <![CDATA[
    .fil3 {fill:white}
    .fil0 {fill:#FEFEFE;fill-rule:nonzero}
    .fil1 {fill:#B0ADAC;fill-rule:nonzero}
    .fil2 {fill:#252422;fill-rule:nonzero}
    .fil8 {fill:black;fill-opacity:0.200000}
    .fil9 {fill:white;fill-opacity:0.200000}
    .fil5 {fill:url(#id3)}
    .fil7 {fill:url(#id4)}
    .fil4 {fill:url(#id5)}
    .fil6 {fill:url(#id6)}
   ]]>
  </style>
   <clipPath id="id0" style="clip-rule:nonzero">
    <path d="M16320.08 4473.61c19.46,-51.22 31.41,-107.55 34.81,-165.17l0 1.28c-3.57,57.61 -15.53,112.66 -34.81,163.88l0 0zm34.81 -3933.19c-16.96,-300.88 -267.57,-540.3 -572.44,-540.3l0.18 0c304.16,0 554.41,238.14 572.26,539.02l0 1.28z"/>
   </clipPath>
   <clipPath id="id1" style="clip-rule:nonzero">
    <path d="M15782.84 4846.83l-4955.29 0 -72.1 -108.07 5027.4 0c256.09,0 464.94,-206.45 464.94,-464.15l0 0 0 -3702.08c0,-256.32 -208.85,-464.15 -464.94,-464.15l-8075.65 0 -72.1 -108.07 8147.76 0c303.33,0 554.45,239.69 571.86,540.34l0 3767.21c-2.49,58.19 -14.93,113.61 -34.81,166.26 -79.57,214.75 -283.44,367.17 -524.62,372.7 -2.49,0 -7.46,0 -9.95,0l-2.48 0 0 0z"/>
   </clipPath>
   <clipPath id="id2" style="clip-rule:nonzero">
    <path d="M15783.55 4739.96l-5026.75 0 -3050.13 -4632.68 8076.88 0c255.59,0 462.51,208.41 462.51,465.93l0 3702.16 2.43 0c0,256.19 -209.35,464.59 -464.94,464.59l0 0z"/>
   </clipPath>
  <linearGradient id="id3" gradientUnits="userSpaceOnUse" x1="3939.79" y1="2542.15" x2="1140.15" y2="2542.15">
   <stop offset="0" style="stop-opacity:1; stop-color:#FFE000"/>
   <stop offset="0.411765" style="stop-opacity:1; stop-color:#FFBD00"/>
   <stop offset="0.780392" style="stop-opacity:1; stop-color:orange"/>
   <stop offset="1" style="stop-opacity:1; stop-color:#FF9C00"/>
  </linearGradient>
  <linearGradient id="id4" gradientUnits="userSpaceOnUse" x1="842.89" y1="4922.25" x2="2049.63" y2="3731.41">
   <stop offset="0" style="stop-opacity:1; stop-color:#32A071"/>
   <stop offset="0.0705882" style="stop-opacity:1; stop-color:#2DA771"/>
   <stop offset="0.470588" style="stop-opacity:1; stop-color:#15CF74"/>
   <stop offset="0.8" style="stop-opacity:1; stop-color:#06E775"/>
   <stop offset="1" style="stop-opacity:1; stop-color:#00F076"/>
  </linearGradient>
  <linearGradient id="id5" gradientUnits="userSpaceOnUse" x1="2532.33" y1="3990.23" x2="601.54" y2="1938.78">
   <stop offset="0" style="stop-opacity:1; stop-color:#00A0FF"/>
   <stop offset="0.0117647" style="stop-opacity:1; stop-color:#00A1FF"/>
   <stop offset="0.258824" style="stop-opacity:1; stop-color:#00BEFF"/>
   <stop offset="0.509804" style="stop-opacity:1; stop-color:#00D2FF"/>
   <stop offset="0.760784" style="stop-opacity:1; stop-color:#00DFFF"/>
   <stop offset="1" style="stop-opacity:1; stop-color:#00E3FF"/>
  </linearGradient>
  <linearGradient id="id6" gradientUnits="userSpaceOnUse" x1="2894.35" y1="2301.84" x2="239.52" y2="-330.22">
   <stop offset="0" style="stop-opacity:1; stop-color:#FF3A44"/>
   <stop offset="1" style="stop-opacity:1; stop-color:#C31162"/>
  </linearGradient>
 </defs>
 <g id="Слой_x0020_1">
  <metadata id="CorelCorpID_0Corel-Layer"/>
  <path class="fil0" d="M16247.39 4275.13c0,256.52 -207.79,464.25 -464.81,464.25l-15209.33 0c-256.86,0 -465.33,-207.73 -465.33,-464.25l0 -3702.4c0,-256.41 208.46,-464.84 465.33,-464.84l15209.26 0c257.09,0 464.74,208.43 464.74,464.84l0 3702.4 0.14 0z"/>
  <path class="fil1" d="M15782.58 4847.44l-15209.33 0c-316.01,0 -573.25,-256.63 -573.25,-572.31l0 -3702.25c0,-315.9 257.25,-572.88 573.25,-572.88l15209.26 0c304.78,0 555.35,239.49 572.35,540.27l0 3767.59c-16.98,300.49 -267.51,539.57 -572.28,539.57z"/>
  <path class="fil2" d="M16247.39 4275.13c0,256.52 -207.79,464.25 -464.81,464.25l-15209.33 0c-256.86,0 -465.33,-207.73 -465.33,-464.25l0 -3702.4c0,-256.41 208.46,-464.84 465.33,-464.84l15209.26 0c257.09,0 464.74,208.43 464.74,464.84l0 3702.4 0.14 0z"/>
  <g style="clip-path:url(#id0)">
   <image x="15757.28" y="-19.08" width="629.74" height="4517.02" xlink:href="GooglePlay_Images\GooglePlay_ImgID1.png"/>
  </g>
  <g style="clip-path:url(#id1)">
   <image x="7615.19" y="-19.08" width="8771.83" height="4888.08" xlink:href="GooglePlay_Images\GooglePlay_ImgID2.png"/>
  </g>
  <g style="clip-path:url(#id2)">
   <image x="7682.33" y="83.4" width="8588.07" height="4683.11" xlink:href="GooglePlay_Images\GooglePlay_ImgID3.png"/>
  </g>
  <path class="fil0" d="M5536.1 1078.9c0,108.28 -11.7,205.92 -37.72,289.53 -15.27,51.77 -37.71,102.27 -58.76,141.2l302.35 0 0 -555.31 -205.88 0 0 124.58zm350.6 -243.49l0 677.62 75.27 3.47 -8.2 308.15 -110.57 0 -8.3 -196.45 -481.07 0 -8.23 196.45 -110.57 0 -7.17 -308.15 63.5 -3.47c30.57,-55.27 58.84,-113.02 76.54,-175.24 24.7,-84.78 34.04,-181.25 34.04,-295.32l0 -207.06 484.78 0z"/>
  <path class="fil0" d="M6248.6 1342.45c0,110.68 55.34,194.23 142.38,194.23 82.27,0 139.98,-79.97 139.98,-196.45 0,-89.51 -40.01,-193.06 -138.82,-193.06 -102.37,0 -143.54,100.05 -143.54,195.29zm431.7 -5.89c0,210.53 -148.22,304.75 -294.06,304.75 -161.25,0 -287.06,-110.68 -287.06,-295.32 0,-188.29 123.51,-303.53 296.35,-303.53 170.73,0 284.76,120.01 284.76,294.1z"/>
  <path class="fil0" d="M7285.8 1610.76c-30.53,14.01 -90.58,29.46 -162.28,29.46 -178.81,0 -295.29,-115.28 -295.29,-292.99 0,-171.76 117.54,-304.77 318.79,-304.77 52.97,0 107.01,11.8 139.98,25.93l-25.79 109.34c-23.5,-11.73 -57.75,-22.37 -109.45,-22.37 -110.57,0 -176.52,81.17 -175.31,185.74 0,117.71 76.54,184.79 175.31,184.79 49.41,0 85.81,-10.56 114.08,-22.48l19.96 107.34z"/>
  <polygon class="fil0" points="7883.2,1055.43 7883.2,1167.21 7711.41,1167.21 7711.41,1628.31 7566.67,1628.31 7566.67,1167.21 7394.89,1167.21 7394.89,1055.43 "/>
  <path class="fil0" d="M8131.07 1055.43l102.31 307.09c11.66,35.27 24.73,78.77 32.8,110.51l3.57 0c8.26,-31.74 18.8,-75.24 30.74,-111.73l89.26 -305.87 154.15 0 -143.76 390.6c-78.81,214.16 -131.71,309.33 -198.7,368.21 -57.75,49.48 -116.58,68.34 -151.85,73.01l-32.94 -121.21c24.7,-5.8 54.06,-18.76 83.5,-39.97 28.27,-17.78 60,-51.81 80.04,-90.68 5.76,-10.61 8.16,-18.84 8.16,-25.87 0,-5.8 -1.16,-14.02 -6.92,-28.27l-210.62 -525.81 160.27 0z"/>
  <polygon class="fil0" points="9197.7,1055.43 9197.7,1628.31 9051.86,1628.31 9051.86,1167.21 8836.5,1167.21 8836.5,1628.31 8691.97,1628.31 8691.97,1055.43 "/>
  <polygon class="fil0" points="9560.98,1055.43 9560.98,1274.24 9782.25,1274.24 9782.25,1055.43 9926.78,1055.43 9926.78,1628.31 9782.25,1628.31 9782.25,1387.19 9560.98,1387.19 9560.98,1628.31 9416.31,1628.31 9416.31,1055.43 "/>
  <path class="fil0" d="M10259.32 1342.45c0,110.68 55.27,194.23 142.42,194.23 82.33,0 139.9,-79.97 139.9,-196.45 0,-89.51 -40.04,-193.06 -139.02,-193.06 -102.03,0 -143.3,100.05 -143.3,195.29zm431.7 -5.89c0,210.53 -148.21,304.75 -294.06,304.75 -161.18,0 -286.95,-110.68 -286.95,-295.32 0,-188.29 123.47,-303.53 296.42,-303.53 170.47,0 284.58,120.01 284.58,294.1z"/>
  <path class="fil0" d="M11325.78 1287.22l59.9 0c72.9,0 134.11,-20 134.11,-75.27 0,-45.84 -40.01,-70.57 -124.65,-70.57 -29.4,0 -48.3,2.43 -69.37,4.77l0 141.07zm-1.31 254.02c23.58,2.43 41.28,2.43 69.52,2.43 65.76,0 145.84,-16.44 145.84,-84.67 0,-63.54 -63.58,-84.75 -154.15,-84.75l-61.22 0 0 166.98zm-141.1 -478.74c42.51,-7.07 130.58,-14.1 209.42,-14.1 96.58,0 269.57,12.83 269.57,144.61 0,72.94 -56.62,114.11 -117.79,127.09l0 2.28c85.92,12.98 143.55,59.94 143.55,139.97 0,156.49 -207.01,172.92 -321.13,172.92 -72.94,0 -149.27,-5.87 -183.51,-7.07l0 -565.7 -0.11 0z"/>
  <path class="fil3" d="M8216.06 2763.2c-289.61,0 -518.9,217.21 -518.9,518.9 0,289.61 229.29,518.9 518.9,518.9 289.62,0 518.9,-217.22 518.9,-518.9 0,-313.75 -229.28,-518.9 -518.9,-518.9zm0 820.58c-156.87,0 -289.61,-132.74 -289.61,-313.75 0,-181.01 132.74,-313.75 289.61,-313.75 156.88,0 289.62,120.68 289.62,313.75 0,181.01 -132.74,313.75 -289.62,313.75zm-1122.26 -820.58c-289.62,0 -518.9,217.21 -518.9,518.9 0,289.61 229.28,518.9 518.9,518.9 289.62,0 518.9,-217.22 518.9,-518.9 0,-313.75 -229.28,-518.9 -518.9,-518.9zm0 820.58c-156.88,0 -289.62,-132.74 -289.62,-313.75 0,-181.01 132.74,-313.75 289.62,-313.75 156.87,0 289.62,120.68 289.62,313.75 0,181.01 -132.75,313.75 -289.62,313.75zm-1339.48 -663.71l0 217.22 518.9 0c-12.07,120.67 -60.33,217.21 -120.68,277.55 -72.41,72.41 -193.07,156.87 -398.22,156.87 -325.82,0 -567.17,-253.41 -567.17,-579.23 0,-325.81 253.42,-579.23 567.17,-579.23 168.94,0 301.68,72.41 398.22,156.87l156.88 -156.87c-132.75,-120.67 -301.68,-217.22 -543.04,-217.22 -434.42,0 -808.51,362.03 -808.51,796.45 0,434.43 374.09,796.45 808.51,796.45 241.36,0 410.3,-72.41 555.1,-229.28 144.81,-144.81 193.08,-349.96 193.08,-506.83 0,-48.27 0,-96.55 -12.07,-132.74l-748.17 -0.01zm5478.59 168.94c-48.27,-120.67 -168.95,-325.81 -434.43,-325.81 -265.48,0 -482.7,205.14 -482.7,518.9 0,289.61 217.22,518.9 506.83,518.9 229.29,0 374.09,-144.81 422.36,-229.29l-168.94 -120.67c-60.33,84.47 -132.74,144.8 -253.42,144.8 -120.67,0 -193.07,-48.26 -253.42,-156.87l687.84 -289.62 -24.13 -60.33 0.01 0zm-699.91 168.94c0,-193.07 156.87,-301.68 265.48,-301.68 84.48,0 168.94,48.27 193.08,108.61l-458.56 193.07zm-567.17 494.77l229.29 0 0 -1508.42 -229.29 0 0 1508.42zm-362.02 -880.91c-60.33,-60.33 -156.87,-120.68 -277.55,-120.68 -253.42,0 -494.76,229.28 -494.76,518.9 0,289.62 229.28,506.83 494.76,506.83 120.68,0 217.22,-60.33 265.48,-120.67l12.07 0 0 72.41c0,193.07 -108.61,301.68 -277.55,301.68 -132.74,0 -229.28,-96.54 -253.42,-181.01l-193.07 84.48c60.33,132.74 205.14,301.68 458.56,301.68 265.48,0 482.7,-156.87 482.7,-530.96l0 -917.13 -217.22 0 0 84.48zm-265.48 711.97c-156.88,0 -289.62,-132.74 -289.62,-313.75 0,-181.01 132.74,-313.75 289.62,-313.75 156.87,0 277.54,132.74 277.54,313.75 0,181.01 -120.67,313.75 -277.54,313.75zm2944.43 -1339.48l-543.03 0 0 1508.42 229.28 0 0 -567.16 313.75 0c253.42,0 494.77,-181.01 494.77,-470.63 0,-289.61 -241.35,-470.62 -494.77,-470.62zm12.07 724.04l-325.82 0 0 -518.9 325.82 0c168.94,0 265.48,144.8 265.48,253.41 -12.07,132.75 -108.61,265.49 -265.48,265.49zm1387.74 -217.22c-168.94,0 -337.88,72.41 -398.22,229.28l205.14 84.48c48.27,-84.48 120.67,-108.61 205.14,-108.61 120.68,0 229.28,72.41 241.35,193.08l0 12.06c-36.2,-24.13 -132.74,-60.33 -229.28,-60.33 -217.22,0 -434.43,120.68 -434.43,337.88 0,205.14 181.01,337.88 374.09,337.88 156.88,0 229.29,-72.4 289.62,-144.8l12.07 -0.01 0 120.68 217.21 0 0 -579.23c-24.13,-265.48 -229.28,-422.36 -482.7,-422.36zm-24.13 832.65c-72.41,0 -181.01,-36.2 -181.01,-132.74 0,-120.68 132.75,-156.88 241.35,-156.88 96.55,0 144.81,24.13 205.15,48.27 -24.14,144.8 -144.81,241.35 -265.49,241.35l0 0zm1267.07 -796.45l-253.41 651.64 -12.07 0 -265.48 -651.64 -241.35 0 398.22 917.13 -229.28 506.83 229.28 0 615.43 -1423.95 -241.35 0zm-2027.32 965.39l229.29 0 0 -1508.42 -229.29 0 0 1508.42z"/>
  <g id="_2217040447824">
   <path class="fil4" d="M1253.19 913.06c-36.2,36.2 -48.27,96.54 -48.27,168.94l0 2666.88c0,72.41 24.13,132.75 60.33,168.95l12.07 12.06 1496.35 -1496.35 0 -24.13 -1520.48 -1496.36z"/>
   <path class="fil5" d="M3256.36 2940.38l-494.76 -494.77 0 -36.2 494.76 -494.76 12.07 12.07 591.3 337.88c168.94,96.54 168.94,253.41 0,349.95l-603.37 325.82z"/>
   <path class="fil6" d="M3268.44 2928.31l-506.83 -506.83 -1508.42 1508.42c60.33,60.33 144.8,60.33 253.41,12.07l1761.84 -1013.66z"/>
   <path class="fil7" d="M3268.44 1914.65l-1761.84 -1001.59c-108.6,-60.33 -193.07,-48.27 -253.41,12.07l1508.42 1496.35 506.83 -506.83z"/>
   <path class="fil8" d="M3256.36 2916.25l-1749.77 989.52c-96.54,60.33 -181,48.27 -241.35,0l-12.06 12.07 12.06 12.06c60.33,48.27 144.81,60.33 241.35,0l1749.77 -1013.65z"/>
   <path class="fil8" d="M1253.19 3905.77c-36.2,-36.2 -48.27,-96.54 -48.27,-168.94l0 12.06c0,72.41 24.13,132.75 60.33,168.95l0 -12.07 -12.06 0zm2606.55 -1327.42l-603.37 337.89 12.07 12.06 591.3 -337.88c84.48,-48.26 120.67,-108.61 120.67,-168.94 0,60.33 -48.26,108.61 -120.67,156.87z"/>
   <path class="fil9" d="M1506.6 925.12l2353.14 1339.49c72.41,48.26 120.67,96.54 120.67,156.87 0,-60.33 -36.19,-120.67 -120.67,-168.94l-2353.14 -1339.48c-168.94,-96.54 -301.68,-24.13 -301.68,168.94l0 12.07c0,-181.01 132.74,-265.49 301.68,-168.95l0 0z"/>
  </g>
 </g>
</svg>
