<?xml version="1.0" encoding="UTF-8"?>
<!DOCTYPE svg PUBLIC "-//W3C//DTD SVG 1.1//EN" "http://www.w3.org/Graphics/SVG/1.1/DTD/svg11.dtd">
<!-- Creator: CorelDRAW 2017 -->
<svg xmlns="http://www.w3.org/2000/svg" xml:space="preserve" width="163.266mm" height="48.3952mm" version="1.1" style="shape-rendering:geometricPrecision; text-rendering:geometricPrecision; image-rendering:optimizeQuality; fill-rule:evenodd; clip-rule:evenodd"
viewBox="0 0 16354.89 4847.91"
 xmlns:xlink="http://www.w3.org/1999/xlink">
 <defs>
  <style type="text/css">
   <![CDATA[
    .fil0 {fill:#FEFEFE;fill-rule:nonzero}
    .fil1 {fill:#B0ADAC;fill-rule:nonzero}
    .fil2 {fill:#252422;fill-rule:nonzero}
   ]]>
  </style>
   <clipPath id="id0" style="clip-rule:nonzero">
    <path d="M16310.8 4497.29c0,0 0.17,0 0.17,0 0,0 -0.17,0 -0.17,0zm44.09 -3958.3l0 1.29c-16.96,-300.42 -267.57,-540.24 -572.44,-540.24l0.18 0c304.16,0 554.41,238.53 572.26,538.95zm0 3770.05l0 1.29c-4.11,65.76 -19.28,128.93 -43.92,186.95l0 0c24.81,-58.02 39.99,-122.48 43.92,-188.25z"/>
   </clipPath>
   <clipPath id="id1" style="clip-rule:nonzero">
    <path d="M15782.84 4847.91l-4955.29 0 -72.1 -108.08 5027.4 0c256.09,0 464.94,-207.82 464.94,-464.14l0 0 0 -3702.09c0,-257.71 -208.85,-465.53 -464.94,-465.53l-8075.65 0 -72.1 -108.08 8147.76 0c303.33,0 554.45,239.69 571.86,540.35l0 3768.59c-2.49,66.5 -19.89,130.24 -44.76,188.43 0,0 0,0 0,0 0,0 0,0 0,0 -84.54,200.9 -280.96,343.6 -509.7,350.54 -7.46,0 -12.43,0 -17.4,0l0 0z"/>
   </clipPath>
   <clipPath id="id2" style="clip-rule:nonzero">
    <path d="M15783.55 4739.71l-5026.75 0 -3050.13 -4631.34 8076.88 0c255.59,0 462.51,208.4 462.51,464.59l0 3702.16 2.43 0c0,256.19 -209.35,464.59 -464.94,464.59l0 0z"/>
   </clipPath>
 </defs>
 <g id="Слой_x0020_1">
  <metadata id="CorelCorpID_0Corel-Layer"/>
  <path class="fil0" d="M16247.39 4275.32c0,256.52 -207.79,464.28 -464.81,464.28l-15209.33 0c-256.86,0 -465.33,-207.76 -465.33,-464.28l0 -3702.32c0,-256.42 208.46,-464.92 465.33,-464.92l15209.26 0c257.09,0 464.74,208.5 464.74,464.92l0 3702.32 0.14 0z"/>
  <path class="fil1" d="M15782.58 4847.67l-15209.33 0c-316.01,0 -573.25,-256.63 -573.25,-572.35l0 -3702.25c0,-315.9 257.25,-572.88 573.25,-572.88l15209.26 0c304.78,0 555.35,239.49 572.35,540.27l0 3767.6c-16.98,300.52 -267.51,539.6 -572.28,539.6z"/>
  <path class="fil2" d="M16247.39 4275.32c0,256.52 -207.79,464.28 -464.81,464.28l-15209.33 0c-256.86,0 -465.33,-207.76 -465.33,-464.28l0 -3702.32c0,-256.42 208.46,-464.92 465.33,-464.92l15209.26 0c257.09,0 464.74,208.5 464.74,464.92l0 3702.32 0.14 0z"/>
  <path class="fil0" d="M3652.11 2398.43c-3.47,-390.71 319.92,-580.75 334.73,-589.63 -183.2,-267.09 -467.08,-303.53 -566.85,-306.46 -238.43,-25.08 -469.74,142.67 -591.19,142.67 -123.87,0 -310.94,-140.22 -512.52,-136.13 -259.44,4.03 -502.12,154.19 -635.18,387.46 -274.7,475.51 -69.85,1174.38 193.31,1558.73 131.64,188.36 285.47,398.48 486.85,391.03 196.96,-8.06 270.54,-125.49 508.25,-125.49 235.55,0 304.65,125.49 509.97,120.71 211.42,-3.29 344.54,-189.03 471.58,-379.04 152.1,-215.64 213.17,-428.28 215.6,-439.16 -4.88,-1.66 -410.39,-156.52 -414.56,-624.69z"/>
  <path class="fil0" d="M3264.25 1249.49c105.89,-132.52 178.39,-312.75 158.26,-495.7 -153.3,6.82 -345.07,106.08 -455.5,235.68 -97.72,114.18 -184.98,301.33 -162.44,477.4 172.25,12.82 349.1,-86.97 459.68,-217.38z"/>
  <g style="clip-path:url(#id0)">
   <image x="15757.28" y="-18.01" width="629.74" height="4548.83" xlink:href="AppStore_Images\AppStore_ImgID1.png"/>
  </g>
  <g style="clip-path:url(#id1)">
   <image x="7615.19" y="-18.02" width="8771.83" height="4888.08" xlink:href="AppStore_Images\AppStore_ImgID2.png"/>
  </g>
  <g style="clip-path:url(#id2)">
   <image x="7682.33" y="84.48" width="8588.07" height="4683.11" xlink:href="AppStore_Images\AppStore_ImgID3.png"/>
  </g>
  <path class="fil0" d="M6033.7 3146.45l-136.37 -421.17c-14.46,-43.11 -41.53,-144.43 -81.32,-303.96l-4.84 0c-15.98,68.63 -41.56,169.94 -76.61,303.96l-134.04 421.17 433.18 0zm471.6 672.63l-275.32 0 -150.8 -473.85 -524.11 0 -143.69 473.85 -268.01 0 519.38 -1613.22 320.78 0 521.77 1613.22z"/>
  <path class="fil0" d="M7575.19 3232.64c0,-113.16 -25.51,-206.56 -76.65,-280.09 -55.91,-76.44 -130.93,-114.82 -224.97,-114.82 -63.75,0 -121.7,21.35 -173.51,63.43 -51.84,42.41 -85.81,97.79 -101.67,166.45 -7.99,31.99 -12.02,58.13 -12.02,78.74l0 194.02c0,84.53 25.97,155.91 77.81,214.29 51.92,58.24 119.27,87.36 202.21,87.36 97.36,0 173.13,-37.64 227.3,-112.48 54.31,-75.03 81.49,-174.01 81.49,-296.88zm263.28 -9.47c0,197.79 -53.68,354.19 -161.25,469.01 -96.24,102.17 -215.92,153.2 -358.55,153.2 -154.08,0 -264.87,-54.96 -332.18,-165.04l0 610.35 -258.44 0 0 -1252.42c0,-124.32 -3.22,-251.69 -9.58,-382.4l227.3 0 14.46 184.47 4.84 0c86.16,-138.99 216.98,-208.36 392.47,-208.36 137.26,0 251.8,54.21 343.42,162.67 91.57,108.63 137.51,251.39 137.51,428.52z"/>
  <path class="fil0" d="M8912.97 3232.64c0,-113.16 -25.58,-206.56 -76.68,-280.09 -55.91,-76.44 -130.72,-114.82 -224.83,-114.82 -63.78,0 -121.7,21.35 -173.65,63.43 -51.84,42.41 -85.7,97.79 -101.53,166.45 -7.95,31.99 -12.09,58.13 -12.09,78.74l0 194.02c0,84.53 26.02,155.91 77.64,214.29 51.84,58.1 119.3,87.36 202.45,87.36 97.36,0 173.13,-37.64 227.23,-112.48 54.21,-75.03 81.45,-174.01 81.45,-296.88zm263.39 -9.47c0,197.79 -53.75,354.19 -161.25,469.01 -96.34,102.17 -215.92,153.2 -358.66,153.2 -153.97,0 -264.83,-54.96 -332.14,-165.04l0 610.35 -258.44 0 0 -1252.42c0,-124.32 -3.25,-251.69 -9.61,-382.4l227.29 0 14.46 184.47 4.84 0c86.09,-138.99 216.88,-208.36 392.58,-208.36 137.09,0 251.66,54.21 343.49,162.67 91.39,108.63 137.44,251.39 137.44,428.52z"/>
  <path class="fil0" d="M10672.22 3366.65c0,137.33 -47.95,248.97 -143.4,335.12 -104.96,94.11 -251.55,141.21 -439.41,141.21 -173.51,0 -312.75,-33.5 -417.7,-100.5l59.75 -215.42c113.27,67.11 237.8,100.61 373.36,100.61 97.4,0 173.2,-22.02 227.26,-65.8 54.21,-43.93 81.57,-102.52 81.57,-175.81 0,-65.58 -22.59,-120.51 -67.12,-165.25 -44.74,-44.63 -118.74,-86.19 -222.53,-124.43 -282.47,-105.34 -423.82,-259.35 -423.82,-462.02 0,-132.35 49.94,-240.77 149.66,-325.44 99.66,-84.57 231.76,-126.9 396.09,-126.9 146.76,0 269.07,25.58 366.25,76.61l-64.85 210.73c-91.42,-49.52 -194.65,-74.25 -309.96,-74.25 -91.14,0 -162.63,22.44 -213.73,67.07 -43.14,39.83 -64.92,88.49 -64.92,146.13 0,63.68 24.88,116.47 74.36,157.92 42.97,38.24 121.25,79.77 234.41,124.44 138.95,55.98 241.01,121.21 306.38,196.13 65.56,74.92 98.35,168.32 98.35,279.84z"/>
  <path class="fil0" d="M11528.91 2849.82l-284.83 0 0 564.79c0,143.58 50.25,215.31 150.79,215.31 46.22,0 84.57,-3.92 114.85,-11.94l7.1 196.27c-50.89,19.05 -117.85,28.63 -201.01,28.63 -102.03,0 -181.81,-31.13 -239.31,-93.4 -57.32,-62.27 -86.19,-166.7 -86.19,-313.56l0 -586.34 -169.8 0 0 -193.91 169.8 0 0 -213.02 253.77 -76.62 0 289.64 284.83 0 0 194.16z"/>
  <path class="fil0" d="M12543.66 3233.85c0,-106.54 -23.08,-197.97 -69.27,-274.4 -54.2,-92.34 -131.74,-138.53 -232.24,-138.53 -103.58,0 -182.92,46.19 -236.98,138.53 -46.33,76.43 -69.37,169.52 -69.37,279.24 0,106.65 23.04,198.29 69.37,274.51 55.87,92.31 133.86,138.53 234.69,138.53 98.87,0 176.34,-47.14 232.31,-140.89 47.67,-78.14 71.49,-170.23 71.49,-276.99zm268 -5.94c0,178.78 -51.13,325.54 -153.23,440.36 -106.75,118.17 -248.82,177.12 -425.91,177.12 -170.9,0 -306.81,-56.58 -408.13,-169.76 -101.39,-113.3 -152.03,-256.17 -152.03,-428.42 0,-180.29 52.31,-327.91 156.7,-442.73 104.67,-114.95 245.56,-172.38 422.65,-172.38 170.69,0 307.76,56.72 411.48,170.01 99.09,109.98 148.46,251.76 148.46,425.8z"/>
  <path class="fil0" d="M13652.03 2883.18c-25.55,-4.74 -52.94,-7.07 -81.45,-7.07 -90.93,0 -161.26,34.21 -210.69,102.95 -43,60.6 -64.49,137.22 -64.49,229.67l0 610.37 -258.47 0 0 -796.92c0,-134.01 -2.47,-256.17 -7.46,-366.15l225.18 0 9.48 222.57 7.1 0c27.32,-76.47 70.32,-138.17 129.23,-184.33 57.57,-41.55 119.83,-62.27 186.8,-62.27 23.92,0 45.48,1.66 64.66,4.74l0 246.46 0.11 0z"/>
  <path class="fil0" d="M14561.41 3115.42c1.8,-76.68 -15.13,-142.73 -50.18,-198.6 -44.78,-71.98 -113.55,-107.86 -205.85,-107.86 -84.54,0 -153.31,35.06 -205.75,105.38 -43.11,55.84 -68.7,122.94 -76.47,200.98l538.24 0 0 0.1zm246.46 67.05c0,46.25 -3.04,85.34 -9.44,117.18l-775.26 0c2.94,114.96 40.46,202.91 112.41,263.52 65.37,54.1 149.9,81.18 253.59,81.18 114.85,0 219.49,-18.24 313.7,-54.93l40.46 179.38c-110.04,47.92 -240.02,71.81 -389.92,71.81 -180.37,0 -321.98,-53.01 -424.96,-159.1 -102.76,-106.05 -154.36,-248.58 -154.36,-427.25 0,-175.28 47.81,-321.38 143.72,-437.85 100.36,-124.4 236.03,-186.55 406.75,-186.55 167.58,0 294.52,62.16 380.67,186.55 68.32,98.73 102.63,220.86 102.63,366.04z"/>
  <path class="fil0" d="M5263.99 883.88c54.06,-34.11 130.54,-62.31 229.46,-62.31 157.75,0 256.41,80.01 256.41,198.82 0,98.77 -68.13,169.34 -161.15,190.51l0 2.43c104.61,13 188.29,83.57 189.35,193.02 0,171.75 -162.38,235.29 -308.26,235.29 -77.7,0 -159.84,-16.47 -224.72,-54.24l32.87 -111.74c40.01,21.24 116.44,48.23 185.81,48.23 102.42,0 162.45,-49.4 162.45,-125.88 0,-101.1 -102.48,-125.84 -189.34,-125.84l-62.45 0 0 -108.28 62.45 0c91.74,0 162.27,-49.34 162.27,-121.21 0,-64.74 -49.3,-103.51 -130.58,-103.51 -59.97,0 -125.77,24.7 -169.31,48.23l-35.26 -103.54z"/>
  <path class="fil0" d="M6268.29 1348.65c-102.38,-1.16 -200.03,20 -200.03,107.01 0,56.51 36.47,82.45 82.45,82.45 58.8,0 100,-37.72 114.07,-78.78 3.51,-10.53 3.51,-21.28 3.51,-31.76l0 -78.92zm141.1 142.28c0,51.81 2.43,102.34 9.47,137.61l-130.58 0 -10.64 -63.5 -3.57 0c-34.03,44.67 -94.07,76.47 -169.34,76.47 -115.1,0 -179.87,-83.5 -179.87,-170.59 0,-143.48 128.28,-217.58 340.03,-216.44l0 -9.34c0,-37.74 -15.24,-100.04 -116.48,-100.04 -56.51,0 -115.31,17.71 -154.04,42.44l-28.17 -94.03c42.41,-25.87 116.51,-50.58 207.02,-50.58 183.55,0 236.42,116.48 236.42,242.32l0 205.68 -0.25 0z"/>
  <polygon class="fil0" points="7005.56,1055.66 7005.56,1169.73 6771.34,1169.73 6771.34,1628.54 6626.76,1628.54 6626.76,1055.66 "/>
  <path class="fil0" d="M7311.03 1388.66c0,14.02 1.16,27 3.46,40 15.31,58.77 65.84,101.1 128.28,101.1 91.78,0 145.84,-76.4 145.84,-189.35 0,-101.21 -49.37,-183.55 -142.27,-183.55 -60.04,0 -115.32,43.51 -130.59,107.01 -2.43,11.77 -4.73,24.73 -4.73,36.54l0 88.24zm-144.61 -142.46c0,-75.24 -2.4,-136.48 -4.74,-190.55l127.01 0 7.17 88.24 2.4 0c42.44,-64.74 109.34,-101.21 196.42,-101.21 131.78,0 241.19,113.01 241.19,291.75 0,207.05 -130.51,307.06 -261.05,307.06 -71.95,0 -131.89,-30.53 -161.25,-76.47l-2.44 0 0 296.35 -144.6 0 0 -615.18 -0.11 0z"/>
  <path class="fil0" d="M8011.94 1055.66l102.41 307.1c11.73,35.26 24.63,78.77 32.84,110.5l3.5 0c8.16,-31.73 18.83,-75.24 30.6,-111.74l89.33 -305.86 154.19 0 -143.52 390.61c-78.84,214.12 -131.81,309.32 -198.98,368.23 -57.64,49.45 -116.48,68.28 -151.75,72.95l-32.87 -121.22c24.77,-5.79 54.1,-18.76 83.54,-39.97 28.17,-17.74 59.86,-51.77 79.9,-90.64 5.91,-10.64 8.2,-18.84 8.2,-25.9 0,-5.76 -1.17,-13.99 -7.14,-28.2l-210.51 -525.85 160.27 0z"/>
  <path class="fil0" d="M8626.84 1287.45l68.07 0c80.04,0 125.95,-31.81 125.95,-73.01 0,-41.24 -38.7,-68.21 -103.41,-68.21 -48.34,0 -101.1,16.43 -141.1,40l-31.99 -85.84c63.68,-37.71 141.32,-55.27 214.3,-55.27 97.5,0 215.17,37.71 215.17,151.74 0,73.02 -67,115.35 -125.98,128.28l0 3.5c76.47,7 151.78,52.94 151.78,137.55 0,133.01 -149.42,174.25 -267.09,174.25 -74.08,0 -150.55,-17.74 -206.88,-50.54l32.9 -93.01c40.01,22.44 101.07,38.77 158.88,39.97 79.98,0 123.58,-34.14 123.58,-77.67 0,-61.18 -62.55,-80.01 -143.76,-80.01l-70.54 0 0 -91.74 0.11 0z"/>
  <path class="fil0" d="M9319.48 1055.66l0 205.86c0,90.5 -3.57,151.77 -8.3,231.75l4.74 0c30.53,-67.01 46.9,-109.34 77.78,-169.38l139.8 -268.08 175.2 0 0 572.88 -137.54 0 0 -204.64c0,-91.74 3.54,-134.04 9.48,-242.32l-4.7 0c-28.24,68.13 -47.14,109.34 -75.31,164.6 -43.58,84.78 -96.62,188.29 -145.88,282.36l-173.05 0 0 -573.02 137.78 0z"/>
  <polygon class="fil0" points="10353.03,1055.66 10353.03,1167.4 10181.4,1167.4 10181.4,1628.54 10036.79,1628.54 10036.79,1167.4 9864.83,1167.4 9864.83,1055.66 "/>
  <path class="fil0" d="M10863.48 1281.48c1.2,-52.97 -22.55,-140.01 -118.71,-140.01 -89.48,0 -127.29,81.1 -133.19,140.01l251.9 0zm-251.9 101.28c3.43,103.44 83.46,148.18 176.62,148.18 67.01,0 114.01,-10.53 158.96,-25.79l21.14 98.81c-49.48,21.03 -117.67,36.5 -200.06,36.5 -185.84,0 -295.29,-114.11 -295.29,-289.35 0,-158.96 96.66,-308.26 280.09,-308.26 185.88,0 246.95,152.9 246.95,278.75 0,27.07 -2.36,48.27 -4.7,61.17l-383.7 0z"/>
  <path class="fil0" d="M11632.13 1287.45l59.9 0c72.94,0 134.21,-20 134.21,-75.31 0,-45.8 -39.97,-70.53 -124.75,-70.53 -29.36,0 -48.27,2.43 -69.37,4.74l0 141.1zm-1.06 254.05c23.33,2.4 41.17,2.4 69.23,2.4 65.84,0 145.88,-16.43 145.88,-84.71 0,-63.5 -63.36,-84.75 -154.05,-84.75l-61.07 0 0 167.05zm-141.1 -478.81c42.51,-7.03 130.34,-14.06 209.45,-14.06 96.55,0 269.43,12.83 269.43,144.57 0,73.02 -56.4,114.15 -117.71,127.12l0 2.29c85.98,12.97 143.48,59.97 143.48,139.98 0,156.51 -206.91,172.88 -321.06,172.88 -72.91,0 -149.38,-5.87 -183.45,-7.03l0 -565.75 -0.14 0z"/>
 </g>
</svg>
