<svg xmlns="http://www.w3.org/2000/svg" width="179.75" height="45" viewBox="0 0 179.75 45">
  <defs>
    <style>
      .cls-1 {
        fill-rule: evenodd;
      }
    </style>
  </defs>
  <path id="Фигура_29_копия" data-name="Фигура 29 копия" class="cls-1" d="M527.11,7094.66h-4.982l-4.041,6.32h-0.31v-6.32H513.45v16.68h4.327v-6.36l1.7,0.01,3.609,6.35h4.729v-0.67l-5.342-8.65Zm-150.665-.09L369,7110.73v0.61h4.137l4.2-10.04,1.918,4.35h-1.923l-1.5,3.61h4.785l0.979,2.08h4.121v-0.61l-7.458-16.16h-1.812Zm25.713,16.77H406.5v-16.68H404.98l-6.615,7.23-6.5-7.23H390.3v16.68h4.339v-7.41l3.507,3.71h0.476l3.532-3.71v7.41Zm14.886-6.7h5.642v-3.78h-5.642v-2.35h6.144v-3.8H412.825v16.63H423.4v-3.78h-6.353v-2.92Zm18.5-9.93H429.28v16.63h6.261C446.358,7111.29,446.358,7094.76,435.541,7094.71Zm0,12.76h-2.017v-8.89h2.017C440.829,7098.58,440.829,7107.47,435.541,7107.47Zm21.5,0.14h-2.114v-9.19h1.947v-3.71h-8.083v3.71h1.939v9.19h-2.11v3.73h8.421v-3.73Zm21.155,3.12-7.49-16.23h-1.825l-7.471,16.23v0.61h4.152l0.969-2.09h6.547l0.968,2.09h4.15v-0.61Zm-10.287-5.12,1.872-4.37,1.919,4.37H467.91Zm16.031,5.73h4.2v-12.83h4.055v-3.8H479.863v3.8h4.078v12.83Zm24.165-3.78h-6.353v-2.92h5.64v-3.78h-5.64v-2.35h6.141v-3.8h-10.36v16.63h10.572v-3.78Zm33.15-13.07h-1.832l-7.493,16.23v0.62h4.145l0.986-2.09h4.806l-1.507-3.63h-1.93l1.92-4.38,4.225,10.1h4.16v-0.62Zm-24.406,29.73-0.315-.49a0.292,0.292,0,0,0,.288-0.31,0.317,0.317,0,0,0-.393-0.32h-0.423v1.12h0.168v-0.49h0.194l0.293,0.49h0.188Zm-0.675-.63v-0.34H516.4c0.118,0,.243.02,0.243,0.16,0,0.17-.127.18-0.27,0.18h-0.2Zm1.177,0.07a0.976,0.976,0,1,0-.973.97A0.964,0.964,0,0,0,517.352,7123.66Zm-1.757,0a0.782,0.782,0,1,1,.784.8A0.777,0.777,0,0,1,515.6,7123.66Zm-31.81,5.32h-2.927v-6.19h-4.647v16.64h4.647v-6.45h2.927v6.45h4.51v-16.64h-4.51v6.19Zm25.175-6.47a8.37,8.37,0,0,0-7.6,4.81,4.814,4.814,0,0,0-4.425-4.53h-7.7v16.64h7.175a5,5,0,0,0,4.956-4.67A8.463,8.463,0,1,0,508.96,7122.51Zm-13.152,13.04h-2.282v-2.81h2.282A1.425,1.425,0,0,1,495.808,7135.55Zm0.008-6.24h-2.282v-2.81h2.282A1.425,1.425,0,0,1,495.816,7129.31Zm3.038,1.67a3.606,3.606,0,0,0,1.7-1.05,7.711,7.711,0,0,0,.011,2.32A3.156,3.156,0,0,0,498.854,7130.98Zm10.109,4.23a4.235,4.235,0,1,1,4.225-4.23A4.225,4.225,0,0,1,508.963,7135.21Zm0-7.56a3.33,3.33,0,1,0,3.322,3.33A3.325,3.325,0,0,0,508.963,7127.65Zm-101.031,2.79h-6.475v-4.66h-1.033v10.58h1.033v-4.88h6.475v4.88h1.033v-10.58h-1.033v4.66Zm8.8-4.8a5.442,5.442,0,1,0,5.293,5.44A5.233,5.233,0,0,0,416.732,7125.64Zm0,9.84a4.4,4.4,0,1,1,4.2-4.4A4.157,4.157,0,0,1,416.732,7135.48Zm13-4.14-4.187-5.56H424.5v10.58h1.032v-8.85l4.055,5.39h0.15l3.978-5.45v8.91h1.033v-10.58h-1Zm9.381,0.18h4.6v-1.04h-4.6v-3.66h5.048v-1.04h-6.081v10.58h6.231v-1.05h-5.2v-3.79Zm16.833-5.88a5.442,5.442,0,1,0,5.293,5.44A5.232,5.232,0,0,0,455.951,7125.64Zm0,9.84a4.4,4.4,0,1,1,4.2-4.4A4.158,4.158,0,0,1,455.951,7135.48Zm7.768,0.88h1.031v-4.51h4.617v-1.05H464.75v-3.98h5.068v-1.04h-6.1v10.58Z" transform="translate(-369 -7094.5)"/>
</svg>
