<svg xmlns="http://www.w3.org/2000/svg" width="179.625" height="45.38" viewBox="0 0 179.625 45.38">
  <defs>
    <style>
      .cls-1 {
        fill: #fff;
        fill-rule: evenodd;
      }
    </style>
  </defs>
  <path id="Фигура_29" data-name="Фигура 29" class="cls-1" d="M614.013,3797.49h-4.978L605,3803.86h-0.31v-6.37h-4.325v16.81h4.325v-6.41h1.695l3.608,6.41h4.725v-0.67l-5.338-8.72Zm-150.573-.09L456,3813.68v0.62h4.133l4.2-10.12,1.917,4.38h-1.922l-1.5,3.65h4.782l0.979,2.09h4.118v-0.62l-7.454-16.28H463.44Zm25.7,16.9h4.334v-16.81h-1.513l-6.612,7.28-6.494-7.28h-1.562v16.81h4.337v-7.47l3.5,3.74h0.476l3.53-3.74v7.47Zm14.876-6.75h5.639v-3.81h-5.639v-2.37h6.141v-3.83H499.8v16.76h10.566v-3.81h-6.35v-2.94Zm18.487-10.01h-6.258v16.76H522.5C533.311,3814.25,533.311,3797.59,522.5,3797.54Zm0,12.86h-2.016v-8.95H522.5C527.785,3801.45,527.785,3810.4,522.5,3810.4Zm21.488,0.14h-2.114v-9.26h1.947v-3.74h-8.079v3.74h1.938v9.26h-2.108v3.76h8.416v-3.76Zm21.141,3.14-7.485-16.35h-1.824l-7.466,16.35v0.62h4.15l0.968-2.11h6.543l0.967,2.11h4.147v-0.62Zm-10.28-5.15,1.871-4.41,1.918,4.41H554.85Zm16.021,5.77h4.2v-12.92h4.053v-3.84H566.8v3.84h4.075v12.92Zm24.15-3.81h-6.348v-2.94h5.636v-3.81h-5.636v-2.36h6.136v-3.84H584.456v16.76h10.565v-3.81Zm33.13-13.17h-1.83l-7.489,16.36v0.62h4.143l0.984-2.11h4.8l-1.507-3.65h-1.928l1.919-4.41,4.222,10.17h4.158v-0.62Zm-24.391,29.95-0.315-.49a0.292,0.292,0,0,0,.287-0.31,0.316,0.316,0,0,0-.392-0.32h-0.422v1.12h0.168v-0.49h0.193l0.293,0.49h0.188Zm-0.674-.63v-0.35h0.228a0.2,0.2,0,0,1,.243.17c0,0.17-.127.18-0.27,0.18h-0.2Zm1.176,0.07a0.976,0.976,0,1,0-.973.97A0.964,0.964,0,0,0,604.262,3826.71Zm-1.757,0a0.782,0.782,0,1,1,.784.81A0.785,0.785,0,0,1,602.505,3826.71Zm-31.79,5.36H567.79v-6.23h-4.644v16.76h4.644v-6.5h2.925v6.5h4.507v-16.76h-4.507v6.23Zm25.16-6.51a8.333,8.333,0,0,0-7.6,4.84,4.824,4.824,0,0,0-4.421-4.56H576.16v16.75l7.171,0.01a5.025,5.025,0,0,0,4.953-4.71,8.456,8.456,0,0,0,7.591,4.79,8.56,8.56,0,0,0,8.43-8.6A8.422,8.422,0,0,0,595.875,3825.56Zm-13.144,13.13H580.45v-2.83h2.281A1.437,1.437,0,0,1,582.731,3838.69Zm0.008-6.29h-2.281v-2.83h2.281A1.437,1.437,0,0,1,582.739,3832.4Zm3.036,1.68a3.527,3.527,0,0,0,1.7-1.05,7.778,7.778,0,0,0,.011,2.33A3.227,3.227,0,0,0,585.775,3834.08Zm10.1,4.27a4.265,4.265,0,1,1,4.222-4.27A4.245,4.245,0,0,1,595.878,3838.35Zm0-7.62a3.355,3.355,0,1,0,3.32,3.35A3.335,3.335,0,0,0,595.878,3830.73Zm-100.97,2.8h-6.47v-4.69h-1.033v10.67h1.033v-4.92h6.47v4.92h1.033v-10.67h-1.033v4.69Zm8.795-4.83a5.489,5.489,0,1,0,5.29,5.49A5.262,5.262,0,0,0,503.7,3828.7Zm0,9.91a4.431,4.431,0,1,1,4.2-4.42A4.168,4.168,0,0,1,503.7,3838.61Zm13-4.16-4.184-5.61h-1.049v10.67h1.03v-8.92l4.053,5.42h0.15l3.976-5.48v8.98h1.032v-10.67h-1Zm9.376,0.18h4.6v-1.05h-4.6v-3.68h5.045v-1.06h-6.078v10.67h6.228v-1.06h-5.195v-3.82Zm16.822-5.93a5.489,5.489,0,1,0,5.29,5.49A5.261,5.261,0,0,0,542.9,3828.7Zm0,9.91a4.431,4.431,0,1,1,4.2-4.42A4.168,4.168,0,0,1,542.9,3838.61Zm7.763,0.9h1.031v-4.55h4.614v-1.06h-4.614v-4h5.065v-1.06h-6.1v10.67Z" transform="translate(-456 -3797.31)"/>
</svg>
