<?xml version="1.0" encoding="UTF-8"?>
<!DOCTYPE svg PUBLIC "-//W3C//DTD SVG 1.1//EN" "http://www.w3.org/Graphics/SVG/1.1/DTD/svg11.dtd">
<!-- Creator: CorelDRAW 2018 (64-Bit) -->
<svg xmlns="http://www.w3.org/2000/svg" xml:space="preserve" width="896px" height="425px" version="1.1" style="shape-rendering:geometricPrecision; text-rendering:geometricPrecision; image-rendering:optimizeQuality; fill-rule:evenodd; clip-rule:evenodd"
viewBox="0 0 89600 42508"
 xmlns:xlink="http://www.w3.org/1999/xlink">
 <defs>
  <style type="text/css">
   <![CDATA[
    .fil1 {fill:#05DBF3}
    .fil2 {fill:#525ABF}
    .fil0 {fill:#F25CBF}
    .fil4 {fill:#FEFEFE}
    .fil3 {fill:#FFED00}
    .fil5 {fill:#FEFEFE;fill-rule:nonzero}
   ]]>
  </style>
 </defs>
 <g id="Слой_x0020_1">
  <metadata id="CorelCorpID_0Corel-Layer"/>
  <polygon class="fil0" points="36071,42316 89559,42316 89559,36976 36071,36976 "/>
  <polygon class="fil1" points="205,31636 10886,31636 10886,1614 205,1614 "/>
  <polygon class="fil1" points="71219,12312 81899,12312 81899,31636 71219,31636 "/>
  <path class="fil0" d="M45192 343c8992,0 16282,7290 16282,16282 0,8992 -7290,16282 -16282,16282 -8992,0 -16282,-7290 -16282,-16282 0,-8992 7290,-16282 16282,-16282z"/>
  <polygon class="fil2" points="63559,12312 89559,12312 89559,1614 63559,1614 "/>
  <polygon class="fil3" points="205,16625 13205,8658 26205,690 26205,32559 13205,24592 "/>
  <polygon class="fil4" points="49734,21664 52330,17428 54926,13193 44542,13193 47138,17428 "/>
  <polygon class="fil4" points="38800,13193 41813,13193 41813,21664 38800,21664 "/>
  <polygon class="fil4" points="36071,16212 44542,16212 44542,13193 36071,13193 "/>
  <path class="fil5" d="M38696 38598l406 0 0 791 700 0 0 -791 403 0 0 2096 -403 0 0 -920 -700 0 0 920 -406 0 0 -2096zm2629 0l402 0 806 2096 -415 0 -164 -432 -859 0 -167 432 -415 0 812 -2096zm201 557l-284 722 567 0 -283 -722zm3243 -189l-279 266c-191,-201 -404,-301 -642,-301 -201,0 -370,68 -507,205 -138,137 -206,305 -206,506 0,139 31,263 91,371 61,109 147,194 258,256 111,61 235,92 371,92 116,0 222,-21 318,-65 96,-43 201,-122 317,-235l270 282c-154,152 -300,257 -438,315 -138,59 -295,88 -472,88 -326,0 -593,-103 -801,-310 -208,-206 -311,-471 -311,-793 0,-210 47,-395 142,-557 94,-163 229,-293 406,-392 176,-99 366,-148 570,-148 172,0 338,36 499,109 160,73 298,177 414,311zm2693 -368l0 2096 -397 0 0 -1312 -789 1312 -343 0 0 -2096 396 0 0 1355 802 -1355 331 0zm1396 1551c105,147 229,221 372,221 94,0 170,-27 229,-80 58,-54 87,-125 87,-213 0,-88 -28,-160 -86,-216 -57,-58 -174,-87 -353,-87l-86 0 0 -356 86 0c105,0 185,-24 240,-72 55,-49 82,-113 82,-195 0,-75 -23,-134 -69,-178 -45,-43 -105,-65 -180,-65 -90,0 -182,44 -275,132l-235 -262c126,-114 231,-182 316,-205 84,-22 163,-33 234,-33 171,0 315,49 431,149 117,100 175,234 175,403 0,75 -13,148 -40,219 -26,72 -99,147 -219,227 246,110 370,296 370,561 0,194 -65,351 -196,470 -131,118 -299,177 -505,177 -129,0 -246,-23 -348,-70 -103,-47 -214,-148 -335,-305l305 -222zm2139 -1551l403 0 678 1722 232 0 0 686 -385 0 0 -312 -1448 0 0 312 -385 0 0 -686 233 0 672 -1722zm205 551l-460 1171 921 0 -461 -1171zm1368 -551l1144 0 0 391 -747 0 0 377 747 0 0 385 -747 0 0 552 747 0 0 391 -1144 0 0 -2096zm3441 368l-280 266c-190,-201 -403,-301 -641,-301 -201,0 -370,68 -507,205 -138,137 -206,305 -206,506 0,139 30,263 91,371 61,109 147,194 258,256 111,61 235,92 371,92 116,0 222,-21 318,-65 96,-43 202,-122 316,-235l271 282c-155,152 -301,257 -438,315 -138,59 -295,88 -472,88 -326,0 -593,-103 -801,-310 -208,-206 -311,-471 -311,-793 0,-210 47,-395 142,-557 94,-163 229,-293 406,-392 176,-99 366,-148 569,-148 173,0 340,36 500,109 160,73 298,177 414,311zm347 1728l0 -2096 397 0 0 791 87 0c167,0 306,20 417,58 111,38 207,112 288,219 81,108 122,238 122,390 0,143 -35,265 -105,364 -69,100 -150,171 -242,212 -91,41 -217,62 -376,62l-588 0zm397 -949l0 569 101 0c166,0 278,-20 334,-61 56,-41 84,-111 84,-210 0,-199 -145,-298 -436,-298l-83 0zm2077 -1147l406 0 0 791 700 0 0 -791 403 0 0 2096 -403 0 0 -920 -700 0 0 920 -406 0 0 -2096zm1991 0l1144 0 0 391 -747 0 0 377 747 0 0 385 -747 0 0 552 747 0 0 391 -1144 0 0 -2096zm1512 0l1509 0 0 2096 -403 0 0 -1722 -700 0 0 1722 -406 0 0 -2096zm3346 2096l-582 -1536 -589 1536 -424 0 810 -2096 405 0 806 2096 -426 0zm1655 -2148c297,0 551,107 765,322 213,214 320,476 320,784 0,306 -106,565 -316,777 -210,211 -466,317 -766,317 -314,0 -576,-109 -784,-326 -208,-217 -312,-476 -312,-775 0,-200 49,-384 146,-553 96,-167 230,-301 399,-399 170,-98 352,-147 548,-147zm-6 391c-193,0 -355,67 -487,202 -131,135 -197,306 -197,514 0,232 83,415 249,550 128,106 276,158 443,158 188,0 348,-68 481,-205 132,-137 199,-305 199,-506 0,-199 -67,-368 -201,-506 -133,-138 -296,-207 -487,-207zm1330 -339l453 0 440 673 442 -673 453 0 -668 1019 705 1077 -453 0 -479 -732 -480 732 -453 0 707 -1077 -667 -1019zm3113 -52c296,0 551,107 764,322 213,214 320,476 320,784 0,306 -105,565 -316,777 -210,211 -465,317 -766,317 -314,0 -576,-109 -783,-326 -208,-217 -312,-476 -312,-775 0,-200 48,-384 145,-553 97,-167 230,-301 400,-399 169,-98 352,-147 548,-147zm-6 391c-193,0 -356,67 -487,202 -132,135 -198,306 -198,514 0,232 83,415 249,550 129,106 276,158 443,158 188,0 349,-68 481,-205 133,-137 199,-305 199,-506 0,-199 -66,-368 -200,-506 -133,-138 -296,-207 -487,-207zm4212 29l-280 266c-190,-201 -403,-301 -641,-301 -201,0 -370,68 -507,205 -138,137 -206,305 -206,506 0,139 30,263 91,371 61,109 147,194 258,256 111,61 235,92 371,92 116,0 222,-21 318,-65 96,-43 202,-122 316,-235l271 282c-155,152 -301,257 -438,315 -138,59 -296,88 -472,88 -326,0 -593,-103 -801,-310 -208,-206 -312,-471 -312,-793 0,-210 48,-395 143,-557 94,-163 229,-293 406,-392 176,-99 365,-148 569,-148 173,0 340,36 500,109 160,73 298,177 414,311zm551 -368l386 0 488 1462 491 -1462 385 0 352 2096 -385 0 -224 -1324 -444 1324 -352 0 -441 -1324 -228 1324 -390 0 362 -2096zm3413 -52c296,0 551,107 764,322 214,214 320,476 320,784 0,306 -105,565 -316,777 -209,211 -465,317 -765,317 -315,0 -576,-109 -784,-326 -208,-217 -312,-476 -312,-775 0,-200 48,-384 146,-553 96,-167 230,-301 399,-399 170,-98 352,-147 548,-147zm-6 391c-193,0 -356,67 -487,202 -132,135 -197,306 -197,514 0,232 83,415 248,550 129,106 276,158 443,158 189,0 349,-68 482,-205 132,-137 199,-305 199,-506 0,-199 -67,-368 -201,-506 -133,-138 -296,-207 -487,-207zm1265 -339l1159 0 0 394 -382 0 0 1702 -406 0 0 -1702 -371 0 0 -394zm1427 0l424 0c229,0 394,21 495,64 101,42 182,110 240,205 58,94 88,208 88,340 0,146 -39,268 -116,365 -76,96 -180,164 -312,202 -77,22 -218,32 -422,32l0 888 -397 0 0 -2096zm397 820l128 0c101,0 170,-7 210,-21 39,-15 70,-38 93,-71 22,-33 33,-73 33,-120 0,-81 -32,-141 -94,-178 -46,-27 -132,-42 -256,-42l-114 0 0 432zm2475 -820l0 2096 -397 0 0 -846 -99 0 -424 846 -435 0 475 -912c-275,-79 -413,-261 -413,-549 0,-102 15,-191 44,-266 29,-76 69,-140 124,-193 53,-53 115,-92 186,-117 70,-25 126,-39 168,-43 42,-4 158,-9 349,-16l422 0zm-397 864l0 -473 -109 0c-100,0 -172,6 -216,18 -43,12 -79,38 -106,77 -28,40 -41,88 -41,146 0,86 27,147 82,181 55,34 143,51 265,51l125 0zm671 -864l1159 0 0 394 -382 0 0 1702 -406 0 0 -1702 -371 0 0 -394z"/>
 </g>
</svg>
