<?xml version="1.0" encoding="UTF-8"?>
<!DOCTYPE svg PUBLIC "-//W3C//DTD SVG 1.1//EN" "http://www.w3.org/Graphics/SVG/1.1/DTD/svg11.dtd">
<!-- Creator: CorelDRAW 2017 -->
<svg xmlns="http://www.w3.org/2000/svg" xml:space="preserve" width="77.1906mm" height="8.4315mm" version="1.1" style="shape-rendering:geometricPrecision; text-rendering:geometricPrecision; image-rendering:optimizeQuality; fill-rule:evenodd; clip-rule:evenodd"
viewBox="0 0 3825.37 417.84"
 xmlns:xlink="http://www.w3.org/1999/xlink">
 <defs>
  <style type="text/css">
   <![CDATA[
    .fil0 {fill:black;fill-rule:nonzero}
   ]]>
  </style>
 </defs>
 <g id="__x0023_Layer_x0020_1">
  <metadata id="CorelCorpID_0Corel-Layer"/>
  <g id="_2240387690448">
   <polygon class="fil0" points="401.78,409.81 309.94,409.81 309.94,176.2 206.06,346.67 195.72,346.67 91.84,176.2 91.84,409.81 -0,409.81 -0,8.03 91.84,8.03 200.89,186.53 309.94,8.03 401.78,8.03 "/>
   <polygon class="fil0" points="1037.02,321.42 1037.02,409.81 740.65,409.81 740.65,8.03 1037.02,8.03 1037.02,96.42 832.49,96.42 832.49,163 1037.02,163 1037.02,250.25 832.49,250.25 832.49,321.42 "/>
   <path class="fil0" d="M1725.51 220.4c0,122.82 -85.52,197.44 -198.02,197.44 -126.27,0 -216.96,-92.98 -216.96,-208.35 0,-116.51 92.41,-209.49 210.65,-209.49 76.91,0 141.77,37.88 175.63,91.83l-78.06 44.77c-16.65,-26.4 -52.81,-47.06 -98.15,-47.06 -67.73,0 -118.23,49.93 -118.23,120.53 0,68.3 48.21,118.23 126.27,118.23 53.38,0 88.39,-23.53 102.74,-61.99l-107.33 0 0 -80.36 201.46 0 0 34.44z"/>
   <path class="fil0" d="M2003.39 208.92c0,-118.24 93.56,-208.92 208.92,-208.92 115.37,0 208.93,90.68 208.93,208.92 0,118.23 -93.56,208.92 -208.93,208.92 -115.36,0 -208.92,-90.69 -208.92,-208.92zm326.01 0l0 0c0,-71.75 -51.65,-119.38 -117.09,-119.38 -65.43,0 -117.08,47.63 -117.08,119.38 0,71.74 51.65,119.38 117.08,119.38 65.44,0 117.09,-47.64 117.09,-119.38z"/>
   <path class="fil0" d="M3108.92 220.4c0,122.82 -85.52,197.44 -198.02,197.44 -126.27,0 -216.96,-92.98 -216.96,-208.35 0,-116.51 92.41,-209.49 210.64,-209.49 76.91,0 141.77,37.88 175.63,91.83l-78.06 44.77c-16.64,-26.4 -52.8,-47.06 -98.14,-47.06 -67.73,0 -118.24,49.93 -118.24,120.53 0,68.3 48.21,118.23 126.27,118.23 53.38,0 88.39,-23.53 102.74,-61.99l-107.33 0 0 -80.36 201.46 0 0 34.44z"/>
   <path class="fil0" d="M3407.53 208.92c0,-118.24 93.55,-208.92 208.92,-208.92 115.36,0 208.92,90.68 208.92,208.92 0,118.23 -93.55,208.92 -208.92,208.92 -115.37,0 -208.92,-90.69 -208.92,-208.92zm326.01 0l0 0c0,-71.75 -51.66,-119.38 -117.09,-119.38 -65.43,0 -117.09,47.63 -117.09,119.38 0,71.74 51.66,119.38 117.09,119.38 65.43,0 117.09,-47.64 117.09,-119.38z"/>
  </g>
 </g>
</svg>
